<?xml version="1.0" encoding="UTF-8"?>
<svg version="1.1" xmlns="http://www.w3.org/2000/svg" width="612" height="612">
<path d="M0 0 C2.39299125 0.43269081 4.78900064 0.84896474 7.1875 1.25 C32.96826082 5.95014107 59.04631908 15.37222091 82 28 C83.48812109 28.79977724 84.97641089 29.59924063 86.46484375 30.3984375 C99.94306335 37.70220601 112.7704317 45.73517553 125 55 C125.53592773 55.40444336 126.07185547 55.80888672 126.62402344 56.22558594 C139.94140684 66.32187946 151.88116328 77.65668881 163.578125 89.56982422 C164.98762259 90.98755033 166.43130526 92.37101931 167.875 93.75390625 C170 96 170 96 170 98 C170.66 98 171.32 98 172 98 C173.26953125 99.37109375 173.26953125 99.37109375 174.8125 101.4375 C175.42738281 102.25347656 176.04226563 103.06945312 176.67578125 103.91015625 C177.44277344 104.92980469 178.20976563 105.94945313 179 107 C180.03329767 108.33347353 181.06860334 109.6653925 182.10546875 110.99609375 C188.14913555 118.77494021 193.91159625 126.55226174 199 135 C199.65484375 136.04671875 200.3096875 137.0934375 200.984375 138.171875 C207.54705654 148.68203416 213.3625567 159.40478519 218.5 170.6875 C219.21446289 172.25189819 219.21446289 172.25189819 219.94335938 173.84790039 C223.67750062 182.110261 227.0446205 190.42750499 230 199 C230.23082275 199.6587915 230.46164551 200.31758301 230.69946289 200.99633789 C252.77205217 265.25306622 251.74417483 338.59798439 227.69824219 402.14794922 C227.03527732 403.90642877 226.39586019 405.67373324 225.7578125 407.44140625 C222.99409342 414.94680021 219.62504952 422.01810046 215.95898438 429.12158203 C214.9480007 431.10185403 213.96346005 433.09361901 212.984375 435.08984375 C207.98960614 445.26185512 202.63274323 454.88088776 196.03125 464.1171875 C194.4981767 466.29297229 193.00458956 468.47967113 191.53125 470.6953125 C185.66438719 479.47576812 179.39623428 487.60943051 172.35644531 495.48046875 C171.16055657 496.82013966 169.98128452 498.17460433 168.8046875 499.53125 C164.0140489 504.99585677 158.93707364 510.16350148 153.8125 515.3125 C153.13477539 515.99489746 152.45705078 516.67729492 151.75878906 517.38037109 C141.10516479 528 141.10516479 528 138 528 C138 528.66 138 529.32 138 530 C136.09716151 531.62754707 134.19366404 533.1341063 132.1875 534.625 C131.60162109 535.067229 131.01574219 535.50945801 130.41210938 535.96508789 C128.61380991 537.31794372 126.80818838 538.66039854 125 540 C123.96488281 540.76957031 122.92976563 541.53914062 121.86328125 542.33203125 C110.07548701 551 110.07548701 551 107 551 C107 551.66 107 552.32 107 553 C105.71086513 553.67154933 104.41859796 554.33708859 103.125 555 C102.40570313 555.37125 101.68640625 555.7425 100.9453125 556.125 C99 557 99 557 97 557 C97 557.66 97 558.32 97 559 C72.85979281 572.05202692 48.50202839 582.65975498 22 590 C21.32195312 590.19045898 20.64390625 590.38091797 19.9453125 590.57714844 C-28.52805664 604.03386186 -86.84266105 605.4684572 -135 590 C-137.22790994 589.3705349 -139.45695246 588.7450538 -141.6875 588.125 C-152.66048862 584.99668333 -163.49343186 581.46831059 -174 577 C-174.59425781 576.74992188 -175.18851563 576.49984375 -175.80078125 576.2421875 C-184.46719204 572.58417585 -192.84098953 568.70197703 -201 564 C-202.48025072 563.16497797 -203.96074093 562.3303804 -205.44140625 561.49609375 C-224.61976914 550.62085196 -241.88706337 537.79705982 -258.47851562 523.32617188 C-259.80971056 522.16586204 -261.14657867 521.01206744 -262.484375 519.859375 C-272.64084507 511.07746479 -272.64084507 511.07746479 -274 507 C-274.66 507 -275.32 507 -276 507 C-276 506.34 -276 505.68 -276 505 C-276.66 505 -277.32 505 -278 505 C-279.39599396 503.47162731 -280.71587649 501.87349901 -282 500.25 C-283.20076172 498.74759766 -283.20076172 498.74759766 -284.42578125 497.21484375 C-284.84682129 496.68616699 -285.26786133 496.15749023 -285.70166016 495.61279297 C-287.40574964 493.49597929 -289.15239465 491.41689977 -290.90283203 489.33837891 C-303 474.96983086 -303 474.96983086 -303 472 C-303.66 472 -304.32 472 -305 472 C-331.24056888 438.45292542 -347.34309217 392.26477275 -355 351 C-355.18433594 350.08734375 -355.36867188 349.1746875 -355.55859375 348.234375 C-364.42590201 301.21701959 -360.18398564 248.07391595 -344.71142578 203.08447266 C-344.00159068 201.00466068 -343.32266726 198.91706838 -342.65234375 196.82421875 C-340.46280419 190.01958692 -338.07837452 183.45086125 -335 177 C-334.38177171 175.66454382 -333.76470099 174.32855149 -333.1484375 172.9921875 C-329.68034719 165.50342175 -326.12031084 158.15495247 -322 151 C-320.89155128 148.98151224 -319.78751153 146.96059813 -318.6875 144.9375 C-317.91986328 143.52791016 -317.91986328 143.52791016 -317.13671875 142.08984375 C-316.76160156 141.40019531 -316.38648438 140.71054688 -316 140 C-315.34 140 -314.68 140 -314 140 C-313.89300781 139.43796875 -313.78601563 138.8759375 -313.67578125 138.296875 C-309.39225718 123.7378452 -294.40188847 109.18718906 -284.59375 97.98828125 C-282.93305512 96.07498067 -281.32254093 94.11620216 -279.78125 92.10546875 C-279.1934375 91.41066406 -278.605625 90.71585937 -278 90 C-277.34 90 -276.68 90 -276 90 C-275.773125 89.443125 -275.54625 88.88625 -275.3125 88.3125 C-272.59845869 83.53061769 -268.22998281 80.38398625 -264 77 C-263.278125 76.278125 -262.55625 75.55625 -261.8125 74.8125 C-250.90527672 63.90527672 -238.73494814 54.660618 -226 46 C-225.24074219 45.47664063 -224.48148438 44.95328125 -223.69921875 44.4140625 C-219.38959984 41.48143754 -215.01523596 38.82169608 -210.42675781 36.34912109 C-208.05148031 35.02861974 -205.75342573 33.62155486 -203.4453125 32.1875 C-197.9165829 28.859774 -192.19285222 26.14410276 -186.3125 23.5 C-185.25522705 23.02151611 -184.1979541 22.54303223 -183.10864258 22.05004883 C-169.00766207 15.70810994 -154.81464106 10.41238538 -140 6 C-138.8140625 5.64035156 -137.628125 5.28070313 -136.40625 4.91015625 C-94.98952609 -6.91640826 -42.20697544 -11.48176698 0 0 Z " fill="#F7F7F7" transform="translate(361,10)"/>
<path d="M0 0 C0.77730469 0.73476562 1.55460937 1.46953125 2.35546875 2.2265625 C3.16371094 2.98195312 3.97195313 3.73734375 4.8046875 4.515625 C32.06749189 30.79405812 49.09671002 65.63379273 57.35546875 102.2265625 C57.60538574 103.31155029 57.60538574 103.31155029 57.86035156 104.41845703 C68.35570379 152.38634533 56.15003768 204.37574837 30.27612305 245.3581543 C22.7701385 256.93088839 13.83968272 267.24791084 4.35546875 277.2265625 C3.48728516 278.17402344 3.48728516 278.17402344 2.6015625 279.140625 C-30.62095415 314.27822406 -80.04203001 330.92665035 -127.19921875 333.4140625 C-170.53112947 334.229722 -212.95972856 319.93412214 -247.64453125 294.2265625 C-248.55847656 293.55753906 -249.47242188 292.88851563 -250.4140625 292.19921875 C-290.86107256 260.82327393 -315.61571139 214.52594211 -322.64453125 164.2265625 C-326.65429605 125.76734346 -319.94985968 89.04152683 -303.58203125 54.1015625 C-303.18274414 53.24844482 -302.78345703 52.39532715 -302.37207031 51.51635742 C-299.58034805 45.73585683 -296.30148978 40.49443599 -292.64453125 35.2265625 C-291.9175 34.12570313 -291.19046875 33.02484375 -290.44140625 31.890625 C-286.03955808 25.35505653 -281.38864768 19.46359883 -275.97265625 13.70703125 C-273.99276995 11.59758863 -272.12366524 9.44522283 -270.26953125 7.2265625 C-259.3227162 -5.30971984 -245.76134894 -15.12322132 -231.64453125 -23.7734375 C-230.85820312 -24.27488281 -230.071875 -24.77632812 -229.26171875 -25.29296875 C-222.04584185 -29.80586866 -214.42357972 -33.36139163 -206.64453125 -36.7734375 C-205.64035156 -37.216875 -204.63617188 -37.6603125 -203.6015625 -38.1171875 C-134.63925596 -66.54022533 -54.25207085 -50.09245041 0 0 Z " fill="#FEFEFE" transform="translate(435.64453125,166.7734375)"/>
<path d="M0 0 C2.30842319 0.60658996 2.30842319 0.60658996 4.4375 0.9375 C8.34877738 1.7303265 11.40498994 3.11018879 14.8984375 4.99609375 C17.24641729 6.11771235 19.5557942 6.80705867 22.0625 7.5 C26.57454781 8.77138866 30.01296621 10.54644075 34 13 C35.99270131 14.01446612 37.99029266 15.01965496 40 16 C40 16.66 40 17.32 40 18 C41.175625 18.2165625 41.175625 18.2165625 42.375 18.4375 C45 19 45 19 47 20 C47 20.66 47 21.32 47 22 C47.88558594 22.2578125 48.77117187 22.515625 49.68359375 22.78125 C53.00708081 24.00260214 55.24845581 25.37750608 58.0625 27.5 C59.47982422 28.56541016 59.47982422 28.56541016 60.92578125 29.65234375 C61.94027344 30.42707031 62.95476562 31.20179688 64 32 C65.11792194 32.83539557 66.23642485 33.67001418 67.35546875 34.50390625 C72.68331826 38.5028536 77.81414012 42.52011494 82.40625 47.37109375 C84.12076788 49.12343188 85.93499252 50.67423479 87.8125 52.25 C101.03066044 63.67846754 112.64067688 78.58052729 120.87890625 93.9765625 C122.08845171 96.23211673 122.08845171 96.23211673 124.125 99.125 C125.82198671 101.72704628 126.98401464 104.26437124 128.17919922 107.11816406 C129.47541138 110.08996755 131.0021036 112.93824704 132.5 115.8125 C135.74202742 122.16320449 139 128.74609542 139 136 C139.66 136 140.32 136 141 136 C141.21934204 136.94637329 141.21934204 136.94637329 141.44311523 137.91186523 C142.10417974 140.75462617 142.77076362 143.59606425 143.4375 146.4375 C143.78264648 147.92733398 143.78264648 147.92733398 144.13476562 149.44726562 C144.35712891 150.39150391 144.57949219 151.33574219 144.80859375 152.30859375 C145.01282959 153.18314209 145.21706543 154.05769043 145.42749023 154.95874023 C145.81380362 156.97709773 145.81380362 156.97709773 147 158 C155.40929725 194.6780319 154.49836913 240.02455283 140 275 C139.34 275 138.68 275 138 275 C137.814375 276.19625 137.62875 277.3925 137.4375 278.625 C136.32162554 283.70222879 134.14653473 288.01060303 131.75537109 292.60253906 C128.81560158 298.2610197 126.35500593 304.07450122 124 310 C123.34 310 122.68 310 122 310 C121.81824219 310.61488281 121.63648438 311.22976563 121.44921875 311.86328125 C121.19785156 312.67152344 120.94648438 313.47976563 120.6875 314.3125 C120.44386719 315.11300781 120.20023437 315.91351563 119.94921875 316.73828125 C118.93019897 319.16631604 117.87177828 320.1927658 116 322 C114.39070352 324.60026277 112.90089186 327.2526122 111.40234375 329.91796875 C110.70818359 330.94857422 110.70818359 330.94857422 110 332 C109.34 332 108.68 332 108 332 C107.77699219 332.52980469 107.55398438 333.05960937 107.32421875 333.60546875 C105.53657734 336.83798847 103.21639736 339.53020778 100.8125 342.3125 C100.28857666 342.91989014 99.76465332 343.52728027 99.22485352 344.15307617 C86.89873623 358.24495795 73.47079105 370.48591611 57.9453125 380.95703125 C54.99716162 382.94962943 54.99716162 382.94962943 52.33984375 385.14453125 C50.37449744 386.70302791 48.68758777 387.81791179 46.4375 388.875 C45.74914062 389.205 45.06078125 389.535 44.3515625 389.875 C43.57554687 390.24625 42.79953125 390.6175 42 391 C40.1032538 391.9565253 38.20749198 392.91500406 36.3125 393.875 C29.93748147 397.05849982 23.50055912 400.0818658 17 403 C16.02289063 403.44472656 15.04578125 403.88945312 14.0390625 404.34765625 C7.37616666 407.26825536 0.70472431 409.25887878 -6.34765625 411.02734375 C-9.63298303 411.90225965 -12.74952653 412.95276009 -15.9375 414.125 C-30.23819549 418.91860615 -45.60544073 418.31625938 -60.50219727 418.26074219 C-63.95541633 418.24994398 -67.408124 418.26073381 -70.86132812 418.2734375 C-73.08333447 418.27211703 -75.30534049 418.26955696 -77.52734375 418.265625 C-78.54626205 418.26967346 -79.56518036 418.27372192 -80.61497498 418.27789307 C-86.68762623 418.23837356 -92.13722408 417.55849589 -98 416 C-99.143479 415.72873291 -100.28695801 415.45746582 -101.46508789 415.17797852 C-104.99881577 414.3111651 -108.53101285 413.43839808 -112.0625 412.5625 C-113.29033203 412.26279297 -114.51816406 411.96308594 -115.78320312 411.65429688 C-122.04536133 410.09971694 -127.99765183 408.35386203 -134 406 C-136.43465826 405.30250331 -138.87225768 404.61520193 -141.3125 403.9375 C-148.07523605 401.9407738 -154.20790325 399.10068617 -160.4375 395.8125 C-161.2725708 395.37220459 -162.1076416 394.93190918 -162.96801758 394.47827148 C-168.86126897 391.27746205 -168.86126897 391.27746205 -170 389 C-171.45144288 388.21710051 -172.93763631 387.49808512 -174.4375 386.8125 C-184.42084643 381.95573687 -194.15292759 374.90496422 -201.97265625 367.0078125 C-204.19996556 364.80196089 -206.57602999 362.97038052 -209.0625 361.0625 C-215.61438913 355.73909008 -220.77224205 349.59602011 -226 343 C-226.42667969 342.46858398 -226.85335937 341.93716797 -227.29296875 341.38964844 C-236.66867749 329.68443668 -245.16394639 317.36828261 -252 304 C-252.35449219 303.3296875 -252.70898438 302.659375 -253.07421875 301.96875 C-261 286.68107708 -261 286.68107708 -261 282 C-261.66 282 -262.32 282 -263 282 C-263.32613281 280.80503906 -263.65226562 279.61007812 -263.98828125 278.37890625 C-264.42956007 276.77340247 -264.87097355 275.1679357 -265.3125 273.5625 C-265.52583984 272.77939453 -265.73917969 271.99628906 -265.95898438 271.18945312 C-267.04300639 267.2578509 -268.19288399 263.38285866 -269.53515625 259.53125 C-271.15952527 254.74085333 -272.17580516 249.8998906 -273.125 244.9375 C-273.29386719 244.09123047 -273.46273437 243.24496094 -273.63671875 242.37304688 C-275.34106205 233.67016004 -276.15747665 225.32487682 -276.16796875 216.46484375 C-276.17129715 215.46852432 -276.17462555 214.4722049 -276.17805481 213.44569397 C-276.18309664 211.34376483 -276.18546399 209.24182776 -276.18530273 207.13989258 C-276.18747676 203.97137768 -276.20562775 200.80321852 -276.22460938 197.63476562 C-276.26473896 183.53160673 -275.60660392 170.07484808 -271.9375 156.375 C-270.84775495 152.2671878 -269.77699511 148.18135513 -269 144 C-268.34 144 -267.68 144 -267 144 C-266.91363281 143.41734375 -266.82726562 142.8346875 -266.73828125 142.234375 C-265.6785199 136.05081337 -263.78480651 130.675895 -261.21875 124.95703125 C-259.91884396 121.97788411 -259.91884396 121.97788411 -259.0859375 118.640625 C-257.84032331 114.46468101 -256.10463396 110.8047775 -254.125 106.9375 C-253.78597656 106.25623047 -253.44695312 105.57496094 -253.09765625 104.87304688 C-250.99279127 100.70733501 -248.79361368 96.74624763 -246 93 C-245.34 93 -244.68 93 -244 93 C-243.90332031 92.27941406 -243.80664062 91.55882812 -243.70703125 90.81640625 C-242.89658495 87.58805385 -241.63012173 85.62888385 -239.6875 82.9375 C-239.09324219 82.10089844 -238.49898437 81.26429688 -237.88671875 80.40234375 C-236 78 -236 78 -233.95703125 76.00390625 C-231.82830417 73.8241917 -230.56027729 71.61317835 -229 69 C-227.22084094 66.66472141 -225.3364537 64.42581993 -223.4375 62.1875 C-222.94314453 61.59001953 -222.44878906 60.99253906 -221.93945312 60.37695312 C-220.67291249 58.87732788 -219.34104562 57.43338679 -218 56 C-217.34 56 -216.68 56 -216 56 C-215.7421875 55.40574219 -215.484375 54.81148437 -215.21875 54.19921875 C-213.89303053 51.80697497 -212.59621136 50.55218361 -210.5 48.8125 C-206.28865348 45.26326646 -202.23958736 41.56256914 -198.19921875 37.8203125 C-196 36 -196 36 -193 35 C-191.65010546 33.68343619 -190.31854725 32.34795723 -189 31 C-182.67513032 26.13983698 -175.89016929 21.99823908 -169 18 C-167.84626901 17.31785235 -166.69262848 16.63555167 -165.5390625 15.953125 C-159.50146518 12.40982777 -153.65159604 9.25477832 -147 7 C-145.5792061 6.34217512 -144.16276178 5.67490224 -142.75 5 C-136.22244646 2.04841057 -129.17915989 0 -122 0 C-122 -0.66 -122 -1.32 -122 -2 C-109.16357696 -4.84028265 -96.51989779 -6.77804292 -83.41235352 -7.79614258 C-81.04578528 -7.99613089 -78.69191912 -8.25694742 -76.33203125 -8.5234375 C-51.76110498 -10.98387116 -22.76140546 -10.63217329 0 0 Z M-133 25 C-133.65452148 25.24943359 -134.30904297 25.49886719 -134.98339844 25.75585938 C-152.31496751 32.52151956 -168.7691437 42.02281699 -183 54 C-183.58894043 54.49032715 -184.17788086 54.9806543 -184.78466797 55.48583984 C-195.32164304 64.27078455 -204.4002605 73.27264329 -213 84 C-214.02480469 85.22396484 -214.02480469 85.22396484 -215.0703125 86.47265625 C-220.41295388 92.91525321 -224.84235885 99.74496464 -229 107 C-229.3623877 107.6276123 -229.72477539 108.25522461 -230.09814453 108.90185547 C-256.01618827 154.28938061 -261.20229945 207.66376449 -247.90039062 257.84619141 C-239.46812075 287.38200004 -223.6815548 314.30110825 -202.50244141 336.42578125 C-201.4745751 337.50275264 -200.45371391 338.58644162 -199.43896484 339.67578125 C-166.17921882 375.31912565 -117.33130126 395.09900722 -69 397 C-67.99066406 397.05285156 -66.98132813 397.10570312 -65.94140625 397.16015625 C-12.69614189 398.65910494 35.87878197 375.84046139 74 340 C74.63679688 339.41734375 75.27359375 338.8346875 75.9296875 338.234375 C91.30883215 323.66465901 103.25933567 304.13401749 112 285 C112.53109375 283.86433594 113.0621875 282.72867187 113.609375 281.55859375 C121.07512891 264.9530638 125.24730043 247.9422318 128 230 C128.26369385 228.36248779 128.26369385 228.36248779 128.53271484 226.69189453 C129.02319683 222.81672808 129.19569097 219.00102144 129.23828125 215.1015625 C129.2480751 214.35784393 129.25786896 213.61412537 129.26795959 212.84786987 C129.53264825 187.48288908 126.86542442 164.23000467 119 140 C118.78682129 139.31212402 118.57364258 138.62424805 118.35400391 137.91552734 C110.08839221 111.51931933 92.64685973 88.00258756 73.45263672 68.48779297 C72.25907652 67.26534661 71.09578037 66.0134226 69.94140625 64.75390625 C59.87467902 53.96972853 46.7951462 45.20085582 34 38 C33.30712891 37.6071582 32.61425781 37.21431641 31.90039062 36.80957031 C-18.57079 8.43316323 -78.92304987 4.35290298 -133 25 Z " fill="#080808" transform="translate(367,103)"/>
<path d="M0 0 C3.1796875 0.35546875 3.1796875 0.35546875 6 1 C6.00219984 2.52236236 6.00219984 2.52236236 6.00444412 4.07547951 C6.04102818 28.76277241 6.10046342 53.44992954 6.18390274 78.13710976 C6.22372346 90.07562106 6.25610057 102.01406615 6.27099609 113.95263672 C6.28399686 124.35748159 6.31092129 134.76218097 6.35461307 145.16694391 C6.37726322 150.67694792 6.39290854 156.18677224 6.39188385 161.69682693 C6.39113935 166.8826742 6.40900599 172.06812372 6.44116783 177.2538681 C6.44968902 179.15737215 6.45140175 181.06092069 6.44580269 182.96443558 C6.43917464 185.56396538 6.45705409 188.16222526 6.48101807 190.7616272 C6.47325765 191.51455791 6.46549723 192.26748863 6.45750165 193.04323542 C6.54092035 198.156229 7.80627072 201.04442104 11 205 C12.84276097 206.61878913 12.84276097 206.61878913 14.75 207.75 C16.35875 208.86375 16.35875 208.86375 18 210 C18 210.66 18 211.32 18 212 C19.7325 212.1546875 19.7325 212.1546875 21.5 212.3125 C26.11423571 212.83417315 30.67882704 213.56669556 35.25 214.375 C35.93513672 214.48884033 36.62027344 214.60268066 37.32617188 214.7199707 C41.41176835 215.46683767 44.79871018 216.28262609 48 219 C48 220.65 48 222.3 48 224 C10.71 224 -26.58 224 -65 224 C-65 222.35 -65 220.7 -65 219 C-61.28146561 215.66614159 -56.26464821 214.89567498 -51.5234375 213.74609375 C-48.78864801 213.07289353 -48.78864801 213.07289353 -46 211 C-43.92624574 210.38347846 -41.84121483 209.80441509 -39.75 209.25 C-33.96795715 207.48576866 -29.71118719 205.86741145 -26 201 C-22.47809361 193.28455303 -22.57235693 185.26348295 -22.61181641 176.94067383 C-22.60774279 175.55155527 -22.6023965 174.16243996 -22.59588623 172.77333069 C-22.58230442 169.0296885 -22.58747206 165.28629657 -22.59702349 161.54265046 C-22.60466325 157.61149096 -22.59756298 153.6803517 -22.59286499 149.74919128 C-22.58742186 143.15314924 -22.59456302 136.5572083 -22.60888672 129.96118164 C-22.62523083 122.34705901 -22.61990622 114.7331772 -22.6034075 107.11906034 C-22.58977563 100.56421791 -22.58788066 94.00944777 -22.59572351 87.45459574 C-22.60038808 83.54711662 -22.60105808 79.63975058 -22.59111404 75.73227882 C-22.58242105 72.0606799 -22.58850845 68.38939057 -22.60579681 64.71782494 C-22.61162661 62.735675 -22.60276752 60.75349874 -22.59341431 58.7713623 C-22.63835726 52.44930658 -22.76719173 47.5178083 -26 42 C-31.92099164 37.23031229 -39.67248795 36.6313956 -47 36 C-47 35.34 -47 34.68 -47 34 C-47.60328125 34.01160156 -48.2065625 34.02320313 -48.828125 34.03515625 C-50.02695312 34.04869141 -50.02695312 34.04869141 -51.25 34.0625 C-52.03890625 34.07410156 -52.8278125 34.08570313 -53.640625 34.09765625 C-55.90691002 34.00385306 -57.8288895 33.63241063 -60 33 C-60.48664688 27.64688427 -60.48664688 27.64688427 -58.3984375 24.87109375 C-55.36694676 22.50613599 -53.17165512 22.24530154 -49.375 21.8125 C-45.03826874 21.40770989 -45.03826874 21.40770989 -41 20 C-39.60912618 19.79604294 -38.21176369 19.63486879 -36.8125 19.5 C-32.85547065 19.09661351 -28.93390138 18.58590021 -25 18 C-25 17.34 -25 16.68 -25 16 C-23.39743892 15.49487756 -21.79288208 14.99608373 -20.1875 14.5 C-19.29417969 14.2215625 -18.40085937 13.943125 -17.48046875 13.65625 C-15 13 -15 13 -12 13 C-12 12.34 -12 11.68 -12 11 C-11.360625 10.71125 -10.72125 10.4225 -10.0625 10.125 C-7.84793921 9.17176549 -7.84793921 9.17176549 -7 7 C-6.34 7 -5.68 7 -5 7 C-5 6.34 -5 5.68 -5 5 C-2.875 2.3125 -2.875 2.3125 0 0 Z " fill="#080808" transform="translate(315,193)"/>
<path d="M0 0 C1.3046875 1.2578125 1.3046875 1.2578125 2.875 3.125 C3.80119141 4.21748047 3.80119141 4.21748047 4.74609375 5.33203125 C5.86177734 6.65267578 5.86177734 6.65267578 7 8 C7.94762022 9.08863312 8.89694913 10.17578039 9.84765625 11.26171875 C26.93695119 30.84849092 26.93695119 30.84849092 28 37 C28.66 37 29.32 37 30 37 C31.43061015 38.9724157 32.72586739 40.92911428 34 43 C34.37415039 43.59554687 34.74830078 44.19109375 35.13378906 44.8046875 C36.31274304 46.69420292 37.47067027 48.59535594 38.625 50.5 C39.21667969 51.45712891 39.21667969 51.45712891 39.8203125 52.43359375 C42.09709146 56.19489413 43.77709525 59.73955766 45 64 C45.66 64 46.32 64 47 64 C49.03528845 68.34624997 51.06521104 72.69493554 53.08935547 77.04638672 C53.87991135 78.74237283 54.67580782 80.43586754 55.47265625 82.12890625 C58.04748557 87.66439558 60.18365421 93.17516696 62 99 C62.49686084 100.50104274 62.99688905 102.00104057 63.5 103.5 C63.74363281 104.23734375 63.98726562 104.9746875 64.23828125 105.734375 C64.76187923 107.29174336 65.30189695 108.84365722 65.85546875 110.390625 C66.13003906 111.16921875 66.40460938 111.9478125 66.6875 112.75 C66.93886719 113.44609375 67.19023438 114.1421875 67.44921875 114.859375 C68.07853048 117.30521065 68.0923436 119.48473623 68 122 C66.10894531 122.41958984 66.10894531 122.41958984 64.1796875 122.84765625 C53.44508424 125.28790377 42.96814802 128.10260124 32.55029297 131.67602539 C26.98057241 133.54359385 21.86313799 134.54898939 16 135 C15.34 131.04 14.68 127.08 14 123 C13.34 123 12.68 123 12 123 C11.75878418 122.19163696 11.75878418 122.19163696 11.51269531 121.36694336 C10.7673514 118.88769134 10.00878461 116.41266997 9.25 113.9375 C8.99734375 113.08994141 8.7446875 112.24238281 8.484375 111.36914062 C7.24224277 107.34773752 5.95925848 103.69040078 3.796875 100.06640625 C2 97 2 97 2 94 C1.34 94 0.68 94 0 94 C-2.60584399 90.26118036 -4.21185373 86.1723413 -6 82 C-6.556875 81.071875 -7.11375 80.14375 -7.6875 79.1875 C-9 77 -9 77 -9 75 C-9.66 75 -10.32 75 -11 75 C-12.26171875 73.12890625 -12.26171875 73.12890625 -13.6875 70.5625 C-16.73901654 65.32504133 -20.15039984 60.67347292 -24 56 C-24.43570312 55.46874512 -24.87140625 54.93749023 -25.3203125 54.39013672 C-26.76906357 52.62917188 -28.22650444 50.87581591 -29.6875 49.125 C-30.15115967 48.56514404 -30.61481934 48.00528809 -31.0925293 47.4284668 C-33.51420767 44.55792596 -35.87303639 42.09440654 -39 40 C-38.41809822 36.43794939 -37.14490419 34.77006581 -34.61352539 32.24121094 C-33.89930923 31.52076599 -33.18509308 30.80032104 -32.44923401 30.05804443 C-31.28520302 28.90782806 -31.28520302 28.90782806 -30.09765625 27.734375 C-29.30475693 26.94097717 -28.5118576 26.14757935 -27.69493103 25.33013916 C-26.01806745 23.65561568 -24.33751072 21.98478358 -22.65356445 20.31738281 C-20.06740738 17.75486252 -17.4948679 15.17924071 -14.92382812 12.6015625 C-13.29506248 10.97837191 -11.66553107 9.35594928 -10.03515625 7.734375 C-9.26115982 6.95946716 -8.48716339 6.18455933 -7.68971252 5.38616943 C-6.97234421 4.67833313 -6.25497589 3.97049683 -5.51586914 3.24121094 C-4.88379044 2.61373962 -4.25171173 1.98626831 -3.60047913 1.33978271 C-2 0 -2 0 0 0 Z " fill="#040404" transform="translate(511,108)"/>
<path d="M0 0 C2.06309376 0.11478413 4.12548354 0.24226198 6.1875 0.375 C7.91033203 0.47941406 7.91033203 0.47941406 9.66796875 0.5859375 C13 1 13 1 15.41796875 1.96875 C36.63654169 10.44333889 70.94520802 6.02198013 93 3 C94.46332251 2.81724699 95.92686508 2.63624717 97.390625 2.45703125 C104.76041634 1.58322272 104.76041634 1.58322272 112 0 C114.56909055 5.60459338 116.34890848 11.25328911 118 17.1875 C118.26200195 18.11570557 118.52400391 19.04391113 118.79394531 20.00024414 C120.44011304 25.87099487 121.98683304 31.75839029 123.41015625 37.6875 C124.01993432 40.21137857 124.01993432 40.21137857 125.1875 43.4375 C126.03236211 46.10206512 126.16335722 48.22292721 126 51 C120.25490499 53.34788129 114.88229223 54.74361165 108.75 55.625 C107.91734619 55.74979736 107.08469238 55.87459473 106.22680664 56.00317383 C96.47449363 57.42713814 86.8592414 58.19631233 77 58 C77 58.66 77 59.32 77 60 C71.06332572 60.05019954 65.12678043 60.0860893 59.18994141 60.10986328 C57.17885175 60.11979538 55.16777603 60.13334559 53.15673828 60.15087891 C40.28066528 60.2601616 27.76120689 59.76889991 15 58 C15 57.34 15 56.68 15 56 C13.47632813 55.94392578 13.47632813 55.94392578 11.921875 55.88671875 C3.28193656 55.49830046 -4.66721696 54.50930398 -13 52 C-13.18446314 47.94181095 -12.91031469 45.54469503 -11 42 C-10.65175327 40.23941931 -10.36605956 38.4659292 -10.125 36.6875 C-8.15065024 24.07614962 -4.16242686 12.02668418 0 0 Z " fill="#040404" transform="translate(248,534)"/>
<path d="M0 0 C0.9549234 -0.00067474 1.9098468 -0.00134949 2.89370728 -0.00204468 C17.52791629 0.01435331 31.76592741 0.57681892 46.1875 3.25 C47.81461914 3.53931396 47.81461914 3.53931396 49.47460938 3.83447266 C52.86375618 4.44653529 56.24508056 5.08897702 59.625 5.75 C60.67002686 5.95133545 61.71505371 6.1526709 62.79174805 6.36010742 C64.22321167 6.6613855 64.22321167 6.6613855 65.68359375 6.96875 C66.53107178 7.14341797 67.3785498 7.31808594 68.25170898 7.49804688 C68.89052002 7.74619141 69.52933105 7.99433594 70.1875 8.25 C71.33165564 11.68246692 71.00597962 12.70781826 70.04296875 16.109375 C69.77806641 17.06070313 69.51316406 18.01203125 69.24023438 18.9921875 C68.81194336 20.48105469 68.81194336 20.48105469 68.375 22 C68.10107422 22.97710937 67.82714844 23.95421875 67.54492188 24.9609375 C66.42108862 28.96038245 65.27406459 32.9525326 64.11328125 36.94140625 C62.85170654 41.450072 61.76442134 45.99685231 60.6875 50.55273438 C59.84595084 54.00768814 58.97573011 57.16051316 57.1875 60.25 C56.10855469 60.05664062 55.02960938 59.86328125 53.91796875 59.6640625 C49.01660356 58.80227791 44.10471352 58.01558296 39.1875 57.25 C38.14553467 57.08250244 38.14553467 57.08250244 37.08251953 56.91162109 C25.11144549 55.06516023 13.08383688 55.0400735 1 55 C0.19147583 54.99473297 -0.61704834 54.98946594 -1.45007324 54.98403931 C-14.70110896 54.91737778 -27.65157866 55.62184561 -40.57421875 58.80859375 C-45.2599233 59.73265067 -50.05295508 59.94397173 -54.8125 60.25 C-58.05354101 49.11744632 -61.19679996 37.98655374 -63.93359375 26.71875 C-64.90640592 22.87938464 -66.04266793 19.11923114 -67.296875 15.36328125 C-67.88940453 12.93480795 -67.89973165 10.74046348 -67.8125 8.25 C-62.93496061 6.44810647 -58.1737117 5.53699918 -53.0625 4.75 C-48.18139862 3.9743192 -43.3279769 3.19081368 -38.5 2.125 C-25.92129595 -0.43047356 -12.77656331 0.00814014 0 0 Z " fill="#040404" transform="translate(302.8125,20.75)"/>
<path d="M0 0 C0.29390625 0.84304688 0.29390625 0.84304688 0.59375 1.703125 C5.86379225 16.51376098 11.62585106 31.04342706 18.93945312 44.96875 C20.08766701 47.16790734 21.20829992 49.38001314 22.328125 51.59375 C23.11369391 53.12545648 23.90013222 54.65671744 24.6875 56.1875 C25.04384521 56.89479248 25.40019043 57.60208496 25.76733398 58.33081055 C28.00675863 62.62084257 30.44854099 65.64361305 34 69 C35.04003927 70.430054 36.04090501 71.88944525 37 73.375 C40.76528825 78.93089199 45.13792053 83.86375943 49.64453125 88.82177734 C50.19238281 89.4348877 50.74023438 90.04799805 51.3046875 90.6796875 C52.0469458 91.49542236 52.0469458 91.49542236 52.80419922 92.32763672 C54.14294616 94.1999145 54.58427986 95.75241732 55 98 C53.7315625 98.99 53.7315625 98.99 52.4375 100 C49.14025537 102.73733516 46.43069866 105.83473402 43.65625 109.08984375 C41.5542962 111.51403104 39.26826412 113.73173588 37 116 C36.07928884 117.12169236 35.16293151 118.24696682 34.25 119.375 C31.25511529 122.94552489 27.81509312 125.60013123 24.05078125 128.32421875 C21.95702508 130.03511665 20.52467742 131.77832719 19 134 C15.44503561 133.43584261 14.02611297 132.30819938 11.75 129.5625 C10.8528125 128.48935547 10.8528125 128.48935547 9.9375 127.39453125 C8.9784375 126.20923828 8.9784375 126.20923828 8 125 C7.29875 124.13761719 6.5975 123.27523437 5.875 122.38671875 C3.90039704 119.93661397 1.93891078 117.47843379 0 115 C-0.57234375 114.28328125 -1.1446875 113.5665625 -1.734375 112.828125 C-3 111 -3 111 -3 109 C-3.99 108.67 -4.98 108.34 -6 108 C-7.61328125 106.03125 -7.61328125 106.03125 -9.3125 103.5 C-9.92480469 102.59507812 -10.53710938 101.69015625 -11.16796875 100.7578125 C-11.77253906 99.84773438 -12.37710938 98.93765625 -13 98 C-13.53238281 97.21367187 -14.06476563 96.42734375 -14.61328125 95.6171875 C-19.04569195 89.04301762 -23.37316729 82.50225215 -26.8203125 75.3515625 C-28.94574079 71.11478161 -31.2998214 66.99422762 -33.609375 62.85546875 C-35 60 -35 60 -35 57 C-36.485 56.505 -36.485 56.505 -38 56 C-39.28125 53.12109375 -39.28125 53.12109375 -40.5 49.4375 C-40.93578852 48.14829904 -41.37198357 46.85923542 -41.80859375 45.5703125 C-42.20175781 44.39210938 -42.59492187 43.21390625 -43 42 C-43.51122205 40.60061797 -44.02982545 39.20385757 -44.5625 37.8125 C-44.789375 37.20792969 -45.01625 36.60335937 -45.25 35.98046875 C-45.82600877 34.45944558 -46.41105909 32.94184398 -47 31.42578125 C-49.30714427 25.3440811 -50.9417959 19.41884332 -52 13 C-51.21238281 12.82984375 -50.42476562 12.6596875 -49.61328125 12.484375 C-43.89915473 11.21306638 -38.31280988 9.82848365 -32.75 8 C-24.97879601 5.5208429 -17.03874265 4.27079524 -9 3 C-9 2.34 -9 1.68 -9 1 C-5.94152152 0.45627049 -3.11227195 0 0 0 Z " fill="#040404" transform="translate(81,372)"/>
<path d="M0 0 C3.49808503 0.58518061 5.17692674 1.79126005 7.68286133 4.26293945 C8.38651321 4.95067947 9.0901651 5.63841949 9.81513977 6.34700012 C10.93725105 7.46880928 10.93725105 7.46880928 12.08203125 8.61328125 C12.85560471 9.37924118 13.62917816 10.14520111 14.42619324 10.93437195 C16.05809718 12.55547274 17.68604195 14.18056739 19.31030273 15.80932617 C21.80644473 18.30644237 24.32314391 20.78147528 26.84179688 23.25585938 C28.42317392 24.8320312 30.00329603 26.40946331 31.58203125 27.98828125 C32.34022659 28.73008133 33.09842194 29.47188141 33.8795929 30.23616028 C34.91142952 31.28195503 34.91142952 31.28195503 35.96411133 32.34887695 C36.57603836 32.95874954 37.18796539 33.56862213 37.81843567 34.19697571 C39 36 39 36 38.81474304 38.09538269 C37.84286147 40.36734128 36.42343715 41.72474817 34.64453125 43.40625 C27.56058882 50.27144836 21.64841925 57.94405779 16 66 C15.3915625 66.8353125 14.783125 67.670625 14.15625 68.53125 C9.89652468 74.43507983 6.33530584 80.53340968 3 87 C2.4946875 87.97066406 1.989375 88.94132812 1.46875 89.94140625 C-1.57436179 95.89565814 -4.30964333 101.9175748 -6.82421875 108.11328125 C-7.68057547 110.21576503 -8.59350566 112.29546921 -9.5390625 114.359375 C-11.08895523 118.22167454 -11.95554358 121.86174269 -12.6875 125.9375 C-12.81705078 126.62134766 -12.94660156 127.30519531 -13.08007812 128.00976562 C-13.39389598 129.67183798 -13.69799166 131.33574127 -14 133 C-21.11434578 133.49064454 -26.80246866 132.10298681 -33.6015625 130.0234375 C-37.70382058 128.78804484 -41.80680745 127.86755708 -46 127 C-46 126.34 -46 125.68 -46 125 C-46.58265625 124.96261719 -47.1653125 124.92523438 -47.765625 124.88671875 C-54.7343058 124.32790944 -61.26455965 122.84009453 -68 121 C-67.07771695 115.09738846 -66.04042333 109.54130319 -63.76953125 104.00390625 C-62.93143463 101.82145159 -62.34882474 99.63436941 -61.75 97.375 C-60.28871387 92.34941278 -58.0273361 87.83188814 -55.63354492 83.20410156 C-53.08052409 78.25204515 -50.93646327 73.22003142 -49 68 C-48.34 68 -47.68 68 -47 68 C-46.79503906 67.37351562 -46.59007813 66.74703125 -46.37890625 66.1015625 C-46.10949219 65.28429687 -45.84007813 64.46703125 -45.5625 63.625 C-45.29566406 62.81289062 -45.02882813 62.00078125 -44.75390625 61.1640625 C-44 59 -44 59 -43 57 C-42.34 57 -41.68 57 -41 57 C-40.82984375 56.40832031 -40.6596875 55.81664062 -40.484375 55.20703125 C-40.24203125 54.41683594 -39.9996875 53.62664062 -39.75 52.8125 C-39.51796875 52.03519531 -39.2859375 51.25789063 -39.046875 50.45703125 C-37.78868911 47.50405018 -36.0505959 45.46298511 -34 43 C-32.77339551 41.17884049 -31.5659352 39.3446826 -30.375 37.5 C-23.74362051 27.4915291 -16.44163224 18.2565218 -8.2734375 9.45703125 C-5.42399273 6.37747667 -2.70657301 3.20515225 0 0 Z " fill="#040404" transform="translate(97,109)"/>
<path d="M0 0 C1.54265031 0.08841276 3.08417123 0.19659695 4.625 0.3125 C5.48351562 0.37050781 6.34203125 0.42851562 7.2265625 0.48828125 C10 1 10 1 12.84765625 2.42578125 C16.42007394 4.2097767 19.93790683 5.05903561 23.8125 5.875 C30.08934357 7.2713185 36.27173981 8.86075528 42.4375 10.6875 C43.16493408 10.90196777 43.89236816 11.11643555 44.6418457 11.33740234 C49.71544642 12.85772321 49.71544642 12.85772321 52 14 C51.35155914 18.19283118 50.48783354 22.26499921 49.4375 26.375 C49.16808594 27.43460937 48.89867187 28.49421875 48.62109375 29.5859375 C48.41613281 30.38257813 48.21117187 31.17921875 48 32 C47.34 32 46.68 32 46 32 C45.85304688 32.79921875 45.70609375 33.5984375 45.5546875 34.421875 C43.86233445 42.70856926 41.10847784 49.62069514 37 57 C36.34 57 35.68 57 35 57 C34.87753906 57.71542969 34.75507812 58.43085938 34.62890625 59.16796875 C33.98864625 62.05112713 33.06448444 64.58592473 31.9375 67.3125 C31.57527344 68.19550781 31.21304688 69.07851563 30.83984375 69.98828125 C30.42412109 70.98408203 30.42412109 70.98408203 30 72 C29.34 72 28.68 72 28 72 C27.5978125 73.5778125 27.5978125 73.5778125 27.1875 75.1875 C26.12747781 78.59072912 25.08611696 81.13158918 23 84 C22.34 84 21.68 84 21 84 C20.896875 84.721875 20.79375 85.44375 20.6875 86.1875 C19.64136965 90.46712414 17.83583468 93.18949364 14.6796875 96.25 C11.87510107 99.12817616 9.62911119 102.19480409 7.375 105.5 C3.06000729 111.69218766 -1.61449342 117.45950739 -6.5546875 123.16015625 C-8.1552169 125.01891803 -9.70540009 126.92254282 -11.1953125 128.87109375 C-12.08863281 129.92490234 -12.08863281 129.92490234 -13 131 C-13.66 131 -14.32 131 -15 131 C-15.33 131.99 -15.66 132.98 -16 134 C-20.07561948 132.66961644 -22.11260233 131.11490116 -24.8125 127.8125 C-28.04375006 124.00707697 -31.43288132 120.77908225 -35.24609375 117.5703125 C-37.45135998 115.59588706 -39.16336111 113.31280453 -41 111 C-41.99 110.67 -42.98 110.34 -44 110 C-45.60638586 108.05091849 -46.98174585 105.99748809 -48.40234375 103.91015625 C-50.13277927 101.84124923 -51.59869433 101.14062019 -54 100 C-55.0625 97.6875 -55.0625 97.6875 -55 95 C-53.38042002 93.28754088 -51.70400061 91.62847704 -50 90 C-47.38339294 87.0930947 -44.79263951 84.16495968 -42.20703125 81.23046875 C-41.47871094 80.49441406 -40.75039063 79.75835937 -40 79 C-39.34 79 -38.68 79 -38 79 C-37.814375 78.21625 -37.62875 77.4325 -37.4375 76.625 C-35.40779463 71.50661254 -32.21247483 67.44136333 -29 63 C-27.88643924 61.38142302 -26.78162475 59.75677819 -25.6875 58.125 C-25.21699219 57.42632812 -24.74648438 56.72765625 -24.26171875 56.0078125 C-23.03481453 54.05540145 -21.9931518 52.07955729 -21 50 C-20.34 50 -19.68 50 -19 50 C-18.79503906 49.30132812 -18.59007812 48.60265625 -18.37890625 47.8828125 C-18.10949219 46.97273438 -17.84007812 46.06265625 -17.5625 45.125 C-17.29566406 44.22007812 -17.02882813 43.31515625 -16.75390625 42.3828125 C-16 40 -16 40 -15 38 C-14.34 38 -13.68 38 -13 38 C-12.938125 37.21625 -12.87625 36.4325 -12.8125 35.625 C-12.07534905 32.3361727 -11.15953606 30.1413667 -9.625 27.1875 C-7.21592907 22.54883047 -5.50450584 17.99433897 -4 13 C-3.64679687 11.86046875 -3.29359375 10.7209375 -2.9296875 9.546875 C-1.94540388 6.36688176 -0.96962033 3.18448911 0 0 Z " fill="#040404" transform="translate(527,372)"/>
<path d="M0 0 C36.96 0 73.92 0 112 0 C111.67 0.99 111.34 1.98 111 3 C101.76 3 92.52 3 83 3 C83 2.34 83 1.68 83 1 C64.85 1 46.7 1 28 1 C28 1.66 28 2.32 28 3 C19.09 3 10.18 3 1 3 C0.67 2.01 0.34 1.02 0 0 Z " fill="#808080" transform="translate(251,417)"/>
<path d="M0 0 C1.00774979 0.09441376 1.00774979 0.09441376 2.03585815 0.19073486 C13.00075337 1.25075337 13.00075337 1.25075337 15.375 3.625 C10.27327174 3.71286465 5.58398193 3.44414777 0.53125 2.640625 C-10.13512084 1.14844342 -20.86061713 1.32509474 -31.609375 1.36425781 C-35.1460043 1.37506418 -38.68213522 1.36426305 -42.21875 1.3515625 C-44.48958444 1.3528828 -46.76041858 1.3554425 -49.03125 1.359375 C-50.07720337 1.35532654 -51.12315674 1.35127808 -52.20080566 1.34710693 C-58.05630926 1.38443884 -62.99286822 2.05444246 -68.625 3.625 C-71.18554688 3.85205078 -71.18554688 3.85205078 -73.34375 3.8203125 C-74.13007813 3.81386719 -74.91640625 3.80742187 -75.7265625 3.80078125 C-76.91378906 3.77564453 -76.91378906 3.77564453 -78.125 3.75 C-79.35863281 3.73646484 -79.35863281 3.73646484 -80.6171875 3.72265625 C-82.61992083 3.69936865 -84.62250154 3.66350959 -86.625 3.625 C-67.54500794 -9.09499471 -21.96573923 -2.09797743 0 0 Z " fill="#5D5D5D" transform="translate(339.625,6.375)"/>
<path d="M0 0 C1.06734375 -0.01224609 2.1346875 -0.02449219 3.234375 -0.03710938 C4.25789063 -0.03904297 5.28140625 -0.04097656 6.3359375 -0.04296875 C7.74818604 -0.04913208 7.74818604 -0.04913208 9.18896484 -0.05541992 C11.625 0.1875 11.625 0.1875 14.625 2.1875 C14.05918213 2.20731934 13.49336426 2.22713867 12.91040039 2.24755859 C-16.87240624 3.25573899 -16.87240624 3.25573899 -46.375 7.1875 C-46.045 6.5275 -45.715 5.8675 -45.375 5.1875 C-43.63183594 4.70092773 -43.63183594 4.70092773 -41.359375 4.37109375 C-40.52575439 4.24718262 -39.69213379 4.12327148 -38.83325195 3.99560547 C-37.93952881 3.87330566 -37.04580566 3.75100586 -36.125 3.625 C-34.77184692 3.42994873 -34.77184692 3.42994873 -33.39135742 3.23095703 C-27.13789929 2.35584078 -20.91993776 1.73500621 -14.61328125 1.3984375 C-9.86524489 0.95097858 -5.2848845 0.0031684 0 0 Z " fill="#A3A3A3" transform="translate(304.375,91.8125)"/>
<path d="M0 0 C0.66 0.33 1.32 0.66 2 1 C0.71520959 2.50589388 -0.57804082 4.00457375 -1.875 5.5 C-2.59429687 6.3353125 -3.31359375 7.170625 -4.0546875 8.03125 C-4.69664063 8.6809375 -5.33859375 9.330625 -6 10 C-6.66 10 -7.32 10 -8 10 C-8.33 10.99 -8.66 11.98 -9 13 C-14.27066382 18.73572239 -19.82204258 23.84870162 -27 27 C-24.64974019 21.23118045 -19.72868809 17.78295047 -15 14 C-14.278125 13.278125 -13.55625 12.55625 -12.8125 11.8125 C-8.70010665 7.70010665 -4.34070665 3.86870748 0 0 Z " fill="#979797" transform="translate(112,73)"/>
<path d="M0 0 C-17.18093718 7.68620874 -38.15976888 14.20168512 -57 15 C-56.67 14.34 -56.34 13.68 -56 13 C-53.19996714 12.4105194 -50.45084101 11.92018224 -47.625 11.5 C-46.07449199 11.26716794 -44.52494451 11.02782453 -42.9765625 10.78125 C-42.28643066 10.67876953 -41.59629883 10.57628906 -40.88525391 10.47070312 C-38.6864358 10.03407407 -38.6864358 10.03407407 -36 8 C-34.1988638 7.64484638 -32.38296467 7.36192634 -30.5625 7.125 C-23.14849591 5.98782788 -16.37831174 3.58859099 -9.3515625 1.0390625 C-8.55492187 0.75804687 -7.75828125 0.47703125 -6.9375 0.1875 C-6.24527344 -0.06644531 -5.55304688 -0.32039062 -4.83984375 -0.58203125 C-3 -1 -3 -1 0 0 Z " fill="#616161" transform="translate(413,590)"/>
<path d="M0 0 C1.79068573 2.6860286 2.66055791 4.6626589 3.625 7.6875 C3.88539062 8.49574219 4.14578125 9.30398438 4.4140625 10.13671875 C4.60742188 10.75160156 4.80078125 11.36648438 5 12 C5.66 12 6.32 12 7 12 C7.26554687 12.71027344 7.53109375 13.42054688 7.8046875 14.15234375 C8.15789063 15.07144531 8.51109375 15.99054688 8.875 16.9375 C9.39707031 18.31228516 9.39707031 18.31228516 9.9296875 19.71484375 C10.7819086 22.14941056 10.7819086 22.14941056 13 23 C13.87388005 25.02740171 14.52980922 27.0907237 15.21875 29.1875 C15.85329445 31.19512796 15.85329445 31.19512796 18 32 C19.32421875 34.21484375 19.32421875 34.21484375 20.6875 36.9375 C21.14511719 37.83339844 21.60273437 38.72929687 22.07421875 39.65234375 C22.37972656 40.42707031 22.68523438 41.20179688 23 42 C22.67 42.66 22.34 43.32 22 44 C18.55138809 40.15347133 16.25105703 35.96378909 13.84765625 31.43359375 C12.4296359 28.79841429 10.9807038 26.19502905 9.49609375 23.59765625 C9.05410645 22.8193042 8.61211914 22.04095215 8.15673828 21.23901367 C7.28201494 19.70070162 6.40175937 18.16551783 5.51513672 16.6340332 C2.66046093 11.58211872 0.63631045 6.56591615 -1 1 C-0.67 0.67 -0.34 0.34 0 0 Z " fill="#777777" transform="translate(30,431)"/>
<path d="M0 0 C7.92 0 15.84 0 24 0 C23.67 0.99 23.34 1.98 23 3 C15.41 3 7.82 3 0 3 C0 2.01 0 1.02 0 0 Z " fill="#7B7B7B" transform="translate(339,417)"/>
<path d="M0 0 C19.8 0 39.6 0 60 0 C60 0.99 60 1.98 60 3 C58.35 3 56.7 3 55 3 C55 2.34 55 1.68 55 1 C36.85 1 18.7 1 0 1 C0 0.67 0 0.34 0 0 Z " fill="#BEBEBE" transform="translate(279,417)"/>
<path d="M0 0 C1.51249502 3.92457858 0.47327235 7.28270471 -0.5625 11.1875 C-0.74087402 11.87859863 -0.91924805 12.56969727 -1.10302734 13.28173828 C-2.55507716 18.72234545 -4.27227653 24.05861315 -6.125 29.375 C-6.37838135 30.10614014 -6.6317627 30.83728027 -6.89282227 31.59057617 C-8.74704752 36.74704752 -8.74704752 36.74704752 -11 39 C-11.36861129 35.06814624 -10.43515833 32.18607229 -8.98828125 28.55859375 C-5.39235382 19.24897925 -2.47114218 9.66357227 0 0 Z " fill="#636363" transform="translate(597,377)"/>
<path d="M0 0 C7.5927566 0.87129994 14.70921565 3.05285387 21.9375 5.4375 C23.32328247 5.88814819 23.32328247 5.88814819 24.73706055 6.34790039 C25.616604 6.6443042 26.49614746 6.94070801 27.40234375 7.24609375 C28.19116943 7.51091553 28.97999512 7.7757373 29.79272461 8.04858398 C32.17479564 9.07534328 33.99206292 10.36989285 36 12 C28.12841754 10.3495069 20.43371925 8.38244328 12.9375 5.4375 C8.727572 3.80174065 4.42322051 2.87030959 0 2 C0 1.34 0 0.68 0 0 Z " fill="#6A6A6A" transform="translate(380,15)"/>
<path d="M0 0 C2.18243836 2.74300018 3.77025524 5.38921593 5.19140625 8.58984375 C5.77245117 9.89018555 5.77245117 9.89018555 6.36523438 11.21679688 C6.76033203 12.11462891 7.15542969 13.01246094 7.5625 13.9375 C7.96146484 14.83146484 8.36042969 15.72542969 8.77148438 16.64648438 C10.59073211 20.73751391 12.35425468 24.83560493 14 29 C12.02 28.34 10.04 27.68 8 27 C8.10634766 25.76443359 8.10634766 25.76443359 8.21484375 24.50390625 C7.94279791 20.06708584 6.4560949 16.90626739 4.5625 12.9375 C0.62976251 4.55025589 0.62976251 4.55025589 0 0 Z " fill="#6C6C6C" transform="translate(573,169)"/>
<path d="M0 0 C1.21084775 3.45928292 0.80476826 5.27513071 -0.58203125 8.625 C-0.93716797 9.49640625 -1.29230469 10.3678125 -1.65820312 11.265625 C-2.03912109 12.16796875 -2.42003906 13.0703125 -2.8125 14 C-3.36647461 15.35351562 -3.36647461 15.35351562 -3.93164062 16.734375 C-5.50662796 20.55732452 -7.11457438 24.31845563 -9 28 C-10.17661705 24.60088409 -9.85942213 22.89263283 -8.4375 19.625 C-8.07011719 18.76390625 -7.70273437 17.9028125 -7.32421875 17.015625 C-6.88722656 16.02046875 -6.45023438 15.0253125 -6 14 C-5.46341491 12.74540181 -4.92833461 11.49015928 -4.39453125 10.234375 C-2.9406015 6.81817857 -1.47317615 3.4079475 0 0 Z " fill="#6E6E6E" transform="translate(29,181)"/>
<path d="M0 0 C0 4.31618166 -2.13270348 5.92789659 -5 9 C-5.66 9 -6.32 9 -7 9 C-7.268125 9.639375 -7.53625 10.27875 -7.8125 10.9375 C-9 13 -9 13 -12 14 C-13.10836423 15.88316159 -13.10836423 15.88316159 -14 18 C-14.66 18.99 -15.32 19.98 -16 21 C-16.66 21 -17.32 21 -18 21 C-17.43379699 17.22531329 -15.87731019 15.52448107 -13.18359375 12.890625 C-12.41982422 12.13652344 -11.65605469 11.38242188 -10.86914062 10.60546875 C-10.06669922 9.82816406 -9.26425781 9.05085937 -8.4375 8.25 C-7.63119141 7.45722656 -6.82488281 6.66445312 -5.99414062 5.84765625 C-4.00266222 3.89152954 -2.00452279 1.94274281 0 0 Z " fill="#3D3D3D" transform="translate(490,127)"/>
<path d="M0 0 C-3.63 0.99 -7.26 1.98 -11 3 C-11 3.66 -11 4.32 -11 5 C-11.66 5 -12.32 5 -13 5 C-13.33 5.66 -13.66 6.32 -14 7 C-14.33 7.66 -14.66 8.32 -15 9 C-17.50390625 9.4140625 -17.50390625 9.4140625 -20.5625 9.625 C-21.57441406 9.69976562 -22.58632812 9.77453125 -23.62890625 9.8515625 C-24.41136719 9.90054688 -25.19382813 9.94953125 -26 10 C-22.57328422 6.89453883 -19.48449117 5.26175835 -15.1875 3.796875 C-12.04205215 2.65103328 -9.07463992 1.15935363 -6.078125 -0.328125 C-4 -1 -4 -1 0 0 Z " fill="#585858" transform="translate(233,107)"/>
<path d="M0 0 C0.66 0.33 1.32 0.66 2 1 C-1.98371757 4.24599209 -6.00928267 5.8909517 -11 7 C-11 7.66 -11 8.32 -11 9 C-11.886875 9.433125 -12.77375 9.86625 -13.6875 10.3125 C-16.93166049 11.90743889 -16.93166049 11.90743889 -19.625 13.625 C-21.80836414 14.88905293 -23.53840795 15.54414962 -26 16 C-22.96899529 12.44186403 -19.57245789 10.52993616 -15.515625 8.3671875 C-11.98698542 6.4494486 -8.58295417 4.33997812 -5.1640625 2.234375 C-3 1 -3 1 0 0 Z " fill="#6E6E6E" transform="translate(166,38)"/>
<path d="M0 0 C-5.66419632 2.3413722 -10.72749949 3.60209395 -16.8125 4.1875 C-17.56208984 4.26935547 -18.31167969 4.35121094 -19.08398438 4.43554688 C-22.06954848 4.75304654 -24.99589443 5 -28 5 C-25.29567328 2.29567328 -23.25780287 2.43216653 -19.5 1.9375 C-15.10241884 1.45495439 -15.10241884 1.45495439 -11 0 C-9.50650886 -0.25077277 -8.00471429 -0.45400974 -6.5 -0.625 C-5.30890625 -0.76808594 -5.30890625 -0.76808594 -4.09375 -0.9140625 C-2 -1 -2 -1 0 0 Z " fill="#545454" transform="translate(285,213)"/>
<path d="M0 0 C0.6875 1.8125 0.6875 1.8125 1 4 C-0.3125 5.4375 -0.3125 5.4375 -2 7 C-3.19027984 9.59915538 -3.19027984 9.59915538 -4 12 C-4.66 12 -5.32 12 -6 12 C-6.103125 12.53625 -6.20625 13.0725 -6.3125 13.625 C-7.18092697 16.62502044 -8.55620296 19.2379535 -10 22 C-10.66 22 -11.32 22 -12 22 C-10.74056892 17.42025061 -8.80370696 13.85440873 -6.21875 9.9296875 C-5.00362111 8.00573342 -3.98409098 6.05018954 -3 4 C-2.34 4 -1.68 4 -1 4 C-0.67 2.68 -0.34 1.36 0 0 Z " fill="#6C6C6C" transform="translate(48,146)"/>
<path d="M0 0 C0.98226563 0.27263672 0.98226563 0.27263672 1.984375 0.55078125 C8.96448954 2.47327042 15.9698181 4.27005995 23 6 C23 6.33 23 6.66 23 7 C15.91923749 7.40850553 9.80074041 5.90420731 3 4 C3 3.34 3 2.68 3 2 C2.01 1.67 1.02 1.34 0 1 C0 0.67 0 0.34 0 0 Z " fill="#929292" transform="translate(330,401)"/>
<path d="M0 0 C3.63 0.33 7.26 0.66 11 1 C11 1.66 11 2.32 11 3 C13.97 3 16.94 3 20 3 C20 3.33 20 3.66 20 4 C17.60347472 4.08139142 15.20974564 4.14067009 12.8125 4.1875 C12.13896484 4.21263672 11.46542969 4.23777344 10.77148438 4.26367188 C6.31116118 4.3289449 3.55034309 3.73686642 0 1 C0 0.67 0 0.34 0 0 Z " fill="#808080" transform="translate(257,226)"/>
<path d="M0 0 C1 1 2 2 3 3 C3.47308594 3.42539062 3.94617187 3.85078125 4.43359375 4.2890625 C6.34929741 6.38152684 7.48096213 8.52815673 8.75 11.0625 C9.19859375 11.94035156 9.6471875 12.81820313 10.109375 13.72265625 C10.40328125 14.47417969 10.6971875 15.22570312 11 16 C10.67 16.66 10.34 17.32 10 18 C6.12358085 13.67630171 0 6.04191557 0 0 Z " fill="#5B5B5B" transform="translate(42,457)"/>
<path d="M0 0 C1 2 1 2 0.25 4.4375 C-0.96346959 6.92511266 -1.82379822 8.32599863 -4 10 C-6.1875 10.6875 -6.1875 10.6875 -8 11 C-6.63629701 8.00779732 -5.05091917 5.70973471 -2.875 3.25 C-2.33617188 2.63640625 -1.79734375 2.0228125 -1.2421875 1.390625 C-0.62730469 0.70226562 -0.62730469 0.70226562 0 0 Z " fill="#999999" transform="translate(74,111)"/>
<path d="M0 0 C-0.8125 2.4375 -0.8125 2.4375 -2 5 C-2.99 5.33 -3.98 5.66 -5 6 C-5.33 6.66 -5.66 7.32 -6 8 C-8.97 7.505 -8.97 7.505 -12 7 C-9.64046906 4.64046906 -8.22104383 4.50858587 -5 4 C-4.67 3.01 -4.34 2.02 -4 1 C-2 0 -2 0 0 0 Z " fill="#CECECE" transform="translate(424,485)"/>
<path d="M0 0 C3.83245612 2.55497075 3.78621077 4.02668909 4.75 8.4375 C5.01296875 9.59121094 5.2759375 10.74492187 5.546875 11.93359375 C6 15 6 15 5 18 C4.16112944 15.56427941 3.32873471 13.12666783 2.5 10.6875 C2.14228516 9.65206055 2.14228516 9.65206055 1.77734375 8.59570312 C0.76791737 5.61068511 0 3.17341086 0 0 Z " fill="#636363" transform="translate(13,388)"/>
<path d="M0 0 C0.66 0.33 1.32 0.66 2 1 C-1.2107438 7.88016529 -1.2107438 7.88016529 -4 10 C-6.1875 10.6875 -6.1875 10.6875 -8 11 C-6.63629701 8.00779732 -5.05091917 5.70973471 -2.875 3.25 C-2.33617188 2.63640625 -1.79734375 2.0228125 -1.2421875 1.390625 C-0.62730469 0.70226562 -0.62730469 0.70226562 0 0 Z " fill="#818181" transform="translate(83,100)"/>
<path d="M0 0 C0.66 0.33 1.32 0.66 2 1 C-0.64 3.97 -3.28 6.94 -6 10 C-7.32 9.67 -8.64 9.34 -10 9 C-6.7 6.03 -3.4 3.06 0 0 Z " fill="#7A7A7A" transform="translate(112,73)"/>
<path d="M0 0 C-0.69867188 0.19335938 -1.39734375 0.38671875 -2.1171875 0.5859375 C-3.48230469 0.97652344 -3.48230469 0.97652344 -4.875 1.375 C-5.77992188 1.63023438 -6.68484375 1.88546875 -7.6171875 2.1484375 C-10.14569726 2.8604315 -10.14569726 2.8604315 -12 5 C-12 4.34 -12 3.68 -12 3 C-13.65 3 -15.3 3 -17 3 C-14.52776237 0.52776237 -13.03193317 0.41990229 -9.625 -0.1875 C-8.66851562 -0.36667969 -7.71203125 -0.54585937 -6.7265625 -0.73046875 C-4.12689671 -0.98745577 -2.45299695 -0.81960325 0 0 Z " fill="#444444" transform="translate(252,27)"/>
<path d="M0 0 C0.33 0.99 0.66 1.98 1 3 C-0.43359375 5.04296875 -0.43359375 5.04296875 -2.4375 7.1875 C-3.09621094 7.90292969 -3.75492187 8.61835938 -4.43359375 9.35546875 C-5.20896484 10.16951172 -5.20896484 10.16951172 -6 11 C-6.99 10.34 -7.98 9.68 -9 9 C-6.03 6.03 -3.06 3.06 0 0 Z " fill="#2B2B2B" transform="translate(444,439)"/>
<path d="M0 0 C0 4.02147098 -1.68383605 6.82309945 -4 10 C-6.25 11.4375 -6.25 11.4375 -8 12 C-6.25 7.125 -6.25 7.125 -4 6 C-2.96986723 4.35178756 -1.96885372 2.68496298 -1 1 C-0.67 0.67 -0.34 0.34 0 0 Z " fill="#393939" transform="translate(139,171)"/>
<path d="M0 0 C0 3.66184524 -0.919642 5.02806 -3 8 C-5.1875 9.8125 -5.1875 9.8125 -7 11 C-7.66 10.67 -8.32 10.34 -9 10 C-6.03 6.7 -3.06 3.4 0 0 Z " fill="#C0C0C0" transform="translate(525,489)"/>
<path d="M0 0 C11.70615034 0.59453303 11.70615034 0.59453303 16 4 C14 5 14 5 11.375 4.125 C10.26125 3.75375 9.1475 3.3825 8 3 C5.33576831 2.55915591 2.68841457 2.27811185 0 2 C0 1.34 0 0.68 0 0 Z " fill="#484848" transform="translate(344,407)"/>
<path d="M0 0 C1.33332095 2.6666419 0.67102033 4.16680303 0 7 C-0.66 7 -1.32 7 -2 7 C-2 7.66 -2 8.32 -2 9 C-4.375 10.6875 -4.375 10.6875 -7 12 C-7.66 11.67 -8.32 11.34 -9 11 C-8.51789063 10.62488281 -8.03578125 10.24976563 -7.5390625 9.86328125 C-3.87149654 6.89180434 -1.25381167 4.73662186 0 0 Z " fill="#505050" transform="translate(291,389)"/>
<path d="M0 0 C0.66 0.33 1.32 0.66 2 1 C-2.53974734 4.69905338 -7.48486876 6.20437588 -13 8 C-11.48339626 4.96679252 -9.05369111 4.30987391 -6.0625 2.8125 C-4.98097656 2.26207031 -3.89945313 1.71164063 -2.78515625 1.14453125 C-1.86605469 0.76683594 -0.94695312 0.38914063 0 0 Z " fill="#5B5B5B" transform="translate(166,38)"/>
<path d="M0 0 C3.11373372 1.49920512 6.12228205 3.08152136 9 5 C9 5.66 9 6.32 9 7 C4.56909529 5.79157144 2.01887244 4.48331435 -1 1 C-0.67 0.67 -0.34 0.34 0 0 Z " fill="#767676" transform="translate(141,560)"/>
<path d="M0 0 C0.33 0.66 0.66 1.32 1 2 C0.04956626 3.33897583 -0.91059147 4.67105427 -1.875 6 C-2.40867187 6.7425 -2.94234375 7.485 -3.4921875 8.25 C-3.98976563 8.8275 -4.48734375 9.405 -5 10 C-5.66 10 -6.32 10 -7 10 C-7 10.66 -7 11.32 -7 12 C-7.66 11.67 -8.32 11.34 -9 11 C-6.03 7.37 -3.06 3.74 0 0 Z " fill="#3D3D3D" transform="translate(87,120)"/>
<path d="M0 0 C0.33 0.99 0.66 1.98 1 3 C-1.64 5.31 -4.28 7.62 -7 10 C-7.66 9.67 -8.32 9.34 -9 9 C-6.03 6.03 -3.06 3.06 0 0 Z " fill="#424242" transform="translate(500,117)"/>
<path d="M0 0 C0.33 0.99 0.66 1.98 1 3 C-1.5958956 5.87402727 -3.21369298 7.24432948 -7 8 C-6.21366078 6.85050412 -5.42073742 5.70551011 -4.625 4.5625 C-4.18414062 3.92441406 -3.74328125 3.28632813 -3.2890625 2.62890625 C-2 1 -2 1 0 0 Z " fill="#C8C8C8" transform="translate(123,482)"/>
<path d="M0 0 C4.29 0 8.58 0 13 0 C13 0.99 13 1.98 13 3 C11.35 3 9.7 3 8 3 C8 2.34 8 1.68 8 1 C5.36 1 2.72 1 0 1 C0 0.67 0 0.34 0 0 Z " fill="#ADADAD" transform="translate(326,417)"/>
<path d="M0 0 C1.57619796 3.15239592 0.68832865 5.61571748 0 9 C-1.4375 11.9375 -1.4375 11.9375 -3 14 C-3.66 14 -4.32 14 -5 14 C-4.54636829 12.41531323 -4.08688548 10.83230076 -3.625 9.25 C-3.36976562 8.36828125 -3.11453125 7.4865625 -2.8515625 6.578125 C-2.0790066 4.23919428 -1.16374324 2.16557438 0 0 Z " fill="#C2C2C2" transform="translate(95,204)"/>
<path d="M0 0 C0.625 1.8125 0.625 1.8125 1 4 C0.01 5.485 0.01 5.485 -1 7 C-1.66 7 -2.32 7 -3 7 C-3.33 8.98 -3.66 10.96 -4 13 C-4.66 13 -5.32 13 -6 13 C-4.75696561 7.82069003 -3.14512215 4.29833361 0 0 Z " fill="#ACACAC" transform="translate(102,191)"/>
<path d="M0 0 C3.21524305 1.40844718 5.32183868 3.10344786 7.75 5.625 C8.67039062 6.57246094 8.67039062 6.57246094 9.609375 7.5390625 C10.29773438 8.26222656 10.29773438 8.26222656 11 9 C7.34140712 9 6.05403361 7.72246476 3.36328125 5.37890625 C1.75098025 3.74812615 0.79568834 2.14835851 0 0 Z " fill="#515151" transform="translate(96,526)"/>
<path d="M0 0 C1 3 1 3 1 5 C0.34 5 -0.32 5 -1 5 C-1.66 6.98 -2.32 8.96 -3 11 C-3.66 11 -4.32 11 -5 11 C-3.77472971 6.94718288 -2.30119506 3.55639236 0 0 Z " fill="#4B4B4B" transform="translate(118,201)"/>
<path d="M0 0 C0 0.66 0 1.32 0 2 C-0.99 2 -1.98 2 -3 2 C-3.20625 2.639375 -3.4125 3.27875 -3.625 3.9375 C-5 6 -5 6 -8.125 6.75 C-9.548125 6.87375 -9.548125 6.87375 -11 7 C-8.21677024 3.90752249 -4.31039412 0 0 0 Z " fill="#525252" transform="translate(196,123)"/>
<path d="M0 0 C0 0.66 0 1.32 0 2 C0.66 2.33 1.32 2.66 2 3 C2 4.65 2 6.3 2 8 C-2.875 3.25 -2.875 3.25 -4 1 C-2 0 -2 0 0 0 Z " fill="#2E2E2E" transform="translate(454,181)"/>
<path d="M0 0 C0.33 0.66 0.66 1.32 1 2 C0.21654285 3.17219543 -0.57702836 4.33763668 -1.375 5.5 C-1.81585938 6.1496875 -2.25671875 6.799375 -2.7109375 7.46875 C-3.13632812 7.9740625 -3.56171875 8.479375 -4 9 C-4.66 9 -5.32 9 -6 9 C-5.52797514 4.75177626 -3.03344482 2.80010291 0 0 Z " fill="#494949" transform="translate(478,139)"/>
<path d="M0 0 C-0.33 1.32 -0.66 2.64 -1 4 C-6.75 2.25 -6.75 2.25 -9 0 C-5.52176885 -1.15941038 -3.54104422 -0.70820884 0 0 Z " fill="#343434" transform="translate(395,133)"/>
<path d="M0 0 C2.96404505 2.80804268 5.44499019 5.18315774 7 9 C5.35 8.67 3.7 8.34 2 8 C1.855625 7.236875 1.71125 6.47375 1.5625 5.6875 C1.0367406 2.91827092 1.0367406 2.91827092 0 0 Z " fill="#767676" transform="translate(541,120)"/>
<path d="M0 0 C0.33 0.66 0.66 1.32 1 2 C-0.89732848 6.11087838 -3.0054207 7.94872955 -7 10 C-5.33248852 6.05860922 -2.77289351 3.2107188 0 0 Z " fill="#4D4D4D" transform="translate(482,456)"/>
<path d="M0 0 C-1.90401138 1.90401138 -3.33425686 2.93520439 -6.046875 3.19921875 C-8.03233273 3.1886578 -10.0169914 3.09915043 -12 3 C-12 2.67 -12 2.34 -12 2 C-10.35 2 -8.7 2 -7 2 C-7 1.34 -7 0.68 -7 0 C-2.25 -1.125 -2.25 -1.125 0 0 Z " fill="#585858" transform="translate(297,209)"/>
<path d="M0 0 C1 3 1 3 1 5 C-0.98 5.99 -2.96 6.98 -5 8 C-3.8141763 4.62496331 -2.72426311 2.35277269 0 0 Z " fill="#393939" transform="translate(73,138)"/>
<path d="M0 0 C0.33 0.66 0.66 1.32 1 2 C0.22265625 4.1640625 0.22265625 4.1640625 -0.9375 6.625 C-1.31777344 7.44226563 -1.69804688 8.25953125 -2.08984375 9.1015625 C-2.39019531 9.72804687 -2.69054687 10.35453125 -3 11 C-4.231394 8.53721199 -4.07159196 6.7204945 -4 4 C-3.01 3.67 -2.02 3.34 -1 3 C-0.67 2.01 -0.34 1.02 0 0 Z " fill="#A4A4A4" transform="translate(107,223)"/>
<path d="M0 0 C0.66 0.33 1.32 0.66 2 1 C-0.23943282 4.35914922 -1.26842083 4.81681636 -5 6 C-5.99 6 -6.98 6 -8 6 C-5.38485683 3.87961365 -2.80362384 1.86908256 0 0 Z " fill="#666666" transform="translate(138,54)"/>
<path d="M0 0 C4.7517398 0.43197635 6.92000054 1.32769295 10 5 C2.42857143 3.14285714 2.42857143 3.14285714 0 0 Z " fill="#585858" transform="translate(168,577)"/>
<path d="M0 0 C2.79872437 2.52788007 4.45773019 4.20411134 5 8 C2 7 2 7 0 4 C0 2.68 0 1.36 0 0 Z " fill="#828282" transform="translate(553,136)"/>
<path d="M0 0 C0 0.33 0 0.66 0 1 C-5.16044765 2.512545 -8.65998179 3.33500455 -14 2 C-14 1.67 -14 1.34 -14 1 C-9.23692563 0.04738513 -4.8333472 -0.08333357 0 0 Z " fill="#ADADAD" transform="translate(279,7)"/>
<path d="M0 0 C1.65 1.65 3.3 3.3 5 5 C3.824375 5.2165625 3.824375 5.2165625 2.625 5.4375 C0.03578982 5.87798925 0.03578982 5.87798925 -2 7 C-1.34 4.69 -0.68 2.38 0 0 Z " fill="#292929" transform="translate(159,434)"/>
<path d="M0 0 C0.33 0 0.66 0 1 0 C1.29296875 6.0546875 1.29296875 6.0546875 1 8 C0.01 8.66 -0.98 9.32 -2 10 C-1.34 6.7 -0.68 3.4 0 0 Z " fill="#6C6C6C" transform="translate(15,217)"/>
<path d="" fill="#111111" transform="translate(0,0)"/>
<path d="" fill="#131313" transform="translate(0,0)"/>
<path d="" fill="#121212" transform="translate(0,0)"/>
<path d="" fill="#111111" transform="translate(0,0)"/>
<path d="" fill="#121212" transform="translate(0,0)"/>
</svg>
