<?xml version="1.0" encoding="UTF-8"?>
<svg version="1.1" xmlns="http://www.w3.org/2000/svg" width="612" height="612">
<path d="M0 0 C2.39299125 0.43269081 4.78900064 0.84896474 7.1875 1.25 C32.96826082 5.95014107 59.04631908 15.37222091 82 28 C83.48812109 28.79977724 84.97641089 29.59924063 86.46484375 30.3984375 C99.94306335 37.70220601 112.7704317 45.73517553 125 55 C125.53592773 55.40444336 126.07185547 55.80888672 126.62402344 56.22558594 C139.94140684 66.32187946 151.88116328 77.65668881 163.578125 89.56982422 C164.98762259 90.98755033 166.43130526 92.37101931 167.875 93.75390625 C170 96 170 96 170 98 C170.66 98 171.32 98 172 98 C173.26953125 99.37109375 173.26953125 99.37109375 174.8125 101.4375 C175.42738281 102.25347656 176.04226563 103.06945312 176.67578125 103.91015625 C177.44277344 104.92980469 178.20976563 105.94945313 179 107 C180.03329767 108.33347353 181.06860334 109.6653925 182.10546875 110.99609375 C188.14913555 118.77494021 193.91159625 126.55226174 199 135 C199.65484375 136.04671875 200.3096875 137.0934375 200.984375 138.171875 C207.54705654 148.68203416 213.3625567 159.40478519 218.5 170.6875 C219.21446289 172.25189819 219.21446289 172.25189819 219.94335938 173.84790039 C223.67750062 182.110261 227.0446205 190.42750499 230 199 C230.23082275 199.6587915 230.46164551 200.31758301 230.69946289 200.99633789 C252.77205217 265.25306622 251.74417483 338.59798439 227.69824219 402.14794922 C227.03527732 403.90642877 226.39586019 405.67373324 225.7578125 407.44140625 C222.99409342 414.94680021 219.62504952 422.01810046 215.95898438 429.12158203 C214.9480007 431.10185403 213.96346005 433.09361901 212.984375 435.08984375 C207.98960614 445.26185512 202.63274323 454.88088776 196.03125 464.1171875 C194.4981767 466.29297229 193.00458956 468.47967113 191.53125 470.6953125 C185.66438719 479.47576812 179.39623428 487.60943051 172.35644531 495.48046875 C171.16055657 496.82013966 169.98128452 498.17460433 168.8046875 499.53125 C164.0140489 504.99585677 158.93707364 510.16350148 153.8125 515.3125 C153.13477539 515.99489746 152.45705078 516.67729492 151.75878906 517.38037109 C141.10516479 528 141.10516479 528 138 528 C138 528.66 138 529.32 138 530 C136.09716151 531.62754707 134.19366404 533.1341063 132.1875 534.625 C131.60162109 535.067229 131.01574219 535.50945801 130.41210938 535.96508789 C128.61380991 537.31794372 126.80818838 538.66039854 125 540 C123.96488281 540.76957031 122.92976563 541.53914062 121.86328125 542.33203125 C110.07548701 551 110.07548701 551 107 551 C107 551.66 107 552.32 107 553 C105.71086513 553.67154933 104.41859796 554.33708859 103.125 555 C102.40570313 555.37125 101.68640625 555.7425 100.9453125 556.125 C99 557 99 557 97 557 C97 557.66 97 558.32 97 559 C72.85979281 572.05202692 48.50202839 582.65975498 22 590 C21.32195312 590.19045898 20.64390625 590.38091797 19.9453125 590.57714844 C-28.52805664 604.03386186 -86.84266105 605.4684572 -135 590 C-137.22790994 589.3705349 -139.45695246 588.7450538 -141.6875 588.125 C-152.66048862 584.99668333 -163.49343186 581.46831059 -174 577 C-174.59425781 576.74992188 -175.18851563 576.49984375 -175.80078125 576.2421875 C-184.46719204 572.58417585 -192.84098953 568.70197703 -201 564 C-202.48025072 563.16497797 -203.96074093 562.3303804 -205.44140625 561.49609375 C-224.61976914 550.62085196 -241.88706337 537.79705982 -258.47851562 523.32617188 C-259.80971056 522.16586204 -261.14657867 521.01206744 -262.484375 519.859375 C-272.64084507 511.07746479 -272.64084507 511.07746479 -274 507 C-274.66 507 -275.32 507 -276 507 C-276 506.34 -276 505.68 -276 505 C-276.66 505 -277.32 505 -278 505 C-279.39599396 503.47162731 -280.71587649 501.87349901 -282 500.25 C-283.20076172 498.74759766 -283.20076172 498.74759766 -284.42578125 497.21484375 C-284.84682129 496.68616699 -285.26786133 496.15749023 -285.70166016 495.61279297 C-287.40574964 493.49597929 -289.15239465 491.41689977 -290.90283203 489.33837891 C-303 474.96983086 -303 474.96983086 -303 472 C-303.66 472 -304.32 472 -305 472 C-331.24056888 438.45292542 -347.34309217 392.26477275 -355 351 C-355.18433594 350.08734375 -355.36867188 349.1746875 -355.55859375 348.234375 C-364.42590201 301.21701959 -360.18398564 248.07391595 -344.71142578 203.08447266 C-344.00159068 201.00466068 -343.32266726 198.91706838 -342.65234375 196.82421875 C-340.46280419 190.01958692 -338.07837452 183.45086125 -335 177 C-334.38177171 175.66454382 -333.76470099 174.32855149 -333.1484375 172.9921875 C-329.68034719 165.50342175 -326.12031084 158.15495247 -322 151 C-320.89155128 148.98151224 -319.78751153 146.96059813 -318.6875 144.9375 C-317.91986328 143.52791016 -317.91986328 143.52791016 -317.13671875 142.08984375 C-316.76160156 141.40019531 -316.38648438 140.71054688 -316 140 C-315.34 140 -314.68 140 -314 140 C-313.89300781 139.43796875 -313.78601563 138.8759375 -313.67578125 138.296875 C-309.39225718 123.7378452 -294.40188847 109.18718906 -284.59375 97.98828125 C-282.93305512 96.07498067 -281.32254093 94.11620216 -279.78125 92.10546875 C-279.1934375 91.41066406 -278.605625 90.71585937 -278 90 C-277.34 90 -276.68 90 -276 90 C-275.773125 89.443125 -275.54625 88.88625 -275.3125 88.3125 C-272.59845869 83.53061769 -268.22998281 80.38398625 -264 77 C-263.278125 76.278125 -262.55625 75.55625 -261.8125 74.8125 C-250.90527672 63.90527672 -238.73494814 54.660618 -226 46 C-225.24074219 45.47664063 -224.48148438 44.95328125 -223.69921875 44.4140625 C-219.38959984 41.48143754 -215.01523596 38.82169608 -210.42675781 36.34912109 C-208.05148031 35.02861974 -205.75342573 33.62155486 -203.4453125 32.1875 C-197.9165829 28.859774 -192.19285222 26.14410276 -186.3125 23.5 C-185.25522705 23.02151611 -184.1979541 22.54303223 -183.10864258 22.05004883 C-169.00766207 15.70810994 -154.81464106 10.41238538 -140 6 C-138.8140625 5.64035156 -137.628125 5.28070313 -136.40625 4.91015625 C-94.98952609 -6.91640826 -42.20697544 -11.48176698 0 0 Z " fill="#C107C1" transform="translate(361,10)"/>
<path d="M0 0 C0 0.66 0 1.32 0 2 C0.58265625 2.08636719 1.1653125 2.17273438 1.765625 2.26171875 C9.00560859 3.50253355 15.31360389 6.01784858 22 9 C23.41571477 9.60639385 24.83219592 10.21100736 26.25 10.8125 C27.1575 11.204375 28.065 11.59625 29 12 C29 12.66 29 13.32 29 14 C29.87785156 14.26167969 30.75570312 14.52335937 31.66015625 14.79296875 C36.95244923 16.705622 41.34754296 19.88043343 46 23 C46.74765625 23.495 47.4953125 23.99 48.265625 24.5 C49.88629801 25.60680108 51.4508594 26.79511286 53 28 C53 28.66 53 29.32 53 30 C53.86625 30.4021875 53.86625 30.4021875 54.75 30.8125 C57.05550043 32.02929189 59.02056192 33.30333879 61 35 C61 35.66 61 36.32 61 37 C61.7425 37.226875 62.485 37.45375 63.25 37.6875 C66.5425747 39.2589561 67.97497109 40.99995716 70 44 C70 44.66 70 45.32 70 46 C70.66 46 71.32 46 72 46 C76 50.47058824 76 50.47058824 76 53 C76.66 53 77.32 53 78 53 C81 56.46153846 81 56.46153846 81 59 C81.66 59 82.32 59 83 59 C87.44959632 63.67743709 90.50835617 69.47407014 93.48828125 75.14453125 C94.49020761 77.03705882 95.52925736 78.91042567 96.60546875 80.76171875 C99.84650036 86.37150434 101.95911516 91.54573914 103.359375 97.8828125 C103.57078125 98.58148438 103.7821875 99.28015625 104 100 C104.66 100.33 105.32 100.66 106 101 C106.73146906 103.07595064 107.35954411 105.1886862 107.9375 107.3125 C108.28425781 108.58222656 108.63101562 109.85195313 108.98828125 111.16015625 C109.32214844 112.42730469 109.65601563 113.69445312 110 115 C110.28230469 116.07121094 110.56460937 117.14242187 110.85546875 118.24609375 C111.60175752 121.15927174 112.32968727 124.06830258 113 127 C113.17136475 127.69174316 113.34272949 128.38348633 113.51928711 129.09619141 C115.17907858 136.36490784 115.34445915 143.43965517 115.3125 150.875 C115.30976074 152.17332764 115.30702148 153.47165527 115.30419922 154.80932617 C115.10386924 180.37876949 111.59100358 203.69860478 101 227 C100.70996094 227.6388916 100.41992188 228.2777832 100.12109375 228.93603516 C92.74796962 244.93906594 82.83780202 258.987168 71 272 C70.33460205 272.7412915 70.33460205 272.7412915 69.65576172 273.49755859 C45.72979941 299.83432826 9.5403751 318.82675222 -26 322 C-26.33 322.33 -26.66 322.66 -27 323 C-28.92236107 323.10053793 -30.84845023 323.13081828 -32.7734375 323.1328125 C-33.98169189 323.13498779 -35.18994629 323.13716309 -36.43481445 323.1394043 C-37.73507568 323.13465088 -39.03533691 323.12989746 -40.375 323.125 C-41.03382172 323.12311676 -41.69264343 323.12123352 -42.37142944 323.11929321 C-95.5896755 322.94021633 -95.5896755 322.94021633 -115 310 C-116.42783768 309.43335322 -117.86698503 308.8948995 -119.3125 308.375 C-131.66694483 303.49777359 -142.40707873 295.86782939 -153 288 C-154.18722656 287.17435547 -154.18722656 287.17435547 -155.3984375 286.33203125 C-156.19121094 285.67267578 -156.19121094 285.67267578 -157 285 C-157 284.34 -157 283.68 -157 283 C-157.87591797 282.59587891 -157.87591797 282.59587891 -158.76953125 282.18359375 C-166.8940599 277.87232899 -172.42002875 270.0633791 -178 263 C-178.6703125 262.20722656 -179.340625 261.41445313 -180.03125 260.59765625 C-185.92039969 253.57507895 -190.48314151 245.94166116 -195 238 C-195.65484375 236.85660156 -196.3096875 235.71320313 -196.984375 234.53515625 C-200.69743292 227.86275943 -203.62434461 221.25023132 -206 214 C-206.25265625 213.30003906 -206.5053125 212.60007812 -206.765625 211.87890625 C-207.57490681 209.60172499 -208.29879986 207.31291391 -209 205 C-209.33128906 203.90816406 -209.66257813 202.81632813 -210.00390625 201.69140625 C-218.03372458 172.74257779 -217.85626333 137.50669265 -208 109 C-207.34 109 -206.68 109 -206 109 C-205.88785156 107.99839844 -205.77570313 106.99679688 -205.66015625 105.96484375 C-205.08827965 101.96170753 -203.84634175 98.35553549 -202.4375 94.5625 C-201.98246094 93.32628906 -201.52742187 92.09007812 -201.05859375 90.81640625 C-200.70925781 89.88699219 -200.35992187 88.95757812 -200 88 C-199.34 88 -198.68 88 -198 88 C-197.855625 87.21625 -197.71125 86.4325 -197.5625 85.625 C-197 83 -197 83 -196 81 C-195.34 81 -194.68 81 -194 81 C-193.89816406 80.10667969 -193.79632813 79.21335937 -193.69140625 78.29296875 C-192.96529771 74.83472301 -192.02758704 73.11673978 -189.9375 70.3125 C-189.30199219 69.45011719 -188.66648438 68.58773437 -188.01171875 67.69921875 C-187.34785156 66.80847656 -186.68398437 65.91773438 -186 65 C-185.08154297 63.67935547 -185.08154297 63.67935547 -184.14453125 62.33203125 C-174.2697735 48.22232585 -161.04280609 32.6496135 -146 24 C-145.34 24 -144.68 24 -144 24 C-144 23.34 -144 22.68 -144 22 C-141.09451118 19.95830515 -139.59857954 19 -136 19 C-136 18.34 -136 17.68 -136 17 C-132.63316085 14.56839395 -131.26649636 14 -127 14 C-127 13.34 -127 12.68 -127 12 C-117.1827014 7.16793956 -107.44740056 3.26252158 -97 0 C-96.05769531 -0.33257812 -95.11539063 -0.66515625 -94.14453125 -1.0078125 C-90.06084931 -2.29632829 -85.93880967 -3.18677906 -81.75 -4.0625 C-80.95464844 -4.23587891 -80.15929687 -4.40925781 -79.33984375 -4.58789062 C-52.85709425 -10.17108741 -25.93040438 -6.68518238 0 0 Z " fill="#FDFDFD" transform="translate(354,149)"/>
<path d="M0 0 C2.6046246 0.91056759 5.24434335 1.5281377 7.93408203 2.13549805 C12.78045782 3.30531289 17.26368006 4.8628502 21.84033203 6.83081055 C23.87978354 7.65102474 25.85392019 8.22076882 27.99658203 8.69799805 C27.99658203 9.35799805 27.99658203 10.01799805 27.99658203 10.69799805 C28.95951172 10.82561523 28.95951172 10.82561523 29.94189453 10.95581055 C43.10440412 14.15386275 54.93699552 22.19127115 65.40136719 30.48950195 C67.02403455 31.71879541 68.69491477 32.80893502 70.41455078 33.8972168 C71.26662109 34.49147461 72.11869141 35.08573242 72.99658203 35.69799805 C72.99658203 36.35799805 72.99658203 37.01799805 72.99658203 37.69799805 C73.55990234 37.94420898 74.12322266 38.19041992 74.70361328 38.4440918 C82.62408393 42.77538835 90.07773133 50.93563964 95.99658203 57.69799805 C95.99658203 58.35799805 95.99658203 59.01799805 95.99658203 59.69799805 C96.65658203 59.69799805 97.31658203 59.69799805 97.99658203 59.69799805 C101.99658203 64.16858628 101.99658203 64.16858628 101.99658203 66.69799805 C102.65658203 66.69799805 103.31658203 66.69799805 103.99658203 66.69799805 C105.63167067 68.89533835 107.13868573 71.08799813 108.62158203 73.38549805 C109.06381104 74.05871094 109.50604004 74.73192383 109.96166992 75.42553711 C113.53861819 80.90243796 116.95734817 86.46930489 120.30517578 92.08862305 C121.79735732 94.64044658 121.79735732 94.64044658 123.53173828 96.07299805 C125.93382028 98.73770768 126.82795152 102.1125318 127.99658203 105.44799805 C128.49492888 106.83921633 128.99491859 108.22984726 129.49658203 109.61987305 C129.86783203 110.65374146 129.86783203 110.65374146 130.24658203 111.70849609 C130.93100975 113.52405646 131.70931915 115.30351266 132.49658203 117.0769043 C134.36816366 121.59501932 135.68804107 126.17864406 136.99658203 130.88549805 C137.25858398 131.82022949 137.52058594 132.75496094 137.79052734 133.71801758 C138.5318641 136.37639763 139.26491168 139.03694478 139.99658203 141.69799805 C140.32142578 142.85686523 140.64626953 144.01573242 140.98095703 145.2097168 C144.346872 157.79755186 145.36862661 170.45889327 145.30908203 183.44799805 C145.30659454 184.10864258 145.30410706 184.76928711 145.30154419 185.44995117 C145.10427403 219.78418221 137.39669753 250.95730365 120.91845703 281.1315918 C119.26175946 284.17184258 117.7378616 287.26025475 116.24658203 290.38549805 C114.56877628 293.80889968 112.80289199 296.0852267 109.99658203 298.69799805 C109.68720703 299.52299805 109.37783203 300.34799805 109.05908203 301.19799805 C107.68744673 304.42537523 105.73469148 305.53298128 102.99658203 307.69799805 C102.06793267 308.92381521 101.17271829 310.17553989 100.30908203 311.44799805 C99.16439453 313.05674805 99.16439453 313.05674805 97.99658203 314.69799805 C97.33658203 314.69799805 96.67658203 314.69799805 95.99658203 314.69799805 C95.74263672 315.2909668 95.48869141 315.88393555 95.22705078 316.49487305 C93.86031829 318.94197503 92.47915221 320.19147758 90.30908203 321.94799805 C87.4371221 324.36540317 84.95500451 326.809456 82.55908203 329.69799805 C78.9147713 333.98739367 74.7921788 337.72398455 69.99658203 340.69799805 C69.00658203 340.69799805 68.01658203 340.69799805 66.99658203 340.69799805 C66.66658203 341.68799805 66.33658203 342.67799805 65.99658203 343.69799805 C51.81515341 354.52007394 34.94087653 363.29927892 17.99658203 368.69799805 C15.74553096 369.5493909 13.49555267 370.4036248 11.24658203 371.26049805 C-29.55510371 385.69312993 -82.68079146 384.44411163 -121.97973633 365.75830078 C-123.32431596 365.0862557 -124.66555962 364.40749565 -126.00341797 363.72216797 C-127.95616633 362.7221949 -129.92287755 361.75846561 -131.89794922 360.8034668 C-139.04694169 357.31582411 -145.89695849 353.6922817 -152.53857422 349.2878418 C-155.57140948 347.33163902 -158.71421571 345.66173911 -161.93310547 344.03393555 C-164.68151134 342.26043591 -166.72902529 340.04453914 -169.00341797 337.69799805 C-170.82580095 335.99867829 -172.65932827 334.31123686 -174.50341797 332.63549805 C-175.42123047 331.79889648 -176.33904297 330.96229492 -177.28466797 330.1003418 C-179.08543947 328.50914284 -180.94118128 326.97792979 -182.84716797 325.5144043 C-183.55873047 324.91499023 -184.27029297 324.31557617 -185.00341797 323.69799805 C-185.00341797 323.03799805 -185.00341797 322.37799805 -185.00341797 321.69799805 C-185.66341797 321.69799805 -186.32341797 321.69799805 -187.00341797 321.69799805 C-192.00341797 316.22180757 -192.00341797 316.22180757 -192.00341797 313.69799805 C-192.99341797 313.69799805 -193.98341797 313.69799805 -195.00341797 313.69799805 C-196.69091797 311.38549805 -196.69091797 311.38549805 -197.71826172 309.71362305 C-199.28184512 307.26131595 -201.01277397 304.9654403 -202.75341797 302.63549805 C-208.17557874 295.21302703 -213.83365648 287.37481991 -217.00341797 278.69799805 C-217.66341797 278.69799805 -218.32341797 278.69799805 -219.00341797 278.69799805 C-219.23416016 278.1153418 -219.46490234 277.53268555 -219.70263672 276.93237305 C-221.54182708 272.30895381 -223.42291917 267.71098552 -225.37841797 263.13549805 C-230.1750843 251.63238158 -234.40168217 239.90345658 -237.00341797 227.69799805 C-237.18517578 226.86913086 -237.36693359 226.04026367 -237.55419922 225.1862793 C-240.26771201 211.66014301 -241.18106379 198.03368723 -241.19091797 184.26049805 C-241.19172363 183.19565186 -241.1925293 182.13080566 -241.19335938 181.03369141 C-241.14338249 173.88199962 -240.69502029 166.81537381 -240.00341797 159.69799805 C-239.34341797 159.69799805 -238.68341797 159.69799805 -238.00341797 159.69799805 C-238.04982422 157.9809668 -238.04982422 157.9809668 -238.09716797 156.22924805 C-238.09716797 151.74959426 -237.40294694 147.57408493 -236.50341797 143.19799805 C-236.36033203 142.4709668 -236.21724609 141.74393555 -236.06982422 140.99487305 C-235.72108099 139.22790733 -235.36322074 137.46274495 -235.00341797 135.69799805 C-234.34341797 135.69799805 -233.68341797 135.69799805 -233.00341797 135.69799805 C-232.90029297 134.54299805 -232.79716797 133.38799805 -232.69091797 132.19799805 C-231.84052638 125.47754227 -229.01222807 119.56469506 -226.22998047 113.44799805 C-225.25846052 111.26981319 -224.32206759 109.08539698 -223.40185547 106.88549805 C-220.19452902 99.27270079 -216.86034681 92.41655071 -212.00341797 85.69799805 C-210.70810033 83.72121893 -209.41669024 81.74187586 -208.12841797 79.76049805 C-195.56934018 60.95762826 -179.46477681 43.79874895 -161.00341797 30.69799805 C-160.43429688 30.28984863 -159.86517578 29.88169922 -159.27880859 29.46118164 C-127.27002448 6.69799805 -127.27002448 6.69799805 -114.00341797 6.69799805 C-114.00341797 6.03799805 -114.00341797 5.37799805 -114.00341797 4.69799805 C-111.25466115 4.02581297 -108.50461071 3.3600737 -105.75341797 2.69799805 C-104.97611328 2.5072168 -104.19880859 2.31643555 -103.39794922 2.11987305 C-102.64384766 1.9394043 -101.88974609 1.75893555 -101.11279297 1.57299805 C-100.07590332 1.32163086 -100.07590332 1.32163086 -99.01806641 1.06518555 C-97.00341797 0.69799805 -97.00341797 0.69799805 -93.00341797 0.69799805 C-93.00341797 0.03799805 -93.00341797 -0.62200195 -93.00341797 -1.30200195 C-64.43016753 -7.53269068 -27.90070808 -9.96100429 0 0 Z M-73.00341797 23.69799805 C-74.74625107 24.0077049 -76.48981595 24.31330743 -78.23388672 24.6159668 C-80.13642782 24.95470396 -82.03877123 25.29455334 -83.94091797 25.63549805 C-84.84229492 25.79308594 -85.74367188 25.95067383 -86.67236328 26.11303711 C-91.60720826 27.03497183 -95.55890492 28.265971 -100.00341797 30.69799805 C-101.46997077 31.15709284 -102.94991277 31.57591119 -104.44091797 31.94799805 C-111.65255599 33.99111142 -118.2851666 37.42844905 -125.00341797 40.69799805 C-125.00341797 41.35799805 -125.00341797 42.01799805 -125.00341797 42.69799805 C-125.93154297 42.82174805 -126.85966797 42.94549805 -127.81591797 43.07299805 C-131.14267032 43.51332886 -131.14267032 43.51332886 -134.00341797 45.69799805 C-134.00341797 46.35799805 -134.00341797 47.01799805 -134.00341797 47.69799805 C-134.76654297 47.82174805 -135.52966797 47.94549805 -136.31591797 48.07299805 C-139.20608933 48.57902597 -139.20608933 48.57902597 -142.00341797 50.69799805 C-142.00341797 51.35799805 -142.00341797 52.01799805 -142.00341797 52.69799805 C-142.69435547 52.91842773 -143.38529297 53.13885742 -144.09716797 53.3659668 C-147.73628877 55.03389716 -150.5166807 57.40143405 -153.50341797 60.01049805 C-154.05900391 60.48422852 -154.61458984 60.95795898 -155.18701172 61.44604492 C-158.61178383 64.39134894 -161.83439653 67.47580511 -165.00341797 70.69799805 C-165.63763672 71.29741211 -166.27185547 71.89682617 -166.92529297 72.5144043 C-172.70701497 78.03669005 -177.3538989 84.21204416 -182.00341797 90.69799805 C-182.66986328 91.62741211 -183.33630859 92.55682617 -184.02294922 93.5144043 C-189.84484835 100.93673571 -189.84484835 100.93673571 -192.00341797 109.69799805 C-192.66341797 109.69799805 -193.32341797 109.69799805 -194.00341797 109.69799805 C-196.3732181 112.65177303 -196.3732181 112.65177303 -196.00341797 116.69799805 C-196.66341797 116.69799805 -197.32341797 116.69799805 -198.00341797 116.69799805 C-199.01372861 119.25685031 -200.01181942 121.81940181 -201.00341797 124.38549805 C-201.28958984 125.10672852 -201.57576172 125.82795898 -201.87060547 126.57104492 C-203.34246817 130.40840126 -204.39956794 133.51366393 -204.00341797 137.69799805 C-204.66341797 137.69799805 -205.32341797 137.69799805 -206.00341797 137.69799805 C-215.42802829 171.59914487 -218.5980746 214.99657891 -202.12060547 247.4909668 C-201.06575358 249.57485252 -200.26540272 251.61837926 -199.50341797 253.82299805 C-197.83724448 258.40264808 -195.46602738 262.50528343 -193.00341797 266.69799805 C-192.53806641 267.50366211 -192.07271484 268.30932617 -191.59326172 269.1394043 C-185.58286234 279.38112484 -178.60076502 288.58694807 -171.00341797 297.69799805 C-170.54064453 298.28581055 -170.07787109 298.87362305 -169.60107422 299.47924805 C-165.75353573 304.35020586 -160.98506541 309.70411557 -155.00341797 311.69799805 C-155.00341797 312.35799805 -155.00341797 313.01799805 -155.00341797 313.69799805 C-148.56383203 319.44311884 -141.08967244 324.01626391 -133.75341797 328.51049805 C-133.00979004 328.96610107 -132.26616211 329.4217041 -131.5 329.89111328 C-122.70991082 335.23343994 -122.70991082 335.23343994 -113.12841797 338.82299805 C-110.00341797 339.69799805 -110.00341797 339.69799805 -108.00341797 341.69799805 C-106.0037425 342.40663483 -103.97782188 343.04229445 -101.94091797 343.63549805 C-98.08349498 344.77202245 -94.27812692 345.93823517 -90.50341797 347.32299805 C-74.14183442 352.7571702 -55.38328467 351.77934252 -38.37841797 351.82299805 C-37.07839844 351.8276709 -35.77837891 351.83234375 -34.43896484 351.8371582 C-33.23046875 351.83506348 -32.02197266 351.83296875 -30.77685547 351.83081055 C-29.14369385 351.82911865 -29.14369385 351.82911865 -27.47753906 351.82739258 C-25.06001385 351.97766429 -25.06001385 351.97766429 -24.00341797 350.69799805 C-22.133763 350.39243955 -20.25702816 350.13003733 -18.37841797 349.88549805 C14.52635475 344.919414 44.13119886 328.55675697 67.99658203 305.69799805 C68.74037109 305.00577148 69.48416016 304.31354492 70.25048828 303.6003418 C83.92029253 290.50110329 95.92176889 273.27926126 102.99658203 255.69799805 C103.56311005 254.3896287 104.13233882 253.08242693 104.70361328 251.77612305 C114.76312582 228.53214877 117.22815024 204.73811577 117.30908203 179.57299805 C117.31456055 178.33541748 117.32003906 177.09783691 117.32568359 175.82275391 C117.27050436 168.86684048 116.66965371 162.44769771 114.99658203 155.69799805 C114.75379517 154.65361572 114.75379517 154.65361572 114.50610352 153.58813477 C111.8680801 141.44818757 111.8680801 141.44818757 107.99658203 129.69799805 C107.33658203 129.36799805 106.67658203 129.03799805 105.99658203 128.69799805 C105.41474916 126.86205908 104.90819094 125.00215874 104.43408203 123.13549805 C101.282575 112.36091175 95.2480362 102.94329209 88.99658203 93.69799805 C88.29533203 92.58424805 87.59408203 91.47049805 86.87158203 90.32299805 C86.25283203 89.45674805 85.63408203 88.59049805 84.99658203 87.69799805 C84.33658203 87.69799805 83.67658203 87.69799805 82.99658203 87.69799805 C81.99658203 85.69799805 80.99658203 83.69799805 79.99658203 81.69799805 C79.33658203 81.69799805 78.67658203 81.69799805 77.99658203 81.69799805 C77.89345703 81.09987305 77.79033203 80.50174805 77.68408203 79.88549805 C76.89834171 77.38541519 76.0273935 76.32264722 73.99658203 74.69799805 C73.33658203 74.69799805 72.67658203 74.69799805 71.99658203 74.69799805 C71.76970703 74.14112305 71.54283203 73.58424805 71.30908203 73.01049805 C69.62108167 70.03640217 67.52981686 67.9779094 64.99658203 65.69799805 C64.33658203 65.69799805 63.67658203 65.69799805 62.99658203 65.69799805 C62.62533203 64.80081055 62.62533203 64.80081055 62.24658203 63.88549805 C60.81585678 61.38172886 59.42742383 60.21727417 56.99658203 58.69799805 C56.33658203 58.69799805 55.67658203 58.69799805 54.99658203 58.69799805 C54.99658203 58.03799805 54.99658203 57.37799805 54.99658203 56.69799805 C48.41375002 51.26366013 39.51026623 44.36963467 30.99658203 42.69799805 C30.99658203 42.03799805 30.99658203 41.37799805 30.99658203 40.69799805 C24.79686947 37.66903245 18.5343504 35.07535238 11.99658203 32.88549805 C11.35003662 32.66676025 10.70349121 32.44802246 10.03735352 32.22265625 C7.22651073 31.30249496 4.97575372 30.69799805 1.99658203 30.69799805 C1.99658203 30.03799805 1.99658203 29.37799805 1.99658203 28.69799805 C-1.98611479 27.85765822 -5.96969535 27.02165135 -9.95410156 26.18945312 C-11.30623225 25.9064303 -12.6581264 25.62227474 -14.00976562 25.33691406 C-33.4682723 21.23092466 -53.35798682 19.64202091 -73.00341797 23.69799805 Z " fill="#BF09BF" transform="translate(352.00341796875,120.302001953125)"/>
<path d="M0 0 C1.58225372 0.00548355 1.58225372 0.00548355 3.19647217 0.01107788 C42.38203792 0.17064095 42.38203792 0.17064095 54.375 6.375 C57.09452629 7.1681074 59.85274378 7.7352563 62.625 8.3125 C69.19319875 9.77022363 75.22110719 11.62511676 81.375 14.375 C82.39194946 14.82214355 82.39194946 14.82214355 83.42944336 15.27832031 C89.14550489 17.798097 94.79804465 20.43871173 100.4375 23.125 C101.7359082 23.74181641 101.7359082 23.74181641 103.06054688 24.37109375 C105.16584097 25.37139923 107.27064832 26.37271388 109.375 27.375 C109.375 28.035 109.375 28.695 109.375 29.375 C110.6125 29.684375 110.6125 29.684375 111.875 30 C116.26643822 31.72520787 119.92181549 34.14969061 123.375 37.375 C123.375 38.035 123.375 38.695 123.375 39.375 C124.5815625 39.6534375 124.5815625 39.6534375 125.8125 39.9375 C130.63752502 41.88443992 134.58977946 44.80848109 138.375 48.375 C138.375 49.035 138.375 49.695 138.375 50.375 C139.365 50.375 140.355 50.375 141.375 50.375 C141.375 51.035 141.375 51.695 141.375 52.375 C142.035 52.375 142.695 52.375 143.375 52.375 C143.375 53.035 143.375 53.695 143.375 54.375 C143.90738281 54.58382812 144.43976563 54.79265625 144.98828125 55.0078125 C148.35203424 56.93467591 150.84204235 59.51313428 153.5625 62.25 C154.10841797 62.77980469 154.65433594 63.30960938 155.21679688 63.85546875 C158.04258686 66.67775714 159.4379834 68.57068298 160.375 72.375 C161.69147119 73.07437532 163.02522151 73.74229133 164.375 74.375 C164.705 75.365 165.035 76.355 165.375 77.375 C166.035 77.375 166.695 77.375 167.375 77.375 C168.66845703 78.82104492 168.66845703 78.82104492 170.1328125 80.85546875 C170.94165894 81.97332764 170.94165894 81.97332764 171.7668457 83.11376953 C172.33878662 83.92185059 172.91072754 84.72993164 173.5 85.5625 C174.08676514 86.3860498 174.67353027 87.20959961 175.27807617 88.05810547 C181.8055879 97.29425139 187.65961286 106.73733155 192.8125 116.8125 C193.15514893 117.47523926 193.49779785 118.13797852 193.85083008 118.82080078 C195.76358381 122.66581121 196.90635807 126.10441794 197.375 130.375 C198.035 130.375 198.695 130.375 199.375 130.375 C199.375 132.025 199.375 133.675 199.375 135.375 C200.035 135.375 200.695 135.375 201.375 135.375 C201.68953125 136.45136719 202.0040625 137.52773437 202.328125 138.63671875 C204.65722145 146.59057857 207.01429545 154.53256922 209.48046875 162.4453125 C209.77566406 163.41210938 210.07085938 164.37890625 210.375 165.375 C210.70064941 166.42381348 211.02629883 167.47262695 211.36181641 168.55322266 C212.410703 172.50967344 213.04269866 176.39444055 213.48046875 180.453125 C213.56435349 181.22706604 213.64823822 182.00100708 213.73466492 182.79840088 C214.70134964 192.5599225 214.72309686 202.32438331 214.6875 212.125 C214.68667419 213.088685 214.68584839 214.05237 214.68499756 215.04525757 C214.65251374 231.51506761 214.10483126 247.4857231 209.375 263.375 C208.82336179 265.51829157 208.28108418 267.66402308 207.75 269.8125 C207.35941406 271.38837891 207.35941406 271.38837891 206.9609375 272.99609375 C206.76757812 273.78113281 206.57421875 274.56617188 206.375 275.375 C205.715 275.375 205.055 275.375 204.375 275.375 C204.4678125 276.6125 204.4678125 276.6125 204.5625 277.875 C204.32775338 282.25693696 203.04881346 285.32995082 201.375 289.375 C200.715 289.375 200.055 289.375 199.375 289.375 C199.2925 290.15875 199.21 290.9425 199.125 291.75 C196.72813027 303.33487035 190.34512736 314.27170754 184.375 324.375 C183.715 324.375 183.055 324.375 182.375 324.375 C182.25898437 325.15423828 182.25898437 325.15423828 182.140625 325.94921875 C171.95326624 358.22651361 129.0171626 387.62054494 100.78515625 402.37133789 C84.60483994 410.60367457 66.79460249 418.41076693 48.67578125 420.87890625 C45.49144379 421.20925281 45.49144379 421.20925281 43.19677734 422.33691406 C39.49828793 423.6975281 35.82039832 424.09492059 31.92578125 424.48046875 C31.09605301 424.56435349 30.26632477 424.64823822 29.41145325 424.73466492 C19.47057856 425.65805506 9.53891372 425.72486323 -0.4375 425.6875 C-1.39935211 425.68634186 -2.36120422 425.68518372 -3.35220337 425.68399048 C-19.73468954 425.64499713 -35.97059265 425.51828623 -51.59594727 420.06860352 C-54.03379709 419.23525839 -56.49731933 418.60790666 -59 418 C-63.83524099 416.71869486 -68.15897613 414.88763912 -72.62890625 412.65625 C-75.20873696 411.55301079 -77.62251263 410.78959985 -80.31640625 410.04296875 C-85.92045311 408.40786889 -90.87213237 405.94621402 -96 403.1875 C-96.919021 402.69846191 -97.83804199 402.20942383 -98.78491211 401.70556641 C-105.70210311 397.97740256 -112.26673235 394.00507572 -118.625 389.375 C-120.11 388.29798828 -120.11 388.29798828 -121.625 387.19921875 C-130.37127194 380.73991842 -138.99776052 374.14218883 -146.625 366.375 C-147.59099401 365.41780133 -148.55849887 364.4621255 -149.52734375 363.5078125 C-160.47533366 352.67735143 -160.47533366 352.67735143 -164.625 347.375 C-164.625 346.715 -164.625 346.055 -164.625 345.375 C-165.285 345.375 -165.945 345.375 -166.625 345.375 C-168.31640625 343.36328125 -168.31640625 343.36328125 -170.1875 340.6875 C-171.11755859 339.38232422 -171.11755859 339.38232422 -172.06640625 338.05078125 C-173.625 335.375 -173.625 335.375 -174.08984375 332.66796875 C-174.26644531 331.91128906 -174.44304687 331.15460938 -174.625 330.375 C-175.94355428 329.67955998 -177.27918548 329.0160971 -178.625 328.375 C-181.32176885 324.594598 -183.42934947 320.4629546 -185.625 316.375 C-186.1096875 315.47652344 -186.594375 314.57804687 -187.09375 313.65234375 C-194.06535217 300.19327845 -200.42238174 286.20072472 -203.87109375 271.40625 C-204.53045501 268.43381336 -204.53045501 268.43381336 -205.625 265.96484375 C-206.94920753 262.53535315 -207.56908365 259.0453361 -208.1875 255.4375 C-208.31753418 254.69693359 -208.44756836 253.95636719 -208.58154297 253.19335938 C-209.60234566 247.11275635 -210.12001919 241.09840749 -210.4140625 234.9375 C-210.34132195 232.44310724 -210.34132195 232.44310724 -211.625 231.375 C-211.76421048 228.95139353 -211.83771248 226.55854715 -211.86328125 224.1328125 C-211.87302979 223.38589142 -211.88277832 222.63897034 -211.89282227 221.86941528 C-212.1461461 197.29415373 -210.62346403 173.82812335 -202.625 150.375 C-202.22474609 149.12009766 -202.22474609 149.12009766 -201.81640625 147.83984375 C-199.60577847 140.95817197 -197.07231336 134.17524226 -194.625 127.375 C-193.965 127.375 -193.305 127.375 -192.625 127.375 C-192.480625 126.7975 -192.33625 126.22 -192.1875 125.625 C-192.001875 124.8825 -191.81625 124.14 -191.625 123.375 C-191.4084375 122.385 -191.4084375 122.385 -191.1875 121.375 C-190.57731644 119.20545845 -189.68716572 117.35770935 -188.625 115.375 C-187.965 115.375 -187.305 115.375 -186.625 115.375 C-186.1609375 113.704375 -186.1609375 113.704375 -185.6875 112 C-184.625 108.375 -184.625 108.375 -183.625 106.375 C-182.965 106.375 -182.305 106.375 -181.625 106.375 C-180.965 103.735 -180.305 101.095 -179.625 98.375 C-178.635 98.375 -177.645 98.375 -176.625 98.375 C-176.52703125 97.65054688 -176.4290625 96.92609375 -176.328125 96.1796875 C-173.80647158 86.12109218 -162.85327137 76.7149944 -156.11157227 69.08520508 C-154.70258532 67.46425688 -153.34002284 65.81403655 -151.984375 64.1484375 C-149.95350479 61.76115629 -147.97068113 59.79936913 -145.5625 57.8125 C-143.2476129 55.85109659 -141.47514721 54.17831822 -139.625 51.75 C-137.2655641 48.94816987 -134.78420519 47.48052906 -131.6484375 45.64453125 C-129.69940711 44.421684 -128.08098658 43.09961989 -126.375 41.5625 C-123.625 39.375 -123.625 39.375 -119.625 39.375 C-119.38523437 38.78203125 -119.14546875 38.1890625 -118.8984375 37.578125 C-117.36454423 34.92439554 -115.80063904 33.802829 -113.25 32.125 C-112.47914063 31.60421875 -111.70828125 31.0834375 -110.9140625 30.546875 C-108.625 29.375 -108.625 29.375 -104.625 29.375 C-104.625 28.715 -104.625 28.055 -104.625 27.375 C-100.24038462 24.375 -100.24038462 24.375 -97.625 24.375 C-97.625 23.715 -97.625 23.055 -97.625 22.375 C-94.325 21.385 -91.025 20.395 -87.625 19.375 C-87.625 18.715 -87.625 18.055 -87.625 17.375 C-83.23046875 15.91015625 -78.8359375 14.4453125 -74.44140625 12.98046875 C-73.65000244 12.7165332 -72.85859863 12.45259766 -72.04321289 12.18066406 C-70.40470201 11.63476947 -68.76585657 11.08987823 -67.12670898 10.54589844 C-66.33208252 10.28196289 -65.53745605 10.01802734 -64.71875 9.74609375 C-64.00525391 9.50947021 -63.29175781 9.27284668 -62.55664062 9.02905273 C-60.88280544 8.46229282 -59.22130264 7.85935607 -57.5625 7.25 C-55.12467244 6.5238386 -53.06693584 6.14600239 -50.5625 5.875 C-46.83291425 5.57610428 -46.83291425 5.57610428 -44.36865234 4.44384766 C-30.57800519 -0.9285899 -14.5215407 -0.1095531 0 0 Z M-43.625 24.375 C-43.625 25.035 -43.625 25.695 -43.625 26.375 C-44.21925781 26.41238281 -44.81351563 26.44976562 -45.42578125 26.48828125 C-52.09634587 27.0173618 -58.22772899 28.44122416 -64.625 30.375 C-64.625 31.035 -64.625 31.695 -64.625 32.375 C-65.800625 32.54 -66.97625 32.705 -68.1875 32.875 C-75.04732799 34.37287383 -80.90431463 38.07145482 -86.97167969 41.46777344 C-88.88386622 42.51704768 -90.8346123 43.45639943 -92.8125 44.375 C-106.98082544 51.38265988 -119.76349376 62.07649347 -131.12939453 72.94677734 C-132.11728342 73.89015802 -133.11038081 74.82811792 -134.10888672 75.76025391 C-146.82018032 87.64173012 -156.8222662 101.41665521 -165.625 116.375 C-166.51712167 117.73161477 -167.41249243 119.08610402 -168.3125 120.4375 C-170.88114787 124.51812788 -172.58457298 128.89553353 -174.3671875 133.36328125 C-175.53104882 136.15004236 -176.83465849 138.77208141 -178.25 141.4375 C-181.4693827 147.72392867 -183.625 154.28472836 -183.625 161.375 C-184.285 161.375 -184.945 161.375 -185.625 161.375 C-186.13438345 163.87340454 -186.63263114 166.37323388 -187.125 168.875 C-187.26808594 169.57109375 -187.41117188 170.2671875 -187.55859375 170.984375 C-188.50777373 175.86587203 -188.75940046 180.40218299 -188.625 185.375 C-189.285 185.375 -189.945 185.375 -190.625 185.375 C-194.22586281 222.43198057 -189.42002611 257.41224472 -174.79296875 291.63671875 C-172.99478849 295.85251929 -171.31245692 300.1139356 -169.625 304.375 C-168.965 304.375 -168.305 304.375 -167.625 304.375 C-167.38910156 305.04402344 -167.15320313 305.71304687 -166.91015625 306.40234375 C-165.29017005 310.14948508 -163.23608986 313.48928175 -161.0625 316.9375 C-160.62429932 317.63697754 -160.18609863 318.33645508 -159.73461914 319.05712891 C-156.19945965 324.6267984 -152.37993273 329.90554372 -148.33984375 335.1171875 C-146.625 337.375 -146.625 337.375 -145.625 339.375 C-144.635 339.375 -143.645 339.375 -142.625 339.375 C-142.2228125 340.24125 -142.2228125 340.24125 -141.8125 341.125 C-140.59570811 343.43050043 -139.32166121 345.39556192 -137.625 347.375 C-136.965 347.375 -136.305 347.375 -135.625 347.375 C-135.625 348.035 -135.625 348.695 -135.625 349.375 C-134.24875656 350.84598687 -134.24875656 350.84598687 -132.375 352.375 C-131.65441406 352.98859375 -130.93382812 353.6021875 -130.19140625 354.234375 C-128.3042982 355.8084012 -126.41644079 357.38148912 -124.52734375 358.953125 C-123.73021973 359.61634766 -123.73021973 359.61634766 -122.91699219 360.29296875 C-121.36803189 361.57889805 -119.81494895 362.85985644 -118.26171875 364.140625 C-115.625 366.375 -115.625 366.375 -114.03125 368.0078125 C-95.69871628 385.83110918 -62.52727033 396.51454933 -38.4375 402.125 C-37.10259521 402.44114258 -37.10259521 402.44114258 -35.74072266 402.76367188 C-4.38338315 409.78955878 32.13940396 406.4890198 62.375 396.375 C63.65603802 395.96808204 64.93727223 395.56178094 66.21875 395.15625 C83.80538722 389.29403759 101.70468987 379.72589015 116.375 368.375 C116.375 367.715 116.375 367.055 116.375 366.375 C116.9215625 366.29765625 117.468125 366.2203125 118.03125 366.140625 C121.2408327 365.09216132 123.2825239 363.2759005 125.875 361.125 C126.8134375 360.35671875 127.751875 359.5884375 128.71875 358.796875 C131.26134794 356.47862393 133.24924405 354.06907029 135.375 351.375 C137.38742485 349.54862952 139.46617888 347.84013121 141.5703125 346.12109375 C143.43552306 344.31644197 144.36763363 342.74802283 145.375 340.375 C146.035 340.375 146.695 340.375 147.375 340.375 C148.76631742 338.77788354 150.09017335 337.12147316 151.375 335.4375 C155.16998861 330.47750569 155.16998861 330.47750569 157.375 329.375 C158.42521103 327.52528304 158.42521103 327.52528304 159.375 325.375 C161.15277778 321.48611111 161.15277778 321.48611111 163.375 320.375 C164.49607756 318.30145021 165.54662195 316.18956732 166.5625 314.0625 C168.86701746 309.29560472 171.30539299 304.71533522 174.0625 300.1875 C176.73632959 295.69331768 178.72479676 291.30024926 180.35546875 286.3359375 C181.25588226 283.72094347 182.25215476 281.18843358 183.296875 278.62890625 C198.71940974 240.26983851 198.89257563 194.62242465 186.08740234 155.58007812 C185.43693611 153.56670902 184.82648969 151.54790919 184.23828125 149.515625 C182.6713501 144.13975054 180.98741884 139.20658896 178.3125 134.28515625 C176.90694783 131.42134369 176.05614163 128.41751567 175.18359375 125.35546875 C174.25330229 123.07692879 173.12603135 122.08832972 171.375 120.375 C170.14859356 118.48299191 168.96651577 116.56201186 167.8125 114.625 C164.63556731 109.37480436 161.36924925 104.19156663 158 99.0625 C157.57130615 98.39831055 157.1426123 97.73412109 156.70092773 97.04980469 C155.64570754 95.45487566 154.51666213 93.90924112 153.375 92.375 C152.715 92.375 152.055 92.375 151.375 92.375 C150.941875 91.4778125 150.941875 91.4778125 150.5 90.5625 C149.32757974 88.18172208 149.32757974 88.18172208 147.375 85.375 C146.715 85.375 146.055 85.375 145.375 85.375 C144.97535034 84.48748047 144.97535034 84.48748047 144.56762695 83.58203125 C143.35061608 81.32987602 142.10315965 79.85902403 140.29296875 78.0625 C139.69033203 77.46179688 139.08769531 76.86109375 138.46679688 76.2421875 C137.83837891 75.62601563 137.20996094 75.00984375 136.5625 74.375 C135.63727539 73.45074219 135.63727539 73.45074219 134.69335938 72.5078125 C129.29361047 66.32889817 129.29361047 66.32889817 122.375 63.375 C122.375 62.715 122.375 62.055 122.375 61.375 C119.57153683 58.9202392 116.43269758 56.8750141 113.375 54.75 C112.47249512 54.11989014 111.56999023 53.48978027 110.64013672 52.84057617 C102.87930614 47.52524768 94.90682395 43.28624031 86.375 39.375 C85.29992187 38.81167969 84.22484375 38.24835938 83.1171875 37.66796875 C80.42803899 36.16176027 80.42803899 36.16176027 77.375 36.375 C77.375 35.715 77.375 35.055 77.375 34.375 C76.76914062 34.20484375 76.16328125 34.0346875 75.5390625 33.859375 C71.0993564 32.57527539 66.81495265 31.19049703 62.5625 29.375 C57.51955515 27.2824585 52.39473667 26.11383592 47.0625 24.98828125 C44.375 24.375 44.375 24.375 42.375 23.375 C14.70255677 17.91184446 -16.06485703 18.36522969 -43.625 24.375 Z " fill="#FBFBFB" transform="translate(302.625,94.625)"/>
<path d="M0 0 C14.9222587 12.27780779 18.8668746 30.19504929 20.80859375 48.625 C22.98531483 72.38474784 20.39495571 100.12901183 4.78515625 119.15234375 C-2.04026551 126.45569439 -10.28774587 130.15333443 -20.203125 131.09765625 C-31.82237914 131.4786154 -41.20796919 128.6761504 -49.83984375 120.77734375 C-61.47237689 109.72765152 -66.57849484 92.46970955 -67.00097656 76.7265625 C-67.02079812 75.30605891 -67.03455825 73.88546073 -67.04296875 72.46484375 C-67.04866882 71.69285645 -67.0543689 70.92086914 -67.0602417 70.12548828 C-67.06962915 68.4985488 -67.07620056 66.87159085 -67.08007812 65.24462891 C-67.08970988 62.81116565 -67.12076215 60.37857573 -67.15234375 57.9453125 C-67.28371958 38.56288311 -64.52404688 17.56395204 -50.83984375 2.77734375 C-36.54469096 -9.97365179 -15.63444851 -11.27775916 0 0 Z " fill="#030303" transform="translate(327.83984375,244.22265625)"/>
<path d="M0 0 C12.7973694 11.68100314 18.17081032 28.31004873 19.20336914 45.34423828 C19.34954085 49.21859451 19.35479711 53.08650537 19.30249023 56.96289062 C19.2733477 59.30800767 19.28199045 61.65086932 19.29492188 63.99609375 C19.26735196 83.36775467 16.28443871 104.22265837 2.69921875 119 C-6.57337839 127.75475577 -16.00227215 130.07100208 -28.5234375 129.953125 C-37.40367112 129.27662652 -44.634524 125.6066627 -51.1640625 119.67578125 C-51.75832031 119.14726562 -52.35257812 118.61875 -52.96484375 118.07421875 C-57.00789635 114.00427223 -59.54520681 109.35942451 -61.9140625 104.17578125 C-62.33667358 103.27980225 -62.33667358 103.27980225 -62.76782227 102.36572266 C-67.98291774 90.19872283 -68.64289828 76.90078476 -68.50024414 63.85693359 C-68.47650205 61.54489426 -68.47973599 59.23400706 -68.48632812 56.921875 C-68.45399917 38.9116522 -66.7289378 20.28715823 -55.1640625 5.67578125 C-54.55175781 4.84691406 -53.93945312 4.01804688 -53.30859375 3.1640625 C-40.00895185 -12.26739814 -15.26440147 -12.55419141 0 0 Z " fill="#030303" transform="translate(434.1640625,245.32421875)"/>
<path d="M0 0 C0.72170423 2.01609684 1.35324782 4.06486581 1.9375 6.125 C3.35319114 10.92581241 4.93282011 15.43497774 7 20 C8.02443408 22.5511199 9.03155718 25.1085896 10.03515625 27.66796875 C10.94716017 29.99086839 10.94716017 29.99086839 12.12109375 32.05078125 C13 34 13 34 13 38 C14.485 38.495 14.485 38.495 16 39 C17.4375 41.5625 17.4375 41.5625 19 45 C25.89601718 59.54180776 35.41394653 74.7760107 47 86 C47 86.66 47 87.32 47 88 C47.66 88 48.32 88 49 88 C53.94871795 92.94871795 53.94871795 92.94871795 54.125 96.5625 C52.63472526 99.7914286 50.62574057 101.61296312 48 104 C47.175 104.825 46.35 105.65 45.5 106.5 C43 109 40.5 111.5 38 114 C37.47921875 114.54398437 36.9584375 115.08796875 36.421875 115.6484375 C34.98421868 117.13494622 33.49513424 118.57131617 32 120 C31.34 120 30.68 120 30 120 C29.62875 120.86625 29.62875 120.86625 29.25 121.75 C27.81700012 124.32939979 26.21575324 126.06121592 24 128 C23.34 128 22.68 128 22 128 C21.34 129.32 20.68 130.64 20 132 C18.35 131.67 16.7 131.34 15 131 C15 130.34 15 129.68 15 129 C14.34 129 13.68 129 13 129 C13 128.34 13 127.68 13 127 C12.01 126.67 11.02 126.34 10 126 C7 122.55555556 7 122.55555556 7 120 C6.01 119.67 5.02 119.34 4 119 C1 115.55555556 1 115.55555556 1 113 C0.34 113 -0.32 113 -1 113 C-5 107.58823529 -5 107.58823529 -5 105 C-5.66 105 -6.32 105 -7 105 C-15 96.38461538 -15 96.38461538 -15 91 C-15.66 91 -16.32 91 -17 91 C-17.60328125 89.91460937 -18.2065625 88.82921875 -18.828125 87.7109375 C-19.63528777 86.26555301 -20.44258668 84.82024454 -21.25 83.375 C-21.64574219 82.66214844 -22.04148437 81.94929688 -22.44921875 81.21484375 C-24.23374626 78.02609788 -26.03946253 74.9415452 -28.0859375 71.91015625 C-34.63811736 61.9481685 -38.68287383 50.07436713 -43 39 C-43.74788566 37.12415565 -44.4976072 35.24904111 -45.25 33.375 C-45.83333333 31.91666667 -46.41666667 30.45833333 -47 29 C-47.54527344 27.74509766 -47.54527344 27.74509766 -48.1015625 26.46484375 C-49.27548831 23.24420382 -49.13326247 20.39819311 -49 17 C-49.66 17 -50.32 17 -51 17 C-51 15.68 -51 14.36 -51 13 C-44.66270559 10.35946066 -38.17046746 8.72890626 -31.51953125 7.109375 C-26.62424285 5.91672445 -21.74852425 4.65334798 -16.875 3.375 C-16.08182373 3.16891113 -15.28864746 2.96282227 -14.47143555 2.75048828 C-11.11165557 1.86786152 -7.84960947 0.94690084 -4.5703125 -0.2109375 C-2 -1 -2 -1 0 0 Z " fill="#FCFCFC" transform="translate(81,373)"/>
<path d="M0 0 C1.66611905 -0.042721 3.33382885 -0.04063832 5 0 C5.33 0.33 5.66 0.66 6 1 C8.91528964 1.55186553 11.81926792 2.04530885 14.75 2.5 C15.54277344 2.63019531 16.33554687 2.76039063 17.15234375 2.89453125 C29.74327852 4.8762523 42.34338242 5.20292355 55.0625 5.1875 C55.83113373 5.18756042 56.59976746 5.18762085 57.39169312 5.18768311 C69.36798825 5.17430368 81.12736384 4.66807981 93 3 C94.37754239 2.81854086 95.75514548 2.6375418 97.1328125 2.45703125 C102.12268974 1.77566198 107.06872016 1.02621477 112 0 C113.33132171 3.89943767 114.52817056 7.79922443 115.5859375 11.78125 C115.87525146 12.86446533 116.16456543 13.94768066 116.46264648 15.0637207 C116.76372314 16.19769287 117.0647998 17.33166504 117.375 18.5 C119.59285047 26.82574485 121.84962528 35.1236709 124.37109375 43.36328125 C125.00228855 46.00959484 125.12337344 48.29071928 125 51 C119.42932723 52.59162079 114.78898419 53.20674944 109 53 C109 53.66 109 54.32 109 55 C92.07931621 57.55714514 75.50251692 59.3621442 58.375 59.25 C57.55493469 59.24756287 56.73486938 59.24512573 55.88995361 59.24261475 C7.07329747 59.07329747 7.07329747 59.07329747 2 54 C0.60875265 53.81547667 -0.78877264 53.67730342 -2.1875 53.5625 C-6.02775269 53.18215548 -9.37967498 52.3924327 -13 51 C-11.47461675 42.1370433 -8.98550043 33.56556773 -6.5 24.9375 C-2.92698503 12.55149935 -2.92698503 12.55149935 0 0 Z " fill="#FDFDFD" transform="translate(248,534)"/>
<path d="M0 0 C5.91834881 -0.07538559 11.836405 -0.12917144 17.75512695 -0.16479492 C19.75940837 -0.17967939 21.76365846 -0.19999353 23.76782227 -0.22631836 C36.49192523 -0.38899804 48.53030891 0.30101364 61.04360962 2.64413452 C63.66906746 3.12170271 66.30445672 3.49056234 68.94921875 3.84375 C70.15674805 4.01197266 70.15674805 4.01197266 71.38867188 4.18359375 C72.96340453 4.4003369 74.53898625 4.61097407 76.11523438 4.81640625 C81.44047444 5.57157477 86.02217115 6.95197899 91 9 C90.09159739 15.31606991 89.03851832 21.28763919 86.86328125 27.2890625 C84.81176213 33.73138952 83.49060898 40.409541 82 47 C81.34 47 80.68 47 80 47 C79.67 50.63 79.34 54.26 79 58 C74.88455948 58.8230881 72.96728403 59.06818457 69.05078125 58.51171875 C68.11943359 58.38216797 67.18808594 58.25261719 66.22851562 58.11914062 C65.26623047 57.97669922 64.30394531 57.83425781 63.3125 57.6875 C62.36955078 57.55666016 61.42660156 57.42582031 60.45507812 57.29101562 C56.05771634 56.66541158 51.76220838 55.95002289 47.4453125 54.90625 C40.39646209 53.45598132 33.20508412 53.73954001 26.04174805 53.79418945 C23.57134614 53.81243467 21.10132171 53.81469853 18.63085938 53.81445312 C7.41596803 53.83857906 -3.46652294 54.36444581 -14.5 56.5 C-20.9887367 57.70516512 -27.41097856 58.54741595 -34 59 C-34.21148682 58.18378174 -34.21148682 58.18378174 -34.42724609 57.35107422 C-35.0743739 54.85849266 -35.72466167 52.36674575 -36.375 49.875 C-36.59671875 49.0190625 -36.8184375 48.163125 -37.046875 47.28125 C-37.94209424 43.8583529 -38.84299794 40.4697349 -39.96484375 37.11328125 C-41.58584467 32.23804451 -42.87119737 27.2772838 -44.1875 22.3125 C-44.47302734 21.26771484 -44.75855469 20.22292969 -45.05273438 19.14648438 C-45.31763672 18.14552734 -45.58253906 17.14457031 -45.85546875 16.11328125 C-46.09934326 15.20360596 -46.34321777 14.29393066 -46.59448242 13.35668945 C-47 11 -47 11 -46 8 C-44.80375 7.87625 -43.6075 7.7525 -42.375 7.625 C-39.7762065 7.35615929 -37.63990336 6.87700403 -35.15234375 6.02734375 C-24.09631525 2.42420187 -11.55173292 2.5372899 0 2 C0 1.34 0 0.68 0 0 Z " fill="#FCFCFC" transform="translate(282,21)"/>
<path d="M0 0 C4.16346304 0.50727251 5.99903561 2.72339342 8.8125 5.6875 C12.23639133 9.22216428 15.68974708 12.53683227 19.4609375 15.69140625 C21.79752869 17.6781018 23.92626601 19.73774474 26 22 C26 22.66 26 23.32 26 24 C26.66 24 27.32 24 28 24 C29.625 25.375 29.625 25.375 31 27 C31 27.66 31 28.32 31 29 C31.66 29 32.32 29 33 29 C37.80778032 34.24485126 37.80778032 34.24485126 38 38 C36.26171875 40.33984375 36.26171875 40.33984375 33.6875 42.9375 C24.59895034 52.41776969 17.08532484 62.95607262 10 74 C9.34257813 74.99257812 8.68515625 75.98515625 8.0078125 77.0078125 C2.67768288 85.28299428 -1.30715292 93.88953461 -5.12890625 102.94042969 C-5.88533997 104.72890359 -6.65983004 106.50971983 -7.4375 108.2890625 C-10.77874476 116.03657379 -13.42330408 123.97386632 -16 132 C-23.45795304 131.43772501 -30.17341046 129.67980784 -37.3125 127.5 C-39.43344846 126.86409854 -41.55453648 126.22866233 -43.67578125 125.59375 C-44.60302002 125.31208984 -45.53025879 125.03042969 -46.4855957 124.74023438 C-48.64763749 124.10373465 -50.80893631 123.52618897 -53 123 C-53 122.34 -53 121.68 -53 121 C-54.19625 121.04125 -55.3925 121.0825 -56.625 121.125 C-60.42329953 121.13851708 -63.44975618 120.42009753 -67 119 C-66.58854129 112.87068403 -65.38123558 107.67482196 -63 102 C-62.26258157 100.16150473 -61.52541186 98.32290695 -60.79174805 96.48291016 C-60.27862008 95.19779597 -59.76329371 93.91355652 -59.24536133 92.63037109 C-57.97118936 89.4693562 -56.75083267 86.30378831 -55.60546875 83.09375 C-53.90059448 78.51627935 -51.64109965 74.2858118 -49.3125 70 C-48.89677734 69.22527344 -48.48105469 68.45054687 -48.05273438 67.65234375 C-47.03960761 65.76583185 -46.02043723 63.88256763 -45 62 C-44.34 62 -43.68 62 -43 62 C-42.814375 61.0925 -42.62875 60.185 -42.4375 59.25 C-39.61060896 49.44483948 -32.57194899 39.67482779 -26 32 C-25.34 32 -24.68 32 -24 32 C-23.9071875 30.95392578 -23.9071875 30.95392578 -23.8125 29.88671875 C-22.74739825 26.10253512 -20.55840015 23.68714683 -18 20.8125 C-14.65619158 17.14750276 -14.65619158 17.14750276 -12 13 C-11.34 13 -10.68 13 -10 13 C-9.773125 12.443125 -9.54625 11.88625 -9.3125 11.3125 C-7.64297946 8.37096381 -5.41324179 6.3513638 -3 4 C-2.67 3.34 -2.34 2.68 -2 2 C-1.34 2 -0.68 2 0 2 C0 1.34 0 0.68 0 0 Z " fill="#FDFDFD" transform="translate(97,110)"/>
<path d="M0 0 C4.74176801 0.4968797 9.22961219 1.49361441 13.82421875 2.7421875 C14.45173538 2.91122589 15.07925201 3.08026428 15.7257843 3.25442505 C17.71409362 3.79074908 19.70084335 4.33258966 21.6875 4.875 C24.29511048 5.58244372 26.90337078 6.28746859 29.51171875 6.9921875 C30.76774902 7.33217773 32.0237793 7.67216797 33.31787109 8.02246094 C37.77065926 9.20459618 42.23941824 10.31133931 46.71801758 11.39111328 C49 12 49 12 51 13 C49.38835615 19.85805894 47.632676 26.46556315 45 33 C44.4341033 34.49872185 43.87154694 35.99870963 43.3125 37.5 C42.879375 38.655 42.44625 39.81 42 41 C41.34 41 40.68 41 40 41 C40.08378906 41.79792969 40.16757812 42.59585938 40.25390625 43.41796875 C39.90667013 48.31666911 38.08267462 51.94053189 35.9375 56.3125 C35.49631836 57.22112793 35.05513672 58.12975586 34.60058594 59.06591797 C23.08814682 82.23597692 8.72424703 103.6282493 -8.37890625 123.01953125 C-10.97517137 125.97176715 -13.49545128 128.97008482 -16 132 C-18.375 131.8125 -18.375 131.8125 -21 131 C-21.70211894 129.34795544 -22.36971413 127.68076231 -23 126 C-24.32488113 125.63451555 -25.66018514 125.3062434 -27 125 C-29.75 122.625 -29.75 122.625 -32 120 C-32 119.01 -32 118.02 -32 117 C-32.721875 116.773125 -33.44375 116.54625 -34.1875 116.3125 C-37.57685109 114.73080282 -39.5424688 112.79885498 -42 110 C-42.33 109.01 -42.66 108.02 -43 107 C-43.66 107 -44.32 107 -45 107 C-45 106.34 -45 105.68 -45 105 C-45.99 104.67 -46.98 104.34 -48 104 C-48 103.34 -48 102.68 -48 102 C-48.66 102 -49.32 102 -50 102 C-50 101.34 -50 100.68 -50 100 C-50.99 99.67 -51.98 99.34 -53 99 C-53.33 98.01 -53.66 97.02 -54 96 C-52.875 93.75 -52.875 93.75 -51 91 C-50.38318359 90.06994141 -50.38318359 90.06994141 -49.75390625 89.12109375 C-47.21375129 85.3900056 -47.21375129 85.3900056 -46 84 C-45.34 84 -44.68 84 -44 84 C-43.690625 83.38125 -43.38125 82.7625 -43.0625 82.125 C-42.375 80.75 -41.6875 79.375 -41 78 C-40.34 78 -39.68 78 -39 78 C-38.773125 77.05125 -38.54625 76.1025 -38.3125 75.125 C-37 72 -37 72 -34.4375 70.9375 C-33.633125 70.628125 -32.82875 70.31875 -32 70 C-31.7834375 68.91332031 -31.7834375 68.91332031 -31.5625 67.8046875 C-30.87306869 64.3671064 -29.45564481 62.12758144 -27.5625 59.1875 C-26.63630859 57.72376953 -26.63630859 57.72376953 -25.69140625 56.23046875 C-25.13324219 55.49441406 -24.57507813 54.75835937 -24 54 C-23.34 54 -22.68 54 -22 54 C-21.79503906 53.37351562 -21.59007812 52.74703125 -21.37890625 52.1015625 C-21.10949219 51.28429687 -20.84007812 50.46703125 -20.5625 49.625 C-20.29566406 48.81289063 -20.02882813 48.00078125 -19.75390625 47.1640625 C-19 45 -19 45 -18 43 C-17.34 43 -16.68 43 -16 43 C-15.9175 42.154375 -15.835 41.30875 -15.75 40.4375 C-15.01610902 37.07383301 -13.8194149 34.70565232 -12.04296875 31.78125 C-10.39807456 28.9719925 -9.21662009 26.01510195 -8 23 C-7.525625 21.824375 -7.05125 20.64875 -6.5625 19.4375 C-4.66404926 14.35487528 -3.29773324 9.10760639 -1.8671875 3.87890625 C-1 1 -1 1 0 0 Z " fill="#FDFDFD" transform="translate(528,373)"/>
<path d="M0 0 C0 0.66 0 1.32 0 2 C0.66 2 1.32 2 2 2 C3.7265625 3.8984375 3.7265625 3.8984375 5.625 6.375 C6.25664063 7.18710938 6.88828125 7.99921875 7.5390625 8.8359375 C9 11 9 11 9 13 C9.721875 13.165 10.44375 13.33 11.1875 13.5 C15.21770658 15.64944351 17.01933913 18.95439483 19 23 C19 23.66 19 24.32 19 25 C19.66 25 20.32 25 21 25 C23.1608839 27.29296727 24.91638014 29.94203699 26.75 32.5 C27.318396 33.29083984 27.88679199 34.08167969 28.47241211 34.89648438 C33.17078187 41.56869511 37.43514363 48.46269318 41.5625 55.5 C42.14547852 56.48935547 42.72845703 57.47871094 43.32910156 58.49804688 C52 73.55456906 52 73.55456906 52 81 C53.485 81.495 53.485 81.495 55 82 C55.87890625 83.9609375 55.87890625 83.9609375 56.5625 86.375 C57.45012686 89.45411239 58.18224782 91.27337172 60 94 C63.87511242 102.42415743 66.38031178 110.8725805 68 120 C61.09402243 122.03969652 54.21923829 123.99989149 47.1875 125.5625 C42.76481312 126.55185559 38.53654294 127.74485838 34.26171875 129.23828125 C31.59066284 130.13785966 28.90058654 130.92410841 26.1875 131.6875 C25.29417969 131.93886719 24.40085937 132.19023437 23.48046875 132.44921875 C21 133 21 133 17 133 C16.61328125 131.80503906 16.2265625 130.61007813 15.828125 129.37890625 C11.98057382 117.46673658 11.98057382 117.46673658 7 106 C6.47535156 104.92492187 5.95070313 103.84984375 5.41015625 102.7421875 C1.28043506 94.34141075 -3.14090222 86.11628024 -7.70703125 77.9453125 C-8.25746094 76.95273438 -8.80789063 75.96015625 -9.375 74.9375 C-9.87773437 74.03902344 -10.38046875 73.14054687 -10.8984375 72.21484375 C-12 70 -12 70 -12 68 C-13.485 67.505 -13.485 67.505 -15 67 C-16.82421875 64.78515625 -16.82421875 64.78515625 -18.6875 62.0625 C-19.31011719 61.16660156 -19.93273437 60.27070313 -20.57421875 59.34765625 C-22 57 -22 57 -22 55 C-22.66 55 -23.32 55 -24 55 C-25.2265625 53.56640625 -25.2265625 53.56640625 -26.625 51.5625 C-29.62910309 47.39096081 -32.96187867 43.64397312 -36.4609375 39.8828125 C-38 38 -38 38 -38 36 C-37.34 36 -36.68 36 -36 36 C-35.77054687 35.24589844 -35.54109375 34.49179688 -35.3046875 33.71484375 C-33.72500839 30.42778692 -32.19940114 29.46461465 -29.125 27.5625 C-24.80847831 24.71173244 -22.5308289 22.45425886 -20 18 C-18.23168344 15.92415013 -16.8446086 14.91282922 -14.4375 13.5625 C-11.84222021 11.89885911 -11.07434297 10.83235875 -10 8 C-9.34 8 -8.68 8 -8 8 C-8 7.34 -8 6.68 -8 6 C-7.34 5.67 -6.68 5.34 -6 5 C-5.67 4.34 -5.34 3.68 -5 3 C-3.7124791 0.4249582 -2.85933002 0 0 0 Z " fill="#FCFCFC" transform="translate(511,109)"/>
<path d="M0 0 C9.15325823 7.18356975 11.23245833 19.63456534 12.8515625 30.453125 C13.03074219 31.55785156 13.20992188 32.66257812 13.39453125 33.80078125 C14.22038118 40.60203955 14.04933411 47.48685162 14.0390625 54.328125 C14.03815613 55.4331134 14.03815613 55.4331134 14.03723145 56.5604248 C13.94686696 97.06355074 13.94686696 97.06355074 1.4140625 111.203125 C-3.12769546 115.19101004 -7.04203789 115.87692102 -12.94921875 115.69140625 C-18.92605433 115.04382726 -22.80030769 111.53223347 -26.4765625 107.05078125 C-39.90057657 86.19337621 -38.29870138 46.36885521 -33.3515625 23.28125 C-30.66546762 13.19738563 -27.42463098 3.69757119 -17.8984375 -1.859375 C-11.55657289 -3.44484115 -5.76572933 -3.26188671 0 0 Z " fill="#FCFCFC" transform="translate(315.1484375,249.546875)"/>
<path d="M0 0 C9.06914759 7.11755887 11.38766038 19.67348209 12.8515625 30.453125 C15.5877667 53.69971775 17.86455849 84.68813211 5.9140625 105.890625 C-0.68278865 114.08671279 -0.68278865 114.08671279 -6.1484375 115.453125 C-11.86551573 116.04710715 -16.30346608 115.8235399 -21.1484375 112.453125 C-27.57469971 106.83014556 -30.0149086 100.57777546 -32.1484375 92.453125 C-32.36242187 91.66679687 -32.57640625 90.88046875 -32.796875 90.0703125 C-35.36255756 79.69603085 -35.33495218 68.97201611 -35.33374023 58.34814453 C-35.33592004 56.22017181 -35.35413128 54.09272499 -35.37304688 51.96484375 C-35.44488304 34.4301046 -34.60330675 15.32622464 -22.6484375 1.578125 C-16.04627903 -4.0337097 -7.47465542 -4.22868952 0 0 Z " fill="#FDFDFD" transform="translate(420.1484375,249.546875)"/>
<path d="M0 0 C21.12 0 42.24 0 64 0 C64 9.57 64 19.14 64 29 C61.69 29 59.38 29 57 29 C55.09332232 27.09332232 55.15828186 23.8107733 54.6953125 21.2265625 C53.88509677 18.63205146 53.10124275 17.69667476 51 16 C49.01132148 15.53163329 49.01132148 15.53163329 46.80395508 15.56762695 C45.96331009 15.54783279 45.1226651 15.52803864 44.25654602 15.50764465 C43.35333115 15.50125473 42.45011627 15.49486481 41.51953125 15.48828125 C40.59154221 15.47033005 39.66355316 15.45237885 38.70744324 15.43388367 C35.74250843 15.37968709 32.77773545 15.345855 29.8125 15.3125 C27.80271181 15.27933518 25.792945 15.24484631 23.78320312 15.20898438 C18.85558535 15.12395521 13.92801636 15.05718862 9 15 C8.91020874 16.61346313 8.91020874 16.61346313 8.81860352 18.25952148 C8.31202672 27.20591345 7.71258629 36.1346542 6.9375 45.0625 C6.84662109 46.13048828 6.75574219 47.19847656 6.66210938 48.29882812 C6.44337652 50.86606107 6.22268659 53.43310755 6 56 C6.72960937 55.67773438 7.45921875 55.35546875 8.2109375 55.0234375 C13.68596916 53.54461452 18.97803078 53.63140973 24.625 53.625 C25.73746094 53.60050781 26.84992188 53.57601562 27.99609375 53.55078125 C40.41797844 53.50739865 51.62634848 56.9892575 60.74609375 65.66015625 C70.17515946 75.98274939 70.81321636 87.13483369 70.22216797 100.52539062 C69.30241242 110.77005245 63.71288321 120.17434487 55.9375 126.7421875 C42.80325657 136.17069796 26.93936761 137.49400358 11.31640625 135.5390625 C3.11062376 133.89597295 -3.28676365 130.93828098 -9.0625 124.8125 C-10.59919314 120.20242057 -10.88958667 115.78511537 -10 111 C-8.24593777 108.2695098 -6.96590854 107.62285562 -4 106 C-1.29296875 105.88671875 -1.29296875 105.88671875 1 106 C1.23074219 106.74765625 1.46148437 107.4953125 1.69921875 108.265625 C4.09901797 115.91358732 4.09901797 115.91358732 10 121 C10.99 121.5775 11.98 122.155 13 122.75 C20.03088235 125.52252659 28.4186628 124.89727376 35.4375 122.4375 C41.69981605 119.54016222 45.29324929 115.23310893 47.8125 108.875 C51.6366377 97.7038826 51.07939037 85.68669492 46 75 C41.81339825 69.61854952 36.5204717 66.7174015 30 65 C26.67447454 64.60115586 23.4084744 64.57912983 20.0625 64.625 C19.22009766 64.61339844 18.37769531 64.60179687 17.50976562 64.58984375 C12.20331136 64.61435393 7.90090602 65.43046271 2.96289062 67.38745117 C0.11558689 68.27599409 -2.1773855 67.79612204 -5 67 C-5.1419273 59.41753376 -4.5819357 51.98337294 -3.90625 44.43359375 C-3.80795898 43.30248169 -3.70966797 42.17136963 -3.60839844 41.00598145 C-3.24317062 36.81611602 -2.87119438 32.62684104 -2.5 28.4375 C-1.675 19.053125 -0.85 9.66875 0 0 Z " fill="#040404" transform="translate(168,239)"/>
<path d="M0 0 C0.99 0.495 0.99 0.495 2 1 C-0.06738151 2.68453308 -1.86605126 3.94690921 -4.35546875 4.93359375 C-21.97617046 12.03913521 -38.99638905 25.89252584 -53.4921875 37.921875 C-55.08871627 39.24485522 -56.71687312 40.53119123 -58.3828125 41.765625 C-61.26453605 44.22584271 -63.58744132 46.9106109 -66.04589844 49.78369141 C-69.55526134 53.76395083 -73.35400205 57.45715128 -77.125 61.1875 C-77.91003906 61.96802734 -78.69507813 62.74855469 -79.50390625 63.55273438 C-82.58115357 66.61181919 -85.66124958 69.6674872 -88.7578125 72.70703125 C-96.051148 80.16554682 -102.19098556 88.45226079 -107.9921875 97.08984375 C-110 100 -110 100 -112.09375 102.58203125 C-113.92417348 104.90381841 -115.26563175 107.1313397 -116.625 109.75 C-118.88431868 114.00418784 -121.26466109 118.15714372 -123.73828125 122.28833008 C-127.9655312 129.34855451 -131.86818404 136.368259 -135 144 C-136.12978054 140.61065839 -135.97680919 140.31022768 -134.5234375 137.26953125 C-134.1845752 136.55240967 -133.84571289 135.83528809 -133.49658203 135.09643555 C-133.12645996 134.34273682 -132.75633789 133.58903809 -132.375 132.8125 C-132.00616699 132.04526611 -131.63733398 131.27803223 -131.25732422 130.48754883 C-128.79632261 125.43587763 -126.11921034 120.67881551 -123 116 C-122.31737499 114.67476594 -121.64678174 113.34309181 -121 112 C-120.34 112 -119.68 112 -119 112 C-118.89300781 111.43796875 -118.78601563 110.8759375 -118.67578125 110.296875 C-114.39225718 95.7378452 -99.40188847 81.18718906 -89.59375 69.98828125 C-87.93305512 68.07498067 -86.32254093 66.11620216 -84.78125 64.10546875 C-84.1934375 63.41066406 -83.605625 62.71585938 -83 62 C-82.34 62 -81.68 62 -81 62 C-80.773125 61.443125 -80.54625 60.88625 -80.3125 60.3125 C-77.59845869 55.53061769 -73.22998281 52.38398625 -69 49 C-67.9171875 47.9171875 -67.9171875 47.9171875 -66.8125 46.8125 C-55.90527672 35.90527672 -43.73494814 26.660618 -31 18 C-30.24074219 17.47664063 -29.48148437 16.95328125 -28.69921875 16.4140625 C-24.36115244 13.46207955 -19.95355142 10.79427739 -15.33984375 8.296875 C-11.88379334 6.38133454 -8.52812124 4.306208 -5.1640625 2.234375 C-3 1 -3 1 0 0 Z " fill="#A7A1A7" transform="translate(166,38)"/>
<path d="M0 0 C8.02705543 1.50669649 15.45307158 4.20353064 23.0625 7.125 C23.7068399 7.3708786 24.35117981 7.6167572 25.01504517 7.87008667 C34.99642935 11.690375 44.63107132 15.84576082 54 21 C55.48812109 21.79977724 56.97641089 22.59924063 58.46484375 23.3984375 C65.80357258 27.37569908 73.02082194 31.51567883 80.0625 36 C80.65240723 36.37374756 81.24231445 36.74749512 81.85009766 37.13256836 C85.8745711 39.7491422 85.8745711 39.7491422 87 42 C84.10414512 41.39780509 81.97364892 40.53166147 79.49609375 38.92578125 C78.84382813 38.5086084 78.1915625 38.09143555 77.51953125 37.66162109 C76.83246094 37.21641113 76.14539063 36.77120117 75.4375 36.3125 C65.7774331 30.17288464 55.83725348 24.84648681 45.56835938 19.80224609 C42.82910312 18.45097942 40.18890085 17.12088418 37.61328125 15.47265625 C33.78287295 13.31411525 29.71896922 12.02769593 25.5625 10.625 C23.7759947 10.00925085 21.98953665 9.39336455 20.203125 8.77734375 C17.70835812 7.92394312 15.21295777 7.07245847 12.71679688 6.22314453 C10.74652302 5.55071325 8.77933491 4.8699087 6.8125 4.1875 C5.70519531 3.80980469 4.59789062 3.43210937 3.45703125 3.04296875 C1 2 1 2 0 0 Z " fill="#A49EA4" transform="translate(389,17)"/>
<path d="M0 0 C0 4.26599625 -2.5153357 6.12567724 -5.25 9.125 C-11.7164407 16.41530882 -17.23510221 24.21734249 -22.74853516 32.23779297 C-23.83481157 33.76739562 -25.00102357 35.23961879 -26.1796875 36.69921875 C-27.97903254 38.97349821 -29.29090875 41.1800328 -30.625 43.75 C-32.88431868 48.00418784 -35.26466109 52.15714372 -37.73828125 56.28833008 C-41.9655312 63.34855451 -45.86818404 70.368259 -49 78 C-50.12978054 74.61065839 -49.97680919 74.31022768 -48.5234375 71.26953125 C-48.1845752 70.55240967 -47.84571289 69.83528809 -47.49658203 69.09643555 C-47.12645996 68.34273682 -46.75633789 67.58903809 -46.375 66.8125 C-46.00616699 66.04526611 -45.63733398 65.27803223 -45.25732422 64.48754883 C-42.79632261 59.43587763 -40.11921034 54.67881551 -37 50 C-36.31737499 48.67476594 -35.64678174 47.34309181 -35 46 C-34.34 46 -33.68 46 -33 46 C-32.89300781 45.43796875 -32.78601563 44.8759375 -32.67578125 44.296875 C-28.12935645 28.84428665 -11.20001527 11.20001527 0 0 Z " fill="#A299A2" transform="translate(80,104)"/>
<path d="M0 0 C4.26167124 1.58290646 8.20249162 3.64520586 12.1875 5.8125 C13.53086982 6.53326112 14.87462025 7.25331329 16.21875 7.97265625 C18.40711874 9.1455394 20.59466576 10.31988341 22.78125 11.49609375 C27.99695694 14.21401896 33.21993967 16.19737294 38.84765625 17.91015625 C41.37418016 18.78363849 43.64611866 19.75266021 46.0546875 20.88671875 C51.8619398 23.51553362 57.92010482 25.09832305 64.0625 26.75 C65.21427734 27.06582031 66.36605469 27.38164063 67.55273438 27.70703125 C70.36682753 28.47769577 73.18251411 29.24185178 76 30 C76 30.33 76 30.66 76 31 C68.17582923 30.62458694 61.36819859 28.76356436 54 26.1875 C52.98421875 25.84396484 51.9684375 25.50042969 50.921875 25.14648438 C35.14036896 19.75446981 19.42917535 13.41097659 5 5 C4.07574219 4.48953125 3.15148437 3.9790625 2.19921875 3.453125 C1.47347656 2.97359375 0.74773437 2.4940625 0 2 C0 1.34 0 0.68 0 0 Z " fill="#A7A2A7" transform="translate(155,569)"/>
<path d="M0 0 C3.40244598 3.11707186 4.81122748 6.81391237 6.5625 11 C12.2062366 24.07019631 18.54437579 36.92391191 26.625 48.67578125 C28.2106765 51.3561151 29.10696973 54.02466358 30 57 C25.71523016 53.34534337 23.3883639 49.37549676 20.796875 44.40625 C19.450802 41.85456378 18.07195282 39.34686701 16.640625 36.84375 C12.43408147 29.47001194 8.40663728 22.09449965 5 14.3125 C4.72164307 13.67803955 4.44328613 13.0435791 4.15649414 12.38989258 C2.42642392 8.31847146 1.13838217 4.26346013 0 0 Z " fill="#A29EA2" transform="translate(23,418)"/>
<path d="M0 0 C12.58515568 5.7622239 22.46195052 18.25842957 31.97631836 27.94458008 C33.97392994 29.97352107 35.98412645 31.98921776 38 34 C35 34 35 34 32.70703125 31.8984375 C31.81371094 30.94195312 30.92039062 29.98546875 30 29 C28.98669974 27.96778126 27.96962387 26.93925825 26.94921875 25.9140625 C26.41925293 25.37885986 25.88928711 24.84365723 25.34326172 24.29223633 C16.23754584 14.98517344 16.23754584 14.98517344 6 7 C6 6.34 6 5.68 6 5 C5.195625 4.731875 4.39125 4.46375 3.5625 4.1875 C2.716875 3.795625 1.87125 3.40375 1 3 C0.67 2.01 0.34 1.02 0 0 Z " fill="#A19BA1" transform="translate(492,71)"/>
<path d="M0 0 C0.66 0.33 1.32 0.66 2 1 C-21.93518519 21 -21.93518519 21 -27 21 C-27 21.66 -27 22.32 -27 23 C-28.28650706 23.69710731 -29.57940665 24.38242876 -30.875 25.0625 C-31.95394531 25.63677734 -31.95394531 25.63677734 -33.0546875 26.22265625 C-33.69664062 26.47917969 -34.33859375 26.73570312 -35 27 C-35.66 26.67 -36.32 26.34 -37 26 C-36.30777344 25.54898926 -36.30777344 25.54898926 -35.6015625 25.08886719 C-25.532164 18.50694317 -15.7210786 11.70067882 -6.16015625 4.3984375 C-4.15036375 2.87308201 -2.09933648 1.39955765 0 0 Z " fill="#9F959F" transform="translate(495,540)"/>
<path d="M0 0 C0.66 0.33 1.32 0.66 2 1 C-4.6 7.6 -11.2 14.2 -18 21 C-18.33 20.01 -18.66 19.02 -19 18 C-18.01 16.515 -18.01 16.515 -17 15 C-16.34 15 -15.68 15 -15 15 C-14.773125 14.443125 -14.54625 13.88625 -14.3125 13.3125 C-11.07064098 7.60065315 -5.38042669 3.58695113 0 0 Z " fill="#AA5AAA" transform="translate(100,85)"/>
<path d="M0 0 C0.66 0 1.32 0 2 0 C3.2265625 1.3984375 3.2265625 1.3984375 4.625 3.375 C9.66896659 10.31816183 14.84510626 17.00292405 21 23 C23.36560076 25.63893698 25.68759152 28.31440745 28 31 C27.01 31 26.02 31 25 31 C24.34 29.68 23.68 28.36 23 27 C22.34 27 21.68 27 21 27 C21 26.34 21 25.68 21 25 C20.34 25 19.68 25 19 25 C17.60400604 23.47162731 16.28412351 21.87349901 15 20.25 C14.20722656 19.25613281 13.41445312 18.26226562 12.59765625 17.23828125 C12.17758301 16.71057129 11.75750977 16.18286133 11.32470703 15.63916016 C9.96817204 13.96061686 8.58232809 12.31146955 7.18359375 10.66796875 C6.72533203 10.12817383 6.26707031 9.58837891 5.79492188 9.03222656 C4.48881427 7.49778504 3.18000841 5.9656415 1.87109375 4.43359375 C0 2 0 2 0 0 Z " fill="#A29AA2" transform="translate(64,490)"/>
<path d="M0 0 C4.29165922 1.58889673 8.24442646 3.68415932 12.25 5.875 C17.73997683 8.84524061 23.24212872 11.57563315 29 14 C24.16074395 15.61308535 20.47519037 13.07401926 16 11 C12.27864316 9.09212146 8.62352842 7.08728595 5 5 C4.06800781 4.48566406 3.13601562 3.97132813 2.17578125 3.44140625 C1.45777344 2.96574219 0.73976562 2.49007812 0 2 C0 1.34 0 0.68 0 0 Z " fill="#A38FA3" transform="translate(155,569)"/>
<path d="M0 0 C0.66 0.33 1.32 0.66 2 1 C-0.26262636 3.32065386 -2.53643006 5.63003599 -4.8125 7.9375 C-5.77639648 8.9265332 -5.77639648 8.9265332 -6.75976562 9.93554688 C-7.38173828 10.56396484 -8.00371094 11.19238281 -8.64453125 11.83984375 C-9.50075073 12.71177368 -9.50075073 12.71177368 -10.37426758 13.60131836 C-12 15 -12 15 -15 16 C-13.46518706 12.19331705 -11.13477919 10.1037511 -8.0625 7.4375 C-3.92587532 3.83064366 -3.92587532 3.83064366 0 0 Z " fill="#A7A2A7" transform="translate(519,518)"/>
<path d="M0 0 C3.70700465 1.62016355 6.57336358 3.93884107 9.6875 6.5 C10.66074219 7.2940625 11.63398438 8.088125 12.63671875 8.90625 C15 11 15 11 16 13 C11.60249328 12.49259538 9.13051078 9.91706686 6 7 C6 6.34 6 5.68 6 5 C5.195625 4.731875 4.39125 4.46375 3.5625 4.1875 C2.716875 3.795625 1.87125 3.40375 1 3 C0.67 2.01 0.34 1.02 0 0 Z " fill="#A89FA8" transform="translate(492,71)"/>
<path d="M0 0 C4.35647645 1.44950405 7.31757289 3.67747112 10.8125 6.625 C11.78832031 7.44226563 12.76414062 8.25953125 13.76953125 9.1015625 C14.50558594 9.72804688 15.24164063 10.35453125 16 11 C15.01 11.495 15.01 11.495 14 12 C11.85050462 10.37965717 9.7053859 8.75404206 7.5625 7.125 C6.95083984 6.66480469 6.33917969 6.20460938 5.70898438 5.73046875 C1.11328125 2.2265625 1.11328125 2.2265625 0 0 Z " fill="#A39CA3" transform="translate(476,59)"/>
<path d="M0 0 C0.33 0.99 0.66 1.98 1 3 C-0.40833381 5.1962951 -1.81653657 7.16069889 -3.4375 9.1875 C-3.87126953 9.74630859 -4.30503906 10.30511719 -4.75195312 10.88085938 C-5.82546453 12.26108832 -6.9115694 13.63150539 -8 15 C-8.33 14.01 -8.66 13.02 -9 12 C-7.63671875 9.84375 -7.63671875 9.84375 -5.6875 7.5 C-3.66149764 5.03427705 -1.77307022 2.65960533 0 0 Z " fill="#A29BA2" transform="translate(551,479)"/>
<path d="M0 0 C3.68646141 1.45855647 5.16143971 3.30229045 7.25 6.625 C8.03117187 7.85089844 8.03117187 7.85089844 8.828125 9.1015625 C9.21484375 9.72804688 9.6015625 10.35453125 10 11 C9.67 11.66 9.34 12.32 9 13 C5 8.25 5 8.25 5 6 C4.34 6 3.68 6 3 6 C2.01 4.02 1.02 2.04 0 0 Z " fill="#AAA1AA" transform="translate(53,476)"/>
<path d="M0 0 C0.66 0.33 1.32 0.66 2 1 C0.90033225 2.29549899 -0.20491801 3.58626071 -1.3125 4.875 C-1.92738281 5.59429688 -2.54226563 6.31359375 -3.17578125 7.0546875 C-5 9 -5 9 -8 11 C-7.1875 8.5625 -7.1875 8.5625 -6 6 C-5.01 5.67 -4.02 5.34 -3 5 C-1.8499169 3.03327085 -1.8499169 3.03327085 -1 1 C-0.67 0.67 -0.34 0.34 0 0 Z " fill="#A89BA8" transform="translate(529,507)"/>
<path d="M0 0 C0.33 0.66 0.66 1.32 1 2 C-1.66666667 4.66666667 -4.33333333 7.33333333 -7 10 C-7.66 9.67 -8.32 9.34 -9 9 C-7.87895467 7.68412059 -6.75303035 6.37239647 -5.625 5.0625 C-4.99851563 4.33160156 -4.37203125 3.60070312 -3.7265625 2.84765625 C-2 1 -2 1 0 0 Z " fill="#D8D8D8" transform="translate(167,143)"/>
<path d="M0 0 C0.66 0.33 1.32 0.66 2 1 C-1.3 3.64 -4.6 6.28 -8 9 C-8 8.01 -8 7.02 -8 6 C-6.25 4.39453125 -6.25 4.39453125 -4 2.8125 C-3.2575 2.28269531 -2.515 1.75289062 -1.75 1.20703125 C-1.1725 0.80871094 -0.595 0.41039062 0 0 Z " fill="#A59FA5" transform="translate(495,540)"/>
<path d="M0 0 C0 4.35251187 -2.06165511 5.92809398 -5 9 C-7.171875 9.6796875 -7.171875 9.6796875 -9 10 C-8.06409496 8.8944811 -7.12620142 7.79064547 -6.1875 6.6875 C-5.66542969 6.07261719 -5.14335937 5.45773438 -4.60546875 4.82421875 C-3.12827531 3.14575321 -1.59960869 1.56117966 0 0 Z " fill="#B9B9B9" transform="translate(490,127)"/>
<path d="M0 0 C0.33 0.99 0.66 1.98 1 3 C-0.8125 5 -0.8125 5 -3 7 C-3.99 7 -4.98 7 -6 7 C-6.33 7.99 -6.66 8.98 -7 10 C-7.66 9.67 -8.32 9.34 -9 9 C-7.37660195 7.29115995 -5.70680947 5.62553283 -4 4 C-3.34 4 -2.68 4 -2 4 C-1.34 2.68 -0.68 1.36 0 0 Z " fill="#BBB6BB" transform="translate(500,117)"/>
<path d="M0 0 C0 3 0 3 -1.53125 4.82421875 C-2.1809375 5.43910156 -2.830625 6.05398438 -3.5 6.6875 C-4.1496875 7.31011719 -4.799375 7.93273437 -5.46875 8.57421875 C-5.9740625 9.04472656 -6.479375 9.51523437 -7 10 C-7.66 9.67 -8.32 9.34 -9 9 C-6 6 -3 3 0 0 Z " fill="#E7E7E7" transform="translate(445,439)"/>
<path d="M0 0 C3.5786304 1.65167557 6.74820188 3.78286492 10 6 C9.01 6.33 8.02 6.66 7 7 C5.17578125 6.07421875 5.17578125 6.07421875 3.3125 4.6875 C2.37857422 4.01267578 2.37857422 4.01267578 1.42578125 3.32421875 C0.95527344 2.88722656 0.48476563 2.45023438 0 2 C0 1.34 0 0.68 0 0 Z " fill="#A69AA6" transform="translate(466,52)"/>
<path d="M0 0 C3.48670834 1.1094072 6.77484237 2.26337666 10 4 C10 4.66 10 5.32 10 6 C5.56909529 4.79157144 3.01887244 3.48331435 0 0 Z " fill="#AB9EAB" transform="translate(140,561)"/>
<path d="M0 0 C5.875 4.625 5.875 4.625 7 8 C5.0625 7.1875 5.0625 7.1875 3 6 C2.67 5.01 2.34 4.02 2 3 C1.34 3 0.68 3 0 3 C0 2.01 0 1.02 0 0 Z " fill="#A1A1A1" transform="translate(85,514)"/>
<path d="M0 0 C0 1.32 0 2.64 0 4 C-5.75 2.25 -5.75 2.25 -8 0 C-5.13822943 -1.43088528 -3.06624227 -0.59991697 0 0 Z " fill="#DEDEDE" transform="translate(395,133)"/>
<path d="" fill="#EEEEEE" transform="translate(0,0)"/>
<path d="" fill="#ECECEC" transform="translate(0,0)"/>
<path d="" fill="#EDEDED" transform="translate(0,0)"/>
<path d="" fill="#EEEEEE" transform="translate(0,0)"/>
<path d="" fill="#EDEDED" transform="translate(0,0)"/>
</svg>
