<?xml version="1.0" encoding="UTF-8"?>
<svg version="1.1" xmlns="http://www.w3.org/2000/svg" width="612" height="612">
<path d="M0 0 C2.39299125 0.43269081 4.78900064 0.84896474 7.1875 1.25 C32.96826082 5.95014107 59.04631908 15.37222091 82 28 C83.48812109 28.79977724 84.97641089 29.59924063 86.46484375 30.3984375 C99.94306335 37.70220601 112.7704317 45.73517553 125 55 C125.53592773 55.40444336 126.07185547 55.80888672 126.62402344 56.22558594 C139.94140684 66.32187946 151.88116328 77.65668881 163.578125 89.56982422 C164.98762259 90.98755033 166.43130526 92.37101931 167.875 93.75390625 C170 96 170 96 170 98 C170.66 98 171.32 98 172 98 C173.26953125 99.37109375 173.26953125 99.37109375 174.8125 101.4375 C175.42738281 102.25347656 176.04226563 103.06945312 176.67578125 103.91015625 C177.44277344 104.92980469 178.20976563 105.94945313 179 107 C180.03329767 108.33347353 181.06860334 109.6653925 182.10546875 110.99609375 C188.14913555 118.77494021 193.91159625 126.55226174 199 135 C199.65484375 136.04671875 200.3096875 137.0934375 200.984375 138.171875 C207.54705654 148.68203416 213.3625567 159.40478519 218.5 170.6875 C219.21446289 172.25189819 219.21446289 172.25189819 219.94335938 173.84790039 C223.67750062 182.110261 227.0446205 190.42750499 230 199 C230.23082275 199.6587915 230.46164551 200.31758301 230.69946289 200.99633789 C252.77205217 265.25306622 251.74417483 338.59798439 227.69824219 402.14794922 C227.03527732 403.90642877 226.39586019 405.67373324 225.7578125 407.44140625 C222.99409342 414.94680021 219.62504952 422.01810046 215.95898438 429.12158203 C214.9480007 431.10185403 213.96346005 433.09361901 212.984375 435.08984375 C207.98960614 445.26185512 202.63274323 454.88088776 196.03125 464.1171875 C194.4981767 466.29297229 193.00458956 468.47967113 191.53125 470.6953125 C185.66438719 479.47576812 179.39623428 487.60943051 172.35644531 495.48046875 C171.16055657 496.82013966 169.98128452 498.17460433 168.8046875 499.53125 C164.0140489 504.99585677 158.93707364 510.16350148 153.8125 515.3125 C153.13477539 515.99489746 152.45705078 516.67729492 151.75878906 517.38037109 C141.10516479 528 141.10516479 528 138 528 C138 528.66 138 529.32 138 530 C136.09716151 531.62754707 134.19366404 533.1341063 132.1875 534.625 C131.60162109 535.067229 131.01574219 535.50945801 130.41210938 535.96508789 C128.61380991 537.31794372 126.80818838 538.66039854 125 540 C123.96488281 540.76957031 122.92976563 541.53914062 121.86328125 542.33203125 C110.07548701 551 110.07548701 551 107 551 C107 551.66 107 552.32 107 553 C105.71086513 553.67154933 104.41859796 554.33708859 103.125 555 C102.40570313 555.37125 101.68640625 555.7425 100.9453125 556.125 C99 557 99 557 97 557 C97 557.66 97 558.32 97 559 C72.85979281 572.05202692 48.50202839 582.65975498 22 590 C21.32195312 590.19045898 20.64390625 590.38091797 19.9453125 590.57714844 C-28.52805664 604.03386186 -86.84266105 605.4684572 -135 590 C-137.22790994 589.3705349 -139.45695246 588.7450538 -141.6875 588.125 C-152.66048862 584.99668333 -163.49343186 581.46831059 -174 577 C-174.59425781 576.74992188 -175.18851563 576.49984375 -175.80078125 576.2421875 C-184.46719204 572.58417585 -192.84098953 568.70197703 -201 564 C-202.48025072 563.16497797 -203.96074093 562.3303804 -205.44140625 561.49609375 C-224.61976914 550.62085196 -241.88706337 537.79705982 -258.47851562 523.32617188 C-259.80971056 522.16586204 -261.14657867 521.01206744 -262.484375 519.859375 C-272.64084507 511.07746479 -272.64084507 511.07746479 -274 507 C-274.66 507 -275.32 507 -276 507 C-276 506.34 -276 505.68 -276 505 C-276.66 505 -277.32 505 -278 505 C-279.39599396 503.47162731 -280.71587649 501.87349901 -282 500.25 C-283.20076172 498.74759766 -283.20076172 498.74759766 -284.42578125 497.21484375 C-284.84682129 496.68616699 -285.26786133 496.15749023 -285.70166016 495.61279297 C-287.40574964 493.49597929 -289.15239465 491.41689977 -290.90283203 489.33837891 C-303 474.96983086 -303 474.96983086 -303 472 C-303.66 472 -304.32 472 -305 472 C-331.24056888 438.45292542 -347.34309217 392.26477275 -355 351 C-355.18433594 350.08734375 -355.36867188 349.1746875 -355.55859375 348.234375 C-364.42590201 301.21701959 -360.18398564 248.07391595 -344.71142578 203.08447266 C-344.00159068 201.00466068 -343.32266726 198.91706838 -342.65234375 196.82421875 C-340.46280419 190.01958692 -338.07837452 183.45086125 -335 177 C-334.38177171 175.66454382 -333.76470099 174.32855149 -333.1484375 172.9921875 C-329.68034719 165.50342175 -326.12031084 158.15495247 -322 151 C-320.89155128 148.98151224 -319.78751153 146.96059813 -318.6875 144.9375 C-317.91986328 143.52791016 -317.91986328 143.52791016 -317.13671875 142.08984375 C-316.76160156 141.40019531 -316.38648438 140.71054688 -316 140 C-315.34 140 -314.68 140 -314 140 C-313.89300781 139.43796875 -313.78601563 138.8759375 -313.67578125 138.296875 C-309.39225718 123.7378452 -294.40188847 109.18718906 -284.59375 97.98828125 C-282.93305512 96.07498067 -281.32254093 94.11620216 -279.78125 92.10546875 C-279.1934375 91.41066406 -278.605625 90.71585937 -278 90 C-277.34 90 -276.68 90 -276 90 C-275.773125 89.443125 -275.54625 88.88625 -275.3125 88.3125 C-272.59845869 83.53061769 -268.22998281 80.38398625 -264 77 C-263.278125 76.278125 -262.55625 75.55625 -261.8125 74.8125 C-250.90527672 63.90527672 -238.73494814 54.660618 -226 46 C-225.24074219 45.47664063 -224.48148438 44.95328125 -223.69921875 44.4140625 C-219.38959984 41.48143754 -215.01523596 38.82169608 -210.42675781 36.34912109 C-208.05148031 35.02861974 -205.75342573 33.62155486 -203.4453125 32.1875 C-197.9165829 28.859774 -192.19285222 26.14410276 -186.3125 23.5 C-185.25522705 23.02151611 -184.1979541 22.54303223 -183.10864258 22.05004883 C-169.00766207 15.70810994 -154.81464106 10.41238538 -140 6 C-138.8140625 5.64035156 -137.628125 5.28070313 -136.40625 4.91015625 C-94.98952609 -6.91640826 -42.20697544 -11.48176698 0 0 Z " fill="#FB0404" transform="translate(361,10)"/>
<path d="M0 0 C1.98451771 0.71143088 3.98202112 1.38991336 6 2 C6 2.66 6 3.32 6 4 C6.99 4.12375 6.99 4.12375 8 4.25 C16.36976652 6.34244163 24.26659752 11.75333279 31 17 C31.33 17.99 31.66 18.98 32 20 C32.9075 20.28875 33.815 20.5775 34.75 20.875 C38.6781282 22.23473669 40.17302287 23.97109593 43 27 C44.21916529 28.07396133 45.44936849 29.1354604 46.6875 30.1875 C65.05229592 46.15688776 65.05229592 46.15688776 68 55 C68.8353125 55.804375 68.8353125 55.804375 69.6875 56.625 C73.96882084 61.02203222 77.60623107 65.98204442 79 72 C79.495 72.45375 79.99 72.9075 80.5 73.375 C82.63927399 75.69254683 82.659511 77.93559899 83 81 C83.66 81 84.32 81 85 81 C90.32641961 93.18214966 94.24802497 104.90661474 96.59277344 117.99462891 C96.97312371 119.86764875 97.50119595 121.70896514 98.0390625 123.54296875 C99.82046383 129.95166866 100.15260289 136.31549708 100.1328125 142.9375 C100.13424759 144.02405884 100.13424759 144.02405884 100.13571167 145.13256836 C100.13638693 146.65185636 100.13457874 148.17114736 100.13037109 149.69042969 C100.12501347 151.99420758 100.13033847 154.29779055 100.13671875 156.6015625 C100.13605785 158.08854209 100.13477645 159.57552156 100.1328125 161.0625 C100.13483673 161.73982178 100.13686096 162.41714355 100.13894653 163.11499023 C100.11623686 167.82873543 99.65367057 172.34186694 99 177 C98.34 177 97.68 177 97 177 C96.98582031 177.88558594 96.97164063 178.77117187 96.95703125 179.68359375 C96.55801886 190.04713166 94.37344311 199.21511177 91 209 C90.74831055 209.74137207 90.49662109 210.48274414 90.23730469 211.24658203 C88.24560811 216.87719595 88.24560811 216.87719595 86 218 C85.28348089 219.89137838 84.65016816 221.81470727 84.0625 223.75 C82.8068219 227.8779782 81.51048411 231.46041405 79 235 C78.34 235 77.68 235 77 235 C76.6596875 235.9590625 76.6596875 235.9590625 76.3125 236.9375 C75.19797921 239.53804851 74.01284893 242.00350941 72.6875 244.5 C72.10548828 245.59828125 72.10548828 245.59828125 71.51171875 246.71875 C69.65218252 249.52487186 67.40342894 251.64694233 65 254 C63.49725269 255.77193509 62.01800119 257.56405556 60.5625 259.375 C59.38494141 260.82132812 59.38494141 260.82132812 58.18359375 262.296875 C56.93642194 263.84077999 55.69526014 265.38969292 54.47265625 266.953125 C50.03380175 272.45987783 44.55336496 276.66413372 39 281 C38.20207031 281.6290625 37.40414063 282.258125 36.58203125 282.90625 C31.28139741 287 31.28139741 287 29 287 C29 287.66 29 288.32 29 289 C28.34 289 27.68 289 27 289 C26.67 289.99 26.34 290.98 26 292 C22.18108908 294.83338552 17.77401592 296.31362479 13.375 298.015625 C10.74653403 299.10505497 8.40942593 300.49410879 6 302 C5.34 302 4.68 302 4 302 C4 302.66 4 303.32 4 304 C2.7934375 304.39832031 1.586875 304.79664063 0.34375 305.20703125 C-1.27086046 305.74210565 -2.88544227 306.27726652 -4.5 306.8125 C-5.29148437 307.07353516 -6.08296875 307.33457031 -6.8984375 307.60351562 C-10.75161391 308.88264386 -14.56354657 310.20548843 -18.34375 311.6875 C-22.33459776 313.12011202 -24.83438525 313.26035092 -29 313 C-29 313.66 -29 314.32 -29 315 C-41.23380619 317.7440313 -53.26338205 318.30985471 -65.75 318.3125 C-66.8591124 318.31733398 -66.8591124 318.31733398 -67.9906311 318.32226562 C-94.09311367 318.39159972 -94.09311367 318.39159972 -102 314 C-103.65679183 313.65665169 -105.3257151 313.36916655 -107 313.125 C-120.83895125 310.73014846 -134.68066026 304.71794811 -147 298 C-147.33 297.34 -147.66 296.68 -148 296 C-149.61064821 295.3488869 -151.2213094 294.69780589 -152.83203125 294.046875 C-158.6666398 291.2294424 -168.06224504 285.87550992 -171 280 C-171.721875 279.608125 -172.44375 279.21625 -173.1875 278.8125 C-176.26562957 276.8288165 -178.02604514 274.7166841 -180.3125 271.90625 C-182.74509382 269.15831994 -185.52356027 266.89317372 -188.36328125 264.578125 C-190 263 -190 263 -191 260 C-191.99 259.67 -192.98 259.34 -194 259 C-195 257 -196 255 -197 253 C-197.886875 252.113125 -198.77375 251.22625 -199.6875 250.3125 C-200.450625 249.549375 -201.21375 248.78625 -202 248 C-202 247.01 -202 246.02 -202 245 C-202.99 244.67 -203.98 244.34 -205 244 C-206.05725253 242.02966574 -207.04435012 240.02156704 -208 238 C-208.77666143 236.74062192 -209.5694281 235.49108421 -210.375 234.25 C-232.79619473 198.54958577 -235.90013735 154.4275185 -228 114 C-227.67802444 112.66387851 -227.34901312 111.32931513 -227 110 C-226.34 110 -225.68 110 -225 110 C-224.9484375 109.28199219 -224.896875 108.56398438 -224.84375 107.82421875 C-221.80518988 80.09735768 -201.40721255 50.42942103 -181 32 C-180.34 32 -179.68 32 -179 32 C-178.67 31.01 -178.34 30.02 -178 29 C-137.31630259 -10.31685382 -50.49770116 -33.50421091 0 0 Z " fill="#FCFCFC" transform="translate(370,155)"/>
<path d="M0 0 C0.81952148 0.13921875 1.63904297 0.2784375 2.48339844 0.421875 C15.13371218 2.63171549 27.0203135 6.416025 39 11 C40.21792236 11.45669067 40.21792236 11.45669067 41.46044922 11.92260742 C47.57644548 14.27706923 53.28152812 17.11918287 59 20.3125 C59.87793213 20.80032959 60.75586426 21.28815918 61.66040039 21.79077148 C67.71547637 25.19312606 73.4857611 28.76666338 79 33 C80.11297391 33.83634665 81.22628081 34.67225028 82.33984375 35.5078125 C83.51916239 36.39980918 84.69755408 37.29303277 85.875 38.1875 C86.42341553 38.60394775 86.97183105 39.02039551 87.53686523 39.44946289 C89.87641245 41.25336836 92.06308474 43.06435568 94.1328125 45.17578125 C95.8800852 47.07113465 95.8800852 47.07113465 98.03125 48.00390625 C100.49729146 49.2516058 101.75464086 50.8073685 103.5 52.9375 C105.2578807 55.07492312 106.76981085 56.83665424 109.03125 58.44140625 C111.44803776 60.35469656 112.44623945 62.33427106 114 65 C115.91202431 67.55418132 117.92518661 70.02443785 119.9375 72.5 C120.46279297 73.15097656 120.98808594 73.80195313 121.52929688 74.47265625 C123.73924986 77.21089587 125.95232396 79.94287313 128.20703125 82.64453125 C130.05177166 85.06801375 131.41087905 87.45552793 132.75 90.1875 C133.39195312 91.47720703 133.39195312 91.47720703 134.046875 92.79296875 C135 95 135 95 135 97 C135.66 97 136.32 97 137 97 C137.6708712 98.6232687 138.33657029 100.24867578 139 101.875 C139.37125 102.77992188 139.7425 103.68484375 140.125 104.6171875 C141 107 141 107 141 109 C141.66 109 142.32 109 143 109 C143.95899351 111.70810117 144.91721447 114.41647161 145.875 117.125 C146.14441406 117.88554687 146.41382813 118.64609375 146.69140625 119.4296875 C149.17908878 126.4680088 151.43411746 133.48021264 153.31640625 140.70703125 C153.78535789 142.94389576 153.78535789 142.94389576 155 144 C155.28521894 145.40294866 155.51458903 146.81735944 155.71875 148.234375 C155.84596436 149.11134033 155.97317871 149.98830566 156.10424805 150.8918457 C156.23484619 151.83503662 156.36544434 152.77822754 156.5 153.75 C156.6338208 154.71574951 156.7676416 155.68149902 156.90551758 156.67651367 C160.85466068 185.78406438 159.03085995 214.29995015 153 243 C152.34 243 151.68 243 151 243 C150.87044922 243.83917969 150.87044922 243.83917969 150.73828125 244.6953125 C148.36091614 258.26156113 142.91145076 269.5465915 135.98950195 281.26196289 C135.11701046 282.79447385 134.33406805 284.37722711 133.56640625 285.96484375 C131.53812714 289.89495066 129.08951396 293.4394318 126.5625 297.0625 C126.08490234 297.75666016 125.60730469 298.45082031 125.11523438 299.16601562 C123.07955259 302.10644487 121.02862937 304.96462839 118.77734375 307.74609375 C116.96660379 309.87504466 116.96660379 309.87504466 115.984375 312.10546875 C114.7651428 314.45200691 113.29706611 315.65025058 111.25 317.3125 C108.57800816 319.5663924 106.21295618 321.79460027 104 324.5 C101.22665858 327.882867 98.09615925 330.63341829 94.734375 333.421875 C92.77231826 335.0792468 92.77231826 335.0792468 91 338 C90.01 338.33 89.02 338.66 88 339 C87.608125 339.598125 87.21625 340.19625 86.8125 340.8125 C84.66289835 343.40684682 82.3579841 344.35209433 79.34375 345.75 C76.66248368 347.1800087 74.40609998 348.894694 72 350.75 C67.36477254 354.21827146 62.60360071 356.93082458 57.4375 359.5 C56.73431641 359.85030273 56.03113281 360.20060547 55.30664062 360.56152344 C50.28234753 363 50.28234753 363 48 363 C48 363.66 48 364.32 48 365 C30.36234241 371.34295807 13.5102024 376.98701337 -5.125 379.421875 C-8.7713944 379.57305267 -8.7713944 379.57305267 -10 381 C-12.45862634 381.12660477 -14.88749091 381.18825234 -17.34765625 381.203125 C-18.10250809 381.21018463 -18.85735992 381.21724426 -19.63508606 381.22451782 C-50.46301878 381.44615282 -79.053989 378.32503083 -108 367 C-108.93070312 366.65066406 -109.86140625 366.30132812 -110.8203125 365.94140625 C-115.84045412 364.01576984 -120.40665109 361.79595151 -125 359 C-125 358.34 -125 357.68 -125 357 C-125.86496094 356.73832031 -126.72992188 356.47664063 -127.62109375 356.20703125 C-135.45289938 353.40931109 -142.29936312 349.02638756 -148 343 C-149.22880074 342.23564879 -150.48054874 341.50724998 -151.75 340.8125 C-155 339 -155 339 -156 337 C-156.75539063 336.56300781 -157.51078125 336.12601562 -158.2890625 335.67578125 C-161.275694 333.8295782 -163.10501765 331.85493414 -165.375 329.1875 C-167.92634215 326.25786988 -170.34427192 323.59734329 -173.4375 321.25 C-178.58754182 317.04393337 -182.09221416 311.16796466 -185.81738281 305.72460938 C-187.48001756 303.2999909 -189.179333 300.90158846 -190.875 298.5 C-191.91796006 297.00089902 -192.95978164 295.50100474 -194 294 C-194.43441406 293.38125 -194.86882812 292.7625 -195.31640625 292.125 C-198 288.23519164 -198 288.23519164 -198 286 C-198.99 285.67 -199.98 285.34 -201 285 C-202.16796875 282.78515625 -202.16796875 282.78515625 -203.1875 280.0625 C-203.53167969 279.16660156 -203.87585938 278.27070313 -204.23046875 277.34765625 C-205 275 -205 275 -205 273 C-205.66 273 -206.32 273 -207 273 C-208.42527069 269.09199971 -209.81968831 265.17412278 -211.19970703 261.25 C-211.73896409 259.73389473 -212.28701368 258.22089164 -212.84326172 256.7109375 C-219.85077109 237.6787776 -224.65017447 217.35984593 -225 197 C-225.02433105 196.28956543 -225.04866211 195.57913086 -225.07373047 194.84716797 C-226.04228324 165.88082254 -221.0591843 129.32075237 -206 104 C-205.34 104 -204.68 104 -204 104 C-203.80664062 103.39671875 -203.61328125 102.7934375 -203.4140625 102.171875 C-203.15367187 101.37265625 -202.89328125 100.5734375 -202.625 99.75 C-202.24214844 98.56664062 -202.24214844 98.56664062 -201.8515625 97.359375 C-201.04826333 95.13372042 -200.10288338 93.09068328 -199 91 C-198.34 91 -197.68 91 -197 91 C-196.731875 90.071875 -196.46375 89.14375 -196.1875 88.1875 C-195.01960671 85.05262855 -194.30009997 84.20809597 -192 82 C-191.484375 80.96875 -190.96875 79.9375 -190.4375 78.875 C-189 76 -189 76 -187 75 C-186.05760314 73.31162603 -185.11627587 71.62263993 -184.18212891 69.9296875 C-182.24015309 66.75963858 -179.75047412 64.17491733 -177.1875 61.5 C-176.65850098 60.93901611 -176.12950195 60.37803223 -175.58447266 59.80004883 C-174.0636069 58.19288126 -172.53301664 56.59556747 -171 55 C-170.25105469 54.20980469 -169.50210938 53.41960937 -168.73046875 52.60546875 C-167.20032397 51.02378225 -165.60766976 49.50282173 -164 48 C-163.34 48 -162.68 48 -162 48 C-161.74734375 47.401875 -161.4946875 46.80375 -161.234375 46.1875 C-159.84544835 43.72611099 -158.53851724 42.63212082 -156.25 41 C-155.54101562 40.49210937 -154.83203125 39.98421875 -154.1015625 39.4609375 C-153.06128906 38.73777344 -153.06128906 38.73777344 -152 38 C-151.40960938 37.57976562 -150.81921875 37.15953125 -150.2109375 36.7265625 C-146.28546099 34 -146.28546099 34 -144 34 C-143.67 33.01 -143.34 32.02 -143 31 C-140.97998021 29.1964109 -139.23184567 28.0876298 -136.6953125 27.12890625 C-133.72464741 25.88467116 -131.2909996 24.30279629 -128.625 22.5 C-124.41215441 19.75794489 -120.91430981 17.98286196 -116 17 C-116 16.34 -116 15.68 -116 15 C-108.8065103 11.54239421 -101.66984417 8.70443577 -94 6.5 C-92.98542725 6.20593262 -91.97085449 5.91186523 -90.92553711 5.60888672 C-60.63586285 -2.86236428 -31.01345014 -5.40377051 0 0 Z M-135 58 C-136.02738281 58.80050781 -137.05476563 59.60101563 -138.11328125 60.42578125 C-142.14368365 63.61174693 -142.14368365 63.61174693 -146 67 C-146 67.66 -146 68.32 -146 69 C-146.54398438 69.21140625 -147.08796875 69.4228125 -147.6484375 69.640625 C-150.85792071 71.49594087 -153.15433898 74.03521983 -155.625 76.75 C-156.15061523 77.32564697 -156.67623047 77.90129395 -157.21777344 78.49438477 C-166.34827877 88.68699323 -173.55270799 99.96326773 -180 112 C-180.31598145 112.58813477 -180.63196289 113.17626953 -180.95751953 113.78222656 C-186.63499853 124.43877608 -191.18956566 134.84348489 -192 147 C-192.66 147 -193.32 147 -194 147 C-194.64957631 150.49931587 -195.29397258 153.99956712 -195.9375 157.5 C-196.11990234 158.48226562 -196.30230469 159.46453125 -196.49023438 160.4765625 C-203.28476568 197.53764234 -197.24052894 235.85719114 -178.875 268.875 C-178.39804688 269.73867188 -177.92109375 270.60234375 -177.4296875 271.4921875 C-175.38924748 275.07131999 -173.28560136 278.57159796 -171 282 C-170.34 282 -169.68 282 -169 282 C-168.9175 282.5775 -168.835 283.155 -168.75 283.75 C-168.14441272 286.12577882 -168.14441272 286.12577882 -166.1875 287.8125 C-163.39031137 290.60968863 -161.87299458 293.52158149 -160 297 C-159.34 297 -158.68 297 -158 297 C-157.75765625 297.58136719 -157.5153125 298.16273438 -157.265625 298.76171875 C-155.77001265 301.40673689 -154.07851827 302.86810804 -151.75 304.8125 C-148.20063364 307.8597052 -145.1613303 310.96542689 -142.2890625 314.65234375 C-140.93056058 316.28257673 -140.93056058 316.28257673 -138 317 C-136.31126121 318.64429829 -134.64694485 320.31384218 -133 322 C-125.64450512 328.48566558 -125.64450512 328.48566558 -116.91015625 332.48828125 C-115 333 -115 333 -113.6796875 334.3515625 C-111.21811702 336.76733632 -108.22866271 337.97217262 -105.125 339.375 C-104.46242188 339.67881592 -103.79984375 339.98263184 -103.1171875 340.2956543 C-91.88702305 345.38164361 -80.79300034 349.39208305 -68.6328125 351.49609375 C-66 352 -66 352 -62.375 353.0625 C-52.90592144 355.6927996 -42.87827972 355.23664726 -33.125 355.25 C-32.34941742 355.25233643 -31.57383484 355.25467285 -30.77474976 355.25708008 C-18.94598953 355.2705408 -7.58106514 354.59762209 4 352 C4 351.34 4 350.68 4 350 C5.01707031 350.04640625 6.03414062 350.0928125 7.08203125 350.140625 C11.1476111 349.99470189 13.91029267 349.20648413 17.6875 347.75 C22.39467009 345.97913537 27.09893012 344.26445088 31.875 342.6875 C32.86242187 342.36136719 33.84984375 342.03523438 34.8671875 341.69921875 C35.57101562 341.46847656 36.27484375 341.23773438 37 341 C37 340.34 37 339.68 37 339 C37.845625 338.7525 38.69125 338.505 39.5625 338.25 C42.68670529 337.11392535 45.35141454 335.7102982 48.19921875 334.01171875 C50.01194913 332.99328672 51.83037836 332.17113782 53.75 331.375 C57.06406226 330.09210229 57.06406226 330.09210229 60 328 C60 327.34 60 326.68 60 326 C60.66 326 61.32 326 62 326 C62 325.34 62 324.68 62 324 C62.6909375 323.77957031 63.381875 323.55914062 64.09375 323.33203125 C67.7328708 321.66410088 70.51326273 319.296564 73.5 316.6875 C74.05558594 316.21376953 74.61117188 315.74003906 75.18359375 315.25195312 C80.84870984 310.37995329 85.97948743 305.02913616 91.0625 299.5625 C91.57876953 299.01529297 92.09503906 298.46808594 92.62695312 297.90429688 C95.08393405 295.25952123 97.1750074 292.73670622 99.18359375 289.71484375 C101 287 101 287 104 285 C105.41185421 282.69805631 105.41185421 282.69805631 106.625 280.0625 C107.05039062 279.18722656 107.47578125 278.31195313 107.9140625 277.41015625 C109.07718294 274.93745191 109.07718294 274.93745191 110 272 C110.99 271.67 111.98 271.34 113 271 C114.14978468 268.33179737 115.14037173 265.74515934 116.0625 263 C118.748058 255.125971 118.748058 255.125971 121 254 C121.90486555 252.09889408 121.90486555 252.09889408 122.65625 249.765625 C123.1056897 248.44800171 123.1056897 248.44800171 123.56420898 247.10375977 C123.87302002 246.16201904 124.18183105 245.22027832 124.5 244.25 C124.81461182 243.29730225 125.12922363 242.34460449 125.45336914 241.36303711 C128.37943943 232.24984483 130.12749393 223.61870866 130 214 C130.66 214 131.32 214 132 214 C133.03959318 206.53048409 133.18611816 199.17204979 133.18530273 191.63916016 C133.1874746 189.40116929 133.20563574 187.16368435 133.22460938 184.92578125 C133.56105767 168.96041766 133.56105767 168.96041766 129 154 C128.58376901 151.67366786 128.21525479 149.33865263 127.875 147 C126.20493365 136.76434352 122.1081706 127.46354265 118 118 C117.34 118 116.68 118 116 118 C115.87882812 117.43410156 115.75765625 116.86820312 115.6328125 116.28515625 C115.46523438 115.55167969 115.29765625 114.81820312 115.125 114.0625 C114.96257812 113.33160156 114.80015625 112.60070312 114.6328125 111.84765625 C114.17038477 109.79299706 114.17038477 109.79299706 112 109 C111.32294982 107.37507957 110.64846744 105.74903233 109.98828125 104.1171875 C108.00896689 99.87691721 105.28780402 94.14390201 101 92 C100.04342738 90.30104385 99.08858941 88.60106414 98.14648438 86.89404297 C96.3640181 83.94932973 94.10123087 81.56488143 91.75 79.0625 C91.26909912 78.54961426 90.78819824 78.03672852 90.29272461 77.50830078 C88.86984117 75.99765512 87.43651984 74.49767003 86 73 C85.22269531 72.18144531 84.44539063 71.36289063 83.64453125 70.51953125 C80.5308052 67.312335 78.01882363 64.97149839 74 63 C73.54625 62.34 73.0925 61.68 72.625 61 C71.06968624 58.71658903 71.06968624 58.71658903 67.9375 58 C66.968125 57.67 65.99875 57.34 65 57 C64.71382813 56.39027344 64.42765625 55.78054687 64.1328125 55.15234375 C61.77107822 50.66504863 56.24838446 48.51091852 52 46 C50.71996094 45.2265625 50.71996094 45.2265625 49.4140625 44.4375 C44.58444567 41.57276931 44.58444567 41.57276931 39 41 C39 40.34 39 39.68 39 39 C32.74001414 36.0898552 26.42473302 33.61486177 19.875 31.4375 C18.50565308 30.98189697 18.50565308 30.98189697 17.10864258 30.51708984 C9.49193733 28.0447494 1.92637272 26.21084425 -6 25 C-7.78857422 24.7215625 -7.78857422 24.7215625 -9.61328125 24.4375 C-15.34828591 23.74729607 -21.10720919 23.85116448 -26.875 23.875 C-28.67094604 23.88116333 -28.67094604 23.88116333 -30.50317383 23.88745117 C-69.37539548 24.13035358 -103.8458099 33.63280442 -135 58 Z " fill="#FC0101" transform="translate(337,118)"/>
<path d="M0 0 C1.52777321 -0.0049926 1.52777321 -0.0049926 3.08641052 -0.01008606 C5.23541821 -0.01512868 7.38443367 -0.01749521 9.53344727 -0.01733398 C12.77438738 -0.0195083 16.01497988 -0.03765928 19.25585938 -0.05664062 C30.42663499 -0.08593828 41.22895 0.2079588 52.24609375 2.16796875 C52.24609375 2.82796875 52.24609375 3.48796875 52.24609375 4.16796875 C53.38433594 4.12542969 54.52257812 4.08289063 55.6953125 4.0390625 C60.38626492 4.04627143 64.55556061 4.9862408 69.05859375 6.23046875 C70.27832886 6.56002563 70.27832886 6.56002563 71.52270508 6.89624023 C82.73137367 10.02141369 93.88081174 13.8168119 104.24389648 19.14379883 C106.3103087 20.20081617 108.39644133 21.20566382 110.4921875 22.203125 C111.88932292 22.87890625 113.28645833 23.5546875 114.68359375 24.23046875 C115.40224609 24.56884766 116.12089844 24.90722656 116.86132812 25.25585938 C118.69506337 26.15108234 120.47603545 27.15263496 122.24609375 28.16796875 C122.57609375 29.15796875 122.90609375 30.14796875 123.24609375 31.16796875 C124.19484375 31.39484375 125.14359375 31.62171875 126.12109375 31.85546875 C131.97107961 33.25702786 136.69857967 37.39148647 141.24609375 41.16796875 C141.57609375 41.82796875 141.90609375 42.48796875 142.24609375 43.16796875 C143.93985515 44.11705919 145.63438299 45.06482567 147.33398438 46.00341797 C150.40575848 47.87425077 152.9064773 50.2524112 155.49609375 52.73046875 C156.04894043 53.25133057 156.60178711 53.77219238 157.17138672 54.30883789 C158.87207347 55.91931092 160.56061632 57.54159632 162.24609375 59.16796875 C162.77944336 59.6794043 163.31279297 60.19083984 163.86230469 60.71777344 C168.5855518 65.26400942 172.8573241 69.51044654 176.24609375 75.16796875 C177.23609375 75.82796875 178.22609375 76.48796875 179.24609375 77.16796875 C179.71015625 78.12703125 179.71015625 78.12703125 180.18359375 79.10546875 C181.1200942 81.30721267 181.1200942 81.30721267 183.24609375 82.60546875 C185.72831843 84.54470678 186.11442269 86.26806165 187.24609375 89.16796875 C188.11234375 90.03421875 188.11234375 90.03421875 188.99609375 90.91796875 C192.58400217 94.50587717 196.56250656 99.23674689 197.734375 104.26171875 C198.37213403 106.63749284 199.49416003 107.48239615 201.24609375 109.16796875 C202.16796875 110.9375 202.16796875 110.9375 202.99609375 112.98046875 C204.68708615 116.98850798 206.60678546 120.81238747 208.62109375 124.66796875 C212.64941973 132.54529594 215.54246934 140.75755109 218.24609375 149.16796875 C218.56562012 150.15273193 218.88514648 151.13749512 219.21435547 152.15209961 C231.15207913 189.7972975 230.76041249 231.03478167 221.24609375 269.16796875 C220.58609375 269.16796875 219.92609375 269.16796875 219.24609375 269.16796875 C219.18550781 269.77125 219.12492187 270.37453125 219.0625 270.99609375 C218.97871094 271.7953125 218.89492188 272.59453125 218.80859375 273.41796875 C218.72738281 274.206875 218.64617187 274.99578125 218.5625 275.80859375 C218.26974382 277.99161514 217.82544956 280.04528695 217.24609375 282.16796875 C216.58609375 282.16796875 215.92609375 282.16796875 215.24609375 282.16796875 C215.06433594 283.02519531 214.88257813 283.88242187 214.6953125 284.765625 C213.35287884 290.87197706 211.9937737 296.54176696 209.24609375 302.16796875 C208.58609375 302.16796875 207.92609375 302.16796875 207.24609375 302.16796875 C207.14296875 303.03421875 207.03984375 303.90046875 206.93359375 304.79296875 C206.21210961 308.33479998 204.97486114 311.01108917 203.24609375 314.16796875 C202.58609375 314.16796875 201.92609375 314.16796875 201.24609375 314.16796875 C200.91609375 316.14796875 200.58609375 318.12796875 200.24609375 320.16796875 C199.25609375 320.49796875 198.26609375 320.82796875 197.24609375 321.16796875 C196.55669566 323.49468729 195.89142453 325.82864469 195.24609375 328.16796875 C194.26199822 329.1836242 193.25911753 330.18116441 192.24609375 331.16796875 C191.03250964 332.98414081 189.84826831 334.82005086 188.68359375 336.66796875 C184.4578035 343.09987009 179.52486389 348.57005727 174.24609375 354.16796875 C172.96707435 355.59819006 171.69532033 357.03496895 170.43359375 358.48046875 C169.87542969 359.11726563 169.31726563 359.7540625 168.7421875 360.41015625 C167.44448375 361.93487345 166.21358417 363.51596737 164.99609375 365.10546875 C161.83812199 368.9408932 157.86061552 371.86680598 153.9921875 374.94921875 C151.74039963 376.76858647 149.61612848 378.63852187 147.49609375 380.60546875 C143.75333574 383.92026067 139.70307967 386.69935308 135.55859375 389.48046875 C134.59518066 390.1300354 134.59518066 390.1300354 133.61230469 390.79272461 C130.25546824 393.00661323 127.07330892 394.84344495 123.24609375 396.16796875 C123.24609375 396.82796875 123.24609375 397.48796875 123.24609375 398.16796875 C113.98867415 404.52754973 103.8666644 408.6501873 93.37109375 412.41796875 C92.62061768 412.68875244 91.8701416 412.95953613 91.09692383 413.23852539 C88.02982286 414.31647468 85.52152544 415.16796875 82.24609375 415.16796875 C82.24609375 415.82796875 82.24609375 416.48796875 82.24609375 417.16796875 C73.06101896 420.04999222 64.16667325 422.62334257 54.58984375 423.80859375 C52.29255615 423.92425049 52.29255615 423.92425049 51.24609375 425.16796875 C39.69867992 427.51499516 27.97734988 427.54045136 16.24243164 427.53857422 C13.2124723 427.54292726 10.18399841 427.5793193 7.15429688 427.6171875 C-6.5471533 427.69532499 -19.38507578 426.11858486 -32.75390625 423.16796875 C-33.62040802 422.97740906 -34.48690979 422.78684937 -35.37966919 422.59051514 C-37.50527596 422.12020802 -39.62972084 421.64465445 -41.75390625 421.16796875 C-41.75390625 420.50796875 -41.75390625 419.84796875 -41.75390625 419.16796875 C-42.54152344 419.08160156 -43.32914063 418.99523437 -44.140625 418.90625 C-63.51477582 416.40709918 -63.51477582 416.40709918 -69.75390625 410.16796875 C-72.2034579 409.22380982 -74.64996888 408.33951776 -77.12890625 407.48046875 C-84.54349871 404.80304621 -91.09052444 401.4041076 -97.75390625 397.16796875 C-98.74648437 396.56597656 -99.7390625 395.96398437 -100.76171875 395.34375 C-105.6920574 392.31323518 -109.70703848 389.32724951 -113.75390625 385.16796875 C-114.81609375 384.58402344 -115.87828125 384.00007813 -116.97265625 383.3984375 C-120.99667724 381.15676694 -124.17857794 378.32898672 -127.50390625 375.16796875 C-128.06722656 374.6471875 -128.63054687 374.12640625 -129.2109375 373.58984375 C-132.04447491 370.93717043 -134.44458091 368.29696204 -136.75390625 365.16796875 C-137.99140625 364.45640625 -137.99140625 364.45640625 -139.25390625 363.73046875 C-142.17512415 361.90470756 -143.08390709 360.12842181 -144.75390625 357.16796875 C-145.74390625 356.50796875 -146.73390625 355.84796875 -147.75390625 355.16796875 C-147.75390625 354.17796875 -147.75390625 353.18796875 -147.75390625 352.16796875 C-148.71296875 351.79671875 -148.71296875 351.79671875 -149.69140625 351.41796875 C-152.29820725 349.83808936 -152.04585703 349.00016564 -152.75390625 346.16796875 C-154.07037744 345.46859343 -155.40412776 344.80067742 -156.75390625 344.16796875 C-157.24890625 342.68296875 -157.24890625 342.68296875 -157.75390625 341.16796875 C-158.74390625 340.50796875 -159.73390625 339.84796875 -160.75390625 339.16796875 C-160.75390625 338.17796875 -160.75390625 337.18796875 -160.75390625 336.16796875 C-161.74390625 335.83796875 -162.73390625 335.50796875 -163.75390625 335.16796875 C-165.25610352 333.09838867 -165.25610352 333.09838867 -166.8203125 330.3984375 C-167.38814453 329.42712891 -167.95597656 328.45582031 -168.54101562 327.45507812 C-169.12689453 326.43220703 -169.71277344 325.40933594 -170.31640625 324.35546875 C-170.90615234 323.34419922 -171.49589844 322.33292969 -172.10351562 321.29101562 C-173.67127197 318.59247711 -175.23202024 315.89264 -176.75390625 313.16796875 C-177.14441162 312.48387939 -177.53491699 311.79979004 -177.93725586 311.0949707 C-178.75390625 309.16796875 -178.75390625 309.16796875 -178.75390625 305.16796875 C-179.41390625 305.16796875 -180.07390625 305.16796875 -180.75390625 305.16796875 C-188.36103519 288.18218768 -188.36103519 288.18218768 -190.75390625 280.16796875 C-191.13160156 279.03230469 -191.50929688 277.89664062 -191.8984375 276.7265625 C-205.41976213 234.9606931 -206.30838476 180.56619294 -187.75390625 140.16796875 C-187.09390625 139.17796875 -186.43390625 138.18796875 -185.75390625 137.16796875 C-185.30371408 135.26715737 -184.85384797 133.36626768 -184.40625 131.46484375 C-183.18249044 127.15603763 -181.19866063 123.19089369 -179.25390625 119.16796875 C-178.81103271 118.24878662 -178.36815918 117.32960449 -177.91186523 116.38256836 C-171.07307346 102.45223371 -162.66166244 90.0780009 -152.75390625 78.16796875 C-152.25568359 77.56678223 -151.75746094 76.9655957 -151.24414062 76.34619141 C-129.54237115 50.28062902 -129.54237115 50.28062902 -118.7421875 45.2265625 C-115.90489613 43.71594175 -114.01645266 41.44052643 -111.75390625 39.16796875 C-109.65073972 37.56700953 -107.57474856 36.06461793 -105.37890625 34.60546875 C-104.75040771 34.1870874 -104.12190918 33.76870605 -103.47436523 33.33764648 C-97.45056626 29.43813069 -91.1715096 26.05515279 -84.81640625 22.73046875 C-83.84590332 22.22249756 -82.87540039 21.71452637 -81.87548828 21.19116211 C-76.59413553 18.47866152 -71.34756061 16.14232947 -65.75390625 14.16796875 C-64.52671875 13.68457031 -63.29953125 13.20117188 -62.03515625 12.703125 C-51.51168929 8.57738487 -40.78361428 4.96375323 -29.50390625 3.625 C-25.75708562 3.2675444 -25.75708562 3.2675444 -22.25390625 2.16796875 C-14.90643559 0.06869142 -7.58548978 0.00877844 0 0 Z M-38.64306641 28.57324219 C-41.12665819 29.27299116 -43.6179535 29.94195847 -46.109375 30.61328125 C-47.99129357 31.13002628 -49.87280804 31.64824534 -51.75390625 32.16796875 C-52.62700439 32.40499512 -53.50010254 32.64202148 -54.3996582 32.88623047 C-59.89802279 34.44210234 -64.71737554 36.46316522 -69.75390625 39.16796875 C-69.75390625 39.82796875 -69.75390625 40.48796875 -69.75390625 41.16796875 C-70.76453125 41.39484375 -71.77515625 41.62171875 -72.81640625 41.85546875 C-77.15315821 43.08202486 -80.21025409 45.47615605 -83.75390625 48.16796875 C-86.25935987 49.77861751 -88.54289041 51.08562111 -91.31640625 52.16796875 C-93.85163785 53.20806377 -95.70830765 54.34965888 -97.75390625 56.16796875 C-97.75390625 56.82796875 -97.75390625 57.48796875 -97.75390625 58.16796875 C-98.46160156 58.41804688 -99.16929687 58.668125 -99.8984375 58.92578125 C-103.07659197 60.30834366 -105.6342034 62.01320407 -108.44140625 64.04296875 C-109.39402344 64.72101563 -110.34664063 65.3990625 -111.328125 66.09765625 C-113.71085955 68.13123002 -114.41528474 69.44515563 -115.75390625 72.16796875 C-117.08543128 72.83823982 -118.41919741 73.50406022 -119.75390625 74.16796875 C-121.97585254 76.07086634 -124.0156392 78.14597588 -126.06640625 80.23046875 C-126.92927246 81.10131104 -126.92927246 81.10131104 -127.80957031 81.98974609 C-135.62170112 89.69408274 -135.62170112 89.69408274 -140.75390625 99.16796875 C-142.08723958 100.50130208 -143.42057292 101.83463542 -144.75390625 103.16796875 C-145.24890625 104.65296875 -145.24890625 104.65296875 -145.75390625 106.16796875 C-146.22828125 106.60109375 -146.70265625 107.03421875 -147.19140625 107.48046875 C-149.31886831 109.77812777 -149.89518633 112.19547671 -150.75390625 115.16796875 C-151.41390625 115.16796875 -152.07390625 115.16796875 -152.75390625 115.16796875 C-153.59181414 116.9575006 -154.42410021 118.7496657 -155.25390625 120.54296875 C-155.71796875 121.54070312 -156.18203125 122.5384375 -156.66015625 123.56640625 C-157.88309355 126.00489501 -157.88309355 126.00489501 -157.75390625 128.16796875 C-158.41390625 128.16796875 -159.07390625 128.16796875 -159.75390625 128.16796875 C-181.98405173 169.85967016 -184.12233497 224.26299382 -170.90332031 269.04980469 C-169.26953406 274.11937363 -167.45636212 279.11414055 -165.54980469 284.08691406 C-164.42978368 287.0154598 -163.37520845 289.96683922 -162.31640625 292.91796875 C-161.79692475 294.33513168 -161.27675847 295.75204596 -160.75390625 297.16796875 C-160.09390625 297.16796875 -159.43390625 297.16796875 -158.75390625 297.16796875 C-158.48578125 298.01359375 -158.21765625 298.85921875 -157.94140625 299.73046875 C-156.70604675 303.30650942 -155.27691825 306.70657783 -153.75390625 310.16796875 C-153.09390625 310.16796875 -152.43390625 310.16796875 -151.75390625 310.16796875 C-151.50640625 310.87050781 -151.25890625 311.57304687 -151.00390625 312.296875 C-148.77161432 317.42417052 -145.27444884 321.80211677 -142.04345703 326.34033203 C-140.74891538 328.17504214 -139.48166143 330.02622059 -138.21875 331.8828125 C-134.24047077 337.6780647 -130.39311152 342.97226946 -124.8359375 347.375 C-121.17625396 350.52658489 -118.11313215 354.26895492 -114.953125 357.91015625 C-112.88451369 360.37939538 -112.88451369 360.37939538 -109.75390625 361.16796875 C-108.76390625 362.65296875 -108.76390625 362.65296875 -107.75390625 364.16796875 C-106.11925802 365.11103503 -104.48250986 366.05386324 -102.80078125 366.91015625 C-100.46809342 368.34360182 -98.49436469 370.08761815 -96.41308594 371.85742188 C-93.63048456 374.05533303 -90.59394094 375.7554176 -87.50390625 377.48046875 C-86.88 377.83947266 -86.25609375 378.19847656 -85.61328125 378.56835938 C-82.38588847 380.52844744 -82.38588847 380.52844744 -78.75390625 381.16796875 C-78.75390625 381.82796875 -78.75390625 382.48796875 -78.75390625 383.16796875 C-58.0453094 394.22824207 -35.05296162 401.32140705 -11.75390625 404.16796875 C-10.61767822 404.31153809 -10.61767822 404.31153809 -9.45849609 404.45800781 C-1.04427112 405.37615922 7.37610545 405.31969409 15.82910156 405.29833984 C18.40044858 405.29290672 20.97162653 405.29835174 23.54296875 405.3046875 C25.17578164 405.30402794 26.80859442 405.30274932 28.44140625 405.30078125 C29.59589767 405.3038176 29.59589767 405.3038176 30.77371216 405.30691528 C34.30334376 405.61680282 34.30334376 405.61680282 37.24609375 404.16796875 C38.74023811 403.89491853 40.24407101 403.67455659 41.75 403.4765625 C56.00930673 401.44912172 69.10561436 397.99737946 82.64013672 393.10107422 C86.48687397 391.72368713 90.36362765 390.44052486 94.24609375 389.16796875 C94.24609375 388.50796875 94.24609375 387.84796875 94.24609375 387.16796875 C94.77976562 387.02101563 95.3134375 386.8740625 95.86328125 386.72265625 C105.98262647 383.67634817 114.30541197 377.53719402 122.98095703 371.68334961 C125.66648619 369.87205496 128.32932742 368.11965042 131.1328125 366.4921875 C133.37601032 365.34185058 133.37601032 365.34185058 134.24609375 363.16796875 C134.85839844 362.8740625 135.47070312 362.58015625 136.1015625 362.27734375 C138.59204826 360.98900503 139.79768407 359.58653532 141.55859375 357.41796875 C143.81248615 354.74597691 146.04069402 352.38092493 148.74609375 350.16796875 C152.12896075 347.39462733 154.87951204 344.264128 157.66796875 340.90234375 C159.24609375 339.16796875 159.24609375 339.16796875 162.24609375 337.16796875 C163.23429801 335.49008027 164.2170382 333.80821844 165.1484375 332.09814453 C166.94730887 328.93491565 169.10107766 326.04024076 171.24609375 323.10546875 C176.1353979 316.37156348 180.63434978 309.71346659 184.30859375 302.23046875 C184.64697266 301.55306641 184.98535156 300.87566406 185.33398438 300.17773438 C188.84566262 293.09324615 191.80036882 285.86902004 194.43359375 278.41796875 C194.70623047 277.66386719 194.97886719 276.90976562 195.25976562 276.1328125 C196.35915081 273.03028689 197.24609375 270.48473256 197.24609375 267.16796875 C197.90609375 267.16796875 198.56609375 267.16796875 199.24609375 267.16796875 C205.20694855 238.801064 206.87310536 210.94183594 203.24609375 182.16796875 C203.08832524 180.81122307 202.93076185 179.45445351 202.7734375 178.09765625 C201.95669395 171.6323418 200.6942407 166.18633 198.24609375 160.16796875 C197.90828461 158.69437611 197.59674419 157.21457104 197.30859375 155.73046875 C196.47220539 151.66701528 195.02797269 148.19563863 193.265625 144.453125 C191.63173836 140.79096528 190.43949488 136.99227693 189.24609375 133.16796875 C188.58609375 133.16796875 187.92609375 133.16796875 187.24609375 133.16796875 C187.04113281 132.46929687 186.83617187 131.770625 186.625 131.05078125 C186.35558594 130.14070313 186.08617187 129.230625 185.80859375 128.29296875 C185.40833984 126.93558594 185.40833984 126.93558594 185 125.55078125 C184.31995549 123.18521494 184.31995549 123.18521494 183.24609375 121.16796875 C182.58609375 121.16796875 181.92609375 121.16796875 181.24609375 121.16796875 C181.06433594 120.57628906 180.88257813 119.98460937 180.6953125 119.375 C178.9060432 113.75027138 177.25692935 109.13762683 172.95703125 104.92578125 C170.13040076 102.0502753 167.66967597 99.00405073 165.24609375 95.79296875 C164.58601318 94.93034424 164.58601318 94.93034424 163.91259766 94.05029297 C161.72897499 91.18393347 159.62268987 88.28855478 157.62109375 85.29296875 C155.05790156 81.92034745 152.28058634 79.41799328 149.015625 76.74609375 C147.24609375 75.16796875 147.24609375 75.16796875 145.24609375 72.16796875 C143.59039178 71.14991729 141.92254083 70.15148437 140.24609375 69.16796875 C138.82084472 67.95161522 137.42514704 66.69991368 136.05859375 65.41796875 C121.09448957 51.90836563 102.0676132 41.22603854 83.24609375 34.16796875 C82.54613281 33.89984375 81.84617187 33.63171875 81.125 33.35546875 C42.5533066 18.78538558 0.94600814 17.36667652 -38.64306641 28.57324219 Z " fill="#F4F3F3" transform="translate(290.75390625,93.83203125)"/>
<path d="M0 0 C36.96 0 73.92 0 112 0 C113.125 37.125 113.125 37.125 113 50 C108.38 50 103.76 50 99 50 C98.84144531 48.90300781 98.68289063 47.80601562 98.51953125 46.67578125 C98.28491848 45.2211821 98.04918177 43.76676393 97.8125 42.3125 C97.71130859 41.59126953 97.61011719 40.87003906 97.50585938 40.12695312 C96.63607451 34.97876706 95.18573391 32.4045705 91 29 C88.02310242 27.51155121 85.3013618 27.83408395 81.97998047 27.79467773 C81.25792419 27.78477814 80.53586792 27.77487854 79.79193115 27.76467896 C77.40038352 27.73303969 75.00881601 27.70829701 72.6171875 27.68359375 C70.96094236 27.66302631 69.30470249 27.6420299 67.64846802 27.62062073 C63.28538276 27.56537833 58.92224996 27.51597863 54.55908203 27.46777344 C50.10835531 27.41757423 45.65769777 27.36187993 41.20703125 27.30664062 C32.47141264 27.19903253 23.73573621 27.09759347 15 27 C14.90864525 28.41709007 14.90864525 28.41709007 14.81544495 29.86280823 C14.29085699 37.88300966 13.70761923 45.89359882 13.02734375 53.90234375 C12.8481877 56.05012024 12.66915474 58.19790699 12.49023438 60.34570312 C12.21290958 63.65905654 11.93455249 66.97231416 11.65405273 70.28540039 C11.37970903 73.53247621 11.10948805 76.77987477 10.83984375 80.02734375 C10.75548569 81.01081284 10.67112762 81.99428192 10.58421326 83.0075531 C10.14274342 88.3611016 9.91492315 93.62828717 10 99 C10.91652344 98.71125 11.83304687 98.4225 12.77734375 98.125 C38.07746549 90.98711425 69.71192226 92.33455421 93 105 C96.59834686 107.41560333 99.81007722 110.07172883 103 113 C103.70769531 113.61617188 104.41539062 114.23234375 105.14453125 114.8671875 C117.05253408 125.84167577 123.22858308 142.23128367 124.12255859 158.1875 C124.90058173 179.99100885 120.11113582 202.17114279 104.9375 218.70288086 C95.73951899 228.18979585 84.63772823 234.19660727 72 238 C71.29359375 238.21269531 70.5871875 238.42539062 69.859375 238.64453125 C60.56983648 241.1863538 51.17596975 241.15676597 41.625 241.125 C39.8925 241.13080078 39.8925 241.13080078 38.125 241.13671875 C20.24449659 241.11653759 1.23475033 238.95751741 -12.5 226.1875 C-18.35688378 219.74492784 -20.74093215 213.3694157 -20.38671875 204.6484375 C-19.59225378 199.20755621 -17.47145268 195.43372312 -13.5625 191.625 C-8.53262458 188.4353229 -4.98781736 187.76518363 1 188 C1.2475 189.27875 1.495 190.5575 1.75 191.875 C4.11019233 202.10250011 7.1378085 208.8700816 16 215 C24.31080313 219.58023495 31.38387702 220.18188482 40.75 220.1875 C41.80960937 220.19974609 42.86921875 220.21199219 43.9609375 220.22460938 C55.36015982 220.24582381 65.92561427 217.84211154 74.6875 210.0625 C87.45109439 196.06177235 88.90789476 176.60289506 88.40625 158.578125 C87.73161598 146.19015789 83.67988106 135.10626119 75 126 C60.89110288 113.4847989 43.84822669 113.36124952 26 114 C17.41548027 114.52146331 9.79295616 116.28978168 1.7421875 119.24609375 C-2.4762094 120.40585244 -5.74669207 119.85066159 -10 119 C-10.11932122 111.09415409 -9.81599851 103.35118661 -9.046875 95.484375 C-8.94665039 94.40950333 -8.84642578 93.33463165 -8.74316406 92.22718811 C-8.41684008 88.7343297 -8.08334249 85.24219488 -7.75 81.75 C-7.2884598 76.83232804 -6.83127623 71.91425664 -6.375 66.99609375 C-6.2592865 65.75280807 -6.143573 64.5095224 -6.02435303 63.2285614 C-4.65006064 48.37225852 -3.4429308 33.50223756 -2.25683594 18.62988281 C-2.10354409 16.73892998 -1.95022534 14.84797934 -1.796875 12.95703125 C-1.69717407 11.6749453 -1.69717407 11.6749453 -1.59545898 10.36695862 C-1.53140869 9.58175339 -1.4673584 8.79654816 -1.40136719 7.98754883 C-1.34760925 7.3096077 -1.29385132 6.63166656 -1.23846436 5.93318176 C-1 4 -1 4 0 0 Z " fill="#020202" transform="translate(254,185)"/>
<path d="M0 0 C3.51535946 1.64160221 5.55831025 3.43745774 8.125 6.375 C9.14980469 7.53128906 9.14980469 7.53128906 10.1953125 8.7109375 C12 11 12 11 13.078125 13.16015625 C13.979556 15.28553868 13.979556 15.28553868 16.625 17.0625 C21.40380271 20.86934283 24.55060716 26.02175539 28 31 C28.72445312 32.01578125 29.44890625 33.0315625 30.1953125 34.078125 C35.50247002 41.58581124 40.34941653 49.29620014 44.97412109 57.23901367 C45.68357369 58.45683413 46.40055434 59.67028879 47.12353516 60.88012695 C49.3412762 64.64036396 50.57369529 67.63037674 51 72 C51.66 72 52.32 72 53 72 C58.2530387 83.42024257 63.06855669 94.91289797 67.22119141 106.78173828 C67.76560879 108.33238917 68.32656829 109.87728681 68.89990234 111.41748047 C69.18430176 112.20654785 69.46870117 112.99561523 69.76171875 113.80859375 C70.02299561 114.51685303 70.28427246 115.2251123 70.5534668 115.95483398 C71.06725982 118.3080566 70.75184695 119.7368294 70 122 C67.43923903 122.67404284 64.87673417 123.339414 62.3125 124 C61.59126953 124.19078125 60.87003906 124.3815625 60.12695312 124.578125 C56.33149039 125.54865428 52.95384561 126.24955239 49 126 C49 126.66 49 127.32 49 128 C46.10555905 128.6732656 43.20969987 129.33880404 40.3125 130 C39.49587891 130.19078125 38.67925781 130.3815625 37.83789062 130.578125 C33.82760674 131.48733916 30.14282748 132.27000098 26 132 C26 132.66 26 133.32 26 134 C23.36 134.33 20.72 134.66 18 135 C16.82627027 131.39809458 15.66223744 127.79312849 14.5 124.1875 C14.16613281 123.16333984 13.83226562 122.13917969 13.48828125 121.08398438 C13.17246094 120.10107422 12.85664062 119.11816406 12.53125 118.10546875 C12.23798828 117.19949951 11.94472656 116.29353027 11.64257812 115.36010742 C11 113 11 113 11 110 C10.34 110 9.68 110 9 110 C8.32942113 108.2097939 7.6636531 106.41778511 7 104.625 C6.62875 103.62726563 6.2575 102.62953125 5.875 101.6015625 C5 99 5 99 5 97 C4.34 97 3.68 97 3 97 C2.69707031 96.3709375 2.39414062 95.741875 2.08203125 95.09375 C-0.36438308 90.09553735 -2.91498102 85.36910437 -6.08203125 80.7890625 C-7 79 -7 79 -7 75 C-8.485 74.505 -8.485 74.505 -10 74 C-13 68.77777778 -13 68.77777778 -13 66 C-14.485 65.505 -14.485 65.505 -16 65 C-17 63 -18 61 -19 59 C-19.86625 58.13375 -20.7325 57.2675 -21.625 56.375 C-24.07367251 53.92632749 -24.2385083 53.15475135 -25 50 C-25.87011719 49.56880859 -25.87011719 49.56880859 -26.7578125 49.12890625 C-29.40131907 47.79794214 -31.18944912 46.1820694 -33.3125 44.125 C-34.03050781 43.44695312 -34.74851562 42.76890625 -35.48828125 42.0703125 C-37 40 -37 40 -36.80812073 38.10552979 C-35.8167632 35.52258305 -34.54728096 34.18615956 -32.58178711 32.24121094 C-31.86111557 31.52076599 -31.14044403 30.80032104 -30.39793396 30.05804443 C-29.61563919 29.29123352 -28.83334442 28.52442261 -28.02734375 27.734375 C-27.22970108 26.94097717 -26.43205841 26.14757935 -25.61024475 25.33013916 C-23.05961153 22.79630602 -20.49874774 20.27309895 -17.9375 17.75 C-16.20699858 16.0345436 -14.4771722 14.31840595 -12.74804688 12.6015625 C-8.50650094 8.39310357 -4.25650702 4.19332349 0 0 Z " fill="#F9F9F9" transform="translate(509,108)"/>
<path d="M0 0 C5.45257494 2.28399502 9.17202745 6.83780233 13.27392578 10.95825195 C14.75042865 12.43792957 16.23980073 13.90375064 17.73046875 15.36914062 C19.12458984 16.76229492 19.12458984 16.76229492 20.546875 18.18359375 C21.40120117 19.03493896 22.25552734 19.88628418 23.13574219 20.76342773 C25 23 25 23 25 26 C26.98 26.495 26.98 26.495 29 27 C29.495 28.98 29.495 28.98 30 31 C30.66 31 31.32 31 32 31 C32.495 31.99 32.495 31.99 33 33 C33.99 33.433125 33.99 33.433125 35 33.875 C37 35 37 35 37.80078125 36.8515625 C38 39 38 39 36.91796875 40.71875 C36.34691406 41.3065625 35.77585937 41.894375 35.1875 42.5 C31.97461404 45.95159436 28.84412015 49.45048822 25.8125 53.0625 C25.37671631 53.58158936 24.94093262 54.10067871 24.49194336 54.63549805 C22.3299479 57.25243158 20.35986794 59.821783 18.75 62.8125 C17.27316974 65.50244083 15.96332341 67.26715814 13.9375 69.5 C11.8560186 71.82205463 10.46909328 73.85242946 9.3125 76.75 C8 80 8 80 6.5546875 81.41015625 C4.66653532 83.34100534 3.8556344 85.20555952 2.8125 87.6875 C2.29623047 88.89986328 2.29623047 88.89986328 1.76953125 90.13671875 C1.51558594 90.75160156 1.26164062 91.36648437 1 92 C0.34 92 -0.32 92 -1 92 C-1.4640625 93.918125 -1.4640625 93.918125 -1.9375 95.875 C-2.47605244 98.10101675 -2.9737 99.94739999 -4 102 C-4.66 102 -5.32 102 -6 102 C-6.103125 103.010625 -6.20625 104.02125 -6.3125 105.0625 C-7.03704767 109.21218208 -8.22269266 112.21356263 -10 116 C-10.66 116 -11.32 116 -12 116 C-12.1546875 117.670625 -12.1546875 117.670625 -12.3125 119.375 C-12.929197 124.43554302 -14.42506148 129.16622643 -16 134 C-19.40745188 134.76286236 -21.64998162 135.11667279 -25 134 C-25 133.34 -25 132.68 -25 132 C-25.8264502 131.90348145 -26.65290039 131.80696289 -27.50439453 131.70751953 C-36.89452856 130.50217968 -45.77088343 128.40478501 -54.875 125.875 C-56.25630032 125.49792742 -57.63781021 125.12162171 -59.01953125 124.74609375 C-62.34880425 123.83950985 -65.67516507 122.9227459 -69 122 C-68.42766392 115.59280913 -66.89847216 109.94753385 -64.8125 103.875 C-64.50223877 102.96008789 -64.19197754 102.04517578 -63.87231445 101.10253906 C-56.52185612 79.76092806 -56.52185612 79.76092806 -53 78 C-52.46436845 76.56144668 -51.99943375 75.09653855 -51.5625 73.625 C-42.1343601 46.5411674 -20.30356985 19.94421463 0 0 Z " fill="#F8F8F8" transform="translate(98,108)"/>
<path d="M0 0 C3.19588316 0.03448795 6.13691725 0.34672931 9.25 1.125 C9.25 1.785 9.25 2.445 9.25 3.125 C13.78043507 3.41671052 18.31126029 3.70111102 22.8425293 3.97949219 C24.3755248 4.07461611 25.90840961 4.17154557 27.44116211 4.27050781 C42.49891431 5.24037946 57.35769628 5.41295176 72.421875 4.34765625 C78.03394291 4.02124006 83.63093168 4.03840477 89.25 4.125 C89.25 3.465 89.25 2.805 89.25 2.125 C95.99153283 0.86658054 102.38484138 -0.13904456 109.25 0.125 C111.973632 8.00537524 113.23822759 15.86417587 114.25 24.125 C114.91 24.125 115.57 24.125 116.25 24.125 C117.26269843 27.66316002 118.25786542 31.20602377 119.25 34.75 C119.53617188 35.74902344 119.82234375 36.74804688 120.1171875 37.77734375 C121.47362513 42.65405999 122.66910152 47.00846899 122.25 52.125 C114.29422907 54.24089652 106.38509417 55.88141872 98.25 57.125 C97.18652344 57.3003125 96.12304688 57.475625 95.02734375 57.65625 C93.94582031 57.8315625 92.86429687 58.006875 91.75 58.1875 C90.7909375 58.34347656 89.831875 58.49945312 88.84375 58.66015625 C77.56600706 60.11890778 66.37181577 60.31128542 55.0168457 60.31030273 C52.21745294 60.31247674 49.41846343 60.33065678 46.61914062 60.34960938 C29.83966844 60.40387418 13.64554117 58.89765326 -2.8125 55.5625 C-3.95009766 55.34142578 -5.08769531 55.12035156 -6.25976562 54.89257812 C-14.44662869 53.27668565 -14.44662869 53.27668565 -16.75 52.125 C-16.26679152 45.9195858 -15.41681876 40.12554754 -13.75 34.125 C-13.09 34.125 -12.43 34.125 -11.75 34.125 C-11.66363281 33.25101563 -11.57726562 32.37703125 -11.48828125 31.4765625 C-7.92207394 0.26406913 -7.92207394 0.26406913 0 0 Z " fill="#F8F8F8" transform="translate(251.75,533.875)"/>
<path d="M0 0 C0.268125 0.86238281 0.53625 1.72476562 0.8125 2.61328125 C10.45040409 32.63662065 25.01133946 58.39264013 44.5078125 83.06640625 C45.98740649 84.98368118 47.37316845 86.94557507 48.75 88.9375 C50.82880281 92.13294747 50.82880281 92.13294747 54 94 C53.6869518 96.9217832 53.18033109 97.85149204 50.875 99.75 C49.92625 100.4925 48.9775 101.235 48 102 C46.17770348 103.97623481 44.43733976 106.01085173 42.69140625 108.0546875 C40.57520622 110.4885619 38.28006657 112.71993343 36 115 C35.07928884 116.12169236 34.16293151 117.24696682 33.25 118.375 C30.23959449 121.97337534 26.7618497 124.61017853 22.953125 127.32421875 C20.9007735 129.08513634 20.01594343 130.51958492 19 133 C14.71193127 132.52354792 12.73352513 131.34097516 10 128 C10 127.34 10 126.68 10 126 C9.38125 125.731875 8.7625 125.46375 8.125 125.1875 C6 124 6 124 4 121 C4 120.01 4 119.02 4 118 C3.401875 117.773125 2.80375 117.54625 2.1875 117.3125 C-0.59832728 115.64100363 -1.37537232 113.7943596 -3 111 C-4.175625 109.824375 -4.175625 109.824375 -5.375 108.625 C-8.39990257 105.60009743 -10.64312328 102.56898474 -13 99 C-13 98.34 -13 97.68 -13 97 C-13.66 97 -14.32 97 -15 97 C-16.296875 95.1640625 -16.296875 95.1640625 -17.75 92.625 C-18.27980469 91.71105469 -18.80960938 90.79710937 -19.35546875 89.85546875 C-19.89816406 88.91316406 -20.44085938 87.97085938 -21 87 C-22.01772686 85.31062468 -23.03846379 83.6230583 -24.0625 81.9375 C-27.78786327 75.71555821 -31.347744 69.58353386 -34.16772461 62.89379883 C-35.61975926 59.58977044 -37.29374903 56.39915446 -38.9375 53.1875 C-43.04966079 45.0334958 -46.67599521 37.23807006 -48.4296875 28.23046875 C-49.25808525 24.99063918 -50.68636297 22.11446715 -52.1953125 19.140625 C-53.13471889 16.6416216 -53.05632039 14.64979256 -53 12 C-49.05610251 10.86806219 -45.1091331 9.74758899 -41.15917969 8.63696289 C-39.82010599 8.25880154 -38.48186064 7.87769257 -37.14453125 7.4934082 C-29.47021934 5.29049008 -22.01350134 3.36747256 -14 3 C-14 2.34 -14 1.68 -14 1 C-12.60750796 0.63291604 -11.21076667 0.28193437 -9.8125 -0.0625 C-9.03519531 -0.25972656 -8.25789063 -0.45695312 -7.45703125 -0.66015625 C-4.71685622 -1.03916297 -2.66557405 -0.67704634 0 0 Z " fill="#F8F8F8" transform="translate(82,373)"/>
<path d="M0 0 C4.05992993 0.0890661 7.47161265 0.96970422 11.3125 2.25 C11.3125 2.91 11.3125 3.57 11.3125 4.25 C12.3025 4.20875 13.2925 4.1675 14.3125 4.125 C18.55085866 4.1076652 22.24443985 5.10808838 26.3125 6.25 C26.3125 6.91 26.3125 7.57 26.3125 8.25 C27.14652344 8.37117188 27.98054687 8.49234375 28.83984375 8.6171875 C35.40365424 9.59461632 41.85552216 10.71783577 48.3125 12.25 C47.9825 14.56 47.6525 16.87 47.3125 19.25 C46.6525 19.25 45.9925 19.25 45.3125 19.25 C44.6525 23.21 43.9925 27.17 43.3125 31.25 C42.6525 31.25 41.9925 31.25 41.3125 31.25 C39.9925 36.53 38.6725 41.81 37.3125 47.25 C36.6525 47.25 35.9925 47.25 35.3125 47.25 C35.250625 48.03375 35.18875 48.8175 35.125 49.625 C34.0052699 54.62071893 31.68960235 58.74456183 29.3125 63.25 C28.53769587 64.78967487 27.76645051 66.3311497 27 67.875 C26.443125 68.98875 25.88625 70.1025 25.3125 71.25 C24.6525 71.25 23.9925 71.25 23.3125 71.25 C23.0753125 72.24128906 22.838125 73.23257813 22.59375 74.25390625 C21.33531428 78.65067684 19.1940493 82.3108247 16.8125 86.1875 C16.40902344 86.87134766 16.00554687 87.55519531 15.58984375 88.25976562 C14.5592162 89.96217186 13.4425256 91.61188453 12.3125 93.25 C11.6525 93.25 10.9925 93.25 10.3125 93.25 C10.23 93.8275 10.1475 94.405 10.0625 95 C9.09838585 97.89234246 7.46851457 99.10169926 5.3125 101.25 C4.05255138 102.91464303 2.8250883 104.60419821 1.625 106.3125 C-3.96496071 114.10298629 -9.82904242 121.5362826 -16.6875 128.25 C-18.0796875 129.6421875 -18.0796875 129.6421875 -19.5 131.0625 C-20.221875 131.784375 -20.94375 132.50625 -21.6875 133.25 C-24.75018033 131.879199 -26.88949357 130.31190578 -29.27856445 127.96533203 C-30.30401115 126.96386642 -30.30401115 126.96386642 -31.35017395 125.94216919 C-32.07637436 125.22133148 -32.80257477 124.50049377 -33.55078125 123.7578125 C-34.67784737 122.64428909 -34.67784737 122.64428909 -35.8276825 121.50827026 C-37.41136227 119.93908243 -38.99225839 118.36708096 -40.57055664 116.79248047 C-42.99625685 114.37872472 -45.43997863 111.98424557 -47.88476562 109.58984375 C-49.42041624 108.06365164 -50.9549604 106.53634524 -52.48828125 105.0078125 C-53.22460281 104.29102325 -53.96092438 103.57423401 -54.71955872 102.83572388 C-55.38742905 102.16177582 -56.05529938 101.48782776 -56.7434082 100.79345703 C-57.63465141 99.90981979 -57.63465141 99.90981979 -58.54389954 99.0083313 C-59.6875 97.25 -59.6875 97.25 -59.44914246 95.1178894 C-58.55333624 92.92097021 -57.58533958 91.94425992 -55.8125 90.375 C-40.6447967 75.79663486 -28.82803398 56.05474438 -19.6875 37.25 C-19.0275 37.25 -18.3675 37.25 -17.6875 37.25 C-17.57921875 36.39277344 -17.4709375 35.53554688 -17.359375 34.65234375 C-16.64604127 31.04005491 -15.46624316 28.15761068 -13.9375 24.8125 C-11.06979309 18.41316858 -8.84833903 11.92682942 -6.765625 5.234375 C-5.2090211 0.92551494 -4.65112448 0.31533047 0 0 Z " fill="#F9F9F9" transform="translate(531.6875,372.75)"/>
<path d="M0 0 C0.97322205 -0.00167175 1.94644409 -0.00334351 2.94915771 -0.00506592 C24.19099545 -0.00724981 44.85554716 1.5938609 65.5 6.875 C66.52351562 7.13539062 67.54703125 7.39578125 68.6015625 7.6640625 C69.35179687 7.85742188 70.10203125 8.05078125 70.875 8.25 C70.545 11.22 70.215 14.19 69.875 17.25 C69.215 17.25 68.555 17.25 67.875 17.25 C67.83761719 17.82105469 67.80023438 18.39210938 67.76171875 18.98046875 C67.17180315 26.25609452 65.63803958 33.17566508 63.875 40.25 C63.215 40.25 62.555 40.25 61.875 40.25 C61.83761719 40.85585938 61.80023438 41.46171875 61.76171875 42.0859375 C61.27746042 48.25785735 60.54868986 54.5941176 57.875 60.25 C54.02482035 61.53339322 51.09953786 60.69990097 47.25 59.875 C46.55648437 59.73578125 45.86296875 59.5965625 45.1484375 59.453125 C40.01543257 58.39043257 40.01543257 58.39043257 38.875 57.25 C17.60433046 54.54306652 -3.96822777 54.61796899 -25.3125 56.125 C-26.42310791 56.20331055 -27.53371582 56.28162109 -28.67797852 56.36230469 C-34.79686451 56.84366382 -40.74388283 57.61778606 -46.76025391 58.83984375 C-49.94236567 59.39176898 -52.90485598 59.39311751 -56.125 59.25 C-56.23457031 58.63253906 -56.34414062 58.01507813 -56.45703125 57.37890625 C-56.61558594 56.53199219 -56.77414063 55.68507812 -56.9375 54.8125 C-57.08832031 53.98878906 -57.23914063 53.16507813 -57.39453125 52.31640625 C-57.99546029 49.79378971 -58.71482508 47.4629401 -59.5625 45.01953125 C-61.2038642 40.20489641 -62.30306937 35.35538148 -63.3125 30.375 C-63.48974609 29.53453125 -63.66699219 28.6940625 -63.84960938 27.828125 C-64.52767706 24.5503615 -65.125 21.60832348 -65.125 18.25 C-65.785 18.25 -66.445 18.25 -67.125 18.25 C-67.455 14.95 -67.785 11.65 -68.125 8.25 C-62.59052693 6.10340842 -57.03433649 5.38847765 -51.1875 4.625 C-50.22392578 4.4909375 -49.26035156 4.356875 -48.26757812 4.21875 C-43.17163422 3.53603981 -38.26563635 3.09270654 -33.125 3.25 C-33.125 2.59 -33.125 1.93 -33.125 1.25 C-22.1027489 0.02054009 -11.07561496 0.01003416 0 0 Z " fill="#F9F9F9" transform="translate(303.125,20.75)"/>
<path d="M0 0 C0.99 0.495 0.99 0.495 2 1 C1.26233398 1.42128174 1.26233398 1.42128174 0.50976562 1.85107422 C-17.18838692 11.97780264 -33.99986741 22.32483717 -50 35 C-51.08964958 35.84920754 -52.17947675 36.69818729 -53.26953125 37.546875 C-58.04190847 41.33343969 -62.07882549 45.17929304 -66.04150391 49.7902832 C-69.56059285 53.76077361 -73.35451127 57.45765502 -77.125 61.1875 C-77.91003906 61.96802734 -78.69507812 62.74855469 -79.50390625 63.55273438 C-82.55648086 66.5872921 -85.61003292 69.61965475 -88.69140625 72.625 C-91.55147688 75.56734001 -94.18359148 78.66412757 -96.8125 81.8125 C-97.31458984 82.40998047 -97.81667969 83.00746094 -98.33398438 83.62304688 C-99.55806732 85.08028848 -100.77932962 86.53989865 -102 88 C-102 84.4195546 -101.36001118 83.86559933 -99.11328125 81.19921875 C-98.1996582 80.10383789 -98.1996582 80.10383789 -97.26757812 78.98632812 C-96.62240234 78.22771484 -95.97722656 77.46910156 -95.3125 76.6875 C-94.37374023 75.56698242 -94.37374023 75.56698242 -93.41601562 74.42382812 C-92.18770517 72.9588589 -90.95489742 71.49764687 -89.71728516 70.04052734 C-88.62834196 68.74661389 -87.55322036 67.44083575 -86.49755859 66.11962891 C-85.37250645 64.71279726 -84.19182238 63.35073203 -83 62 C-82.34 62 -81.68 62 -81 62 C-80.773125 61.443125 -80.54625 60.88625 -80.3125 60.3125 C-77.59845869 55.53061769 -73.22998281 52.38398625 -69 49 C-68.278125 48.278125 -67.55625 47.55625 -66.8125 46.8125 C-55.90527672 35.90527672 -43.73494814 26.660618 -31 18 C-30.24074219 17.47664063 -29.48148437 16.95328125 -28.69921875 16.4140625 C-24.36115244 13.46207955 -19.95355142 10.79427739 -15.33984375 8.296875 C-11.88379334 6.38133454 -8.52812124 4.306208 -5.1640625 2.234375 C-3 1 -3 1 0 0 Z " fill="#A4A1A1" transform="translate(166,38)"/>
<path d="M0 0 C7.06345974 6.35789627 10.63204828 17.19046115 14.5 25.6875 C14.9748584 26.72970703 15.4497168 27.77191406 15.93896484 28.84570312 C25.9092863 50.94743452 25.9092863 50.94743452 27 62 C25.2555854 59.38337811 24.34632876 57.44820113 23.3359375 54.52734375 C23.02237305 53.63611816 22.70880859 52.74489258 22.38574219 51.82666016 C21.8854248 50.39652588 21.8854248 50.39652588 21.375 48.9375 C15.81648592 33.34235224 9.24904252 18.22575424 0.953125 3.8828125 C0 2 0 2 0 0 Z " fill="#A8A1A1" transform="translate(565,155)"/>
<path d="M0 0 C0.66 0.33 1.32 0.66 2 1 C-2.52473958 5.52473958 -7.04947917 10.04947917 -11.57421875 14.57421875 C-12.34918701 15.35047607 -13.12415527 16.1267334 -13.92260742 16.92651367 C-15.5117859 18.51270391 -17.11271206 20.08713247 -18.71875 21.65625 C-21.5710188 24.58666315 -24.19255878 27.67486679 -26.8125 30.8125 C-27.31458984 31.40998047 -27.81667969 32.00746094 -28.33398438 32.62304688 C-29.55806732 34.08028848 -30.77932962 35.53989865 -32 37 C-32 33.4195546 -31.36001118 32.86559933 -29.11328125 30.19921875 C-28.50419922 29.46896484 -27.89511719 28.73871094 -27.26757812 27.98632812 C-26.62240234 27.22771484 -25.97722656 26.46910156 -25.3125 25.6875 C-24.68666016 24.94048828 -24.06082031 24.19347656 -23.41601562 23.42382812 C-22.18770517 21.9588589 -20.95489742 20.49764687 -19.71728516 19.04052734 C-18.62834196 17.74661389 -17.55322036 16.44083575 -16.49755859 15.11962891 C-15.37250645 13.71279726 -14.19182238 12.35073203 -13 11 C-12.34 11 -11.68 11 -11 11 C-10.76539062 10.41734375 -10.53078125 9.8346875 -10.2890625 9.234375 C-8.70847076 6.49468266 -6.90598503 5.13016031 -4.375 3.25 C-3.55773437 2.63640625 -2.74046875 2.0228125 -1.8984375 1.390625 C-0.95871094 0.70226562 -0.95871094 0.70226562 0 0 Z " fill="#BA6D6D" transform="translate(96,89)"/>
<path d="M0 0 C12.58318165 5.76132007 22.48106434 18.2620491 31.98339844 27.95898438 C33.65551734 29.65134685 35.35428734 31.30583732 37.0703125 32.953125 C39 35 39 35 39 37 C39.66 37 40.32 37 41 37 C42.625 39 42.625 39 44 41 C43.505 41.99 43.505 41.99 43 43 C39.47886896 39.57519169 36.05522146 36.12112553 32.875 32.375 C25.2974549 23.60010014 16.86295446 15.4635406 8 8 C6.49668842 6.71218904 4.99665857 5.42053691 3.5 4.125 C2.8296875 3.55007812 2.159375 2.97515625 1.46875 2.3828125 C0.9840625 1.92648438 0.499375 1.47015625 0 1 C0 0.67 0 0.34 0 0 Z " fill="#A2A0A0" transform="translate(492,71)"/>
<path d="M0 0 C3.43044131 1.46580378 5.51375528 3.361307 8.0625 6.0625 C16.11389081 14.27073608 25.27041935 21.05305213 34.51782227 27.83911133 C37.93590876 30.36460606 41.09516796 32.87229083 44 36 C34.78351408 32.71311703 27.2041154 25.4725015 19.76953125 19.29296875 C17.88705873 17.73441957 15.98782816 16.19593826 14.07421875 14.67578125 C8.78907692 10.46340164 4.13309769 6.36185646 0 1 C0 0.67 0 0.34 0 0 Z " fill="#A8A8A8" transform="translate(92,522)"/>
<path d="M0 0 C0 4.31618166 -2.13270348 5.92789659 -5 9 C-5.66 9 -6.32 9 -7 9 C-7.268125 9.639375 -7.53625 10.27875 -7.8125 10.9375 C-9 13 -9 13 -12 14 C-13.95542188 16.98459129 -14 18.26414791 -14 22 C-12.68 22.33 -11.36 22.66 -10 23 C-10 23.66 -10 24.32 -10 25 C-9.34 25 -8.68 25 -8 25 C-7.67 25.99 -7.34 26.98 -7 28 C-7.66 28.66 -8.32 29.32 -9 30 C-10.53547475 28.59921602 -12.05305148 27.17879097 -13.5625 25.75 C-14.40941406 24.96109375 -15.25632812 24.1721875 -16.12890625 23.359375 C-18 21 -18 21 -17.85546875 19.109375 C-16.75850029 16.40452127 -15.26917403 14.92985905 -13.18359375 12.890625 C-12.41982422 12.13652344 -11.65605469 11.38242188 -10.86914062 10.60546875 C-10.06669922 9.82816406 -9.26425781 9.05085937 -8.4375 8.25 C-7.63119141 7.45722656 -6.82488281 6.66445312 -5.99414062 5.84765625 C-4.00266222 3.89152954 -2.00452279 1.94274281 0 0 Z " fill="#B5B2B2" transform="translate(490,127)"/>
<path d="M0 0 C0.66 0.33 1.32 0.66 2 1 C-21.93518519 21 -21.93518519 21 -27 21 C-27 21.66 -27 22.32 -27 23 C-28.28650706 23.69710731 -29.57940665 24.38242876 -30.875 25.0625 C-31.95394531 25.63677734 -31.95394531 25.63677734 -33.0546875 26.22265625 C-33.69664062 26.47917969 -34.33859375 26.73570312 -35 27 C-35.66 26.67 -36.32 26.34 -37 26 C-36.32533691 25.55720703 -35.65067383 25.11441406 -34.95556641 24.65820312 C-31.8420029 22.61054904 -28.73350225 20.55532857 -25.625 18.5 C-24.03365234 17.45585938 -24.03365234 17.45585938 -22.41015625 16.390625 C-16.38279522 12.39703609 -10.61649219 8.24696523 -5.03662109 3.64648438 C-3 2 -3 2 0 0 Z " fill="#A29D9D" transform="translate(495,540)"/>
<path d="M0 0 C0.66 0.33 1.32 0.66 2 1 C-4.1946592 8.8686853 -10.7619802 16.07226003 -17.875 23.125 C-18.82064545 24.07779466 -19.76595921 25.03091864 -20.7109375 25.984375 C-21.608125 26.87898437 -22.5053125 27.77359375 -23.4296875 28.6953125 C-24.23647949 29.49984863 -25.04327148 30.30438477 -25.87451172 31.13330078 C-28 33 -28 33 -31 34 C-29.64738766 30.89300927 -28.24756433 29.12460908 -25.625 27 C-16.06983393 18.88417836 -7.69902902 9.87653217 0 0 Z " fill="#ADACAC" transform="translate(535,500)"/>
<path d="M0 0 C3.42272028 3.09173194 5.39672744 6.25693886 7.5625 10.3125 C11.99778358 18.40407166 17.41700945 25.67232491 23 33 C22.67 33.66 22.34 34.32 22 35 C17 29.25 17 29.25 17 27 C16.34 27 15.68 27 15 27 C10.6427143 21.22954056 7.18535265 14.69338149 3.5625 8.4375 C3.03148682 7.52653564 3.03148682 7.52653564 2.48974609 6.59716797 C0 2.23795428 0 2.23795428 0 0 Z " fill="#A5A0A0" transform="translate(41,455)"/>
<path d="M0 0 C7.46143562 7.22074415 14.18727997 15.17394633 21 23 C22.31213495 24.50031934 23.62462751 26.00032601 24.9375 27.5 C25.95833333 28.66666667 26.97916667 29.83333333 28 31 C27.01 31 26.02 31 25 31 C24.34 29.68 23.68 28.36 23 27 C22.34 27 21.68 27 21 27 C21 26.34 21 25.68 21 25 C20.34 25 19.68 25 19 25 C17.60400604 23.47162731 16.28412351 21.87349901 15 20.25 C14.20722656 19.25613281 13.41445312 18.26226562 12.59765625 17.23828125 C12.17758301 16.71057129 11.75750977 16.18286133 11.32470703 15.63916016 C9.96817204 13.96061686 8.58232809 12.31146955 7.18359375 10.66796875 C6.72533203 10.12817383 6.26707031 9.58837891 5.79492188 9.03222656 C4.48881427 7.49778504 3.18000841 5.9656415 1.87109375 4.43359375 C0 2 0 2 0 0 Z " fill="#A4A3A3" transform="translate(64,490)"/>
<path d="M0 0 C1 3 1 3 0 6 C-4.64194516 10.78085624 -10.2928552 15.5453425 -16 19 C-16.99 19 -17.98 19 -19 19 C-15.75636683 15.6699979 -12.54257835 12.4429211 -8.9375 9.5 C-5.5495586 6.61664561 -2.7982832 3.44327756 0 0 Z " fill="#BEBCBC" transform="translate(448,434)"/>
<path d="M0 0 C0.81286668 2.33959705 1.14155721 3.58602746 0.328125 5.96484375 C-0.02765625 6.61582031 -0.3834375 7.26679688 -0.75 7.9375 C-1.31460937 8.98550781 -1.31460937 8.98550781 -1.890625 10.0546875 C-3.22449331 12.39365376 -4.58876963 14.70675065 -6 17 C-6.3196875 17.60199219 -6.639375 18.20398438 -6.96875 18.82421875 C-9.68395062 23.89465021 -9.68395062 23.89465021 -13 25 C-11.32570492 20.35019139 -8.95041134 16.20810507 -6.5 11.9375 C-5.69706233 10.5304351 -4.8949524 9.12289746 -4.09375 7.71484375 C-3.73990234 7.09730225 -3.38605469 6.47976074 -3.02148438 5.84350586 C-1.95662312 3.92171634 -0.96927066 1.97148564 0 0 Z " fill="#AAAAAA" transform="translate(512,410)"/>
<path d="M0 0 C0.33 0.66 0.66 1.32 1 2 C-0.55947733 4.21052126 -2.12246817 6.41841611 -3.6875 8.625 C-4.12255859 9.24246094 -4.55761719 9.85992187 -5.00585938 10.49609375 C-7.84191026 14.48757278 -10.82029672 18.27602318 -14 22 C-14.33 21.34 -14.66 20.68 -15 20 C-14.00419922 18.71416016 -14.00419922 18.71416016 -12.98828125 17.40234375 C-8.5578618 11.66959874 -4.14662576 5.94349693 0 0 Z " fill="#A49F9F" transform="translate(552,478)"/>
<path d="M0 0 C-1.69404789 5.92916763 -5.83613997 8.52464089 -10.75 11.875 C-11.86375 12.431875 -11.86375 12.431875 -13 13 C-13.66 12.67 -14.32 12.34 -15 12 C-12.88046983 9.99390948 -10.75486559 7.99506397 -8.625 6 C-8.02171875 5.42765625 -7.4184375 4.8553125 -6.796875 4.265625 C-6.21679688 3.72421875 -5.63671875 3.1828125 -5.0390625 2.625 C-4.50490723 2.12226563 -3.97075195 1.61953125 -3.42041016 1.1015625 C-2 0 -2 0 0 0 Z " fill="#B6B5B5" transform="translate(168,143)"/>
<path d="M0 0 C0.66 0.33 1.32 0.66 2 1 C-2.21028351 6.2724523 -5.91410189 10.01915194 -12 13 C-12 12.01 -12 11.02 -12 10 C-9.62890625 7.7734375 -9.62890625 7.7734375 -6.5625 5.375 C-5.55316406 4.57835937 -4.54382813 3.78171875 -3.50390625 2.9609375 C-2.67761719 2.31382812 -1.85132813 1.66671875 -1 1 C-0.67 0.67 -0.34 0.34 0 0 Z " fill="#B5B1B1" transform="translate(204,174)"/>
<path d="M0 0 C1.37562854 1.28965176 2.70766393 2.62689293 4 4 C4 4.66 4 5.32 4 6 C5.17369141 6.07347656 5.17369141 6.07347656 6.37109375 6.1484375 C7.38300781 6.22320313 8.39492187 6.29796875 9.4375 6.375 C10.95150391 6.47941406 10.95150391 6.47941406 12.49609375 6.5859375 C13.73552734 6.79089844 13.73552734 6.79089844 15 7 C15.33 7.66 15.66 8.32 16 9 C10.43109483 8.52013969 5.32932432 7.70084819 0 6 C0 4.02 0 2.04 0 0 Z " fill="#ACA9A9" transform="translate(235,580)"/>
<path d="M0 0 C0.33 0.66 0.66 1.32 1 2 C-0.50513516 5.17750756 -1.84920712 6.88778205 -4.6875 9 C-7.29136267 10.79544217 -7.29136267 10.79544217 -7.3125 13.75 C-7.209375 14.4925 -7.10625 15.235 -7 16 C-7.99 15.34 -8.98 14.68 -10 14 C-9.42846829 10.4377133 -8.17941769 8.86943806 -5.5625 6.4375 C-3.30473183 4.32113693 -1.73987477 2.60981215 0 0 Z " fill="#A5A5A5" transform="translate(482,456)"/>
<path d="M0 0 C0 0.99 0 1.98 0 3 C-1 4 -2 5 -3 6 C-3 6.99 -3 7.98 -3 9 C-3.66 9 -4.32 9 -5 9 C-5.33 10.32 -5.66 11.64 -6 13 C-7.32 12.67 -8.64 12.34 -10 12 C-8.70984254 10.37380152 -7.41782303 8.74908017 -6.125 7.125 C-5.04605469 5.76761719 -5.04605469 5.76761719 -3.9453125 4.3828125 C-2 2 -2 2 0 0 Z " fill="#BEBEBE" transform="translate(145,164)"/>
<path d="M0 0 C0.66 0.33 1.32 0.66 2 1 C-8.37357631 11.74259681 -8.37357631 11.74259681 -14 15 C-12.46000416 11.16751036 -10.08835992 9.05935935 -7 6.375 C-6.113125 5.59898438 -5.22625 4.82296875 -4.3125 4.0234375 C-3.1678125 3.02183594 -3.1678125 3.02183594 -2 2 C-1.34 1.34 -0.68 0.68 0 0 Z " fill="#B1ACAC" transform="translate(106,78)"/>
<path d="M0 0 C0.928125 0.20625 1.85625 0.4125 2.8125 0.625 C2.956875 1.24375 3.10125 1.8625 3.25 2.5 C3.74402225 4.65758322 3.74402225 4.65758322 4.8125 6.625 C0.75968288 5.39972971 -2.63110764 3.92619506 -6.1875 1.625 C-3.1875 -0.375 -3.1875 -0.375 0 0 Z " fill="#BAB0B0" transform="translate(392.1875,132.375)"/>
<path d="M0 0 C3.75730247 1.6281644 6.616823 4.01401917 9.75 6.625 C11.22726562 7.85089844 11.22726562 7.85089844 12.734375 9.1015625 C13.85585938 10.04128906 13.85585938 10.04128906 15 11 C14.01 11.33 13.02 11.66 12 12 C9.99698881 10.19073245 7.99751914 8.377813 6 6.5625 C5.42765625 6.04623047 4.8553125 5.52996094 4.265625 4.99804688 C2.82480421 3.6858708 1.41014216 2.34509096 0 1 C0 0.67 0 0.34 0 0 Z " fill="#ACAAAA" transform="translate(492,71)"/>
<path d="M0 0 C5.17609824 3.28157862 9.85989729 6.45924219 14 11 C9.02826417 9.44633255 4.81438392 6.50246 1 3 C0.67 2.01 0.34 1.02 0 0 Z " fill="#A5A1A1" transform="translate(122,547)"/>
<path d="M0 0 C4.97209562 1.76429199 9.43438061 4.3939166 14 7 C14 7.66 14 8.32 14 9 C8.40440609 7.60110152 4.29704147 4.74082545 0 1 C0 0.67 0 0.34 0 0 Z " fill="#AA9D9D" transform="translate(136,558)"/>
<path d="M0 0 C0.33 0.66 0.66 1.32 1 2 C-1.01577062 6.50584021 -3.83128248 8.49876949 -8 11 C-6.63629701 8.00779732 -5.05091917 5.70973471 -2.875 3.25 C-2.33617187 2.63640625 -1.79734375 2.0228125 -1.2421875 1.390625 C-0.62730469 0.70226562 -0.62730469 0.70226562 0 0 Z " fill="#B3AFAF" transform="translate(179,198)"/>
<path d="M0 0 C2.76223278 2.76223278 2.57856291 5.20706617 3 9 C0 11 0 11 -2.1875 10.625 C-2.785625 10.41875 -3.38375 10.2125 -4 10 C-2.68 9.34 -1.36 8.68 0 8 C0 5.36 0 2.72 0 0 Z " fill="#9F9797" transform="translate(577,220)"/>
<path d="M0 0 C0.66 0.33 1.32 0.66 2 1 C-3.445 5.455 -3.445 5.455 -9 10 C-9 9.01 -9 8.02 -9 7 C-7.03125 5.17578125 -7.03125 5.17578125 -4.5 3.3125 C-3.6646875 2.68988281 -2.829375 2.06726563 -1.96875 1.42578125 C-1.3190625 0.95527344 -0.669375 0.48476563 0 0 Z " fill="#A9A5A5" transform="translate(495,540)"/>
<path d="M0 0 C0.66 0.33 1.32 0.66 2 1 C0.71580959 2.67243402 -0.57757185 4.33781447 -1.875 6 C-2.59429688 6.928125 -3.31359375 7.85625 -4.0546875 8.8125 C-4.69664062 9.534375 -5.33859375 10.25625 -6 11 C-6.66 11 -7.32 11 -8 11 C-6.63629701 8.00779732 -5.05091917 5.70973471 -2.875 3.25 C-2.33617187 2.63640625 -1.79734375 2.0228125 -1.2421875 1.390625 C-0.62730469 0.70226562 -0.62730469 0.70226562 0 0 Z " fill="#A39C9C" transform="translate(535,500)"/>
<path d="M0 0 C0 3.39593478 -0.52165948 4.06619881 -2.5 6.6875 C-2.9640625 7.31011719 -3.428125 7.93273437 -3.90625 8.57421875 C-4.2671875 9.04472656 -4.628125 9.51523438 -5 10 C-6 8 -6 8 -6 4 C-5.01 4 -4.02 4 -3 4 C-3 3.01 -3 2.02 -3 1 C-2.01 0.67 -1.02 0.34 0 0 Z " fill="#B3A6A6" transform="translate(117,168)"/>
<path d="M0 0 C0.33 0.99 0.66 1.98 1 3 C-1.64 5.31 -4.28 7.62 -7 10 C-7.66 9.67 -8.32 9.34 -9 9 C-6.03 6.03 -3.06 3.06 0 0 Z " fill="#BCBCBC" transform="translate(500,117)"/>
<path d="M0 0 C0.33 1.32 0.66 2.64 1 4 C0.38125 4.2475 -0.2375 4.495 -0.875 4.75 C-3.37818306 6.22246063 -3.83045281 7.41028837 -5 10 C-5.99 10.495 -5.99 10.495 -7 11 C-5.22054913 6.95579349 -2.60470327 3.53921513 0 0 Z " fill="#B2B2B2" transform="translate(134,177)"/>
<path d="M0 0 C0 0.66 0 1.32 0 2 C-0.99 2 -1.98 2 -3 2 C-3.20625 2.639375 -3.4125 3.27875 -3.625 3.9375 C-5 6 -5 6 -8.125 6.75 C-9.548125 6.87375 -9.548125 6.87375 -11 7 C-4.48275862 0 -4.48275862 0 0 0 Z " fill="#ACA5A5" transform="translate(196,123)"/>
<path d="M0 0 C1 3 1 3 1 5 C0.34 5 -0.32 5 -1 5 C-1.66 6.98 -2.32 8.96 -3 11 C-3.66 11 -4.32 11 -5 11 C-3.77472971 6.94718288 -2.30119506 3.55639236 0 0 Z " fill="#B5B2B2" transform="translate(118,201)"/>
<path d="M0 0 C2.97 0.495 2.97 0.495 6 1 C6 1.66 6 2.32 6 3 C6.99 3.33 7.98 3.66 9 4 C9 4.66 9 5.32 9 6 C5.06326356 4.68775452 2.77280706 3.08089673 0 0 Z " fill="#B8B6B6" transform="translate(211,444)"/>
<path d="M0 0 C0.66 0 1.32 0 2 0 C1.45773019 3.79588866 -0.20127563 5.47211993 -3 8 C-3.33 7.34 -3.66 6.68 -4 6 C-2.7260411 3.96166576 -1.38938077 1.96147874 0 0 Z " fill="#BBB5B5" transform="translate(503,427)"/>
<path d="M0 0 C0.66 1.32 1.32 2.64 2 4 C-0.31 5.32 -2.62 6.64 -5 8 C-3.62845496 5.04590299 -2.01136276 2.55991624 0 0 Z " fill="#BDB8B8" transform="translate(72,139)"/>
<path d="M0 0 C0.33 0.99 0.66 1.98 1 3 C-1.21934164 6.32901247 -2.34683329 6.75023244 -6 8 C-4.55746343 4.63408134 -2.66735273 2.48952921 0 0 Z " fill="#B2B0B0" transform="translate(94,112)"/>
<path d="M0 0 C0.66 2.64 1.32 5.28 2 8 C-2.875 3.25 -2.875 3.25 -4 1 C-2 0 -2 0 0 0 Z " fill="#C1C1C1" transform="translate(454,181)"/>
<path d="M0 0 C1.65 1.32 3.3 2.64 5 4 C4.67 4.66 4.34 5.32 4 6 C2.35 5.67 0.7 5.34 -1 5 C-0.67 3.35 -0.34 1.7 0 0 Z " fill="#BCB8B8" transform="translate(524,124)"/>
<path d="M0 0 C-0.33 0.33 -0.66 0.66 -1 1 C-0.34 1.33 0.32 1.66 1 2 C1 2.66 1 3.32 1 4 C-1.02045442 3.39816251 -3.02111039 2.72693904 -5 2 C-5.33 1.34 -5.66 0.68 -6 0 C-3 -1 -3 -1 0 0 Z " fill="#B2AFAF" transform="translate(208,495)"/>
<path d="M0 0 C1 3 1 3 0 6 C-1.65 6.33 -3.3 6.66 -5 7 C-3.70700306 4.11562221 -2.34058637 2.12780579 0 0 Z " fill="#AAA5A5" transform="translate(448,434)"/>
<path d="M0 0 C0.6875 1.6875 0.6875 1.6875 1 4 C-0.4375 6.75 -0.4375 6.75 -2 9 C-3.45169732 6.09660535 -2.72348441 4.09125158 -2 1 C-1.34 0.67 -0.68 0.34 0 0 Z " fill="#B7A9A9" transform="translate(451,381)"/>
<path d="M0 0 C0.33 0.66 0.66 1.32 1 2 C1.66 2 2.32 2 3 2 C3.33 2.99 3.66 3.98 4 5 C3.34 5.66 2.68 6.32 2 7 C0.4375 5.75 0.4375 5.75 -1 4 C-0.6875 1.8125 -0.6875 1.8125 0 0 Z " fill="#D2D2D2" transform="translate(479,150)"/>
<path d="" fill="#EEEEEE" transform="translate(0,0)"/>
<path d="" fill="#ECECEC" transform="translate(0,0)"/>
<path d="" fill="#EDEDED" transform="translate(0,0)"/>
<path d="" fill="#EEEEEE" transform="translate(0,0)"/>
<path d="" fill="#EDEDED" transform="translate(0,0)"/>
</svg>
