<?xml version="1.0" encoding="UTF-8"?>
<svg version="1.1" xmlns="http://www.w3.org/2000/svg" width="612" height="612">
<path d="M0 0 C2.39299125 0.43269081 4.78900064 0.84896474 7.1875 1.25 C32.96826082 5.95014107 59.04631908 15.37222091 82 28 C83.48812109 28.79977724 84.97641089 29.59924063 86.46484375 30.3984375 C99.94306335 37.70220601 112.7704317 45.73517553 125 55 C125.53592773 55.40444336 126.07185547 55.80888672 126.62402344 56.22558594 C139.94140684 66.32187946 151.88116328 77.65668881 163.578125 89.56982422 C164.98762259 90.98755033 166.43130526 92.37101931 167.875 93.75390625 C170 96 170 96 170 98 C170.66 98 171.32 98 172 98 C173.26953125 99.37109375 173.26953125 99.37109375 174.8125 101.4375 C175.42738281 102.25347656 176.04226563 103.06945312 176.67578125 103.91015625 C177.44277344 104.92980469 178.20976563 105.94945313 179 107 C180.03329767 108.33347353 181.06860334 109.6653925 182.10546875 110.99609375 C188.14913555 118.77494021 193.91159625 126.55226174 199 135 C199.65484375 136.04671875 200.3096875 137.0934375 200.984375 138.171875 C207.54705654 148.68203416 213.3625567 159.40478519 218.5 170.6875 C219.21446289 172.25189819 219.21446289 172.25189819 219.94335938 173.84790039 C223.67750062 182.110261 227.0446205 190.42750499 230 199 C230.23082275 199.6587915 230.46164551 200.31758301 230.69946289 200.99633789 C252.77205217 265.25306622 251.74417483 338.59798439 227.69824219 402.14794922 C227.03527732 403.90642877 226.39586019 405.67373324 225.7578125 407.44140625 C222.99409342 414.94680021 219.62504952 422.01810046 215.95898438 429.12158203 C214.9480007 431.10185403 213.96346005 433.09361901 212.984375 435.08984375 C207.98960614 445.26185512 202.63274323 454.88088776 196.03125 464.1171875 C194.4981767 466.29297229 193.00458956 468.47967113 191.53125 470.6953125 C185.66438719 479.47576812 179.39623428 487.60943051 172.35644531 495.48046875 C171.16055657 496.82013966 169.98128452 498.17460433 168.8046875 499.53125 C164.0140489 504.99585677 158.93707364 510.16350148 153.8125 515.3125 C153.13477539 515.99489746 152.45705078 516.67729492 151.75878906 517.38037109 C141.10516479 528 141.10516479 528 138 528 C138 528.66 138 529.32 138 530 C136.09716151 531.62754707 134.19366404 533.1341063 132.1875 534.625 C131.60162109 535.067229 131.01574219 535.50945801 130.41210938 535.96508789 C128.61380991 537.31794372 126.80818838 538.66039854 125 540 C123.96488281 540.76957031 122.92976563 541.53914062 121.86328125 542.33203125 C110.07548701 551 110.07548701 551 107 551 C107 551.66 107 552.32 107 553 C105.71086513 553.67154933 104.41859796 554.33708859 103.125 555 C102.40570313 555.37125 101.68640625 555.7425 100.9453125 556.125 C99 557 99 557 97 557 C97 557.66 97 558.32 97 559 C72.85979281 572.05202692 48.50202839 582.65975498 22 590 C21.32195312 590.19045898 20.64390625 590.38091797 19.9453125 590.57714844 C-28.52805664 604.03386186 -86.84266105 605.4684572 -135 590 C-137.22790994 589.3705349 -139.45695246 588.7450538 -141.6875 588.125 C-152.66048862 584.99668333 -163.49343186 581.46831059 -174 577 C-174.59425781 576.74992188 -175.18851563 576.49984375 -175.80078125 576.2421875 C-184.46719204 572.58417585 -192.84098953 568.70197703 -201 564 C-202.48025072 563.16497797 -203.96074093 562.3303804 -205.44140625 561.49609375 C-224.61976914 550.62085196 -241.88706337 537.79705982 -258.47851562 523.32617188 C-259.80971056 522.16586204 -261.14657867 521.01206744 -262.484375 519.859375 C-272.64084507 511.07746479 -272.64084507 511.07746479 -274 507 C-274.66 507 -275.32 507 -276 507 C-276 506.34 -276 505.68 -276 505 C-276.66 505 -277.32 505 -278 505 C-279.39599396 503.47162731 -280.71587649 501.87349901 -282 500.25 C-283.20076172 498.74759766 -283.20076172 498.74759766 -284.42578125 497.21484375 C-284.84682129 496.68616699 -285.26786133 496.15749023 -285.70166016 495.61279297 C-287.40574964 493.49597929 -289.15239465 491.41689977 -290.90283203 489.33837891 C-303 474.96983086 -303 474.96983086 -303 472 C-303.66 472 -304.32 472 -305 472 C-331.24056888 438.45292542 -347.34309217 392.26477275 -355 351 C-355.18433594 350.08734375 -355.36867188 349.1746875 -355.55859375 348.234375 C-364.42590201 301.21701959 -360.18398564 248.07391595 -344.71142578 203.08447266 C-344.00159068 201.00466068 -343.32266726 198.91706838 -342.65234375 196.82421875 C-340.46280419 190.01958692 -338.07837452 183.45086125 -335 177 C-334.38177171 175.66454382 -333.76470099 174.32855149 -333.1484375 172.9921875 C-329.68034719 165.50342175 -326.12031084 158.15495247 -322 151 C-320.89155128 148.98151224 -319.78751153 146.96059813 -318.6875 144.9375 C-317.91986328 143.52791016 -317.91986328 143.52791016 -317.13671875 142.08984375 C-316.76160156 141.40019531 -316.38648438 140.71054688 -316 140 C-315.34 140 -314.68 140 -314 140 C-313.89300781 139.43796875 -313.78601563 138.8759375 -313.67578125 138.296875 C-309.39225718 123.7378452 -294.40188847 109.18718906 -284.59375 97.98828125 C-282.93305512 96.07498067 -281.32254093 94.11620216 -279.78125 92.10546875 C-279.1934375 91.41066406 -278.605625 90.71585937 -278 90 C-277.34 90 -276.68 90 -276 90 C-275.773125 89.443125 -275.54625 88.88625 -275.3125 88.3125 C-272.59845869 83.53061769 -268.22998281 80.38398625 -264 77 C-263.278125 76.278125 -262.55625 75.55625 -261.8125 74.8125 C-250.90527672 63.90527672 -238.73494814 54.660618 -226 46 C-225.24074219 45.47664063 -224.48148438 44.95328125 -223.69921875 44.4140625 C-219.38959984 41.48143754 -215.01523596 38.82169608 -210.42675781 36.34912109 C-208.05148031 35.02861974 -205.75342573 33.62155486 -203.4453125 32.1875 C-197.9165829 28.859774 -192.19285222 26.14410276 -186.3125 23.5 C-185.25522705 23.02151611 -184.1979541 22.54303223 -183.10864258 22.05004883 C-169.00766207 15.70810994 -154.81464106 10.41238538 -140 6 C-138.8140625 5.64035156 -137.628125 5.28070313 -136.40625 4.91015625 C-94.98952609 -6.91640826 -42.20697544 -11.48176698 0 0 Z " fill="#D4AF01" transform="translate(361,10)"/>
<path d="M0 0 C40.57836935 -1.1107384 78.24334499 11.8059777 110.11376953 36.82324219 C111.82490989 38.16586535 113.56083689 39.4788782 115.34033203 40.72949219 C115.87529297 41.16777344 116.41025391 41.60605469 116.96142578 42.05761719 C116.96142578 42.71761719 116.96142578 43.37761719 116.96142578 44.05761719 C117.55568359 44.32703125 118.14994141 44.59644531 118.76220703 44.87402344 C141.94322749 57.3497769 157.86294817 94.73431622 165.30126953 118.70874023 C169.10478065 131.96364859 171.45895317 146.28149309 171.96142578 160.05761719 C172.03876953 161.32992187 172.03876953 161.32992187 172.11767578 162.62792969 C173.26128508 196.07850164 161.83041388 233.18043066 141.96142578 260.05761719 C141.20216797 261.10046875 140.44291016 262.14332031 139.66064453 263.21777344 C130.74271988 275.25841242 120.8961241 285.94599906 108.96142578 295.05761719 C108.05134766 295.78335937 107.14126953 296.50910156 106.20361328 297.25683594 C92.03236569 308.31967636 76.83278187 315.97616862 59.96142578 322.05761719 C58.84509766 322.46753906 57.72876953 322.87746094 56.57861328 323.29980469 C17.36628913 336.5070888 -27.37597223 332.95536781 -64.44482422 315.06860352 C-67.6767169 313.4600377 -70.8646692 311.77735996 -74.03857422 310.05761719 C-75.10720703 309.48140625 -76.17583984 308.90519531 -77.27685547 308.31152344 C-89.51149586 301.44044783 -99.93859334 292.69403844 -110.03857422 283.05761719 C-110.83134766 282.31769531 -111.62412109 281.57777344 -112.44091797 280.81542969 C-122.4158292 271.24372225 -130.20055721 260.02087205 -137.03857422 248.05761719 C-137.40337891 247.42903809 -137.76818359 246.80045898 -138.14404297 246.15283203 C-159.8396524 208.4354223 -164.26271956 163.8882979 -153.63598633 121.99194336 C-151.00838608 112.26458132 -147.30704958 103.16636478 -143.03857422 94.05761719 C-142.60802734 93.09984375 -142.17748047 92.14207031 -141.73388672 91.15527344 C-134.47447527 75.71024978 -123.59855244 62.45442885 -112.03857422 50.05761719 C-111.31412109 49.26742187 -110.58966797 48.47722656 -109.84326172 47.66308594 C-97.52029901 34.73441828 -82.89886413 25.09360392 -67.03857422 17.05761719 C-65.56324219 16.30738281 -65.56324219 16.30738281 -64.05810547 15.54199219 C-61.41531829 14.27857199 -58.75888387 13.14425251 -56.03857422 12.05761719 C-54.83845703 11.57808594 -53.63833984 11.09855469 -52.40185547 10.60449219 C-35.57716913 4.16190826 -17.99447985 0.5085865 0 0 Z " fill="#FEFEFE" transform="translate(298.03857421875,141.9423828125)"/>
<path d="M0 0 C0.89501221 0.46744629 0.89501221 0.46744629 1.80810547 0.94433594 C16.61551598 8.7507532 29.56661567 18.98575535 41.55664062 30.60351562 C42.90628102 31.90932466 44.27287002 33.19755227 45.640625 34.484375 C59.5219963 47.84192096 70.16065333 63.96687692 79 81 C79.47953125 81.88429688 79.9590625 82.76859375 80.453125 83.6796875 C103.3598672 127.20249768 106.11847511 180.3199967 92 227 C90.22119395 232.42423113 88.14021166 237.71004288 86 243 C85.45279297 244.47919922 85.45279297 244.47919922 84.89453125 245.98828125 C70.86471839 282.6076123 40.50982327 315.3610462 7 335 C6.11344727 335.5252124 6.11344727 335.5252124 5.20898438 336.06103516 C-40.37009234 362.93894798 -93.97392697 368.75280519 -144.91015625 355.6953125 C-153.23953257 353.45014873 -161.11643094 350.47835613 -169 347 C-169.76473633 346.67161133 -170.52947266 346.34322266 -171.31738281 346.00488281 C-190.46151409 337.72612707 -207.30628545 326.18963429 -222.66015625 312.11328125 C-224.58391591 310.37579548 -226.54131587 308.74474802 -228.5625 307.125 C-232.4552276 303.81572571 -235.52345244 299.88519145 -238.69140625 295.89453125 C-240.14446207 294.07267954 -241.62781474 292.27419603 -243.15234375 290.51171875 C-272.67858312 256.18012396 -289.18641571 206.18245123 -286 161 C-283.70789473 131.68076955 -277.1159041 103.92911728 -263 78 C-262.67386719 77.38930664 -262.34773438 76.77861328 -262.01171875 76.14941406 C-257.38874814 67.52508742 -252.07402252 59.67244949 -246 52 C-245.30648437 51.113125 -244.61296875 50.22625 -243.8984375 49.3125 C-238.09287453 41.96028126 -232.31882035 34.90590168 -225.15234375 28.83984375 C-222.79547962 26.82517404 -220.5281206 24.72816093 -218.25 22.625 C-158.62391655 -30.92049351 -69.39869076 -36.64815232 0 0 Z M-104.3203125 4.015625 C-147.19347341 5.51994644 -187.61550532 28.34496419 -216.35742188 59.16210938 C-240.7272002 86.42960212 -256.95067544 123.13677193 -258 160 C-258.02046387 160.67289063 -258.04092773 161.34578125 -258.06201172 162.0390625 C-259.23493512 206.5519904 -244.68448927 249.16216389 -213.98022461 281.86035156 C-212.65867777 283.24521027 -211.32947941 284.62275486 -210 286 C-209.26265625 286.78890625 -208.5253125 287.5778125 -207.765625 288.390625 C-185.57982238 311.54806861 -154.168748 326.06831258 -123 332 C-121.43958984 332.32097656 -121.43958984 332.32097656 -119.84765625 332.6484375 C-90.34893578 338.48893022 -58.76262927 334.04987133 -31 323 C-30.36304199 322.74959961 -29.72608398 322.49919922 -29.06982422 322.24121094 C-21.25037713 319.13610303 -14.07519216 315.53361828 -7 311 C-6.14148438 310.48953125 -5.28296875 309.9790625 -4.3984375 309.453125 C2.81858442 305.08547485 9.11438544 299.95591005 15.41992188 294.39208984 C16.92130642 293.06933108 18.43685892 291.76270482 19.953125 290.45703125 C26.37825075 284.81261212 31.84135634 278.8154997 37 272 C37.40605469 271.46358887 37.81210937 270.92717773 38.23046875 270.37451172 C57.20476492 245.10220878 68.05786616 217.31719078 72 186 C72.19722656 184.52273438 72.19722656 184.52273438 72.3984375 183.015625 C76.04614484 152.05940596 67.73973801 120.51091707 54 93 C53.29423828 91.57107422 53.29423828 91.57107422 52.57421875 90.11328125 C44.5129382 74.55841597 32.76817661 59.97467411 20 48 C19.34 48 18.68 48 18 48 C18 47.34 18 46.68 18 46 C16.04036304 44.23632674 14.08114774 42.61052393 12 41 C11.37206543 40.51233154 10.74413086 40.02466309 10.09716797 39.5222168 C-21.74754333 15.22835381 -58.84165169 3.25269566 -98.86621094 3.96289062 C-100.68405488 3.9945053 -102.5022138 4.00706924 -104.3203125 4.015625 Z " fill="#D4AF00" transform="translate(397,138)"/>
<path d="M0 0 C13.26146301 11.25001765 24.41396323 23.41658305 34.56054688 37.54541016 C35.01026855 38.16641602 35.45999023 38.78742188 35.92333984 39.42724609 C61.43241676 74.99120717 74.06177324 117.7436339 73.87304688 161.23291016 C73.87031265 162.54710434 73.87031265 162.54710434 73.86752319 163.8878479 C73.82062728 177.30389675 73.29287731 190.36997539 70.56054688 203.54541016 C70.38362305 204.42100586 70.20669922 205.29660156 70.02441406 206.19873047 C66.36185675 223.87895101 60.6726539 240.427209 52.56054688 256.54541016 C52.24327637 257.17721191 51.92600586 257.80901367 51.59912109 258.45996094 C45.57972515 270.33379679 38.40742659 281.15560773 30.49804688 291.85791016 C30.01561523 292.515896 29.53318359 293.17388184 29.03613281 293.85180664 C26.02757419 297.86507777 22.81304161 301.44394259 19.19433594 304.91821289 C17.47484977 306.6307615 15.92426701 308.43014709 14.37304688 310.29541016 C5.98550415 319.97190711 -4.09304791 328.06558003 -14.43945312 335.54541016 C-14.99938965 335.95114258 -15.55932617 336.356875 -16.13623047 336.77490234 C-31.26244831 347.59712118 -47.94057323 356.26525659 -65.43945312 362.54541016 C-66.59960938 362.97208984 -67.75976562 363.39876953 -68.95507812 363.83837891 C-98.28949686 374.15622099 -129.51005754 377.42111568 -160.43945312 374.54541016 C-161.28266113 374.46838867 -162.12586914 374.39136719 -162.99462891 374.31201172 C-216.19337383 369.08968632 -268.19490786 341.34369298 -302.36132812 300.09228516 C-304.68772042 297.20096997 -306.93414795 294.25417658 -309.1484375 291.27636719 C-310.39010949 289.61156869 -311.65510141 287.96697145 -312.92382812 286.32275391 C-344.99380205 243.99217388 -357.68607249 187.77963075 -351.30541992 135.50585938 C-343.63691372 80.48022807 -316.46007231 29.42246391 -272.42773438 -5.21630859 C-250.52697784 -21.62040466 -227.74260928 -34.567612 -201.43945312 -42.45458984 C-200.72160645 -42.67743652 -200.00375977 -42.9002832 -199.26416016 -43.12988281 C-129.57807691 -64.52459504 -55.1516515 -45.91420492 0 0 Z M-220.43945312 -13.45458984 C-221.12555664 -13.14295898 -221.81166016 -12.83132812 -222.51855469 -12.51025391 C-238.97548572 -5.00093482 -253.52226566 5.12932886 -266.93481445 17.21557617 C-268.46804297 18.57067852 -270.03802547 19.86865763 -271.62304688 21.16259766 C-273.91437047 23.10116547 -275.83236456 24.94626848 -277.75195312 27.23291016 C-280.32774792 30.26524626 -282.97705265 33.1972772 -285.68945312 36.10791016 C-304.81952213 57.44280067 -317.86076714 83.00905927 -325.43945312 110.54541016 C-325.70967285 111.49770508 -325.70967285 111.49770508 -325.98535156 112.46923828 C-339.52059854 160.98073831 -331.78879595 213.81733587 -307.43945312 257.54541016 C-298.4883972 273.09533756 -287.11867943 286.90549928 -274.43945312 299.54541016 C-273.70726562 300.31240234 -272.97507812 301.07939453 -272.22070312 301.86962891 C-240.60088797 334.62645796 -193.1497611 353.81822807 -147.91992188 354.74853516 C-145.15553408 354.78104602 -142.39152199 354.79308065 -139.62695312 354.79541016 C-138.90190582 354.7960849 -138.17685852 354.79675964 -137.42984009 354.79745483 C-124.90369259 354.77904339 -112.75219815 354.00167345 -100.43945312 351.54541016 C-99.6020459 351.37912109 -98.76463867 351.21283203 -97.90185547 351.04150391 C-69.19709355 345.09233045 -42.41980284 331.55703561 -19.43945312 313.54541016 C-18.10140625 312.51673828 -18.10140625 312.51673828 -16.73632812 311.46728516 C-3.94406532 301.36813031 6.93961058 289.65830555 16.56054688 276.54541016 C17.32882812 275.51029297 18.09710938 274.47517578 18.88867188 273.40869141 C42.14074573 241.01025983 53.7773594 202.45606811 53.81054688 162.73291016 C53.81122162 162.00375397 53.81189636 161.27459778 53.81259155 160.52334595 C53.79473003 148.32191985 53.06303067 136.51094486 50.56054688 124.54541016 C50.38894043 123.71831543 50.21733398 122.8912207 50.04052734 122.0390625 C46.06083585 103.50629007 39.52632599 86.21869033 30.56054688 69.54541016 C30.25036621 68.95453613 29.94018555 68.36366211 29.62060547 67.75488281 C21.81424665 52.93890089 11.58022869 39.98440588 -0.04296875 27.98876953 C-1.34877779 26.63912914 -2.63700539 25.27254014 -3.92382812 23.90478516 C-36.12277331 -9.55686376 -84.07790816 -29.69981685 -130.29882812 -30.67724609 C-162.01454814 -31.20633632 -191.450495 -26.99145613 -220.43945312 -13.45458984 Z " fill="#FCFCFC" transform="translate(443.439453125,145.45458984375)"/>
<path d="M0 0 C20.13 0 40.26 0 61 0 C61 2.97 61 5.94 61 9 C60.11957031 9.08636719 59.23914063 9.17273438 58.33203125 9.26171875 C50.93296822 9.83994007 50.93296822 9.83994007 44.75 13.4375 C42.01844747 17.43727335 41.85984352 20.47709279 41.79467773 25.21557617 C41.77473251 26.4966777 41.75478729 27.77777924 41.73423767 29.09770203 C41.7172546 30.49612304 41.70037575 31.89454531 41.68359375 33.29296875 C41.66301834 34.7235829 41.64202171 36.15419105 41.62062073 37.58479309 C41.56546067 41.34780006 41.51602471 45.11086135 41.46777344 48.8739624 C41.41751407 52.71485216 41.36185117 56.55566316 41.30664062 60.39648438 C41.19913327 67.93092287 41.09767189 75.46542691 41 83 C41.66 83 42.32 83 43 83 C43.24621094 82.43410156 43.49242187 81.86820312 43.74609375 81.28515625 C45.21536224 78.60751742 46.97752435 76.66956388 49.0625 74.4375 C52.29198338 70.91957792 55.38460518 67.34817625 58.375 63.625 C61.61950975 59.61175623 64.98728819 55.77566304 68.5 52 C72.82560645 47.35014194 76.89289937 42.5509266 80.8671875 37.59375 C82.93491648 35.07914919 85.09839839 32.69817406 87.3125 30.3125 C91.81914383 25.26613834 94.77003935 20.89750413 95.3125 14.0625 C95.33886622 11.12830857 95.33886622 11.12830857 94 10 C92.65252916 9.76924918 91.29622435 9.58846937 89.9375 9.4375 C88.638125 9.293125 87.33875 9.14875 86 9 C86 6.03 86 3.06 86 0 C101.51 0 117.02 0 133 0 C133 2.97 133 5.94 133 9 C131.55625 9.33 130.1125 9.66 128.625 10 C114.39342922 14.37126788 104.08686998 29.17776135 94.6640625 40.0859375 C91.16707015 44.10829959 87.57131735 48.04371478 84 52 C82.31221702 53.87474528 80.62470731 55.74973662 78.9375 57.625 C77.625 59.08333333 76.3125 60.54166667 75 62 C77.17946761 66.56250487 80.0180623 70.59047068 82.875 74.75 C83.45435303 75.59546387 84.03370605 76.44092773 84.63061523 77.31201172 C88.7922368 83.34418398 93.10645123 89.2375934 97.54174805 95.0703125 C101.19851954 99.89057481 104.71667653 104.79443845 108.1875 109.75 C120.6912057 129.81575541 120.6912057 129.81575541 139.875 141.6875 C140.57625 141.790625 141.2775 141.89375 142 142 C142 144.97 142 147.94 142 151 C114.68534297 151.5763937 114.68534297 151.5763937 104 143 C94.12312685 133.27277645 86.79638715 120.37985688 79 109 C77.45480805 106.74640671 75.90961414 104.49281509 74.36401367 102.23950195 C73.46989515 100.9353724 72.57679169 99.63054622 71.68481445 98.32495117 C68.35986365 93.4736884 64.90376848 88.73606159 61.36328125 84.0390625 C60 82 60 82 60 80 C59.03578125 80.75925781 58.0715625 81.51851563 57.078125 82.30078125 C55.80210194 83.30471115 54.52605924 84.30861609 53.25 85.3125 C52.61578125 85.81201172 51.9815625 86.31152344 51.328125 86.82617188 C50.709375 87.31279297 50.090625 87.79941406 49.453125 88.30078125 C48.60476074 88.96847534 48.60476074 88.96847534 47.73925781 89.6496582 C46 91 46 91 43.81738281 92.14624023 C41.4204823 94.59111739 41.50107431 96.62606954 41.44421387 99.95404053 C41.45231079 100.7478009 41.46040771 101.54156128 41.46875 102.359375 C41.4649231 103.18197815 41.46109619 104.0045813 41.45715332 104.85211182 C41.45443135 106.59380312 41.46181258 108.3355351 41.47851562 110.07714844 C41.49981397 112.72685567 41.4787824 115.37381777 41.453125 118.0234375 C41.45577037 119.71875594 41.46089966 121.41407268 41.46875 123.109375 C41.46065308 123.89503845 41.45255615 124.6807019 41.44421387 125.49017334 C41.5382061 131.08541397 42.80292517 134.38580317 46 139 C50.32402252 141.79789692 55.96667684 141.62860917 61 142 C61 144.97 61 147.94 61 151 C40.87 151 20.74 151 0 151 C0 148.03 0 145.06 0 142 C0.88042969 141.91363281 1.76085937 141.82726562 2.66796875 141.73828125 C10.08924632 141.16073383 10.08924632 141.16073383 16.25 137.5 C18.60584112 134.13451269 19.12653248 132.48309033 19.14717102 128.434021 C19.15432632 127.47231491 19.16148163 126.51060883 19.16885376 125.51976013 C19.17154266 124.46104202 19.17423157 123.40232391 19.17700195 122.31152344 C19.18357315 121.19920853 19.19014435 120.08689362 19.19691467 118.94087219 C19.21668164 115.24703917 19.22831789 111.55324687 19.23828125 107.859375 C19.24235678 106.59995338 19.2464323 105.34053177 19.25063133 104.04294586 C19.26935236 98.06499205 19.28391464 92.08706301 19.2922433 86.10908771 C19.30201072 79.21248103 19.32831598 72.31619575 19.36874419 65.41970229 C19.40257062 59.44388967 19.41439064 53.46823276 19.41844749 47.4923172 C19.42332433 44.95178295 19.43496929 42.4112524 19.45348549 39.87078094 C19.4777864 36.31561098 19.47692791 32.76128197 19.4699707 29.20605469 C19.48278076 28.1554335 19.49559082 27.10481232 19.50878906 26.02235413 C19.46608903 20.03911685 19.01470558 16.54571462 15 12 C10.57831146 9.26895708 5.07840748 9.37471745 0 9 C0 6.03 0 3.06 0 0 Z " fill="#010101" transform="translate(291,231)"/>
<path d="M0 0 C5.1135285 0.64366675 10.03357076 1.66375417 15.0234375 2.9609375 C16.14185532 3.24778915 16.14185532 3.24778915 17.28286743 3.54043579 C18.85148382 3.94375093 20.41962427 4.34892132 21.98730469 4.75585938 C24.3600155 5.37111445 26.73453813 5.9789473 29.109375 6.5859375 C36.49936927 8.48658788 43.80578177 10.43654293 51 13 C44.38051415 46.30428818 26.12051697 78.12946209 6 105 C5.53352051 105.62342285 5.06704102 106.2468457 4.58642578 106.88916016 C-11.17825837 127.78550558 -11.17825837 127.78550558 -19 133 C-19.2475 132.38125 -19.495 131.7625 -19.75 131.125 C-21.26029304 128.55750184 -22.36091208 128.28184271 -25 127 C-29.58737864 122.84951456 -29.58737864 122.84951456 -31.0625 119.8125 C-32.29757189 117.42469435 -33.60375377 117.16389103 -36 116 C-40.58737864 111.84951456 -40.58737864 111.84951456 -42.0625 108.8125 C-43.29757189 106.42469435 -44.60375377 106.16389103 -47 105 C-48.70779973 103.37550757 -50.37550757 101.70779973 -52 100 C-52.598125 99.401875 -53.19625 98.80375 -53.8125 98.1875 C-54.204375 97.795625 -54.59625 97.40375 -55 97 C-53.37490885 93.15303282 -50.7881413 90.28505565 -48.0625 87.1875 C-25.90890159 61.43884836 -10.87606518 32.05301902 0 0 Z " fill="#FDFDFD" transform="translate(528,373)"/>
<path d="M0 0 C1.65243505 0.21749486 3.29501423 0.51083923 4.9296875 0.8359375 C5.93225586 1.02768555 6.93482422 1.21943359 7.96777344 1.41699219 C8.9684082 1.60938477 9.96904297 1.80177734 11 2 C39.57142777 7.15919632 70.44735788 7.12612746 99 2 C101.20142032 1.63040646 103.40325516 1.26327464 105.60546875 0.8984375 C107.14497192 0.64199463 107.14497192 0.64199463 108.71557617 0.38037109 C109.84636597 0.1920874 109.84636597 0.1920874 111 0 C114.57348164 12.59963085 118.10438352 25.20936098 121.4375 37.875 C121.69611816 38.84832275 121.95473633 39.82164551 122.22119141 40.82446289 C122.45628418 41.72543701 122.69137695 42.62641113 122.93359375 43.5546875 C123.14040771 44.34343262 123.34722168 45.13217773 123.56030273 45.94482422 C124 48 124 48 124 51 C80.13450318 63.24941578 29.9258491 62.55222435 -14 51 C-11.46802889 39.40250996 -8.42380223 27.95231195 -5.3125 16.5 C-5.1085965 15.74510284 -4.90469299 14.99020569 -4.6946106 14.21243286 C-4.10881579 12.04681083 -3.51815874 9.88257952 -2.92578125 7.71875 C-2.57942627 6.44966797 -2.23307129 5.18058594 -1.8762207 3.87304688 C-1 1 -1 1 0 0 Z " fill="#FDFDFD" transform="translate(249,534)"/>
<path d="M0 0 C1.11666994 0.94817138 2.23206383 1.89784569 3.34692383 2.84814453 C3.96819656 3.37683136 4.5894693 3.90551819 5.22956848 4.45022583 C27.86858419 24.26763273 45.06765851 54.7500179 57 82 C57.47953125 83.03769531 57.9590625 84.07539063 58.453125 85.14453125 C70 110.76036184 70 110.76036184 70 120 C65.14975166 121.37657315 60.29739743 122.74538582 55.44311523 124.10766602 C53.79899015 124.5701613 52.15541431 125.03461454 50.51245117 125.5012207 C40.07143107 128.46477331 29.68411 131.06423434 19 133 C18.65251709 131.95166992 18.30503418 130.90333984 17.94702148 129.82324219 C11.82940257 111.55694993 4.341071 93.30168832 -6 77 C-6.37979004 76.40074707 -6.75958008 75.80149414 -7.15087891 75.18408203 C-15.67201072 61.83785504 -25.14257405 49.52735223 -36 38 C-34.6238464 34.90820864 -33.04841555 32.80361247 -30.65185547 30.42480469 C-29.97130096 29.74440125 -29.29074646 29.0639978 -28.58956909 28.36297607 C-27.85618317 27.63991272 -27.12279724 26.91684937 -26.3671875 26.171875 C-25.61535187 25.42286926 -24.86351624 24.67386353 -24.08889771 23.90216064 C-21.68892099 21.5133698 -19.28207991 19.13163103 -16.875 16.75 C-15.24563648 15.13066831 -13.61672466 13.51088198 -11.98828125 11.890625 C-7.99741194 7.92179495 -4.00088585 3.95873101 0 0 Z " fill="#FDFDFD" transform="translate(509,109)"/>
<path d="M0 0 C4.88896118 4.09769323 9.47947327 8.35420252 13.95703125 12.89453125 C14.90058723 13.84376717 14.90058723 13.84376717 15.86320496 14.81217957 C17.8487756 16.80985086 19.83103376 18.81075807 21.8125 20.8125 C24.44115474 23.46769724 27.07307321 26.11959605 29.70703125 28.76953125 C30.3090889 29.37988724 30.91114655 29.99024323 31.53144836 30.61909485 C34.47734977 33.68671593 34.47734977 33.68671593 38 36 C36.69519244 38.91699767 35.35928334 40.79939947 33 42.9375 C8.39445558 66.98498052 -6.66577995 100.76272065 -17 133 C-25.828334 131.59476232 -34.38217485 129.4115454 -43 127.0625 C-44.30197358 126.71118153 -45.60405658 126.36026834 -46.90625 126.00976562 C-50.60557789 125.0116238 -54.30314562 124.00726035 -58 123 C-59.11761719 122.69562012 -60.23523438 122.39124023 -61.38671875 122.07763672 C-63.92469236 121.3858683 -66.46247228 120.69340187 -69 120 C-57.40523406 83.89995535 -42.68291351 51.890474 -19 22 C-18.20851562 20.99582031 -17.41703125 19.99164063 -16.6015625 18.95703125 C-11.32673864 12.3958907 -5.71931222 6.17303636 0 0 Z " fill="#FDFDFD" transform="translate(98,109)"/>
<path d="M0 0 C0.35449219 1.20269531 0.70898438 2.40539062 1.07421875 3.64453125 C4.43639041 14.57567076 8.58036045 24.88890152 13.5625 35.1875 C14.10414795 36.30809814 14.6457959 37.42869629 15.20385742 38.58325195 C19.85232423 48.01601511 25.10987859 56.95984895 31.0625 65.625 C31.52221191 66.29450684 31.98192383 66.96401367 32.45556641 67.65380859 C37.88581037 75.43746046 43.91361081 82.72593129 50 90 C51.66721503 91.99954348 53.33357492 93.99979802 55 96 C49.96381603 101.16265641 44.90836765 106.30584726 39.83886719 111.43579102 C38.11558363 113.18426402 36.39680824 114.93719193 34.68261719 116.69458008 C32.22193093 119.21571672 29.74562883 121.72053819 27.265625 124.22265625 C26.49881409 125.01527359 25.73200317 125.80789093 24.94195557 126.62452698 C23.86128815 127.70576088 23.86128815 127.70576088 22.75878906 128.80883789 C22.12813538 129.45059464 21.49748169 130.09235138 20.84771729 130.7535553 C19 132 19 132 16.8883667 131.81150818 C5.51284437 126.92298234 -6.14223044 105.8798375 -13 96 C-13.39622559 95.43071777 -13.79245117 94.86143555 -14.20068359 94.27490234 C-28.73928421 73.17978668 -51 39.38138863 -51 13 C-39.3368701 9.61992095 -27.65288701 6.31958281 -15.9375 3.125 C-14.81424316 2.8148999 -13.69098633 2.5047998 -12.53369141 2.18530273 C-11.47972168 1.89985596 -10.42575195 1.61440918 -9.33984375 1.3203125 C-8.40519287 1.06523926 -7.47054199 0.81016602 -6.50756836 0.54736328 C-4 0 -4 0 0 0 Z " fill="#FDFDFD" transform="translate(81,373)"/>
<path d="M0 0 C-1.30282347 8.17535023 -3.23529403 16.11188269 -5.40405273 24.09790039 C-5.93739213 26.06210275 -6.4643611 28.02792762 -6.99023438 29.99414062 C-8.8840744 37.03095111 -10.84947537 44.03712686 -13 51 C-13.91177002 50.85377197 -14.82354004 50.70754395 -15.76293945 50.55688477 C-19.19737998 50.00788822 -22.63231805 49.462227 -26.06762695 48.91870117 C-27.5447221 48.68432577 -29.02161686 48.4486833 -30.49829102 48.21166992 C-53.51635395 44.51972561 -75.85360407 43.89589386 -99 46.875 C-100.01639053 47.0055629 -100.01639053 47.0055629 -101.05331421 47.13876343 C-108.76652256 48.14656701 -116.39499191 49.36639268 -124 51 C-126.0419037 45.74766631 -127.77551923 40.54903502 -129.19140625 35.09765625 C-129.38218246 34.37565536 -129.57295868 33.65365448 -129.76951599 32.90977478 C-130.16885547 31.39519791 -130.5662194 29.88009887 -130.96166992 28.36450195 C-131.56039716 26.07055677 -132.16540344 23.77834014 -132.77148438 21.48632812 C-134.65065884 14.35244122 -136.48025428 7.22084589 -138 0 C-127.79630892 -2.9856665 -117.82887759 -4.97584551 -107.25 -6.1875 C-106.55212372 -6.27027191 -105.85424744 -6.35304382 -105.13522339 -6.43832397 C-73.9698215 -10.13240591 -28.9064688 -14.4532344 0 0 Z " fill="#FDFDFD" transform="translate(373,30)"/>
<path d="M0 0 C1.89423454 0.02733467 1.89423454 0.02733467 3.82673645 0.05522156 C5.27218086 0.09036613 5.27218086 0.09036613 6.74682617 0.1262207 C6.75013632 0.80521455 6.75344646 1.48420839 6.75685692 2.18377781 C6.83813734 18.71815297 6.93024628 35.25242894 7.03435326 51.78667545 C7.08443883 59.78256894 7.13088217 67.77845238 7.16870117 75.77441406 C7.20168002 82.74507079 7.24154369 89.71564863 7.28961623 96.6862182 C7.31482273 100.37582605 7.33662115 104.06538197 7.35017014 107.75505257 C7.36543813 111.87766954 7.39607911 116.00003675 7.42797852 120.12255859 C7.4301387 121.34103989 7.43229889 122.55952118 7.43452454 123.81492615 C7.51659943 132.16463832 7.51659943 132.16463832 9.74682617 140.1262207 C14.42965542 142.70537897 19.87218382 142.55027746 25.12182617 142.7512207 C25.95327148 142.78989258 26.7847168 142.82856445 27.64135742 142.8684082 C29.67617773 142.96196316 31.71147033 143.04514783 33.74682617 143.1262207 C33.74682617 146.0962207 33.74682617 149.0662207 33.74682617 152.1262207 C7.34682617 152.1262207 -19.05317383 152.1262207 -46.25317383 152.1262207 C-46.25317383 149.1562207 -46.25317383 146.1862207 -46.25317383 143.1262207 C-44.8068457 143.08883789 -43.36051758 143.05145508 -41.87036133 143.01293945 C-39.95627375 142.94725998 -38.04221239 142.88081332 -36.12817383 142.8137207 C-35.1768457 142.79116211 -34.22551758 142.76860352 -33.24536133 142.74536133 C-26.85073392 142.50112209 -21.97662655 141.84967342 -17.25317383 137.1262207 C-16.25093546 134.16496612 -16.12949372 131.42775519 -16.13291931 128.31732178 C-16.13154465 127.35260956 -16.13016998 126.38789734 -16.12875366 125.39395142 C-16.13234894 124.34234833 -16.13594421 123.29074524 -16.13964844 122.20727539 C-16.13950241 121.09478424 -16.13935638 119.98229309 -16.13920593 118.83609009 C-16.13990293 115.15673883 -16.14768543 111.47743812 -16.15551758 107.7980957 C-16.15738251 105.24790474 -16.15880606 102.69771342 -16.1598053 100.14752197 C-16.1632341 94.11984741 -16.17111666 88.09219456 -16.18115479 82.0645287 C-16.19233621 75.20120751 -16.19783149 68.33788544 -16.20285022 61.4745574 C-16.21329981 47.35843512 -16.23088661 33.2423289 -16.25317383 19.1262207 C-17.06141602 20.01825195 -17.8696582 20.9102832 -18.70239258 21.8293457 C-19.78162799 23.01181233 -20.86106583 24.19409424 -21.94067383 25.3762207 C-22.47112305 25.96274414 -23.00157227 26.54926758 -23.5480957 27.15356445 C-34.01825053 38.58723047 -34.01825053 38.58723047 -41.69067383 39.5637207 C-45.88763622 39.04830427 -47.99247923 37.76583061 -51.25317383 35.1262207 C-52.6075705 32.41742735 -52.31818834 30.11688803 -52.25317383 27.1262207 C-51.51196289 26.89290039 -50.77075195 26.65958008 -50.00708008 26.41918945 C-38.28296974 22.35808392 -27.91128359 15.81491982 -18.32739258 7.96606445 C-17.6930127 7.45897949 -17.05863281 6.95189453 -16.4050293 6.42944336 C-15.22906923 5.47637565 -14.07523042 4.49490134 -12.95288086 3.47924805 C-8.73743619 0.07019285 -5.39074896 -0.10085099 0 0 Z " fill="#050505" transform="translate(231.253173828125,229.873779296875)"/>
<path d="" fill="#EEEEEE" transform="translate(0,0)"/>
<path d="" fill="#ECECEC" transform="translate(0,0)"/>
<path d="" fill="#EDEDED" transform="translate(0,0)"/>
<path d="" fill="#EEEEEE" transform="translate(0,0)"/>
<path d="" fill="#EDEDED" transform="translate(0,0)"/>
</svg>
