<?xml version="1.0" encoding="UTF-8"?>
<svg version="1.1" xmlns="http://www.w3.org/2000/svg" width="612" height="612">
<path d="M0 0 C2.39299125 0.43269081 4.78900064 0.84896474 7.1875 1.25 C32.96826082 5.95014107 59.04631908 15.37222091 82 28 C83.48812109 28.79977724 84.97641089 29.59924063 86.46484375 30.3984375 C99.94306335 37.70220601 112.7704317 45.73517553 125 55 C125.53592773 55.40444336 126.07185547 55.80888672 126.62402344 56.22558594 C139.94140684 66.32187946 151.88116328 77.65668881 163.578125 89.56982422 C164.98762259 90.98755033 166.43130526 92.37101931 167.875 93.75390625 C170 96 170 96 170 98 C170.66 98 171.32 98 172 98 C173.26953125 99.37109375 173.26953125 99.37109375 174.8125 101.4375 C175.42738281 102.25347656 176.04226563 103.06945312 176.67578125 103.91015625 C177.44277344 104.92980469 178.20976563 105.94945313 179 107 C180.03329767 108.33347353 181.06860334 109.6653925 182.10546875 110.99609375 C188.14913555 118.77494021 193.91159625 126.55226174 199 135 C199.65484375 136.04671875 200.3096875 137.0934375 200.984375 138.171875 C207.54705654 148.68203416 213.3625567 159.40478519 218.5 170.6875 C219.21446289 172.25189819 219.21446289 172.25189819 219.94335938 173.84790039 C223.67750062 182.110261 227.0446205 190.42750499 230 199 C230.23082275 199.6587915 230.46164551 200.31758301 230.69946289 200.99633789 C252.77205217 265.25306622 251.74417483 338.59798439 227.69824219 402.14794922 C227.03527732 403.90642877 226.39586019 405.67373324 225.7578125 407.44140625 C222.99409342 414.94680021 219.62504952 422.01810046 215.95898438 429.12158203 C214.9480007 431.10185403 213.96346005 433.09361901 212.984375 435.08984375 C207.98960614 445.26185512 202.63274323 454.88088776 196.03125 464.1171875 C194.4981767 466.29297229 193.00458956 468.47967113 191.53125 470.6953125 C185.66438719 479.47576812 179.39623428 487.60943051 172.35644531 495.48046875 C171.16055657 496.82013966 169.98128452 498.17460433 168.8046875 499.53125 C164.0140489 504.99585677 158.93707364 510.16350148 153.8125 515.3125 C153.13477539 515.99489746 152.45705078 516.67729492 151.75878906 517.38037109 C141.10516479 528 141.10516479 528 138 528 C138 528.66 138 529.32 138 530 C136.09716151 531.62754707 134.19366404 533.1341063 132.1875 534.625 C131.60162109 535.067229 131.01574219 535.50945801 130.41210938 535.96508789 C128.61380991 537.31794372 126.80818838 538.66039854 125 540 C123.96488281 540.76957031 122.92976563 541.53914062 121.86328125 542.33203125 C110.07548701 551 110.07548701 551 107 551 C107 551.66 107 552.32 107 553 C105.71086513 553.67154933 104.41859796 554.33708859 103.125 555 C102.40570313 555.37125 101.68640625 555.7425 100.9453125 556.125 C99 557 99 557 97 557 C97 557.66 97 558.32 97 559 C72.85979281 572.05202692 48.50202839 582.65975498 22 590 C21.32195312 590.19045898 20.64390625 590.38091797 19.9453125 590.57714844 C-28.52805664 604.03386186 -86.84266105 605.4684572 -135 590 C-137.22790994 589.3705349 -139.45695246 588.7450538 -141.6875 588.125 C-152.66048862 584.99668333 -163.49343186 581.46831059 -174 577 C-174.59425781 576.74992188 -175.18851563 576.49984375 -175.80078125 576.2421875 C-184.46719204 572.58417585 -192.84098953 568.70197703 -201 564 C-202.48025072 563.16497797 -203.96074093 562.3303804 -205.44140625 561.49609375 C-224.61976914 550.62085196 -241.88706337 537.79705982 -258.47851562 523.32617188 C-259.80971056 522.16586204 -261.14657867 521.01206744 -262.484375 519.859375 C-272.64084507 511.07746479 -272.64084507 511.07746479 -274 507 C-274.66 507 -275.32 507 -276 507 C-276 506.34 -276 505.68 -276 505 C-276.66 505 -277.32 505 -278 505 C-279.39599396 503.47162731 -280.71587649 501.87349901 -282 500.25 C-283.20076172 498.74759766 -283.20076172 498.74759766 -284.42578125 497.21484375 C-284.84682129 496.68616699 -285.26786133 496.15749023 -285.70166016 495.61279297 C-287.40574964 493.49597929 -289.15239465 491.41689977 -290.90283203 489.33837891 C-303 474.96983086 -303 474.96983086 -303 472 C-303.66 472 -304.32 472 -305 472 C-331.24056888 438.45292542 -347.34309217 392.26477275 -355 351 C-355.18433594 350.08734375 -355.36867188 349.1746875 -355.55859375 348.234375 C-364.42590201 301.21701959 -360.18398564 248.07391595 -344.71142578 203.08447266 C-344.00159068 201.00466068 -343.32266726 198.91706838 -342.65234375 196.82421875 C-340.46280419 190.01958692 -338.07837452 183.45086125 -335 177 C-334.38177171 175.66454382 -333.76470099 174.32855149 -333.1484375 172.9921875 C-329.68034719 165.50342175 -326.12031084 158.15495247 -322 151 C-320.89155128 148.98151224 -319.78751153 146.96059813 -318.6875 144.9375 C-317.91986328 143.52791016 -317.91986328 143.52791016 -317.13671875 142.08984375 C-316.76160156 141.40019531 -316.38648438 140.71054688 -316 140 C-315.34 140 -314.68 140 -314 140 C-313.89300781 139.43796875 -313.78601563 138.8759375 -313.67578125 138.296875 C-309.39225718 123.7378452 -294.40188847 109.18718906 -284.59375 97.98828125 C-282.93305512 96.07498067 -281.32254093 94.11620216 -279.78125 92.10546875 C-279.1934375 91.41066406 -278.605625 90.71585937 -278 90 C-277.34 90 -276.68 90 -276 90 C-275.773125 89.443125 -275.54625 88.88625 -275.3125 88.3125 C-272.59845869 83.53061769 -268.22998281 80.38398625 -264 77 C-263.278125 76.278125 -262.55625 75.55625 -261.8125 74.8125 C-250.90527672 63.90527672 -238.73494814 54.660618 -226 46 C-225.24074219 45.47664063 -224.48148438 44.95328125 -223.69921875 44.4140625 C-219.38959984 41.48143754 -215.01523596 38.82169608 -210.42675781 36.34912109 C-208.05148031 35.02861974 -205.75342573 33.62155486 -203.4453125 32.1875 C-197.9165829 28.859774 -192.19285222 26.14410276 -186.3125 23.5 C-185.25522705 23.02151611 -184.1979541 22.54303223 -183.10864258 22.05004883 C-169.00766207 15.70810994 -154.81464106 10.41238538 -140 6 C-138.8140625 5.64035156 -137.628125 5.28070313 -136.40625 4.91015625 C-94.98952609 -6.91640826 -42.20697544 -11.48176698 0 0 Z " fill="#059B05" transform="translate(361,10)"/>
<path d="M0 0 C2.48996674 1.06662901 4.94885207 1.94469594 7.53125 2.75390625 C11.12813255 3.9054262 14.37484311 5.39451233 17.71875 7.140625 C21.33343631 8.98219814 25.06252359 10.57307161 28.78125 12.19140625 C28.78125 12.85140625 28.78125 13.51140625 28.78125 14.19140625 C29.544375 14.31515625 30.3075 14.43890625 31.09375 14.56640625 C33.78125 15.19140625 33.78125 15.19140625 36.78125 17.19140625 C36.78125 17.85140625 36.78125 18.51140625 36.78125 19.19140625 C37.32910156 19.27777344 37.87695312 19.36414063 38.44140625 19.453125 C51.19773928 23.47807816 65.86888381 39.89079305 73.78125 50.19140625 C74.45380112 51.52178109 75.12124713 52.85476178 75.78125 54.19140625 C76.94899723 55.32578927 78.11726327 56.45964686 79.2890625 57.58984375 C84.30958398 62.97836157 87.97378927 69.13287536 90.75390625 75.91015625 C91.9107109 78.47887837 93.29913736 80.79637137 94.78125 83.19140625 C99.00480757 90.10268227 101.9667957 96.48965609 103.19140625 104.5390625 C103.74948599 107.39105493 103.74948599 107.39105493 105.20703125 110.72265625 C107.3218838 116.18511717 108.04027448 121.8615093 108.90625 127.62890625 C109.23868533 129.79481126 109.57443533 131.96021106 109.9140625 134.125 C110.12893311 135.54897095 110.12893311 135.54897095 110.34814453 137.00170898 C110.56392637 139.15957125 110.56392637 139.15957125 111.78125 140.19140625 C111.88151382 142.11117462 111.91206418 144.03464746 111.9140625 145.95703125 C111.91535156 147.1584375 111.91664063 148.35984375 111.91796875 149.59765625 C111.91410156 150.86609375 111.91023438 152.13453125 111.90625 153.44140625 C111.91011719 154.6634375 111.91398437 155.88546875 111.91796875 157.14453125 C111.90943041 165.20472406 111.52113334 173.16561023 110.78125 181.19140625 C110.12125 181.19140625 109.46125 181.19140625 108.78125 181.19140625 C108.75546875 181.86042969 108.7296875 182.52945313 108.703125 183.21875 C108.10172547 193.40153758 106.00899586 203.50816868 102.78125 213.19140625 C102.12125 213.19140625 101.46125 213.19140625 100.78125 213.19140625 C100.67039062 213.69542969 100.55953125 214.19945312 100.4453125 214.71875 C97.54853296 225.50499382 93.16209894 235.04099735 86.78125 244.19140625 C86.17539062 245.14273438 85.56953125 246.0940625 84.9453125 247.07421875 C74.6871882 263.11038857 59.78360183 281.99223905 42.78125 291.19140625 C42.12125 291.19140625 41.46125 291.19140625 40.78125 291.19140625 C40.78125 291.85140625 40.78125 292.51140625 40.78125 293.19140625 C36.39663462 296.19140625 36.39663462 296.19140625 33.78125 296.19140625 C33.78125 296.85140625 33.78125 297.51140625 33.78125 298.19140625 C22.0625 304.05078125 22.0625 304.05078125 19.91992188 305.11621094 C18.49301815 305.83357212 17.0723472 306.56346609 15.65820312 307.30566406 C11.88111299 309.26925065 8.52356274 310.73435413 4.28125 311.44140625 C3.4253125 311.5909375 2.569375 311.74046875 1.6875 311.89453125 C1.0584375 311.9925 0.429375 312.09046875 -0.21875 312.19140625 C-0.21875 312.85140625 -0.21875 313.51140625 -0.21875 314.19140625 C-2.30076528 314.69686661 -4.38442067 315.1955746 -6.46875 315.69140625 C-8.20898438 316.1090625 -8.20898438 316.1090625 -9.984375 316.53515625 C-13.21875 317.19140625 -13.21875 317.19140625 -17.21875 317.19140625 C-17.21875 317.85140625 -17.21875 318.51140625 -17.21875 319.19140625 C-40.98808493 324.04346976 -66.44941507 324.04346976 -90.21875 319.19140625 C-90.21875 318.53140625 -90.21875 317.87140625 -90.21875 317.19140625 C-91.66894531 317.04445313 -91.66894531 317.04445313 -93.1484375 316.89453125 C-101.15944908 315.97445467 -107.83702109 314.56554153 -115.21875 311.19140625 C-116.75552615 310.59530814 -118.29695244 310.01099488 -119.84375 309.44140625 C-120.9575 309.02890625 -122.07125 308.61640625 -123.21875 308.19140625 C-123.21875 307.53140625 -123.21875 306.87140625 -123.21875 306.19140625 C-123.755 306.09085937 -124.29125 305.9903125 -124.84375 305.88671875 C-138.29269697 302.65720188 -150.01710918 293.12586213 -160.21875 284.19140625 C-161.10046875 283.44246094 -161.9821875 282.69351562 -162.890625 281.921875 C-167.56895304 277.89008609 -167.56895304 277.89008609 -169.21875 276.19140625 C-169.21875 275.53140625 -169.21875 274.87140625 -169.21875 274.19140625 C-170.04439453 273.8665625 -170.04439453 273.8665625 -170.88671875 273.53515625 C-173.98502162 271.7498695 -176.16809565 269.32457667 -178.53125 266.69140625 C-179.25320557 265.89488647 -179.25320557 265.89488647 -179.98974609 265.08227539 C-189.99627743 253.85882397 -189.99627743 253.85882397 -192.21875 247.19140625 C-193.21468225 246.18735498 -194.214993 245.18763508 -195.21875 244.19140625 C-196.28125 242.359375 -196.28125 242.359375 -197.21875 240.37890625 C-197.55390625 239.67894531 -197.8890625 238.97898437 -198.234375 238.2578125 C-198.55921875 237.57589844 -198.8840625 236.89398438 -199.21875 236.19140625 C-199.79625 235.07765625 -200.37375 233.96390625 -200.96875 232.81640625 C-202.21875 230.19140625 -202.21875 230.19140625 -202.21875 228.19140625 C-202.87875 228.19140625 -203.53875 228.19140625 -204.21875 228.19140625 C-206.56284168 222.94510583 -208.45236239 217.65616791 -210.21875 212.19140625 C-210.7171921 210.69088785 -211.21718288 209.19088297 -211.71875 207.69140625 C-211.95102295 206.98991455 -212.1832959 206.28842285 -212.42260742 205.56567383 C-212.92388909 204.07074459 -213.43562532 202.57924093 -213.9621582 201.09301758 C-223.19345809 174.66989667 -223.37842292 136.384313 -213.21875 110.19140625 C-212.71162419 108.69380035 -212.21181099 107.19370145 -211.71875 105.69140625 C-211.46996094 104.95019531 -211.22117188 104.20898438 -210.96484375 103.4453125 C-210.46535186 101.93637625 -209.97844513 100.42321856 -209.50390625 98.90625 C-207.85283714 93.70315113 -205.74561754 89.01997492 -203.21875 84.19140625 C-202.13221431 82.02634372 -201.04903205 79.85959587 -199.96875 77.69140625 C-199.05208333 75.85807292 -198.13541667 74.02473958 -197.21875 72.19140625 C-196.55875 72.19140625 -195.89875 72.19140625 -195.21875 72.19140625 C-194.97125 71.51078125 -194.72375 70.83015625 -194.46875 70.12890625 C-189.92039604 59.44027443 -182.6673117 50.07949826 -174.21875 42.19140625 C-173.3525 41.32515625 -172.48625 40.45890625 -171.59375 39.56640625 C-170.81 38.78265625 -170.02625 37.99890625 -169.21875 37.19140625 C-168.331875 36.26328125 -167.445 35.33515625 -166.53125 34.37890625 C-164.21875 32.19140625 -164.21875 32.19140625 -162.21875 32.19140625 C-161.9609375 31.58941406 -161.703125 30.98742187 -161.4375 30.3671875 C-160.09901023 27.97764005 -158.9355762 26.95521504 -156.71875 25.37890625 C-156.00332031 24.86714844 -155.28789062 24.35539062 -154.55078125 23.828125 C-153.78121094 23.28800781 -153.01164062 22.74789062 -152.21875 22.19140625 C-151.43886719 21.62035156 -150.65898437 21.04929688 -149.85546875 20.4609375 C-134.48584354 9.35656713 -134.48584354 9.35656713 -125.21875 8.19140625 C-125.21875 7.53140625 -125.21875 6.87140625 -125.21875 6.19140625 C-87.04575724 -10.38685218 -39.30948831 -17.32720866 0 0 Z " fill="#FDFDFD" transform="translate(358.21875,150.80859375)"/>
<path d="M0 0 C0.69504639 0.07460449 1.39009277 0.14920898 2.10620117 0.22607422 C6.24308399 0.72013594 9.89978987 1.65886023 13.8125 3.0625 C16.2673914 3.78267157 18.72584314 4.49080466 21.1875 5.1875 C23.05535156 5.71730469 23.05535156 5.71730469 24.9609375 6.2578125 C25.90195312 6.52335937 26.84296875 6.78890625 27.8125 7.0625 C27.8125 7.7225 27.8125 8.3825 27.8125 9.0625 C28.575625 9.145 29.33875 9.2275 30.125 9.3125 C36.94693046 10.70001128 43.37072062 13.46482043 49.8125 16.0625 C49.8125 16.7225 49.8125 17.3825 49.8125 18.0625 C50.84310547 18.35253906 50.84310547 18.35253906 51.89453125 18.6484375 C53.24611328 19.03902344 53.24611328 19.03902344 54.625 19.4375 C55.51832031 19.69273437 56.41164063 19.94796875 57.33203125 20.2109375 C59.8125 21.0625 59.8125 21.0625 62.8125 23.0625 C62.8125 23.7225 62.8125 24.3825 62.8125 25.0625 C63.534375 25.35125 64.25625 25.64 65 25.9375 C65.928125 26.30875 66.85625 26.68 67.8125 27.0625 C68.6375 27.330625 69.4625 27.59875 70.3125 27.875 C73.51460092 29.39599794 75.33482932 31.52720907 77.8125 34.0625 C81.01289524 36.63364205 84.3361948 39.03669618 87.70703125 41.37890625 C91.46496312 43.99062796 94.60488364 46.77047268 97.8125 50.0625 C98.59625 50.660625 99.38 51.25875 100.1875 51.875 C103.14015451 54.33554543 105.51657817 57.02470791 108.00390625 59.9453125 C109.13636572 61.2709994 110.28745146 62.58124131 111.46484375 63.8671875 C115.3333333 68.10887251 118.76843737 72.6002215 122.125 77.25 C122.5578833 77.84441895 122.9907666 78.43883789 123.43676758 79.05126953 C125.72688125 82.27051503 127.53602225 85.31769511 128.8125 89.0625 C129.4725 89.0625 130.1325 89.0625 130.8125 89.0625 C131.8025 92.0325 132.7925 95.0025 133.8125 98.0625 C134.4725 98.0625 135.1325 98.0625 135.8125 98.0625 C136.4725 100.3725 137.1325 102.6825 137.8125 105.0625 C138.4725 105.0625 139.1325 105.0625 139.8125 105.0625 C140.13863281 105.84753906 140.46476562 106.63257813 140.80078125 107.44140625 C141.23777344 108.49199219 141.67476563 109.54257813 142.125 110.625 C142.58261719 111.7284375 143.04023438 112.831875 143.51171875 113.96875 C144.45109037 116.20293115 145.43168082 118.41993487 146.4375 120.625 C147.93069816 124.3579954 148.97538133 128.07566762 149.9921875 131.9609375 C150.90334558 135.40598282 151.88539478 138.82669897 152.875 142.25 C153.52131306 144.52069684 154.16720734 146.79151297 154.8125 149.0625 C155.02003906 149.76890625 155.22757812 150.4753125 155.44140625 151.203125 C158.6769279 162.92233728 159.1481103 175.1720684 159.0625 187.25 C159.05984131 188.24642014 159.05984131 188.24642014 159.05712891 189.26296997 C159.02175492 200.62057149 158.31166699 211.80536213 156.8125 223.0625 C156.1525 223.0625 155.4925 223.0625 154.8125 223.0625 C154.77511719 223.94550781 154.73773438 224.82851563 154.69921875 225.73828125 C154.27122372 233.55128863 153.22864776 240.61651004 150.8125 248.0625 C150.1525 248.0625 149.4925 248.0625 148.8125 248.0625 C148.66554688 248.98869141 148.66554688 248.98869141 148.515625 249.93359375 C147.55305931 255.38536666 146.14765598 260.07889795 143.71484375 265.0546875 C142.82086853 267.04387911 142.27504553 268.93574427 141.8125 271.0625 C141.1525 271.0625 140.4925 271.0625 139.8125 271.0625 C139.66554688 271.59617187 139.51859375 272.12984375 139.3671875 272.6796875 C137.71660958 278.16264174 135.41147542 282.7115092 132.375 287.5546875 C130.03696832 291.30722835 127.93040373 295.18280024 125.8125 299.0625 C125.1525 299.0625 124.4925 299.0625 123.8125 299.0625 C123.544375 299.59875 123.27625 300.135 123 300.6875 C122.608125 301.47125 122.21625 302.255 121.8125 303.0625 C121.379375 304.031875 120.94625 305.00125 120.5 306 C118.63919537 309.37701581 116.56366527 311.36114691 113.8125 314.0625 C112.76293835 315.18397015 111.72033669 316.31198155 110.68359375 317.4453125 C95.72029684 333.77543856 79.78891725 346.62170242 60.8125 358.0625 C59.8544043 358.6493457 59.8544043 358.6493457 58.87695312 359.24804688 C54.16311511 362.0625 54.16311511 362.0625 50.8125 362.0625 C50.8125 362.7225 50.8125 363.3825 50.8125 364.0625 C49.54410474 364.56865298 48.27266898 365.06719099 47 365.5625 C45.93845703 365.98015625 45.93845703 365.98015625 44.85546875 366.40625 C42.8125 367.0625 42.8125 367.0625 39.8125 367.0625 C39.4825 368.0525 39.1525 369.0425 38.8125 370.0625 C36.80859375 370.90625 36.80859375 370.90625 34.25 371.5625 C31.06482674 372.42749755 27.9973872 373.32566138 24.9375 374.5625 C19.70637001 376.58097642 14.26603388 377.79992428 8.8125 379.0625 C7.79265015 379.30758301 7.79265015 379.30758301 6.75219727 379.55761719 C-17.8499995 385.30606912 -45.29983287 385.34463458 -69.81347656 379.59277344 C-73.80689863 378.70078323 -77.83977498 378.04703652 -81.875 377.375 C-88.90664678 376.20292661 -88.90664678 376.20292661 -91.1875 375.0625 C-91.1875 374.4025 -91.1875 373.7425 -91.1875 373.0625 C-91.77917969 373.02511719 -92.37085938 372.98773438 -92.98046875 372.94921875 C-94.16576172 372.85060547 -94.16576172 372.85060547 -95.375 372.75 C-96.15230469 372.69199219 -96.92960938 372.63398438 -97.73046875 372.57421875 C-100.69213337 371.95740148 -102.61627823 370.64240735 -105.1875 369.0625 C-107.27252868 368.28028723 -109.37821082 367.55117457 -111.5 366.875 C-113.10294922 366.35873047 -113.10294922 366.35873047 -114.73828125 365.83203125 C-115.54652344 365.57808594 -116.35476562 365.32414062 -117.1875 365.0625 C-117.1875 364.4025 -117.1875 363.7425 -117.1875 363.0625 C-117.744375 362.90394531 -118.30125 362.74539063 -118.875 362.58203125 C-123.9245699 361.03815937 -128.09099836 359.11568013 -132.4609375 356.1484375 C-134.31113756 354.88939732 -134.31113756 354.88939732 -137.1875 354.0625 C-137.66316406 353.58554687 -138.13882813 353.10859375 -138.62890625 352.6171875 C-140.36469725 350.88574686 -141.88664671 350.15845556 -144.125 349.1875 C-147.90665124 347.37203337 -149.61780838 345.41088605 -152.1875 342.0625 C-154.39707676 340.23558738 -156.66590251 338.5160132 -158.96875 336.80859375 C-161.1875 335.0625 -161.1875 335.0625 -163.28125 332.91015625 C-165.14619833 330.83560059 -165.14619833 330.83560059 -168.1875 330.0625 C-169.5415932 328.07649663 -170.87207624 326.07432457 -172.1875 324.0625 C-173.84997733 322.3916545 -175.51717436 320.72549965 -177.1875 319.0625 C-178.8340547 317.14328431 -180.45855608 315.20496679 -182.0625 313.25 C-185.00131531 309.66885069 -187.98796421 306.16011109 -191.125 302.75 C-194.84361723 298.55014995 -196.42078812 294.36263565 -198.1875 289.0625 C-199.1775 288.7325 -200.1675 288.4025 -201.1875 288.0625 C-202.13671875 285.77734375 -202.13671875 285.77734375 -202.875 283 C-203.12636719 282.08089844 -203.37773437 281.16179687 -203.63671875 280.21484375 C-203.81847656 279.50457031 -204.00023437 278.79429687 -204.1875 278.0625 C-204.8475 278.0625 -205.5075 278.0625 -206.1875 278.0625 C-207.02489781 275.9390984 -207.85730283 273.8137272 -208.6875 271.6875 C-209.38359375 269.91246094 -209.38359375 269.91246094 -210.09375 268.1015625 C-211.1875 265.0625 -211.1875 265.0625 -211.1875 263.0625 C-211.8475 263.0625 -212.5075 263.0625 -213.1875 263.0625 C-218.37192623 245.5829918 -218.37192623 245.5829918 -220.51171875 237.45703125 C-221.0017926 235.7205268 -221.56708769 234.00469565 -222.17651367 232.30639648 C-223.18448104 229.07218677 -223.67654967 226.12913565 -224.0390625 222.765625 C-224.16837158 221.56921387 -224.29768066 220.37280273 -224.4309082 219.14013672 C-224.5568335 217.8770166 -224.68275879 216.61389648 -224.8125 215.3125 C-224.94293701 214.0042627 -225.07337402 212.69602539 -225.20776367 211.34814453 C-226.59784852 196.67835157 -226.32343767 182.68861921 -225.3125 168 C-225.23427002 166.85708496 -225.15604004 165.71416992 -225.07543945 164.53662109 C-224.5886778 158.19893784 -223.74028525 152.22797086 -222.1875 146.0625 C-221.5275 146.0625 -220.8675 146.0625 -220.1875 146.0625 C-220.15011719 145.36125 -220.11273438 144.66 -220.07421875 143.9375 C-219.70447608 138.60160573 -219.09826279 133.99039491 -217.01953125 129.0546875 C-216.05992 126.75702675 -215.27734809 124.42770131 -214.5 122.0625 C-214.24863281 121.299375 -213.99726563 120.53625 -213.73828125 119.75 C-213.55652344 119.193125 -213.37476563 118.63625 -213.1875 118.0625 C-212.5275 118.0625 -211.8675 118.0625 -211.1875 118.0625 C-211.00574219 117.34964844 -210.82398438 116.63679688 -210.63671875 115.90234375 C-209.18967222 110.38872542 -207.59858634 105.22911358 -205.1875 100.0625 C-204.5275 100.0625 -203.8675 100.0625 -203.1875 100.0625 C-202.92324219 99.18078125 -202.65898437 98.2990625 -202.38671875 97.390625 C-200.47898571 92.09619975 -197.3054771 87.71714884 -194.1875 83.0625 C-193.64996094 82.24523437 -193.11242187 81.42796875 -192.55859375 80.5859375 C-179.95827562 61.94353911 -163.82030171 45.62642942 -145.1875 33.0625 C-144.32253906 32.47082031 -143.45757812 31.87914062 -142.56640625 31.26953125 C-141.12280375 30.29628797 -139.67156202 29.33422425 -138.2109375 28.38671875 C-136.82326738 27.4785717 -135.45397792 26.54189163 -134.1015625 25.58203125 C-128.76310852 21.83355002 -123.22594049 19.09414641 -117.26953125 16.4453125 C-114.73234528 15.3069553 -112.27380295 14.10289184 -109.8125 12.8125 C-105.02809674 10.39001734 -100.57959456 9.0625 -95.1875 9.0625 C-95.1875 8.4025 -95.1875 7.7425 -95.1875 7.0625 C-88.18196211 4.41175593 -80.68669712 2.87264691 -73.1875 3.0625 C-73.1875 2.4025 -73.1875 1.7425 -73.1875 1.0625 C-50.00828608 -4.80349271 -23.55621923 -2.61366367 0 0 Z M-105.1875 40.0625 C-105.1875 40.7225 -105.1875 41.3825 -105.1875 42.0625 C-106.03699219 42.15273437 -106.88648438 42.24296875 -107.76171875 42.3359375 C-111.62875504 43.15608431 -114.6424011 44.69227032 -118 46.6875 C-118.61311035 47.04505371 -119.2262207 47.40260742 -119.85791016 47.77099609 C-124.20214731 50.35377816 -128.2326992 53.18726933 -132.14453125 56.39453125 C-134.92059069 58.6610272 -137.83459851 60.72369094 -140.75390625 62.80078125 C-141.22699219 63.21714844 -141.70007813 63.63351563 -142.1875 64.0625 C-142.1875 64.7225 -142.1875 65.3825 -142.1875 66.0625 C-142.79078125 66.32675781 -143.3940625 66.59101563 -144.015625 66.86328125 C-146.2917287 68.12005074 -147.35568433 69.21690162 -148.9375 71.25 C-151.13487436 73.93322598 -153.39124601 76.16466827 -156.0625 78.375 C-163.21574433 84.48677581 -168.24180139 91.58655483 -172.1875 100.0625 C-173.17616506 101.40425973 -174.1713154 102.74146002 -175.1875 104.0625 C-175.1875 104.7225 -175.1875 105.3825 -175.1875 106.0625 C-176.6725 106.5575 -176.6725 106.5575 -178.1875 107.0625 C-179.4864043 109.27355094 -179.4864043 109.27355094 -180.5625 112 C-182.214893 115.84892751 -183.94036527 119.59731649 -185.875 123.3125 C-187.82331078 127.16663503 -189.11885932 130.86426876 -190.1875 135.0625 C-190.63630288 136.41985507 -191.09553606 137.77378518 -191.5625 139.125 C-192.85906103 143.00152003 -194.08059499 146.89564529 -195.25 150.8125 C-195.57097656 151.87984375 -195.89195312 152.9471875 -196.22265625 154.046875 C-199.14158877 165.38026116 -199.58739967 176.68758341 -199.5625 188.3125 C-199.56328552 189.09376251 -199.56407104 189.87502502 -199.56488037 190.67996216 C-199.54643516 206.07641305 -199.20541056 222.68579716 -193.1875 237.0625 C-192.69529522 238.47468964 -192.21580975 239.8913855 -191.75 241.3125 C-191.49347656 242.08851563 -191.23695313 242.86453125 -190.97265625 243.6640625 C-190.45638582 245.24112741 -189.94327123 246.81922955 -189.43359375 248.3984375 C-187.90888132 253.07635103 -186.194951 257.56963349 -184.1875 262.0625 C-183.5275 262.0625 -182.8675 262.0625 -182.1875 262.0625 C-181.919375 263.114375 -181.65125 264.16625 -181.375 265.25 C-180.30098694 268.6981472 -179.11470833 271.05605501 -177.1875 274.0625 C-176.671875 275.135 -176.15625 276.2075 -175.625 277.3125 C-174.47743042 280.16148919 -174.47743042 280.16148919 -172.1875 281.0625 C-171.81625 281.866875 -171.445 282.67125 -171.0625 283.5 C-166.72519554 292.56302424 -158.35304505 301.05678123 -151.1875 308.0625 C-150.5275 308.0625 -149.8675 308.0625 -149.1875 308.0625 C-148.94515625 308.63742187 -148.7028125 309.21234375 -148.453125 309.8046875 C-141.97267346 321.36549303 -120.92829083 334.69996694 -108.6640625 338.93359375 C-106.85769177 339.39310911 -105.02409649 339.74462753 -103.1875 340.0625 C-103.1875 340.7225 -103.1875 341.3825 -103.1875 342.0625 C-102.39085937 342.31644531 -101.59421875 342.57039063 -100.7734375 342.83203125 C-99.71382813 343.17621094 -98.65421875 343.52039063 -97.5625 343.875 C-96.51835937 344.21144531 -95.47421875 344.54789062 -94.3984375 344.89453125 C-91.1875 346.0625 -91.1875 346.0625 -88.28125 347.625 C-84.66433459 349.30558696 -81.23124075 349.83610199 -77.3125 350.25 C-76.27996094 350.3727832 -76.27996094 350.3727832 -75.2265625 350.49804688 C-73.54802643 350.69620738 -71.86789519 350.88077787 -70.1875 351.0625 C-70.1875 351.7225 -70.1875 352.3825 -70.1875 353.0625 C-46.41816507 357.91456351 -20.95683493 357.91456351 2.8125 353.0625 C2.8125 352.4025 2.8125 351.7425 2.8125 351.0625 C3.45316406 351.01351563 4.09382812 350.96453125 4.75390625 350.9140625 C10.02446085 350.4584855 14.78236288 349.7027621 19.8125 348.0625 C19.8125 347.4025 19.8125 346.7425 19.8125 346.0625 C20.54210937 345.96195312 21.27171875 345.86140625 22.0234375 345.7578125 C32.23920289 343.91645232 40.213614 339.35020504 49.02587891 334.04638672 C50.8125 333.0625 50.8125 333.0625 53.8125 332.0625 C53.8125 331.4025 53.8125 330.7425 53.8125 330.0625 C54.988125 329.5984375 54.988125 329.5984375 56.1875 329.125 C58.73580128 328.13374962 58.73580128 328.13374962 60.8125 327.0625 C60.8125 326.4025 60.8125 325.7425 60.8125 325.0625 C61.54855469 324.79695313 62.28460938 324.53140625 63.04296875 324.2578125 C78.08578251 317.76542744 91.83308559 300.27069674 100.8125 287.0625 C101.50730469 286.05445313 102.20210938 285.04640625 102.91796875 284.0078125 C104.9233733 281.05049923 106.87620482 278.06539846 108.8125 275.0625 C109.3590625 274.24265625 109.905625 273.4228125 110.46875 272.578125 C115.44866892 264.80335362 118.75119968 256.06129494 120.8125 247.0625 C121.4725 247.0625 122.1325 247.0625 122.8125 247.0625 C126.02044504 236.53545706 129.00850178 226.16926768 128.8125 215.0625 C129.4725 215.0625 130.1325 215.0625 130.8125 215.0625 C131.64154038 205.92492949 131.99505201 196.8610739 132 187.6875 C132.01224609 186.46933594 132.02449219 185.25117188 132.03710938 183.99609375 C132.0470478 177.9204025 131.74331749 172.86854979 129.8125 167.0625 C129.46616586 165.31722392 129.14707454 163.56643404 128.84765625 161.8125 C128.68716797 160.8740625 128.52667969 159.935625 128.36132812 158.96875 C128.03721516 157.03188213 127.71689895 155.09437508 127.40039062 153.15625 C126.45538742 147.67447841 125.14355767 143.10349248 122.8125 138.0625 C122.328125 135.90234375 122.328125 135.90234375 122.0625 134 C120.51295946 126.30527303 116.20234508 119.01889425 112.1796875 112.359375 C110.8125 110.0625 110.8125 110.0625 109.375 106.5625 C107.85874333 103.16608506 106.19092867 100.88688404 103.8125 98.0625 C103.338125 97.2375 102.86375 96.4125 102.375 95.5625 C100.87966064 92.94913969 100.87966064 92.94913969 98.5 90.8125 C96.25330622 88.51355752 94.89705845 86.68858071 93.25 84 C86.78723845 74.03173026 77.19881535 66.16139396 67.8125 59.0625 C67.05582031 58.46179688 66.29914063 57.86109375 65.51953125 57.2421875 C64.45798828 56.41074219 64.45798828 56.41074219 63.375 55.5625 C62.75753906 55.0778125 62.14007813 54.593125 61.50390625 54.09375 C59.71575666 52.80221382 59.71575666 52.80221382 56.8125 53.0625 C56.4825 52.0725 56.1525 51.0825 55.8125 50.0625 C53.21007586 48.41429805 51.95001221 48.0625 48.8125 48.0625 C48.8125 47.4025 48.8125 46.7425 48.8125 46.0625 C47.79929687 45.59199219 46.78609375 45.12148437 45.7421875 44.63671875 C44.39060425 44.0078571 43.03904291 43.37894834 41.6875 42.75 C40.68976563 42.2869043 40.68976563 42.2869043 39.671875 41.81445312 C36.61686394 40.3917764 33.58741649 38.94818915 30.58203125 37.421875 C28.26098833 36.28263249 26.08504685 35.39108809 23.625 34.625 C21.17307613 33.84835413 18.77465725 33.04732634 16.38671875 32.08984375 C10.79069187 29.85652801 5.28854158 28.42477232 -0.625 27.375 C-1.29208984 27.25576172 -1.95917969 27.13652344 -2.64648438 27.01367188 C-36.43115622 21.40988642 -74.4935865 23.77746521 -105.1875 40.0625 Z " fill="#049A04" transform="translate(338.1875,116.9375)"/>
<path d="M0 0 C1.49803665 -0.0049926 1.49803665 -0.0049926 3.02633667 -0.01008606 C5.13246199 -0.01512749 7.23859522 -0.01749525 9.34472656 -0.01733398 C12.52422681 -0.0195104 15.70337393 -0.03766846 18.8828125 -0.05664062 C40.40177827 -0.11589654 40.40177827 -0.11589654 50.4296875 2.16796875 C50.7596875 2.49796875 51.0896875 2.82796875 51.4296875 3.16796875 C54.21939464 3.70829097 57.00200637 4.20543477 59.8046875 4.66796875 C61.35452002 4.92627417 62.90401536 5.18661284 64.453125 5.44921875 C65.14325684 5.56330078 65.83338867 5.67738281 66.54443359 5.79492188 C68.4296875 6.16796875 68.4296875 6.16796875 71.4296875 7.16796875 C71.4296875 7.82796875 71.4296875 8.48796875 71.4296875 9.16796875 C72.6671875 9.29171875 73.9046875 9.41546875 75.1796875 9.54296875 C78.3953722 9.86453722 80.56418137 10.71317333 83.4296875 12.16796875 C85.00127628 12.5894876 86.58597832 12.96485215 88.1796875 13.29296875 C88.97890625 13.46054688 89.778125 13.628125 90.6015625 13.80078125 C91.20484375 13.92195313 91.808125 14.043125 92.4296875 14.16796875 C92.4296875 14.82796875 92.4296875 15.48796875 92.4296875 16.16796875 C95.3996875 16.82796875 98.3696875 17.48796875 101.4296875 18.16796875 C101.4296875 18.82796875 101.4296875 19.48796875 101.4296875 20.16796875 C102.1103125 20.27109375 102.7909375 20.37421875 103.4921875 20.48046875 C107.05884739 21.31521894 110.09190944 22.66269629 113.4296875 24.16796875 C113.4296875 24.82796875 113.4296875 25.48796875 113.4296875 26.16796875 C116.3996875 27.15796875 119.3696875 28.14796875 122.4296875 29.16796875 C122.4296875 29.82796875 122.4296875 30.48796875 122.4296875 31.16796875 C123.24050781 31.37550781 124.05132812 31.58304688 124.88671875 31.796875 C129.50090116 33.58251781 133.13092482 36.21293474 137.1171875 39.10546875 C137.87580078 39.64365234 138.63441406 40.18183594 139.41601562 40.73632812 C142.65701736 43.05623316 145.64064596 45.3148448 148.4296875 48.16796875 C150.04677537 49.46952728 151.67293652 50.75984112 153.3046875 52.04296875 C171.62324797 66.96920321 196.67049526 91.37200753 201.4296875 115.16796875 C202.0896875 115.16796875 202.7496875 115.16796875 203.4296875 115.16796875 C204.1005587 116.79123745 204.76625779 118.41664453 205.4296875 120.04296875 C205.8009375 120.94789063 206.1721875 121.8528125 206.5546875 122.78515625 C207.4296875 125.16796875 207.4296875 125.16796875 207.4296875 127.16796875 C208.0896875 127.16796875 208.7496875 127.16796875 209.4296875 127.16796875 C212.00211817 134.43570978 214.1502761 141.55883777 215.4296875 149.16796875 C216.0896875 149.16796875 216.7496875 149.16796875 217.4296875 149.16796875 C217.7662985 150.93818197 218.09886043 152.70916549 218.4296875 154.48046875 C218.6153125 155.46660156 218.8009375 156.45273438 218.9921875 157.46875 C219.4296875 160.16796875 219.4296875 160.16796875 219.4296875 163.16796875 C220.0896875 163.16796875 220.7496875 163.16796875 221.4296875 163.16796875 C221.55085938 164.08578125 221.67203125 165.00359375 221.796875 165.94921875 C222.82661017 173.83688676 222.82661017 173.83688676 224.4921875 181.60546875 C226.31278154 188.52372608 226.56786648 195.15676664 226.52734375 202.2578125 C226.52522133 203.67460045 226.52522133 203.67460045 226.52305603 205.12001038 C226.5174911 208.11519638 226.50494517 211.11030562 226.4921875 214.10546875 C226.48716796 216.14518121 226.48260585 218.18489484 226.47851562 220.22460938 C226.46753317 225.20575841 226.4502929 230.1868506 226.4296875 235.16796875 C225.7696875 235.16796875 225.1096875 235.16796875 224.4296875 235.16796875 C224.38070313 236.2559375 224.33171875 237.34390625 224.28125 238.46484375 C223.85195398 247.1588318 223.12811217 255.60988715 221.4296875 264.16796875 C220.7696875 264.16796875 220.1096875 264.16796875 219.4296875 264.16796875 C219.30851562 265.10898437 219.18734375 266.05 219.0625 267.01953125 C218.89492188 268.26476562 218.72734375 269.51 218.5546875 270.79296875 C218.31105469 272.63761719 218.31105469 272.63761719 218.0625 274.51953125 C217.47485061 277.90758392 216.60980628 280.94495526 215.4296875 284.16796875 C214.7696875 284.16796875 214.1096875 284.16796875 213.4296875 284.16796875 C213.34332031 284.77382813 213.25695312 285.3796875 213.16796875 286.00390625 C212.17731226 291.9114908 210.42486144 296.62168474 207.60546875 301.89453125 C206.22270556 304.56817968 205.26582139 307.27950621 204.4296875 310.16796875 C203.7696875 310.16796875 203.1096875 310.16796875 202.4296875 310.16796875 C201.4396875 313.13796875 200.4496875 316.10796875 199.4296875 319.16796875 C198.7696875 319.16796875 198.1096875 319.16796875 197.4296875 319.16796875 C197.24792969 319.80605469 197.06617188 320.44414062 196.87890625 321.1015625 C196.62753906 321.92785156 196.37617188 322.75414062 196.1171875 323.60546875 C195.87355469 324.42917969 195.62992187 325.25289063 195.37890625 326.1015625 C195.06566406 326.78347656 194.75242187 327.46539062 194.4296875 328.16796875 C193.4396875 328.49796875 192.4496875 328.82796875 191.4296875 329.16796875 C190.72015463 330.81684271 190.06049507 332.48740217 189.4296875 334.16796875 C186.95599138 337.97639299 184.18360124 341.55856348 181.4296875 345.16796875 C180.80449219 346.00199219 180.17929687 346.83601563 179.53515625 347.6953125 C168.14293416 362.27825557 154.11466292 376.25218528 138.7421875 386.60546875 C138.05592285 387.07210938 137.3696582 387.53875 136.66259766 388.01953125 C114.22527156 403.16796875 114.22527156 403.16796875 109.4296875 403.16796875 C109.4296875 403.82796875 109.4296875 404.48796875 109.4296875 405.16796875 C102.8586388 407.9228414 96.28025781 410.65017239 89.65234375 413.265625 C87.76331161 414.03252557 85.90480287 414.87393386 84.0546875 415.73046875 C77.47274678 418.34054869 70.5597073 420.44220028 63.4296875 420.16796875 C63.4296875 420.82796875 63.4296875 421.48796875 63.4296875 422.16796875 C60.26401543 422.81874048 57.09698673 423.46266715 53.9296875 424.10546875 C53.0428125 424.28787109 52.1559375 424.47027344 51.2421875 424.65820312 C49.92734375 424.92407227 49.92734375 424.92407227 48.5859375 425.1953125 C47.39194336 425.43882446 47.39194336 425.43882446 46.17382812 425.68725586 C39.14837813 426.91795969 32.38087012 427.32715681 25.26171875 427.3359375 C23.82671272 427.3409301 23.82671272 427.3409301 22.36271667 427.34602356 C20.34655229 427.35106287 18.33037966 427.35343282 16.31420898 427.35327148 C13.26857352 427.35544988 10.22330555 427.37361565 7.17773438 427.39257812 C-17.97643047 427.46490977 -17.97643047 427.46490977 -24.5703125 424.16796875 C-26.93981771 423.77873348 -29.3160697 423.42991095 -31.6953125 423.10546875 C-32.97664062 422.92886719 -34.25796875 422.75226563 -35.578125 422.5703125 C-36.56554687 422.43753906 -37.55296875 422.30476563 -38.5703125 422.16796875 C-38.5703125 421.50796875 -38.5703125 420.84796875 -38.5703125 420.16796875 C-39.76914062 420.02101563 -39.76914062 420.02101563 -40.9921875 419.87109375 C-52.54331683 418.29840478 -62.85041862 414.62668567 -73.5703125 410.16796875 C-73.5703125 409.50796875 -73.5703125 408.84796875 -73.5703125 408.16796875 C-74.40949219 408.07386719 -75.24867188 407.97976563 -76.11328125 407.8828125 C-80.0502571 407.06872597 -83.34152133 405.55883254 -86.8828125 403.73046875 C-87.51509766 403.41787109 -88.14738281 403.10527344 -88.79882812 402.78320312 C-93.43886845 400.43085685 -93.43886845 400.43085685 -94.5703125 398.16796875 C-96.19948276 397.48914781 -97.82965423 396.81262788 -99.46484375 396.1484375 C-105.22319199 393.46690613 -110.17990261 389.72098642 -114.5703125 385.16796875 C-115.89551753 384.48528737 -117.22843432 383.81726465 -118.5703125 383.16796875 C-119.58275057 382.18056349 -120.58138841 381.17892332 -121.5703125 380.16796875 C-122.62324192 379.2403246 -123.68628114 378.32406178 -124.7578125 377.41796875 C-125.37269531 376.89332031 -125.98757812 376.36867188 -126.62109375 375.828125 C-127.90939403 374.73087526 -129.19844382 373.63450488 -130.48828125 372.5390625 C-135.74073528 368.02048428 -140.98880888 363.37518699 -145.5703125 358.16796875 C-145.5703125 357.50796875 -145.5703125 356.84796875 -145.5703125 356.16796875 C-146.5603125 355.83796875 -147.5503125 355.50796875 -148.5703125 355.16796875 C-150.23228149 353.21895848 -151.75477752 351.29444502 -153.2578125 349.23046875 C-153.88139648 348.40385742 -153.88139648 348.40385742 -154.51757812 347.56054688 C-157.5703125 343.43509467 -157.5703125 343.43509467 -157.5703125 341.16796875 C-158.5603125 340.83796875 -159.5503125 340.50796875 -160.5703125 340.16796875 C-164.01985397 336.35033596 -168.5703125 330.38943974 -168.5703125 325.16796875 C-169.2303125 325.16796875 -169.8903125 325.16796875 -170.5703125 325.16796875 C-172.03932688 322.22993999 -173.50779847 319.29166712 -174.97265625 316.3515625 C-175.91033485 314.48308314 -176.85688613 312.61892581 -177.82421875 310.765625 C-179.65066763 307.25426018 -181.07663123 304.1174189 -181.5703125 300.16796875 C-182.2303125 300.16796875 -182.8903125 300.16796875 -183.5703125 300.16796875 C-183.82425781 299.28753906 -184.07820313 298.40710938 -184.33984375 297.5 C-184.85611328 295.75783203 -184.85611328 295.75783203 -185.3828125 293.98046875 C-185.71925781 292.83191406 -186.05570313 291.68335938 -186.40234375 290.5 C-187.420962 287.20329669 -187.420962 287.20329669 -189.1328125 284.66796875 C-190.91818218 281.562978 -191.29310734 278.89437729 -191.7578125 275.35546875 C-191.91636719 274.19402344 -192.07492188 273.03257812 -192.23828125 271.8359375 C-192.34785156 270.95550781 -192.45742187 270.07507813 -192.5703125 269.16796875 C-193.2303125 269.16796875 -193.8903125 269.16796875 -194.5703125 269.16796875 C-196.09554157 262.74021767 -197.18917018 256.3357949 -198.10546875 249.79296875 C-198.29723971 247.25004972 -198.29723971 247.25004972 -199.5703125 246.16796875 C-200.53301722 239.42818416 -200.73059592 232.80026202 -200.73828125 226 C-200.74160965 224.96155441 -200.74493805 223.92310883 -200.74836731 222.85319519 C-200.75340114 220.67239827 -200.75577674 218.49159374 -200.75561523 216.31079102 C-200.75781291 212.97985259 -200.77603683 209.64923986 -200.79492188 206.31835938 C-200.79785433 204.19140737 -200.79984012 202.06445381 -200.80078125 199.9375 C-200.80796677 198.9467598 -200.81515228 197.95601959 -200.82255554 196.93525696 C-200.80590626 191.89444747 -200.43739715 187.91688683 -198.5703125 183.16796875 C-198.28444611 181.61366962 -198.04489686 180.04991038 -197.859375 178.48046875 C-197.69719482 177.19571655 -197.69719482 177.19571655 -197.53173828 175.88500977 C-197.42071777 174.98838623 -197.30969727 174.0917627 -197.1953125 173.16796875 C-196.03386855 164.50945642 -194.36302258 156.46659122 -191.5703125 148.16796875 C-191.17714844 146.99878906 -190.78398437 145.82960937 -190.37890625 144.625 C-189.15912395 141.11860386 -187.8831514 137.64050869 -186.5703125 134.16796875 C-186.21453125 133.21792969 -185.85875 132.26789063 -185.4921875 131.2890625 C-182.87157192 124.65447588 -179.71047365 118.3159527 -176.4453125 111.98046875 C-176.01323486 111.1294458 -175.58115723 110.27842285 -175.13598633 109.40161133 C-174.71986084 108.60907959 -174.30373535 107.81654785 -173.875 107 C-173.3178833 105.92842651 -173.3178833 105.92842651 -172.74951172 104.83520508 C-171.5703125 103.16796875 -171.5703125 103.16796875 -168.5703125 102.16796875 C-168.42722656 101.08902344 -168.42722656 101.08902344 -168.28125 99.98828125 C-167.46071824 96.73320471 -166.15972376 94.75335898 -164.1953125 92.04296875 C-163.28652344 90.77066406 -163.28652344 90.77066406 -162.359375 89.47265625 C-160.85546891 87.53530998 -159.31025199 85.88319319 -157.5703125 84.16796875 C-157.0340625 83.32234375 -156.4978125 82.47671875 -155.9453125 81.60546875 C-153.33497953 77.56949239 -150.04219989 74.15334115 -146.80078125 70.62109375 C-144.97528044 68.61336256 -143.23015095 66.5755873 -141.5078125 64.48046875 C-138.8486951 61.35509515 -135.90960503 58.7153199 -132.78125 56.06640625 C-129.45000655 53.20600993 -126.26512957 50.18671525 -123.0625 47.18359375 C-120.38101165 45.01486649 -117.6633365 43.66980846 -114.5703125 42.16796875 C-113.8071875 41.40484375 -113.0440625 40.64171875 -112.2578125 39.85546875 C-108.519181 36.11683725 -103.74768152 31.90440568 -98.48046875 30.68359375 C-96.08400291 30.036695 -95.30721438 28.92165229 -93.5703125 27.16796875 C-91.6454421 26.06569254 -89.68224003 25.02900012 -87.6953125 24.04296875 C-86.15230469 23.26566406 -86.15230469 23.26566406 -84.578125 22.47265625 C-81.85923005 21.29329143 -79.48765615 20.60933809 -76.5703125 20.16796875 C-76.5703125 19.50796875 -76.5703125 18.84796875 -76.5703125 18.16796875 C-60.79014301 11.93351216 -45.21622749 5.79378178 -28.30078125 3.56640625 C-24.95301006 3.07789028 -21.81225793 2.12148211 -18.5703125 1.16796875 C-12.35415197 0.20513721 -6.28355969 0.00741627 0 0 Z M-26.5703125 24.16796875 C-26.5703125 24.82796875 -26.5703125 25.48796875 -26.5703125 26.16796875 C-28.4575 26.35359375 -28.4575 26.35359375 -30.3828125 26.54296875 C-39.7488727 27.3442883 -39.7488727 27.3442883 -48.5703125 30.16796875 C-48.5703125 30.82796875 -48.5703125 31.48796875 -48.5703125 32.16796875 C-51.35351562 32.41210938 -51.35351562 32.41210938 -54.13671875 32.65625 C-60.56413433 34.00776114 -66.55373644 37.60451075 -72.36425781 40.54492188 C-75.49800198 42.12923133 -78.6431738 43.67322529 -81.8203125 45.16796875 C-86.75296641 47.64987251 -91.1170411 50.92541178 -95.5703125 54.16796875 C-96.77700431 55.02912168 -97.98405769 55.88976809 -99.19140625 56.75 C-106.72797469 62.15377605 -113.88357331 67.71856753 -120.5703125 74.16796875 C-121.33988281 74.90684326 -121.33988281 74.90684326 -122.125 75.66064453 C-135.64485751 88.70048362 -148.7285469 103.87481198 -156.5703125 121.16796875 C-156.5703125 121.82796875 -156.5703125 122.48796875 -156.5703125 123.16796875 C-157.2303125 123.16796875 -157.8903125 123.16796875 -158.5703125 123.16796875 C-159.57430774 125.79150393 -160.57365695 128.4166467 -161.5703125 131.04296875 C-161.99957031 132.16251953 -161.99957031 132.16251953 -162.4375 133.3046875 C-164.00367898 137.12781886 -164.00367898 137.12781886 -164.5703125 141.16796875 C-165.2303125 141.16796875 -165.8903125 141.16796875 -166.5703125 141.16796875 C-166.75207031 141.72484375 -166.93382812 142.28171875 -167.12109375 142.85546875 C-167.37246094 143.61859375 -167.62382812 144.38171875 -167.8828125 145.16796875 C-168.15480469 145.99554688 -168.42679688 146.823125 -168.70703125 147.67578125 C-169.45831854 149.84465588 -170.30508179 151.92921898 -171.1953125 154.04296875 C-173.08352802 158.92662566 -173.29382118 163.98137301 -173.5703125 169.16796875 C-174.2303125 169.16796875 -174.8903125 169.16796875 -175.5703125 169.16796875 C-177.40927139 176.46971727 -178.18166578 183.60125414 -178.6953125 191.10546875 C-178.7780542 192.30768066 -178.8607959 193.50989258 -178.94604492 194.74853516 C-180.52187902 218.90916531 -180.32506908 244.0809261 -172.24951172 267.16162109 C-170.95740885 270.97847997 -169.87620125 274.85992711 -168.7578125 278.73046875 C-168.33542635 280.16950323 -167.91232773 281.60832891 -167.48828125 283.046875 C-167.18535156 284.07683594 -166.88242188 285.10679687 -166.5703125 286.16796875 C-165.9103125 286.16796875 -165.2503125 286.16796875 -164.5703125 286.16796875 C-162.90364583 291.16796875 -161.23697917 296.16796875 -159.5703125 301.16796875 C-158.9103125 301.16796875 -158.2503125 301.16796875 -157.5703125 301.16796875 C-157.38855469 301.87824219 -157.20679688 302.58851563 -157.01953125 303.3203125 C-156.76816406 304.23941406 -156.51679688 305.15851563 -156.2578125 306.10546875 C-156.01417969 307.02199219 -155.77054688 307.93851562 -155.51953125 308.8828125 C-155.20628906 309.63691406 -154.89304687 310.39101563 -154.5703125 311.16796875 C-153.5803125 311.49796875 -152.5903125 311.82796875 -151.5703125 312.16796875 C-150.6328125 314.23046875 -150.6328125 314.23046875 -149.5703125 317.16796875 C-148.98942609 318.51160788 -148.38327443 319.84449132 -147.7578125 321.16796875 C-147.46261719 321.80734375 -147.16742188 322.44671875 -146.86328125 323.10546875 C-145.12982155 325.87062501 -142.89995359 327.88552733 -140.5703125 330.16796875 C-138.73265997 332.23392849 -136.96441807 334.35572471 -135.1953125 336.48046875 C-134.23236255 337.62940244 -133.26882096 338.77784052 -132.3046875 339.92578125 C-131.83998047 340.47911133 -131.37527344 341.03244141 -130.89648438 341.60253906 C-128.58116638 344.33556907 -126.20127677 347.01088666 -123.8125 349.6796875 C-122.5703125 351.16796875 -122.5703125 351.16796875 -121.5703125 353.16796875 C-119.90692186 354.17340864 -118.23972417 355.17255806 -116.5703125 356.16796875 C-115.03956024 357.44446935 -113.53914356 358.75817829 -112.0703125 360.10546875 C-108.98005057 362.90826446 -105.83805519 365.57299661 -102.5703125 368.16796875 C-102.1165625 368.65523438 -101.6628125 369.1425 -101.1953125 369.64453125 C-99.38558469 371.34115107 -97.69604472 372.20476606 -95.4453125 373.23046875 C-91.68063278 374.94732818 -91.68063278 374.94732818 -90.5703125 377.16796875 C-88.71850884 378.14437432 -86.86053782 379.11094396 -84.97265625 380.015625 C-81.50394716 381.67947733 -78.09342028 383.45640252 -74.671875 385.21484375 C-72.65134097 386.30564794 -72.65134097 386.30564794 -70.5703125 386.16796875 C-70.5703125 386.82796875 -70.5703125 387.48796875 -70.5703125 388.16796875 C-68.02916248 389.12769049 -65.48741793 390.08578369 -62.9453125 391.04296875 C-61.87603516 391.44708984 -61.87603516 391.44708984 -60.78515625 391.859375 C-52.89665232 395.03074768 -52.89665232 395.03074768 -44.5703125 396.16796875 C-44.5703125 396.82796875 -44.5703125 397.48796875 -44.5703125 398.16796875 C-33.89511849 401.19834641 -22.99094988 402.91608391 -12.05883789 404.73486328 C-10.41397407 405.02113704 -8.77535468 405.34627181 -7.14624023 405.71166992 C-1.69766614 406.6768282 3.91227309 406.35887225 9.4296875 406.35546875 C10.43012589 406.35555939 10.43012589 406.35555939 11.45077515 406.35565186 C29.94846173 406.3318107 47.17561143 404.38767969 65.0546875 399.73046875 C65.86164063 399.52615234 66.66859375 399.32183594 67.5 399.11132812 C72.37976947 397.83989468 76.84232889 396.26207192 81.4296875 394.16796875 C83.093901 393.49520159 84.75955332 392.8259004 86.4296875 392.16796875 C86.4296875 391.50796875 86.4296875 390.84796875 86.4296875 390.16796875 C87.05617188 390.03519531 87.68265625 389.90242188 88.328125 389.765625 C89.14539063 389.58902344 89.96265625 389.41242188 90.8046875 389.23046875 C91.61679687 389.05644531 92.42890625 388.88242187 93.265625 388.703125 C95.4591505 388.24466182 95.4591505 388.24466182 97.4296875 387.16796875 C97.4296875 386.50796875 97.4296875 385.84796875 97.4296875 385.16796875 C98.10773438 385.08675781 98.78578125 385.00554687 99.484375 384.921875 C103.25308955 383.95720403 106.2786732 382.13068689 109.5546875 380.10546875 C110.21484863 379.70279785 110.87500977 379.30012695 111.55517578 378.88525391 C117.40363931 375.27300929 122.96498339 371.33771928 128.4296875 367.16796875 C129.17347656 366.61753906 129.91726563 366.06710937 130.68359375 365.5 C141.96236924 357.00560916 151.62078714 347.04708846 161.08081055 336.62133789 C162.24980867 335.36178209 163.47042843 334.15051462 164.69921875 332.94921875 C167.67786398 329.88316406 169.09408384 326.17477974 170.4296875 322.16796875 C171.0896875 322.16796875 171.7496875 322.16796875 172.4296875 322.16796875 C172.6978125 321.68070312 172.9659375 321.1934375 173.2421875 320.69140625 C173.6340625 319.98242188 174.0259375 319.2734375 174.4296875 318.54296875 C175.10257812 317.32480469 175.10257812 317.32480469 175.7890625 316.08203125 C177.00828533 313.91645927 178.24619858 311.76951348 179.5078125 309.62890625 C179.86617188 309.01611816 180.22453125 308.40333008 180.59375 307.77197266 C181.30673251 306.5547089 182.02531925 305.34070696 182.75 304.13037109 C184.67632602 300.82743127 185.94341219 297.9723579 186.4296875 294.16796875 C187.0896875 294.16796875 187.7496875 294.16796875 188.4296875 294.16796875 C188.69523437 293.33652344 188.96078125 292.50507813 189.234375 291.6484375 C189.58757812 290.56175781 189.94078125 289.47507812 190.3046875 288.35546875 C190.65273438 287.27652344 191.00078125 286.19757813 191.359375 285.0859375 C192.4296875 282.16796875 192.4296875 282.16796875 194.4296875 279.16796875 C194.88108209 277.11875935 194.88108209 277.11875935 195.0546875 274.98046875 C195.1784375 273.72234375 195.3021875 272.46421875 195.4296875 271.16796875 C196.0896875 271.16796875 196.7496875 271.16796875 197.4296875 271.16796875 C200.12765969 262.85346327 201.06067843 254.88421744 201.4296875 246.16796875 C202.0896875 246.16796875 202.7496875 246.16796875 203.4296875 246.16796875 C206.69207233 221.67095411 209.52313768 191.58816999 200.16137695 168.12719727 C199.19395783 165.53676068 198.56189399 162.91329367 197.92578125 160.22558594 C197.03957541 156.54992512 195.98084017 152.92422343 194.9296875 149.29296875 C194.61064453 148.15601563 194.61064453 148.15601563 194.28515625 146.99609375 C193.08836817 142.68090987 193.08836817 142.68090987 190.4296875 139.16796875 C189.66709708 137.31437306 188.96485983 135.43546277 188.3046875 133.54296875 C187.95148438 132.54007812 187.59828125 131.5371875 187.234375 130.50390625 C186.96882813 129.73304688 186.70328125 128.9621875 186.4296875 128.16796875 C185.7696875 128.16796875 185.1096875 128.16796875 184.4296875 128.16796875 C183.7696875 125.85796875 183.1096875 123.54796875 182.4296875 121.16796875 C181.7696875 121.16796875 181.1096875 121.16796875 180.4296875 121.16796875 C179.4396875 118.19796875 178.4496875 115.22796875 177.4296875 112.16796875 C176.7696875 112.16796875 176.1096875 112.16796875 175.4296875 112.16796875 C175.17832031 111.45382813 174.92695313 110.7396875 174.66796875 110.00390625 C173.3128176 106.90031088 171.64628168 104.50101414 169.6171875 101.79296875 C167.27959313 98.65367235 164.96192939 95.51654296 162.7421875 92.29296875 C160.50077575 89.26403396 158.1220976 86.79471031 155.4296875 84.16796875 C154.50707153 83.04784262 153.59081202 81.92246195 152.6796875 80.79296875 C149.72696025 77.28326711 146.36897257 74.64053003 142.67578125 71.94140625 C140.4296875 70.16796875 140.4296875 70.16796875 138.06640625 67.77734375 C135.15655911 64.8976728 132.07835005 62.48700449 128.8046875 60.04296875 C125.50226728 57.56615359 122.33921874 55.10477685 119.4296875 52.16796875 C117.03900016 51.0616048 117.03900016 51.0616048 114.4296875 50.16796875 C112.76302083 49.50130208 111.09635417 48.83463542 109.4296875 48.16796875 C109.4296875 47.50796875 109.4296875 46.84796875 109.4296875 46.16796875 C108.01490615 45.51801578 106.59777263 44.87318153 105.1796875 44.23046875 C104.39078125 43.87082031 103.601875 43.51117188 102.7890625 43.140625 C100.67145052 42.26763596 98.66299388 41.65458367 96.4296875 41.16796875 C96.4296875 40.50796875 96.4296875 39.84796875 96.4296875 39.16796875 C93.10052711 37.82402491 89.7660374 36.49395397 86.4296875 35.16796875 C85.28886719 34.70583984 85.28886719 34.70583984 84.125 34.234375 C80.63083627 32.85648779 78.23920685 32.16796875 74.4296875 32.16796875 C74.4296875 31.50796875 74.4296875 30.84796875 74.4296875 30.16796875 C73.48867188 29.90242188 72.54765625 29.636875 71.578125 29.36328125 C69.71027344 28.83347656 69.71027344 28.83347656 67.8046875 28.29296875 C66.57492187 27.94492188 65.34515625 27.596875 64.078125 27.23828125 C61.85279594 26.58545452 59.63992909 25.884652 57.45703125 25.1015625 C53.87288537 23.99625816 50.33095379 23.50409488 46.6171875 23.10546875 C45.87509033 23.02312988 45.13299316 22.94079102 44.3684082 22.85595703 C21.52117815 20.42104067 -4.11352042 18.48480024 -26.5703125 24.16796875 Z " fill="#F7F7F7" transform="translate(291.5703125,93.83203125)"/>
<path d="M0 0 C11.3261163 -0.02312255 22.65222703 -0.04091464 33.97836208 -0.05181217 C39.23696664 -0.05704119 44.4955551 -0.06413918 49.75415039 -0.07543945 C54.82453127 -0.08626766 59.89489662 -0.09227669 64.96528816 -0.09487724 C66.90426948 -0.09673161 68.84324991 -0.10035245 70.78222466 -0.10573006 C73.4882176 -0.1129396 76.19414556 -0.11399098 78.90014648 -0.11352539 C80.11502495 -0.1189183 80.11502495 -0.1189183 81.35444641 -0.12442017 C86.88594784 -0.11405216 86.88594784 -0.11405216 88 1 C88.08865208 3.8843382 88.11521296 6.74462158 88.09765625 9.62890625 C88.0962413 10.49313705 88.09482635 11.35736786 88.09336853 12.24778748 C88.08775239 15.01939292 88.07519719 17.7909188 88.0625 20.5625 C88.05748708 22.4368478 88.05292381 24.31119685 88.04882812 26.18554688 C88.03777772 30.79039544 88.0205023 35.39518421 88 40 C84.37 40 80.74 40 77 40 C76.87882812 39.09636719 76.75765625 38.19273437 76.6328125 37.26171875 C76.46523438 36.08222656 76.29765625 34.90273437 76.125 33.6875 C75.96257812 32.51574219 75.80015625 31.34398437 75.6328125 30.13671875 C75.17699379 26.85469105 75.17699379 26.85469105 73 24 C69.85037564 22.95012521 67.55212584 22.84406158 64.2434082 22.79467773 C63.06241043 22.77473251 61.88141266 22.75478729 60.66462708 22.73423767 C59.38955795 22.71752518 58.11448883 22.70081268 56.80078125 22.68359375 C55.49545944 22.66281265 54.19013763 22.64203156 52.84526062 22.62062073 C49.37817647 22.56547727 45.91103354 22.51603405 42.44384766 22.46777344 C38.90456931 22.4175019 35.36537611 22.36184537 31.82617188 22.30664062 C24.88418844 22.19915362 17.94212806 22.09768773 11 22 C11.01142029 23.27047684 11.01142029 23.27047684 11.02307129 24.56661987 C11.05518728 30.72464315 10.98382552 36.75860279 10.34375 42.8828125 C10.27716187 43.54860321 10.21057373 44.21439392 10.14196777 44.90036011 C9.93404993 46.97591493 9.71803619 49.05048567 9.5 51.125 C8.56182463 60.09748261 7.74218981 68.96470761 8 78 C8.76948975 77.78778809 9.53897949 77.57557617 10.33178711 77.35693359 C18.85716339 75.17591939 26.78458151 74.54153326 35.5625 74.625 C36.78646484 74.61339844 38.01042969 74.60179687 39.27148438 74.58984375 C55.44709688 74.64149552 71.17144041 79.32883842 83.0390625 90.77734375 C95.68068986 105.10620026 98.12124204 121.59394781 97 140 C96.41017191 143.88264791 95.39731023 147.33769496 94 151 C93.6596875 151.98226562 93.319375 152.96453125 92.96875 153.9765625 C88.22584768 166.63498424 79.65533543 176.47630553 67.63671875 182.7578125 C55.87695231 188.07862486 45.00800802 189.37250645 32.1875 189.3125 C30.95080566 189.30758545 29.71411133 189.3026709 28.43994141 189.29760742 C14.46781161 189.11791046 0.68130256 187.58399491 -9.9375 177.5625 C-14.8217273 172.19445773 -16.57728278 167.6477775 -16.359375 160.40234375 C-15.82800952 156.85028101 -14.30316688 154.69799549 -12 152 C-11.566875 151.46632813 -11.13375 150.93265625 -10.6875 150.3828125 C-8.41403201 148.51983179 -6.71718993 148.50111623 -3.8125 148.3125 C-2.91144531 148.24675781 -2.01039063 148.18101562 -1.08203125 148.11328125 C-0.05142578 148.05720703 -0.05142578 148.05720703 1 148 C1.10957031 148.58007812 1.21914063 149.16015625 1.33203125 149.7578125 C3.103107 158.48360035 5.91866311 164.38957642 13.375 169.6875 C19.41508832 172.70754416 25.18737208 173.36163742 31.8125 173.3125 C32.60640137 173.30686035 33.40030273 173.3012207 34.21826172 173.29541016 C43.99784013 173.09337755 51.86792156 171.00937601 59 164 C64.17051863 157.98531506 66.41708089 151.69015178 68 144 C68.226875 142.906875 68.45375 141.81375 68.6875 140.6875 C69.89987697 126.38145177 69.25599119 112.6687889 60 101 C57.51077156 98.64989011 54.91390323 96.78632357 52 95 C51.113125 94.4225 50.22625 93.845 49.3125 93.25 C40.98011026 90.10570199 31.83525614 89.5630167 23 90 C22.03191406 90.04125 21.06382812 90.0825 20.06640625 90.125 C14.15793149 90.48628253 8.86443292 91.38259461 3.25390625 93.28125 C-3.23293429 95.34984386 -3.23293429 95.34984386 -6.15405273 94.01757812 C-6.76321533 93.68177734 -7.37237793 93.34597656 -8 93 C-8.276994 83.51872134 -7.40965085 74.18779342 -6.50390625 64.765625 C-6.34896284 63.11663478 -6.19442409 61.46760649 -6.04026794 59.81854248 C-5.71802226 56.38246988 -5.39247104 52.94673344 -5.06420898 49.51123047 C-4.64483708 45.1217025 -4.23142834 40.73163975 -3.82019138 36.34134293 C-3.50170459 32.94390645 -3.18127887 29.54665527 -2.86015129 26.14946747 C-2.70715043 24.53087055 -2.5544623 22.91224403 -2.40210152 21.29358673 C-2.18854533 19.03051225 -1.97267725 16.76767027 -1.75610352 14.50488281 C-1.57290306 12.5794162 -1.57290306 12.5794162 -1.38600159 10.61505127 C-1.00618118 7.0578891 -0.52840477 3.53746786 0 0 Z " fill="#050505" transform="translate(339,213)"/>
<path d="M0 0 C7.3447819 6.78400712 12.08838895 16.11317082 13.12890625 26.078125 C14.14304443 54.33097464 -2.80662405 76.91573631 -21.21484375 96.8125 C-22.90161743 98.60485049 -24.58902398 100.3966058 -26.27734375 102.1875 C-27.45207707 103.5137317 -28.61961639 104.84639738 -29.77734375 106.1875 C-33.18479294 110.11917214 -36.70864048 113.94111244 -40.23266602 117.76782227 C-42.76474491 120.52223428 -45.26769643 123.29492499 -47.71484375 126.125 C-50.82699184 129.71709382 -54.04621469 133.20287139 -57.27734375 136.6875 C-65.61021805 145.65556842 -65.61021805 145.65556842 -73.27734375 155.1875 C-64.94061936 155.28046287 -56.60411403 155.35139722 -48.26699829 155.39474869 C-44.39509685 155.41556256 -40.52355183 155.4437651 -36.65185547 155.48925781 C-32.91059907 155.53293929 -29.16968401 155.55668367 -25.42819214 155.56700897 C-24.00571322 155.57436064 -22.58325152 155.58871638 -21.16091919 155.61042023 C-13.11926504 155.72817349 -7.09355117 155.68688121 -0.27734375 151.1875 C3.48961015 147.52656964 4.65636393 143.90511707 5.97265625 138.875 C6.3078125 137.62074219 6.64296875 136.36648438 6.98828125 135.07421875 C7.35179687 133.64529297 7.35179687 133.64529297 7.72265625 132.1875 C11.35265625 132.1875 14.98265625 132.1875 18.72265625 132.1875 C18.72265625 147.0375 18.72265625 161.8875 18.72265625 177.1875 C-18.56734375 177.1875 -55.85734375 177.1875 -94.27734375 177.1875 C-94.27734375 155.49063015 -94.27734375 155.49063015 -86.66333008 147.3034668 C-86.1092749 146.79468994 -85.55521973 146.28591309 -84.984375 145.76171875 C-81.31512153 142.27425358 -78.04545238 138.54821899 -74.77734375 134.6875 C-73.70080091 133.44264042 -72.6226707 132.19915184 -71.54296875 130.95703125 C-69.32160488 128.39417612 -67.10322847 125.82877292 -64.88671875 123.26171875 C-63.76700537 121.96607818 -62.64721444 120.67050461 -61.52734375 119.375 C-60.98078125 118.74190918 -60.43421875 118.10881836 -59.87109375 117.45654297 C-56.89559684 114.0197357 -53.8685729 110.6462891 -50.77734375 107.3125 C-31.91301392 86.43689971 -15.20616437 62.92825633 -14.90234375 33.9375 C-14.8883252 33.01461182 -14.87430664 32.09172363 -14.85986328 31.14086914 C-14.92060969 22.4673726 -16.82201753 15.08688316 -22.27734375 8.1875 C-29.00346648 1.81538373 -36.63539484 1.65129981 -45.41796875 1.87890625 C-52.09034949 2.41242657 -55.9514441 4.54499864 -60.52734375 9.3125 C-67.3952624 18.17734065 -68.26027386 28.40120619 -69.27734375 39.1875 C-75.98388422 39.74226897 -81.1317987 39.75930689 -86.68359375 35.65234375 C-90.89419024 31.78231022 -91.48228495 27.94139152 -91.71484375 22.4375 C-91.44591538 13.38357831 -88.41184617 6.48197188 -82.1796875 -0.06640625 C-61.96612349 -18.61971859 -20.61553073 -16.4075579 0 0 Z " fill="#020202" transform="translate(270.27734375,222.8125)"/>
<path d="M0 0 C0.90380859 2.18969727 0.90380859 2.18969727 1.6484375 5.06640625 C1.93203125 6.10990234 2.215625 7.15339844 2.5078125 8.22851562 C3.07878089 10.42365763 3.6491101 12.618966 4.21875 14.81445312 C5.78057928 20.55874867 7.41733623 25.40259793 10.86279297 30.29052734 C12.09756722 32.14666502 12.91977023 33.99711956 13.75 36.0625 C17.15331206 44.08759386 22.16205809 51.39236642 26.72265625 58.796875 C28 61 28 61 28.875 63.5 C29.89634455 66.16543077 29.89634455 66.16543077 32.2734375 68.26953125 C35.06023998 71.06032628 37.40899651 74.02948299 39.75 77.1875 C43.67431186 82.42813349 47.86720529 87.21848848 52.48046875 91.87890625 C54 94 54 94 53.87109375 96.16796875 C52.57137769 98.9014523 50.37999274 100.13739699 48 102 C46.17970248 103.97406695 44.44087522 106.00660688 42.6953125 108.046875 C40.5768906 110.48745323 38.31483967 112.74607716 36 115 C35.113125 115.928125 34.22625 116.85625 33.3125 117.8125 C31 120 31 120 29 120 C28.76023437 120.56074219 28.52046875 121.12148438 28.2734375 121.69921875 C26.72425601 124.49820004 24.85424315 126.5203048 22.625 128.8125 C21.46871094 130.02873047 21.46871094 130.02873047 20.2890625 131.26953125 C18 133 18 133 15.7109375 132.76171875 C15.14632812 132.51035156 14.58171875 132.25898438 14 132 C14 131.01 14 130.02 14 129 C13.13375 128.62875 13.13375 128.62875 12.25 128.25 C9.65091342 126.80606301 7.92163162 125.26478013 6 123 C6 122.01 6 121.02 6 120 C5.44699219 119.79117188 4.89398438 119.58234375 4.32421875 119.3671875 C1.1644007 117.508471 -0.89976818 114.92671562 -3.1875 112.125 C-3.63802734 111.59519531 -4.08855469 111.06539063 -4.55273438 110.51953125 C-6.81135638 107.7902219 -8.55947629 105.57601597 -9 102 C-9.66 102 -10.32 102 -11 102 C-12.5859375 99.83984375 -12.5859375 99.83984375 -14.375 96.9375 C-14.99246094 95.9371875 -15.60992187 94.936875 -16.24609375 93.90625 C-16.82488281 92.9471875 -17.40367188 91.988125 -18 91 C-18.44472656 90.2678125 -18.88945313 89.535625 -19.34765625 88.78125 C-22 84.29413082 -22 84.29413082 -22 82 C-22.66 82 -23.32 82 -24 82 C-25.23021044 79.53957912 -26.46007969 77.0790021 -27.6875 74.6171875 C-28.71393979 72.57041768 -29.75955976 70.53326392 -30.8125 68.5 C-32 66 -32 66 -32 64 C-32.66 64 -33.32 64 -34 64 C-35.485 59.05 -35.485 59.05 -37 54 C-37.66 54 -38.32 54 -39 54 C-40.32861274 50.83986097 -41.63484136 47.67091607 -42.9375 44.5 C-43.31068359 43.613125 -43.68386719 42.72625 -44.06835938 41.8125 C-46.25145868 36.46292332 -47.5754545 31.76842779 -48 26 C-48.66 26 -49.32 26 -50 26 C-50.50692692 24.4188708 -51.00526443 22.83498617 -51.5 21.25 C-51.91765625 19.92742187 -51.91765625 19.92742187 -52.34375 18.578125 C-53 16 -53 16 -53 12 C-49.89688362 11.32838005 -46.79234832 10.66356325 -43.6875 10 C-42.80642578 9.80921875 -41.92535156 9.6184375 -41.01757812 9.421875 C-40.17001953 9.24140625 -39.32246094 9.0609375 -38.44921875 8.875 C-37.66893311 8.70742188 -36.88864746 8.53984375 -36.0847168 8.3671875 C-34 8 -34 8 -31 8 C-31 7.34 -31 6.68 -31 6 C-23.65896942 3.74231361 -16.6700283 2.4302337 -9 2 C-9 1.34 -9 0.68 -9 0 C-3.375 -1.125 -3.375 -1.125 0 0 Z " fill="#FAFAFA" transform="translate(82,373)"/>
<path d="M0 0 C2.80386405 -0.0021928 5.60733763 -0.02042834 8.41113281 -0.03930664 C16.91775857 -0.06537311 25.07861786 0.04765311 33.45605469 1.71972656 C36.48685737 2.31928473 39.47622237 2.49367776 42.55957031 2.62280273 C50.4600752 3.10001444 58.07423005 4.5880052 65.80957031 6.18530273 C65.80957031 6.84530273 65.80957031 7.50530273 65.80957031 8.18530273 C67.78957031 8.51530273 69.76957031 8.84530273 71.80957031 9.18530273 C70.74179367 16.35064601 69.37813046 23.42764154 67.80957031 30.49780273 C67.64360352 31.24980957 67.47763672 32.00181641 67.30664062 32.77661133 C66.28987921 37.29610583 65.10896603 41.7369682 63.80957031 46.18530273 C63.06414958 49.03280994 62.32343548 51.88134916 61.59082031 54.73217773 C60.80957031 57.18530273 60.80957031 57.18530273 58.80957031 60.18530273 C57.12142794 60.06930018 55.43406144 59.94199249 53.74707031 59.81030273 C52.80734375 59.74069336 51.86761719 59.67108398 50.89941406 59.59936523 C47.80957031 59.18530273 47.80957031 59.18530273 44.68457031 58.21655273 C39.53130024 56.66937508 34.21423196 56.44533409 28.87207031 56.06030273 C27.16519043 55.93401489 27.16519043 55.93401489 25.42382812 55.80517578 C10.26546168 54.77107931 -4.91160407 54.64027307 -20.05371094 55.96264648 C-25.42922409 56.34422089 -30.80478285 56.26581905 -36.19042969 56.18530273 C-36.19042969 56.84530273 -36.19042969 57.50530273 -36.19042969 58.18530273 C-41.92740476 59.47814219 -47.29671516 60.56149728 -53.19042969 60.18530273 C-55.27711739 58.09861503 -55.23251725 54.17381616 -55.75292969 51.31030273 C-55.96079102 50.21008789 -55.96079102 50.21008789 -56.17285156 49.08764648 C-56.72931054 46.07783387 -57.19042969 43.25272429 -57.19042969 40.18530273 C-57.85042969 40.18530273 -58.51042969 40.18530273 -59.19042969 40.18530273 C-59.86727267 37.14580971 -60.5300484 34.10341109 -61.19042969 31.06030273 C-61.47660156 29.77639648 -61.47660156 29.77639648 -61.76855469 28.46655273 C-62.73963301 23.95797479 -63.43402544 19.8288467 -63.19042969 15.18530273 C-63.85042969 15.18530273 -64.51042969 15.18530273 -65.19042969 15.18530273 C-65.52042969 12.87530273 -65.85042969 10.56530273 -66.19042969 8.18530273 C-53.96455214 4.98481123 -42.88090687 2.82214123 -30.19042969 3.18530273 C-30.19042969 2.52530273 -30.19042969 1.86530273 -30.19042969 1.18530273 C-20.13511155 0.05459991 -10.10431222 -0.00088355 0 0 Z " fill="#FAFAFA" transform="translate(301.1904296875,20.814697265625)"/>
<path d="M0 0 C3.67323405 1.96010916 5.81203349 4.57504462 8.41796875 7.76953125 C8.90330078 8.33865234 9.38863281 8.90777344 9.88867188 9.49414062 C12.57539097 12.72190936 14.16742384 15.53871319 15.73046875 19.45703125 C16.72046875 19.78703125 17.71046875 20.11703125 18.73046875 20.45703125 C19.74255843 22.18737813 20.74918466 23.92204357 21.69140625 25.69140625 C22.73559141 27.63456172 22.73559141 27.63456172 24.79296875 29.51953125 C26.73046875 31.45703125 26.73046875 31.45703125 28.16796875 34.39453125 C29.90546351 37.80002097 32.00765554 39.80228837 34.73046875 42.45703125 C36.3677577 44.85449008 37.56560781 46.75637227 38.23046875 49.58203125 C38.58618293 51.56782936 38.58618293 51.56782936 40.23046875 52.89453125 C42.19619953 54.94216748 42.35715436 56.69450474 42.73046875 59.45703125 C43.39046875 59.45703125 44.05046875 59.45703125 44.73046875 59.45703125 C45.38139465 60.70438692 46.02598544 61.95504957 46.66796875 63.20703125 C47.20744141 64.25117188 47.20744141 64.25117188 47.7578125 65.31640625 C48.73046875 67.45703125 48.73046875 67.45703125 49.234375 69.66015625 C49.39808594 70.253125 49.56179688 70.84609375 49.73046875 71.45703125 C50.39046875 71.78703125 51.05046875 72.11703125 51.73046875 72.45703125 C53.68512759 76.44152812 54.73046875 78.97977841 54.73046875 83.45703125 C55.39046875 83.45703125 56.05046875 83.45703125 56.73046875 83.45703125 C56.98441406 84.25367188 57.23835937 85.0503125 57.5 85.87109375 C59.61888073 92.45718082 59.61888073 92.45718082 62.41796875 98.76953125 C64.00166493 102.01233772 64.24633576 104.88655041 64.73046875 108.45703125 C65.45812652 110.81306912 66.26318319 113.12551289 67.109375 115.44140625 C67.73046875 117.45703125 67.73046875 117.45703125 67.73046875 120.45703125 C61.72696217 122.1845709 55.72604205 123.69965261 49.60546875 124.95703125 C45.76397735 125.75440028 42.09510692 126.59144029 38.41796875 127.95703125 C31.47982801 130.45952858 23.98464139 131.28270479 16.73046875 132.45703125 C16.73046875 131.79703125 16.73046875 131.13703125 16.73046875 130.45703125 C16.07046875 130.45703125 15.41046875 130.45703125 14.73046875 130.45703125 C14.46492187 129.32523438 14.199375 128.1934375 13.92578125 127.02734375 C13.56938435 125.54548293 13.21259299 124.06371695 12.85546875 122.58203125 C12.68144531 121.83566406 12.50742187 121.08929688 12.328125 120.3203125 C11.34122996 115.96819454 11.34122996 115.96819454 8.73046875 112.45703125 C8.33139135 111.07336874 7.9855918 109.67413095 7.66796875 108.26953125 C6.04593813 102.42168402 3.05588837 97.68131313 -0.22094727 92.63598633 C-2.41770649 89.19130497 -3.26953125 87.65683939 -3.26953125 83.45703125 C-3.92953125 83.45703125 -4.58953125 83.45703125 -5.26953125 83.45703125 C-5.94108058 82.16789638 -6.60661984 80.87562921 -7.26953125 79.58203125 C-7.64078125 78.86273438 -8.01203125 78.1434375 -8.39453125 77.40234375 C-9.26953125 75.45703125 -9.26953125 75.45703125 -9.26953125 73.45703125 C-9.92953125 73.45703125 -10.58953125 73.45703125 -11.26953125 73.45703125 C-12.75 71.3671875 -12.75 71.3671875 -14.45703125 68.51953125 C-17.33965344 63.8261863 -20.45304793 59.55410141 -23.984375 55.33203125 C-25.26953125 53.45703125 -25.26953125 53.45703125 -25.26953125 50.45703125 C-25.84703125 50.20953125 -26.42453125 49.96203125 -27.01953125 49.70703125 C-29.59893104 48.27403137 -31.33074717 46.67278449 -33.26953125 44.45703125 C-33.26953125 43.79703125 -33.26953125 43.13703125 -33.26953125 42.45703125 C-34.25953125 42.12703125 -35.24953125 41.79703125 -36.26953125 41.45703125 C-38.01953125 40.14453125 -38.01953125 40.14453125 -39.26953125 38.45703125 C-38.86173246 34.99330979 -37.49744938 33.31362913 -35.06665039 30.89770508 C-34.39247574 30.22052933 -33.71830109 29.54335358 -33.0236969 28.84565735 C-32.2914238 28.12573105 -31.5591507 27.40580475 -30.8046875 26.6640625 C-30.05618027 25.91742844 -29.30767303 25.17079437 -28.53648376 24.40153503 C-26.95368001 22.82545175 -25.36728353 21.2529695 -23.77758789 19.68383789 C-21.33805274 17.2754758 -18.90936665 14.85658967 -16.48242188 12.43554688 C-14.94463217 10.90692635 -13.40624096 9.37891064 -11.8671875 7.8515625 C-11.13693863 7.12556351 -10.40668976 6.39956451 -9.65431213 5.65156555 C-8.97698532 4.98384628 -8.29965851 4.31612701 -7.60180664 3.62817383 C-7.00525772 3.03845291 -6.4087088 2.44873199 -5.79408264 1.84114075 C-3.63793768 -0.11637983 -2.90040749 -0.69390127 0 0 Z " fill="#FAFAFA" transform="translate(511.26953125,109.54296875)"/>
<path d="M0 0 C3.19588316 0.03448795 6.13691725 0.34672931 9.25 1.125 C9.25 1.785 9.25 2.445 9.25 3.125 C31.987617 4.67337345 54.34924035 5.88961413 77.125 4.25 C78.77616821 4.13253418 78.77616821 4.13253418 80.46069336 4.01269531 C85.98976976 3.56622956 90.98690419 2.88409402 96.25 1.125 C100.30167925 0.11208019 104.07788879 0.0431939 108.25 0.125 C108.75692692 1.7061292 109.25526443 3.29001383 109.75 4.875 C110.0284375 5.75671875 110.306875 6.6384375 110.59375 7.546875 C111.25 10.125 111.25 10.125 111.25 14.125 C111.91 14.125 112.57 14.125 113.25 14.125 C113.58776684 15.8741497 113.92003671 17.62436145 114.25 19.375 C114.435625 20.34953125 114.62125 21.3240625 114.8125 22.328125 C115.25 25.125 115.25 25.125 115.25 29.125 C115.91 29.125 116.57 29.125 117.25 29.125 C117.73164188 31.47868393 118.21036648 33.83290155 118.6875 36.1875 C118.82220703 36.84427734 118.95691406 37.50105469 119.09570312 38.17773438 C119.96470632 42.48035995 120.6672492 46.77417124 121.25 51.125 C114.98046928 54.36884192 108.49287518 55.33590427 101.5637207 56.43261719 C99.58311569 56.74673046 97.60500018 57.07641188 95.62695312 57.40625 C82.12401425 59.60361424 68.99127909 60.28899808 55.34130859 60.25537109 C52.7548232 60.25001 50.1685114 60.2553469 47.58203125 60.26171875 C38.7560966 60.26489172 30.03467273 60.09591423 21.25 59.125 C21.25 58.465 21.25 57.805 21.25 57.125 C20.6521167 57.14022705 20.0542334 57.1554541 19.43823242 57.17114258 C13.03182376 57.26237014 6.89668796 56.73844311 0.5625 55.8125 C-0.33533203 55.69455078 -1.23316406 55.57660156 -2.15820312 55.45507812 C-7.49531 54.69263429 -11.90175151 53.49274926 -16.75 51.125 C-16.42 48.155 -16.09 45.185 -15.75 42.125 C-15.09 42.125 -14.43 42.125 -13.75 42.125 C-13.61335937 41.1246875 -13.47671875 40.124375 -13.3359375 39.09375 C-12.78486741 35.24979445 -12.10784191 31.43892993 -11.375 27.625 C-11.14039063 26.3771875 -10.90578125 25.129375 -10.6640625 23.84375 C-9.75 20.125 -9.75 20.125 -8.21875 16.5546875 C-6.78132991 13.19815867 -6.12382866 10.35063594 -5.625 6.75 C-4.69240838 0.15641361 -4.69240838 0.15641361 0 0 Z " fill="#FAFAFA" transform="translate(251.75,533.875)"/>
<path d="M0 0 C5.56890517 0.47986031 10.67067568 1.29915181 16 3 C16 3.66 16 4.32 16 5 C17.3921875 4.87625 17.3921875 4.87625 18.8125 4.75 C22.23835147 4.74316197 24.82149145 5.5629518 28 6.8125 C33.82375914 9.09030871 39.58965475 10.25289369 45.71484375 11.38671875 C48.17892265 11.84671921 50.58127069 12.35136833 53 13 C53 13.99 53 14.98 53 16 C52.34 16 51.68 16 51 16 C50.814375 17.4540625 50.814375 17.4540625 50.625 18.9375 C50.00136191 23.34815777 49.01253494 27.66477759 48 32 C47.34 32 46.68 32 46 32 C45.896875 33.010625 45.79375 34.02125 45.6875 35.0625 C44.96295233 39.21218208 43.77730734 42.21356263 42 46 C41.34 46 40.68 46 40 46 C39.9175 46.78375 39.835 47.5675 39.75 48.375 C38.75634931 53.177645 36.91286482 57.49809489 35 62 C34.34 62 33.68 62 33 62 C32.7834375 63.423125 32.7834375 63.423125 32.5625 64.875 C32 68 32 68 31 70 C30.34 70 29.68 70 29 70 C28.81824219 70.59167969 28.63648438 71.18335938 28.44921875 71.79296875 C25.74149491 80.30494164 25.74149491 80.30494164 23 84 C22.34 84 21.68 84 21 84 C20.67 85.65 20.34 87.3 20 89 C19.34 89 18.68 89 18 89 C17.77183594 89.68191406 17.54367187 90.36382812 17.30859375 91.06640625 C15.67966189 94.71813112 13.45074077 97.75938541 11.0625 100.9375 C10.57813477 101.58920166 10.09376953 102.24090332 9.59472656 102.91235352 C-9.78407127 128.85604751 -9.78407127 128.85604751 -16 133 C-18.5625 132.875 -18.5625 132.875 -21 132 C-22.0625 130.0625 -22.0625 130.0625 -23 128 C-24.32407669 127.31513275 -25.65909241 126.65129797 -27 126 C-31.83347211 121.72855953 -31.83347211 121.72855953 -32.5 118.8125 C-32.665 118.214375 -32.83 117.61625 -33 117 C-34.6635479 116.32558869 -36.33066942 115.6599679 -38 115 C-42 110.67567568 -42 110.67567568 -42 108 C-42.66 108 -43.32 108 -44 108 C-44 107.34 -44 106.68 -44 106 C-44.99 105.67 -45.98 105.34 -47 105 C-47 104.34 -47 103.68 -47 103 C-47.66 103 -48.32 103 -49 103 C-49 102.34 -49 101.68 -49 101 C-50.65 100.34 -52.3 99.68 -54 99 C-53.48688395 94.52626947 -51.90923036 92.25900059 -49 88.875 C-48.19175781 87.92238281 -47.38351562 86.96976562 -46.55078125 85.98828125 C-45.70902344 85.00214844 -44.86726563 84.01601563 -44 83 C-42.39203608 81.02391715 -40.78771851 79.04486024 -39.1875 77.0625 C-37.1652778 74.56142737 -35.19795854 72.19030269 -32.87890625 69.9609375 C-30.90469232 67.90053127 -29.9198581 66.15102931 -28.75 63.5625 C-26.11503803 58.02907986 -22.9488745 52.95320621 -19.671875 47.78515625 C-17.89995073 45.06173848 -17.89995073 45.06173848 -17 42 C-16.34 42 -15.68 42 -15 42 C-14.80664062 41.33613281 -14.61328125 40.67226563 -14.4140625 39.98828125 C-11.82776801 31.21792619 -11.82776801 31.21792619 -10 27 C-9.34 27 -8.68 27 -8 27 C-7.81824219 26.2265625 -7.63648438 25.453125 -7.44921875 24.65625 C-5.98006041 18.56866055 -4.27236539 12.82911123 -2 7 C-1.2806523 4.67766145 -0.63570027 2.347201 0 0 Z " fill="#FAFAFA" transform="translate(527,372)"/>
<path d="M0 0 C3.50460719 0.5839804 5.16929135 1.79083458 7.66699219 4.27880859 C8.36741638 4.96977631 9.06784058 5.66074402 9.78948975 6.37265015 C10.53442688 7.12365997 11.27936401 7.8746698 12.046875 8.6484375 C12.81807678 9.4167691 13.58927856 10.18510071 14.3838501 10.97671509 C16.01138312 12.60220705 17.63513539 14.23149203 19.25537109 15.86425781 C21.74381098 18.36877101 24.24785082 20.85687733 26.75390625 23.34375 C28.33169219 24.92351793 29.9085475 26.504216 31.484375 28.0859375 C32.23740906 28.83289886 32.99044312 29.57986023 33.76629639 30.34945679 C34.45411194 31.04672882 35.14192749 31.74400085 35.85058594 32.46240234 C36.46029236 33.07449554 37.06999878 33.68658875 37.69818115 34.31723022 C39 36 39 36 39 39 C37.91821668 40.1515758 36.8216791 41.29111027 35.67578125 42.37890625 C29.23050293 48.61384915 23.79283265 55.38455641 18.91894531 62.88476562 C17.99250393 64.28836232 17.00159758 65.64900792 16 67 C15.34 67 14.68 67 14 67 C13.72800781 67.72703125 13.45601563 68.4540625 13.17578125 69.203125 C12.0387113 71.90791598 10.73036147 74.25862476 9.1875 76.75 C0.2515156 91.24886637 0.2515156 91.24886637 -6 107 C-6.66 107 -7.32 107 -8 107 C-8.25394531 108.05058594 -8.50789063 109.10117188 -8.76953125 110.18359375 C-12.83600933 126.86052215 -12.83600933 126.86052215 -15 132 C-18.55877632 133.69738871 -21.69626864 132.55968932 -25.375 131.625 C-29.57341833 130.57293733 -33.72096022 129.65930824 -38 129 C-38 128.34 -38 127.68 -38 127 C-38.95003906 126.87753906 -39.90007813 126.75507813 -40.87890625 126.62890625 C-45.61148801 125.95282314 -50.26580107 124.94289224 -54.9375 123.9375 C-55.81212891 123.75123047 -56.68675781 123.56496094 -57.58789062 123.37304688 C-59.72570528 122.91744703 -61.86291582 122.45901408 -64 122 C-64 121.34 -64 120.68 -64 120 C-64.99 120 -65.98 120 -67 120 C-67.125 113.375 -67.125 113.375 -66 110 C-65.34 110 -64.68 110 -64 110 C-63.83177734 108.72382813 -63.83177734 108.72382813 -63.66015625 107.421875 C-61.2801368 92.7995333 -54.61344114 80.12142878 -48 67 C-47.34 67 -46.68 67 -46 67 C-45.896875 66.113125 -45.79375 65.22625 -45.6875 64.3125 C-44.98284093 60.9173245 -44.0445434 58.78057902 -42 56 C-41.34 56 -40.68 56 -40 56 C-39.92652344 55.3296875 -39.85304688 54.659375 -39.77734375 53.96875 C-38.73314236 49.98084518 -36.77395012 46.950028 -34.5625 43.5 C-34.11656494 42.79657471 -33.67062988 42.09314941 -33.21118164 41.3684082 C-28.85419179 34.59775151 -24.04879227 28.26439233 -19 22 C-18.24847656 21.05511719 -17.49695313 20.11023438 -16.72265625 19.13671875 C-11.39664271 12.51898313 -5.77105235 6.22888114 0 0 Z " fill="#FBFBFB" transform="translate(97,109)"/>
<path d="M0 0 C0 4.31618166 -2.13270348 5.92789659 -5 9 C-5.66 9 -6.32 9 -7 9 C-7.268125 9.639375 -7.53625 10.27875 -7.8125 10.9375 C-9 13 -9 13 -12 14 C-13.10836423 15.88316159 -13.10836423 15.88316159 -14 18 C-14.66 18.99 -15.32 19.98 -16 21 C-16.66 21 -17.32 21 -18 21 C-17.43379699 17.22531329 -15.87731019 15.52448107 -13.18359375 12.890625 C-12.41982422 12.13652344 -11.65605469 11.38242188 -10.86914062 10.60546875 C-10.06669922 9.82816406 -9.26425781 9.05085937 -8.4375 8.25 C-7.63119141 7.45722656 -6.82488281 6.66445312 -5.99414062 5.84765625 C-4.00266222 3.89152954 -2.00452279 1.94274281 0 0 Z " fill="#C1C1C1" transform="translate(490,127)"/>
<path d="M0 0 C0.66 0.33 1.32 0.66 2 1 C0.27227744 2.89716645 -1.45712734 4.79275305 -3.1875 6.6875 C-3.67025391 7.21794922 -4.15300781 7.74839844 -4.65039062 8.29492188 C-9.47950762 13.57778141 -14.44801339 18.48094113 -20 23 C-18.64763423 20.06120516 -17.10057341 17.70767089 -15 15.25 C-14.484375 14.63640625 -13.96875 14.0228125 -13.4375 13.390625 C-12 12 -12 12 -10 12 C-9.773125 11.443125 -9.54625 10.88625 -9.3125 10.3125 C-7.63281165 7.3530491 -5.45866715 5.33873216 -3 3 C-2.401875 2.401875 -1.80375 1.80375 -1.1875 1.1875 C-0.795625 0.795625 -0.40375 0.40375 0 0 Z " fill="#97B397" transform="translate(95,88)"/>
<path d="M0 0 C0 0.66 0 1.32 0 2 C-0.93972656 2.18175781 -0.93972656 2.18175781 -1.8984375 2.3671875 C-2.71570313 2.53476562 -3.53296875 2.70234375 -4.375 2.875 C-5.18710938 3.03742187 -5.99921875 3.19984375 -6.8359375 3.3671875 C-9.18673923 3.86658932 -9.18673923 3.86658932 -11 6 C-11 5.34 -11 4.68 -11 4 C-12.65 4 -14.3 4 -16 4 C-13.62526776 1.62526776 -12.37628347 1.4828067 -9.125 0.875 C-8.26132813 0.70742188 -7.39765625 0.53984375 -6.5078125 0.3671875 C-4 0 -4 0 0 0 Z " fill="#BDBDBD" transform="translate(251,26)"/>
<path d="M0 0 C0.33 0.99 0.66 1.98 1 3 C-0.43359375 5.04296875 -0.43359375 5.04296875 -2.4375 7.1875 C-3.09621094 7.90292969 -3.75492187 8.61835938 -4.43359375 9.35546875 C-5.20896484 10.16951172 -5.20896484 10.16951172 -6 11 C-6.99 10.34 -7.98 9.68 -9 9 C-6.03 6.03 -3.06 3.06 0 0 Z " fill="#D3D3D3" transform="translate(444,439)"/>
<path d="M0 0 C0 4.85089963 -2.40896448 7.38147446 -5.6875 10.8125 C-6.450625 11.534375 -7.21375 12.25625 -8 13 C-8.66 12.67 -9.32 12.34 -10 12 C-8.52149287 10.18696196 -7.04217625 8.37458402 -5.5625 6.5625 C-4.32693359 5.04849609 -4.32693359 5.04849609 -3.06640625 3.50390625 C-1 1 -1 1 0 0 Z " fill="#BCBCBC" transform="translate(145,164)"/>
<path d="M0 0 C0.33 0.66 0.66 1.32 1 2 C-0.89732848 6.11087838 -3.0054207 7.94872955 -7 10 C-5.33248852 6.05860922 -2.77289351 3.2107188 0 0 Z " fill="#BABABA" transform="translate(179,198)"/>
<path d="M0 0 C0.33 0.66 0.66 1.32 1 2 C0.04956626 3.33897583 -0.91059147 4.67105427 -1.875 6 C-2.40867187 6.7425 -2.94234375 7.485 -3.4921875 8.25 C-3.98976563 8.8275 -4.48734375 9.405 -5 10 C-5.66 10 -6.32 10 -7 10 C-7 10.66 -7 11.32 -7 12 C-7.66 11.67 -8.32 11.34 -9 11 C-6.03 7.37 -3.06 3.74 0 0 Z " fill="#C1C1C1" transform="translate(87,120)"/>
<path d="M0 0 C0.33 0.99 0.66 1.98 1 3 C-1.64 5.31 -4.28 7.62 -7 10 C-7.66 9.67 -8.32 9.34 -9 9 C-6.03 6.03 -3.06 3.06 0 0 Z " fill="#BCBCBC" transform="translate(500,117)"/>
<path d="M0 0 C3.21524305 1.40844718 5.32183868 3.10344786 7.75 5.625 C8.67039062 6.57246094 8.67039062 6.57246094 9.609375 7.5390625 C10.29773438 8.26222656 10.29773438 8.26222656 11 9 C7.34140712 9 6.05403361 7.72246476 3.36328125 5.37890625 C1.75098025 3.74812615 0.79568834 2.14835851 0 0 Z " fill="#ADADAD" transform="translate(96,526)"/>
<path d="M0 0 C0.33 0.66 0.66 1.32 1 2 C0.21654285 3.17219543 -0.57702836 4.33763668 -1.375 5.5 C-1.81585938 6.1496875 -2.25671875 6.799375 -2.7109375 7.46875 C-3.13632812 7.9740625 -3.56171875 8.479375 -4 9 C-4.66 9 -5.32 9 -6 9 C-5.52797514 4.75177626 -3.03344482 2.80010291 0 0 Z " fill="#B5B5B5" transform="translate(478,139)"/>
<path d="M0 0 C0.33 0.66 0.66 1.32 1 2 C-0.89732848 6.11087838 -3.0054207 7.94872955 -7 10 C-5.33248852 6.05860922 -2.77289351 3.2107188 0 0 Z " fill="#B1B1B1" transform="translate(482,456)"/>
<path d="M0 0 C1 3 1 3 1 5 C-0.98 5.99 -2.96 6.98 -5 8 C-3.8141763 4.62496331 -2.72426311 2.35277269 0 0 Z " fill="#C5C5C5" transform="translate(73,138)"/>
<path d="M0 0 C1.04449911 3.13349732 0.93423645 3.98968256 0 7 C-0.99 7 -1.98 7 -3 7 C-3 7.99 -3 8.98 -3 10 C-3.66 10 -4.32 10 -5 10 C-3.66511872 6.40608886 -2.03977277 3.24509304 0 0 Z " fill="#BCBCBC" transform="translate(471,402)"/>
<path d="M0 0 C0.66 0.99 1.32 1.98 2 3 C0.68 5.64 -0.64 8.28 -2 11 C-2.33 11 -2.66 11 -3 11 C-3 9.35 -3 7.7 -3 6 C-2.34 5.67 -1.68 5.34 -1 5 C-0.34444881 2.47266765 -0.34444881 2.47266765 0 0 Z " fill="#CFCFCF" transform="translate(452,376)"/>
<path d="M0 0 C3.4375 0.8125 3.4375 0.8125 7 2 C7.33 2.99 7.66 3.98 8 5 C7.34 5.66 6.68 6.32 6 7 C4.5 5.625 4.5 5.625 3 4 C3 3.34 3 2.68 3 2 C2.01 1.67 1.02 1.34 0 1 C0 0.67 0 0.34 0 0 Z " fill="#BEBEBE" transform="translate(475,150)"/>
<path d="M0 0 C-0.33 0.66 -0.66 1.32 -1 2 C-0.34 2 0.32 2 1 2 C1 2.66 1 3.32 1 4 C-4.75 2.25 -4.75 2.25 -7 0 C-3.98968256 -0.93423645 -3.13349732 -1.04449911 0 0 Z " fill="#C7C7C7" transform="translate(395,134)"/>
<path d="M0 0 C0.6875 1.6875 0.6875 1.6875 1 4 C-0.3125 6.75 -0.3125 6.75 -2 9 C-2.66 9 -3.32 9 -4 9 C-2.94124926 5.59687262 -1.99097846 2.98646769 0 0 Z " fill="#BCBCBC" transform="translate(161,223)"/>
<path d="M0 0 C-0.5625 1.875 -0.5625 1.875 -2 4 C-5.625 5.25 -5.625 5.25 -9 6 C-3.2 0 -3.2 0 0 0 Z " fill="#B7B7B7" transform="translate(193,125)"/>
<path d="M0 0 C1.65 1.65 3.3 3.3 5 5 C3.824375 5.2165625 3.824375 5.2165625 2.625 5.4375 C0.03578982 5.87798925 0.03578982 5.87798925 -2 7 C-1.34 4.69 -0.68 2.38 0 0 Z " fill="#D5D5D5" transform="translate(159,434)"/>
<path d="M0 0 C1.24675325 4.98701299 1.24675325 4.98701299 0 8 C-0.99 8.33 -1.98 8.66 -3 9 C-2.01 6.03 -1.02 3.06 0 0 Z " fill="#BEBEBE" transform="translate(110,216)"/>
<path d="M0 0 C0.66 0.33 1.32 0.66 2 1 C0.35 2.65 -1.3 4.3 -3 6 C-3.66 5.34 -4.32 4.68 -5 4 C-3.35 2.68 -1.7 1.36 0 0 Z " fill="#C1C1C1" transform="translate(201,177)"/>
<path d="" fill="#EEEEEE" transform="translate(0,0)"/>
<path d="" fill="#ECECEC" transform="translate(0,0)"/>
<path d="" fill="#EDEDED" transform="translate(0,0)"/>
<path d="" fill="#EEEEEE" transform="translate(0,0)"/>
<path d="" fill="#EDEDED" transform="translate(0,0)"/>
</svg>
