<?xml version="1.0" encoding="UTF-8"?>
<svg version="1.1" xmlns="http://www.w3.org/2000/svg" width="612" height="612">
<path d="M0 0 C2.39299125 0.43269081 4.78900064 0.84896474 7.1875 1.25 C32.96826082 5.95014107 59.04631908 15.37222091 82 28 C83.48812109 28.79977724 84.97641089 29.59924063 86.46484375 30.3984375 C99.94306335 37.70220601 112.7704317 45.73517553 125 55 C125.53592773 55.40444336 126.07185547 55.80888672 126.62402344 56.22558594 C139.94140684 66.32187946 151.88116328 77.65668881 163.578125 89.56982422 C164.98762259 90.98755033 166.43130526 92.37101931 167.875 93.75390625 C170 96 170 96 170 98 C170.66 98 171.32 98 172 98 C173.26953125 99.37109375 173.26953125 99.37109375 174.8125 101.4375 C175.42738281 102.25347656 176.04226563 103.06945312 176.67578125 103.91015625 C177.44277344 104.92980469 178.20976563 105.94945313 179 107 C180.03329767 108.33347353 181.06860334 109.6653925 182.10546875 110.99609375 C188.14913555 118.77494021 193.91159625 126.55226174 199 135 C199.65484375 136.04671875 200.3096875 137.0934375 200.984375 138.171875 C207.54705654 148.68203416 213.3625567 159.40478519 218.5 170.6875 C219.21446289 172.25189819 219.21446289 172.25189819 219.94335938 173.84790039 C223.67750062 182.110261 227.0446205 190.42750499 230 199 C230.23082275 199.6587915 230.46164551 200.31758301 230.69946289 200.99633789 C252.77205217 265.25306622 251.74417483 338.59798439 227.69824219 402.14794922 C227.03527732 403.90642877 226.39586019 405.67373324 225.7578125 407.44140625 C222.99409342 414.94680021 219.62504952 422.01810046 215.95898438 429.12158203 C214.9480007 431.10185403 213.96346005 433.09361901 212.984375 435.08984375 C207.98960614 445.26185512 202.63274323 454.88088776 196.03125 464.1171875 C194.4981767 466.29297229 193.00458956 468.47967113 191.53125 470.6953125 C185.66438719 479.47576812 179.39623428 487.60943051 172.35644531 495.48046875 C171.16055657 496.82013966 169.98128452 498.17460433 168.8046875 499.53125 C164.0140489 504.99585677 158.93707364 510.16350148 153.8125 515.3125 C153.13477539 515.99489746 152.45705078 516.67729492 151.75878906 517.38037109 C141.10516479 528 141.10516479 528 138 528 C138 528.66 138 529.32 138 530 C136.09716151 531.62754707 134.19366404 533.1341063 132.1875 534.625 C131.60162109 535.067229 131.01574219 535.50945801 130.41210938 535.96508789 C128.61380991 537.31794372 126.80818838 538.66039854 125 540 C123.96488281 540.76957031 122.92976563 541.53914062 121.86328125 542.33203125 C110.07548701 551 110.07548701 551 107 551 C107 551.66 107 552.32 107 553 C105.71086513 553.67154933 104.41859796 554.33708859 103.125 555 C102.40570313 555.37125 101.68640625 555.7425 100.9453125 556.125 C99 557 99 557 97 557 C97 557.66 97 558.32 97 559 C72.85979281 572.05202692 48.50202839 582.65975498 22 590 C21.32195312 590.19045898 20.64390625 590.38091797 19.9453125 590.57714844 C-28.52805664 604.03386186 -86.84266105 605.4684572 -135 590 C-137.22790994 589.3705349 -139.45695246 588.7450538 -141.6875 588.125 C-152.66048862 584.99668333 -163.49343186 581.46831059 -174 577 C-174.59425781 576.74992188 -175.18851563 576.49984375 -175.80078125 576.2421875 C-184.46719204 572.58417585 -192.84098953 568.70197703 -201 564 C-202.48025072 563.16497797 -203.96074093 562.3303804 -205.44140625 561.49609375 C-224.61976914 550.62085196 -241.88706337 537.79705982 -258.47851562 523.32617188 C-259.80971056 522.16586204 -261.14657867 521.01206744 -262.484375 519.859375 C-272.64084507 511.07746479 -272.64084507 511.07746479 -274 507 C-274.66 507 -275.32 507 -276 507 C-276 506.34 -276 505.68 -276 505 C-276.66 505 -277.32 505 -278 505 C-279.39599396 503.47162731 -280.71587649 501.87349901 -282 500.25 C-283.20076172 498.74759766 -283.20076172 498.74759766 -284.42578125 497.21484375 C-284.84682129 496.68616699 -285.26786133 496.15749023 -285.70166016 495.61279297 C-287.40574964 493.49597929 -289.15239465 491.41689977 -290.90283203 489.33837891 C-303 474.96983086 -303 474.96983086 -303 472 C-303.66 472 -304.32 472 -305 472 C-331.24056888 438.45292542 -347.34309217 392.26477275 -355 351 C-355.18433594 350.08734375 -355.36867188 349.1746875 -355.55859375 348.234375 C-364.42590201 301.21701959 -360.18398564 248.07391595 -344.71142578 203.08447266 C-344.00159068 201.00466068 -343.32266726 198.91706838 -342.65234375 196.82421875 C-340.46280419 190.01958692 -338.07837452 183.45086125 -335 177 C-334.38177171 175.66454382 -333.76470099 174.32855149 -333.1484375 172.9921875 C-329.68034719 165.50342175 -326.12031084 158.15495247 -322 151 C-320.89155128 148.98151224 -319.78751153 146.96059813 -318.6875 144.9375 C-317.91986328 143.52791016 -317.91986328 143.52791016 -317.13671875 142.08984375 C-316.76160156 141.40019531 -316.38648438 140.71054688 -316 140 C-315.34 140 -314.68 140 -314 140 C-313.89300781 139.43796875 -313.78601563 138.8759375 -313.67578125 138.296875 C-309.39225718 123.7378452 -294.40188847 109.18718906 -284.59375 97.98828125 C-282.93305512 96.07498067 -281.32254093 94.11620216 -279.78125 92.10546875 C-279.1934375 91.41066406 -278.605625 90.71585937 -278 90 C-277.34 90 -276.68 90 -276 90 C-275.773125 89.443125 -275.54625 88.88625 -275.3125 88.3125 C-272.59845869 83.53061769 -268.22998281 80.38398625 -264 77 C-263.278125 76.278125 -262.55625 75.55625 -261.8125 74.8125 C-250.90527672 63.90527672 -238.73494814 54.660618 -226 46 C-225.24074219 45.47664063 -224.48148438 44.95328125 -223.69921875 44.4140625 C-219.38959984 41.48143754 -215.01523596 38.82169608 -210.42675781 36.34912109 C-208.05148031 35.02861974 -205.75342573 33.62155486 -203.4453125 32.1875 C-197.9165829 28.859774 -192.19285222 26.14410276 -186.3125 23.5 C-185.25522705 23.02151611 -184.1979541 22.54303223 -183.10864258 22.05004883 C-169.00766207 15.70810994 -154.81464106 10.41238538 -140 6 C-138.8140625 5.64035156 -137.628125 5.28070313 -136.40625 4.91015625 C-94.98952609 -6.91640826 -42.20697544 -11.48176698 0 0 Z " fill="#070707" transform="translate(361,10)"/>
<path d="M0 0 C0.70044434 -0.00233643 1.40088867 -0.00467285 2.12255859 -0.00708008 C13.83529315 -0.02178449 25.13126145 0.92914895 36.625 3.25 C36.625 3.91 36.625 4.57 36.625 5.25 C38.54119141 5.39501953 38.54119141 5.39501953 40.49609375 5.54296875 C45.85868528 6.14207651 50.63752175 7.71947045 55.6875 9.5625 C56.53376953 9.85833984 57.38003906 10.15417969 58.25195312 10.45898438 C62.9637015 12.14097319 67.43493882 14.04546578 71.87670898 16.34643555 C74.08764845 17.48910933 76.34533836 18.50264803 78.625 19.5 C79.388125 19.83515625 80.15125 20.1703125 80.9375 20.515625 C81.494375 20.75796875 82.05125 21.0003125 82.625 21.25 C82.625 21.91 82.625 22.57 82.625 23.25 C83.346875 23.3325 84.06875 23.415 84.8125 23.5 C88.28151914 24.42507177 89.90181392 25.90679338 92.625 28.25 C93.97081857 29.30243013 95.32558931 30.34347876 96.6875 31.375 C97.33847656 31.87257812 97.98945313 32.37015625 98.66015625 32.8828125 C100.55089585 34.28847266 100.55089585 34.28847266 102.55859375 35.1171875 C105.43262562 36.69274372 107.34993219 38.9000048 109.625 41.25 C111.53658438 42.96401839 113.45351072 44.67209283 115.375 46.375 C121.09020543 51.53638256 125.91595899 57.15170168 130.625 63.25 C131.29789062 64.08015625 131.97078125 64.9103125 132.6640625 65.765625 C135.69995415 69.53862615 137.877012 72.71283114 139.625 77.25 C140.099375 77.724375 140.57375 78.19875 141.0625 78.6875 C143.6126003 81.2376003 145.625 84.59034484 145.625 88.25 C146.285 88.25 146.945 88.25 147.625 88.25 C147.95113281 89.20261719 148.27726562 90.15523438 148.61328125 91.13671875 C149.05439503 92.40374769 149.49581771 93.67066913 149.9375 94.9375 C150.58138672 96.79955078 150.58138672 96.79955078 151.23828125 98.69921875 C152.45923437 101.82554659 153.90253427 104.39227277 155.625 107.25 C156.3125 111.0625 156.3125 111.0625 156.625 114.25 C157.285 114.25 157.945 114.25 158.625 114.25 C158.73569824 114.90073486 158.84639648 115.55146973 158.96044922 116.22192383 C159.46624286 119.17010602 159.98298807 122.11626535 160.5 125.0625 C160.76103516 126.59874023 160.76103516 126.59874023 161.02734375 128.16601562 C161.20136719 129.14892578 161.37539063 130.13183594 161.5546875 131.14453125 C161.71179199 132.05050049 161.86889648 132.95646973 162.03076172 133.88989258 C162.54672233 136.49523471 162.54672233 136.49523471 164.625 139.25 C165.98695006 146.58024076 165.81717596 154.00365743 165.8125 161.4375 C165.81256042 162.09663391 165.81262085 162.75576782 165.81268311 163.43487549 C165.78804067 182.37115468 164.29562904 199.45048913 157.6875 217.25 C157.34009766 218.19617188 156.99269531 219.14234375 156.63476562 220.1171875 C155.95343798 221.96998809 155.26927901 223.82175044 154.58203125 225.67236328 C153.97604179 227.30451551 153.37398002 228.93813599 152.77734375 230.57373047 C145.88671203 249.33591141 132.23450444 266.9018218 118.625 281.25 C117.325625 282.62865234 117.325625 282.62865234 116 284.03515625 C110.06918035 290.15973848 103.91263277 295.76431422 96.625 300.25 C95.965 300.25 95.305 300.25 94.625 300.25 C94.625 300.91 94.625 301.57 94.625 302.25 C91.18108993 304.23722402 87.73048934 306.21223602 84.2734375 308.17651367 C82.52503977 309.17322554 80.78200337 310.17932311 79.0390625 311.18554688 C77.93046875 311.81396484 76.821875 312.44238281 75.6796875 313.08984375 C74.66374512 313.67113037 73.64780273 314.25241699 72.60107422 314.85131836 C69.55520124 316.2828037 66.95388684 316.86589767 63.625 317.25 C63.625 317.91 63.625 318.57 63.625 319.25 C62.81675781 319.51554687 62.00851562 319.78109375 61.17578125 320.0546875 C59.57283203 320.58449219 59.57283203 320.58449219 57.9375 321.125 C56.88175781 321.47304688 55.82601562 321.82109375 54.73828125 322.1796875 C52.82237155 322.83835658 50.92001 323.54054133 49.046875 324.3125 C46.55557846 325.27687285 44.18240925 325.86478583 41.5625 326.375 C40.72589844 326.54257812 39.88929688 326.71015625 39.02734375 326.8828125 C36.625 327.25 36.625 327.25 32.625 327.25 C32.625 327.91 32.625 328.57 32.625 329.25 C3.93544261 332.91388874 -23.58317402 332.32257029 -51.375 324.25 C-51.375 323.59 -51.375 322.93 -51.375 322.25 C-52.30119141 322.10304688 -52.30119141 322.10304688 -53.24609375 321.953125 C-59.47490897 320.85336463 -64.6974282 318.98403365 -70.375 316.25 C-71.72595572 315.65926844 -73.07986781 315.07522167 -74.4375 314.5 C-75.406875 314.0875 -76.37625 313.675 -77.375 313.25 C-77.375 312.59 -77.375 311.93 -77.375 311.25 C-78.055625 310.981875 -78.73625 310.71375 -79.4375 310.4375 C-80.406875 310.045625 -81.37625 309.65375 -82.375 309.25 C-83.43332031 308.84265625 -84.49164063 308.4353125 -85.58203125 308.015625 C-89.82824761 306.18421826 -93.34315999 303.61359889 -97 300.8125 C-97.69440186 300.28462891 -98.38880371 299.75675781 -99.10424805 299.21289062 C-105.91644773 293.95703035 -112.27611525 288.31502419 -118.375 282.25 C-118.85807617 281.77095215 -119.34115234 281.2919043 -119.83886719 280.79833984 C-127.08345024 273.51183782 -132.81984303 265.59684053 -138.2956543 256.93652344 C-139.32930813 255.32139549 -140.40599637 253.73405348 -141.484375 252.1484375 C-143.27138242 249.40885175 -144.75571338 246.68784459 -146.1875 243.75 C-147.82620833 240.39355934 -149.47728778 237.05478268 -151.2109375 233.74609375 C-155.47640371 225.59356753 -159.375 217.60560435 -159.375 208.25 C-160.035 208.25 -160.695 208.25 -161.375 208.25 C-166.01137421 184.52557451 -172.04734624 146.73507881 -160.375 124.25 C-159.87639435 122.40625493 -159.42168238 120.55034391 -159 118.6875 C-157.54845562 112.68437926 -155.62619551 106.9954754 -153.375 101.25 C-153.10582764 100.52143799 -152.83665527 99.79287598 -152.55932617 99.04223633 C-150.14282227 92.68455182 -147.10647438 86.98304642 -143.5625 81.1875 C-143.06685547 80.35412109 -142.57121094 79.52074219 -142.06054688 78.66210938 C-135.00708816 66.99712296 -126.12785819 56.74620403 -116.375 47.25 C-115.84390625 46.70859375 -115.3128125 46.1671875 -114.765625 45.609375 C-106.58020081 37.27907604 -106.58020081 37.27907604 -102.375 34.25 C-101.715 34.25 -101.055 34.25 -100.375 34.25 C-100.375 33.59 -100.375 32.93 -100.375 32.25 C-96.90059483 29.6423903 -93.08234266 27.50942888 -89.375 25.25 C-88.18126066 24.48989802 -86.98857641 23.72813686 -85.796875 22.96484375 C-67.24918728 11.25 -67.24918728 11.25 -57.375 11.25 C-57.375 10.59 -57.375 9.93 -57.375 9.25 C-38.56190745 2.32174321 -20.00879212 0.03049406 0 0 Z " fill="#FDFDFD" transform="translate(304.375,141.75)"/>
<path d="M0 0 C0 0.66 0 1.32 0 2 C0.72703125 2.03738281 1.4540625 2.07476562 2.203125 2.11328125 C12.43426985 2.78224072 21.63875854 4.76094726 31 9 C32.4335219 9.47062794 33.87140179 9.92810892 35.3125 10.375 C39.58746075 11.75871813 43.47210002 13.63181011 47.4453125 15.71875 C49.38964491 16.69388919 51.37841238 17.58097057 53.3828125 18.42578125 C63.75847814 22.94132472 73.02258732 29.180742 82 36 C83.09110234 36.80131459 84.18360427 37.60072619 85.27734375 38.3984375 C86.37258329 39.20286984 87.46763931 40.00755211 88.5625 40.8125 C89.55378906 41.54082031 90.54507812 42.26914063 91.56640625 43.01953125 C94 45 94 45 96 48 C96.598125 48.28875 97.19625 48.5775 97.8125 48.875 C100.79461058 50.40865687 102.66482401 52.59674307 105 55 C106.22396484 56.24523437 106.22396484 56.24523437 107.47265625 57.515625 C112.99365772 63.34473665 117.92161246 69.38084392 122.5625 75.9375 C123.07498291 76.65905273 123.58746582 77.38060547 124.11547852 78.12402344 C126.55357604 81.63737817 128.64486302 84.9025148 130 89 C130.66 89 131.32 89 132 89 C132.27263672 89.81404297 132.27263672 89.81404297 132.55078125 90.64453125 C132.80214844 91.35996094 133.05351562 92.07539063 133.3125 92.8125 C133.55613281 93.52019531 133.79976563 94.22789062 134.05078125 94.95703125 C135.0765661 97.1647904 136.24513709 98.34211636 138 100 C139.07401615 101.96124688 140.06057514 103.97084231 141 106 C141.48146484 107.00933594 141.48146484 107.00933594 141.97265625 108.0390625 C144.22023254 112.87605179 145.89951869 117.68645161 147.2890625 122.8359375 C147.97696694 125.25502586 147.97696694 125.25502586 150 128 C150.85515246 130.5160098 151.64071912 133.01147722 152.375 135.5625 C152.69936035 136.68011719 152.69936035 136.68011719 153.03027344 137.8203125 C154.60023274 143.34398723 155.98809096 148.89828287 157.25 154.5 C157.41290527 155.21615479 157.57581055 155.93230957 157.74365234 156.67016602 C159.91979567 166.66863113 160.24091138 176.53377772 160.25 186.75 C160.25067474 187.43529785 160.25134949 188.1205957 160.25204468 188.82666016 C160.23346249 200.77205417 159.31099465 212.26998499 157 224 C156.81775879 224.94842773 156.63551758 225.89685547 156.44775391 226.87402344 C152.57888214 246.68704262 147.0428212 263.73826315 136.6484375 281.140625 C134.97443038 283.96148672 134.97443038 283.96148672 133.62890625 286.85546875 C131.57403257 290.82231123 129.11509478 294.40275567 126.5625 298.0625 C126.08490234 298.75666016 125.60730469 299.45082031 125.11523438 300.16601562 C122.53461525 303.89357659 119.83708965 307.46175318 117 311 C116.71125 311.66 116.4225 312.32 116.125 313 C114.75253241 315.43994239 112.89231592 316.79240018 110.71875 318.5078125 C108.0706225 320.80686865 105.87483581 323.46053884 103.61328125 326.1328125 C102.13158368 327.84770702 100.69589264 329.49565446 99 331 C98.34 331 97.68 331 97 331 C96.690625 331.8353125 96.690625 331.8353125 96.375 332.6875 C94.42316968 335.97012371 92.05769006 337.70673246 89 340 C88.34 340 87.68 340 87 340 C86.79375 340.598125 86.5875 341.19625 86.375 341.8125 C84.45952931 344.85983974 82.25478925 345.46137235 79 347 C77.6318835 347.87438091 76.27891123 348.77267727 74.9375 349.6875 C60.2961026 359.61303416 45.3421067 368.65539435 28.15625 373.32421875 C26.00019902 373.92402897 26.00019902 373.92402897 24.171875 374.9921875 C21.11136439 376.41235249 18.06936811 376.85231259 14.75 377.4375 C13.31504564 377.69368282 11.88015149 377.95020309 10.4453125 378.20703125 C9.71086914 378.33674316 8.97642578 378.46645508 8.21972656 378.60009766 C6.05658232 378.98980622 3.89922163 379.40210346 1.7421875 379.82421875 C0.70626465 380.02543335 0.70626465 380.02543335 -0.35058594 380.23071289 C-2.26260774 380.6031098 -4.17428375 380.97728082 -6.0859375 381.3515625 C-15.60337645 382.92830388 -24.98537703 383.19415469 -34.625 383.1875 C-35.62028717 383.18709213 -35.62028717 383.18709213 -36.63568115 383.18667603 C-49.9948752 383.16149736 -62.42220668 382.2586162 -75.3515625 378.68359375 C-78.2170428 377.94397863 -81.0763368 377.4501241 -84 377 C-84 376.34 -84 375.68 -84 375 C-84.969375 374.896875 -85.93875 374.79375 -86.9375 374.6875 C-93.84838896 373.68632494 -100.19819069 371.04848063 -106.46875 368.0625 C-108.69696828 367.1271985 -110.86903894 366.42132933 -113.17578125 365.71484375 C-118.4248999 363.99323658 -122.96441086 361.39180841 -127.6875 358.5625 C-128.50283203 358.08490234 -129.31816406 357.60730469 -130.15820312 357.11523438 C-142.61210602 349.77578797 -142.61210602 349.77578797 -144 347 C-145.66722048 346.06745117 -147.3352342 345.13628372 -149.0078125 344.21337891 C-152.49244187 342.09100048 -155.45650549 339.38899358 -158.5 336.6875 C-159.43779297 335.87249023 -159.43779297 335.87249023 -160.39453125 335.04101562 C-168.43582409 327.99031683 -175.38352613 320.39628882 -182 312 C-182.53028809 311.3301709 -183.06057617 310.6603418 -183.60693359 309.97021484 C-185.35161644 307.75823281 -187.08369684 305.53690956 -188.8125 303.3125 C-189.36373535 302.61205566 -189.9149707 301.91161133 -190.48291016 301.18994141 C-193.5431312 297.21585893 -196.01333104 293.34174888 -198.04956055 288.75073242 C-199.11278468 286.79224789 -200.39676682 285.53275249 -202 284 C-202.9921875 282.16015625 -202.9921875 282.16015625 -203.875 280.0625 C-204.21789062 279.25039063 -204.56078125 278.43828125 -204.9140625 277.6015625 C-205.27242187 276.74304688 -205.63078125 275.88453125 -206 275 C-206.53753906 273.80503906 -206.53753906 273.80503906 -207.0859375 272.5859375 C-211.51585136 262.50714019 -214.76196909 251.98896204 -218.16967773 241.53198242 C-218.82097548 239.54591688 -219.49260574 237.56651731 -220.171875 235.58984375 C-220.98502329 233.04683753 -221.56799085 230.55964518 -222.0625 227.9375 C-222.21847656 227.12152344 -222.37445313 226.30554688 -222.53515625 225.46484375 C-222.68855469 224.65144531 -222.84195313 223.83804688 -223 223 C-223.17273438 222.19046875 -223.34546875 221.3809375 -223.5234375 220.546875 C-228.44152663 194.26331669 -228.19734151 153.39468303 -216 129 C-215.34 129 -214.68 129 -214 129 C-213.9175 127.865625 -213.835 126.73125 -213.75 125.5625 C-213.09222018 120.51952138 -211.24459037 116.52810427 -209 112 C-208.43023437 110.81148438 -207.86046875 109.62296875 -207.2734375 108.3984375 C-201.0247501 95.49457921 -194.1763422 83.07628971 -185 72 C-184.09121094 70.81664062 -184.09121094 70.81664062 -183.1640625 69.609375 C-171.75019397 55.00312179 -158.2650777 42.46601087 -143 32 C-142.31437988 31.52336914 -141.62875977 31.04673828 -140.92236328 30.55566406 C-130.76492401 23.54225016 -120.31954395 17.90183928 -109 13 C-107.22302734 12.22462891 -107.22302734 12.22462891 -105.41015625 11.43359375 C-90.0954027 4.99543275 -74.51139782 0.84105962 -58 -1 C-57.02546875 -1.11214844 -56.0509375 -1.22429687 -55.046875 -1.33984375 C-36.6795466 -3.09483717 -18.28960629 -2.0294797 0 0 Z M-84 32 C-85.11375 32.36996094 -86.2275 32.73992187 -87.375 33.12109375 C-88.24125 33.41113281 -89.1075 33.70117188 -90 34 C-90 34.66 -90 35.32 -90 36 C-90.53625 36.0515625 -91.0725 36.103125 -91.625 36.15625 C-103.00057432 37.8027147 -113.74264851 44.05561561 -123.02734375 50.62109375 C-125.78019482 52.5453639 -128.66817404 54.22700236 -131.56640625 55.921875 C-132.27603516 56.45554687 -132.27603516 56.45554687 -133 57 C-133 57.66 -133 58.32 -133 59 C-133.52722656 59.21011719 -134.05445313 59.42023438 -134.59765625 59.63671875 C-137.99256653 61.56326133 -140.61099201 64.14104616 -143.4375 66.8125 C-143.99759766 67.33392578 -144.55769531 67.85535156 -145.13476562 68.39257812 C-150.47817306 73.38682475 -155.60199833 78.56419653 -160.5625 83.9375 C-161.03107422 84.43701172 -161.49964844 84.93652344 -161.98242188 85.45117188 C-173.02842498 97.4241123 -183.05168839 114.91009022 -187.28515625 130.56640625 C-188.04575401 133.15576366 -189.01641643 135.57565663 -190.0625 138.0625 C-191.66199506 141.93656218 -192.73797102 145.68057974 -193.5078125 149.796875 C-194 152 -194 152 -194.984375 154.8359375 C-202.62457462 178.63809784 -198.69586239 208.97117223 -194 233 C-193.34 233 -192.68 233 -192 233 C-191.896875 233.928125 -191.79375 234.85625 -191.6875 235.8125 C-186.68188399 268.87591104 -159.37308363 303.4864638 -133.1953125 323.1015625 C-131.50911223 324.27739949 -129.8120005 325.437833 -128.1015625 326.578125 C-126 328 -126 328 -123.4375 330.1875 C-119.74565284 332.93271968 -114.7137868 336 -110 336 C-110 336.66 -110 337.32 -110 338 C-97.56087865 344.44886943 -97.56087865 344.44886943 -84 347 C-84 347.66 -84 348.32 -84 349 C-80.00371981 350.01527118 -76.00247691 351.0094654 -72 352 C-70.92105469 352.27457031 -69.84210938 352.54914063 -68.73046875 352.83203125 C-67.66441406 353.09371094 -66.59835937 353.35539062 -65.5 353.625 C-64.5409375 353.86476563 -63.581875 354.10453125 -62.59375 354.3515625 C-53.15103188 356.05535729 -43.57171356 356.1930694 -34 356.1875 C-32.83750732 356.18814453 -31.67501465 356.18878906 -30.47729492 356.18945312 C-20.22792228 356.1275871 -10.16026653 355.29754829 0 354 C0 353.34 0 352.68 0 352 C1.134375 351.87625 2.26875 351.7525 3.4375 351.625 C10.98693081 350.65644385 17.72539683 348.89495948 24.73828125 345.90234375 C26.81638777 345.07325462 28.81911694 344.48408617 31 344 C31 343.34 31 342.68 31 342 C31.78246094 341.94585937 32.56492187 341.89171875 33.37109375 341.8359375 C38.46256727 340.66308999 42.54903521 338.20034933 47.0625 335.625 C47.94744141 335.13 48.83238281 334.635 49.74414062 334.125 C52.17066063 332.76338188 54.58557474 331.38290014 57 330 C58.02996094 329.43023437 59.05992187 328.86046875 60.12109375 328.2734375 C60.74113281 327.85320312 61.36117188 327.43296875 62 327 C62 326.34 62 325.68 62 325 C62.72445313 324.74605469 63.44890625 324.49210937 64.1953125 324.23046875 C85.27902889 314.98064889 101.70399376 288.93012034 113 270 C113.46921875 269.21367187 113.9384375 268.42734375 114.421875 267.6171875 C117.14233249 262.89639362 119.13749886 258.11783392 121 253 C121.65735747 251.22909441 122.31492086 249.45826526 122.97265625 247.6875 C123.66974426 245.79184069 124.36635123 243.89600443 125.0625 242 C125.5894043 240.58074219 125.5894043 240.58074219 126.12695312 239.1328125 C132.45764825 221.85204925 133.18917591 204.46893917 133.1875 186.1875 C133.1887085 184.26623291 133.1887085 184.26623291 133.18994141 182.30615234 C133.60635415 171.14800696 133.60635415 171.14800696 130 161 C129.40576172 158.63989258 129.40576172 158.63989258 128.9296875 155.89453125 C128.75566406 154.91162109 128.58164062 153.92871094 128.40234375 152.91601562 C128.14130859 151.37977539 128.14130859 151.37977539 127.875 149.8125 C127.60236328 148.25885742 127.60236328 148.25885742 127.32421875 146.67382812 C126.87646526 144.11692001 126.4353265 141.55904812 126 139 C125.34 139 124.68 139 124 139 C123.89042969 138.33613281 123.78085937 137.67226562 123.66796875 136.98828125 C123.43013672 135.66376953 123.43013672 135.66376953 123.1875 134.3125 C123.03667969 133.44238281 122.88585937 132.57226562 122.73046875 131.67578125 C121.9193828 128.70469099 120.61304478 126.61313254 119 124 C118.22535596 122.08022999 117.49533154 120.14181097 116.8125 118.1875 C116.29623047 116.72376953 116.29623047 116.72376953 115.76953125 115.23046875 C115.51558594 114.49441406 115.26164062 113.75835937 115 113 C114.34 113 113.68 113 113 113 C112.566875 111.63875 112.566875 111.63875 112.125 110.25 C110.65513763 105.2397949 110.65513763 105.2397949 107 102 C106.12963867 100.39404297 106.12963867 100.39404297 105.23046875 98.3671875 C103.14097668 94.03378362 100.51066231 90.689368 97.3125 87.125 C96.51912231 86.22382446 96.51912231 86.22382446 95.7097168 85.30444336 C94.64343372 84.09575294 93.57359386 82.89018974 92.5 81.68798828 C91.1603246 80.18041736 89.84411106 78.65207255 88.53125 77.12109375 C84.33213755 72.27880739 80.06019477 68.21428443 74.84765625 64.47265625 C73 63 73 63 71 60 C69.35964466 58.95740126 67.68891532 57.96194742 66 57 C64.28146054 55.82731882 62.57306049 54.63964374 60.875 53.4375 C55.89895351 49.45317901 55.89895351 49.45317901 50 48 C50 47.34 50 46.68 50 46 C41.94739487 42.09246742 33.84347824 38.43488371 25.5 35.1875 C24.75959473 34.8980249 24.01918945 34.6085498 23.25634766 34.31030273 C16.88045264 31.86373837 10.92811207 29.66204331 4 30 C4 29.34 4 28.68 4 28 C-24.50747034 22.24368387 -56.29292834 22.70156698 -84 32 Z " fill="#070707" transform="translate(337,117)"/>
<path d="M0 0 C0.89778168 -0.01585144 1.79556335 -0.03170288 2.72055054 -0.04803467 C3.69964386 -0.05877014 4.67873718 -0.06950562 5.6875 -0.08056641 C7.21088486 -0.09908661 7.21088486 -0.09908661 8.76504517 -0.11798096 C12.0725597 -0.15040788 15.37985384 -0.16907876 18.6875 -0.18212891 C19.80308289 -0.18702332 20.91866577 -0.19191772 22.0680542 -0.19696045 C40.34536752 -0.23030779 56.93372611 1.1500545 74.52734375 6.31787109 C77.27641216 7.07904702 79.79352198 7.55650389 82.625 7.81787109 C83.39714844 7.89263672 84.16929687 7.96740234 84.96484375 8.04443359 C85.81755859 8.11791016 85.81755859 8.11791016 86.6875 8.19287109 C86.6875 8.85287109 86.6875 9.51287109 86.6875 10.19287109 C90.6475 11.18287109 90.6475 11.18287109 94.6875 12.19287109 C94.6875 12.85287109 94.6875 13.51287109 94.6875 14.19287109 C95.41195313 14.33080078 96.13640625 14.46873047 96.8828125 14.61083984 C104.14241599 16.11735923 110.38587832 18.28586565 116.6875 22.19287109 C118.01396156 22.87310779 119.34358877 23.54779371 120.6875 24.19287109 C120.6875 24.85287109 120.6875 25.51287109 120.6875 26.19287109 C123.6575 27.18287109 126.6275 28.17287109 129.6875 29.19287109 C129.6875 29.85287109 129.6875 30.51287109 129.6875 31.19287109 C130.57308594 31.45068359 131.45867187 31.70849609 132.37109375 31.97412109 C135.69458081 33.19547323 137.93595581 34.57037717 140.75 36.69287109 C142.16732422 37.75828125 142.16732422 37.75828125 143.61328125 38.84521484 C144.62777344 39.61994141 145.64226562 40.39466797 146.6875 41.19287109 C147.80542194 42.02826667 148.92392485 42.86288527 150.04296875 43.69677734 C155.37081826 47.6957247 160.50164012 51.71298603 165.09375 56.56396484 C166.80826788 58.31630297 168.62249252 59.86710589 170.5 61.44287109 C183.71816044 72.87133863 195.32817688 87.77339838 203.56640625 103.16943359 C204.77595171 105.42498782 204.77595171 105.42498782 206.8125 108.31787109 C208.51526472 110.928777 209.67680497 113.47798447 210.87548828 116.34179688 C212.11445497 119.16616411 213.60788764 121.84952311 215.0625 124.56787109 C218.5015036 131.20751349 220.61182251 137.98361436 222.546875 145.18505859 C223.6644299 149.29498732 225.15523936 153.22302272 226.6875 157.19287109 C228.8344274 163.22613467 230.18331263 169.33987963 231.3125 175.63037109 C231.4971582 176.64925415 231.4971582 176.64925415 231.68554688 177.6887207 C233.74798412 189.72292809 233.84462963 201.66880863 233.81787109 213.8449707 C233.81250621 216.75200602 233.81784422 219.65888731 233.82421875 222.56591797 C233.82355796 224.44287143 233.82227678 226.31982479 233.8203125 228.19677734 C233.82233673 229.0512294 233.82436096 229.90568146 233.82644653 230.786026 C233.7671083 246.30941972 233.7671083 246.30941972 230.6875 252.19287109 C230.38320287 254.22715378 230.14073343 256.27102011 229.9375 258.31787109 C228.77470054 267.35339475 225.76636796 275.6533694 222.6875 284.19287109 C222.0275 284.19287109 221.3675 284.19287109 220.6875 284.19287109 C220.6359375 284.72912109 220.584375 285.26537109 220.53125 285.81787109 C219.3211788 294.17836302 215.49799588 300.97732514 211.62988281 308.35742188 C209.81280572 311.8964855 208.25391809 315.53789555 206.6875 319.19287109 C206.0275 319.19287109 205.3675 319.19287109 204.6875 319.19287109 C204.50574219 319.80775391 204.32398438 320.42263672 204.13671875 321.05615234 C203.88535156 321.86439453 203.63398438 322.67263672 203.375 323.50537109 C203.13136719 324.30587891 202.88773437 325.10638672 202.63671875 325.93115234 C201.61769897 328.35918714 200.55927828 329.38563689 198.6875 331.19287109 C197.07820352 333.79313386 195.58839186 336.44548329 194.08984375 339.11083984 C193.39568359 340.14144531 193.39568359 340.14144531 192.6875 341.19287109 C192.0275 341.19287109 191.3675 341.19287109 190.6875 341.19287109 C190.46449219 341.72267578 190.24148438 342.25248047 190.01171875 342.79833984 C188.22407734 346.03085957 185.90389736 348.72307887 183.5 351.50537109 C182.97607666 352.11276123 182.45215332 352.72015137 181.91235352 353.34594727 C147.47150762 392.72057901 96.66260833 422.10762043 43.83398438 426.9921875 C12.37457294 428.99867696 -19.69216823 427.33824637 -49.37402344 415.90063477 C-52.40441633 414.79419786 -55.51782516 413.99329293 -58.625 413.13037109 C-65.38773605 411.1336449 -71.52040325 408.29355726 -77.75 405.00537109 C-78.5850708 404.56507568 -79.4201416 404.12478027 -80.28051758 403.67114258 C-86.17376897 400.47033315 -86.17376897 400.47033315 -87.3125 398.19287109 C-90.04546644 396.84419221 -92.83979234 395.69127973 -95.6484375 394.50927734 C-98.14324693 393.27650494 -99.47653444 392.22065395 -101.3125 390.19287109 C-102.68938201 389.28614392 -104.06701957 388.38053455 -105.44921875 387.48193359 C-114.88614572 380.95324198 -124.87690406 372.99940503 -132.3125 364.19287109 C-132.3125 363.53287109 -132.3125 362.87287109 -132.3125 362.19287109 C-133.12267578 361.89896484 -133.12267578 361.89896484 -133.94921875 361.59912109 C-137.37582706 359.56014755 -139.58600485 356.7318259 -142.125 353.69287109 C-142.92502441 352.74565186 -142.92502441 352.74565186 -143.74121094 351.77929688 C-147.91618268 346.78328965 -151.72223706 341.62516918 -155.3125 336.19287109 C-156.29669922 334.76007813 -156.29669922 334.76007813 -157.30078125 333.29833984 C-161.11938034 327.69628958 -164.64115028 322.04731042 -167.80078125 316.04833984 C-168.88981927 313.99126802 -170.01709033 311.95427546 -171.16796875 309.93115234 C-174.6915234 303.67593471 -177.22713237 298.30805889 -178.3125 291.19287109 C-178.9725 291.19287109 -179.6325 291.19287109 -180.3125 291.19287109 C-181.66405717 286.86501249 -182.99183772 282.53025167 -184.3125 278.19287109 C-184.64765625 277.11134766 -184.9828125 276.02982422 -185.328125 274.91552734 C-190.13442085 258.87546856 -193.46060763 242.42939299 -193.48046875 225.65771484 C-193.48379715 224.66139542 -193.48712555 223.66507599 -193.49055481 222.63856506 C-193.49559664 220.53663592 -193.49796399 218.43469885 -193.49780273 216.33276367 C-193.49997676 213.16424877 -193.51812775 209.99608961 -193.53710938 206.82763672 C-193.60935487 181.21484701 -189.13354858 156.24066235 -178.109375 132.92724609 C-177.19305446 131.01574545 -177.19305446 131.01574545 -176.3125 128.19287109 C-173.30459614 119.16915953 -169.03672847 109.82517572 -163.3125 102.19287109 C-162.6525 102.19287109 -161.9925 102.19287109 -161.3125 102.19287109 C-161.23902344 101.50708984 -161.16554687 100.82130859 -161.08984375 100.11474609 C-160.08866223 96.35151105 -158.11402981 93.56139462 -155.875 90.44287109 C-155.46701172 89.85376953 -155.05902344 89.26466797 -154.63867188 88.65771484 C-151.59079692 84.33201955 -151.59079692 84.33201955 -149.3125 83.19287109 C-148.87035156 82.45294922 -148.42820313 81.71302734 -147.97265625 80.95068359 C-146.17294173 77.96104018 -144.12150242 75.62299891 -141.75 73.06787109 C-139.36495716 70.49092826 -137.26293516 68.11852383 -135.3125 65.19287109 C-134.6525 65.19287109 -133.9925 65.19287109 -133.3125 65.19287109 C-133.0546875 64.59861328 -132.796875 64.00435547 -132.53125 63.39208984 C-131.20553053 60.99984606 -129.90871136 59.7450547 -127.8125 58.00537109 C-123.60115348 54.45613755 -119.55208736 50.75544023 -115.51171875 47.01318359 C-113.3125 45.19287109 -113.3125 45.19287109 -110.3125 44.19287109 C-108.96260546 42.87630728 -107.63104725 41.54082832 -106.3125 40.19287109 C-99.98495222 35.33065017 -93.19587886 31.20735947 -86.3125 27.19287109 C-85.25160156 26.54060547 -84.19070312 25.88833984 -83.09765625 25.21630859 C-74.66214059 20.10311051 -64.41069931 14.19287109 -54.3125 14.19287109 C-54.3125 13.53287109 -54.3125 12.87287109 -54.3125 12.19287109 C-52.56433142 11.68650502 -50.81387737 11.18802491 -49.0625 10.69287109 C-48.08796875 10.41443359 -47.1134375 10.13599609 -46.109375 9.84912109 C-43.3125 9.19287109 -43.3125 9.19287109 -39.3125 9.19287109 C-39.3125 8.53287109 -39.3125 7.87287109 -39.3125 7.19287109 C-18.85355048 2.99093331 -18.85355048 2.99093331 -8.6484375 1.58740234 C-5.49611042 1.0549859 -3.28670599 0.05366617 0 0 Z M-21.3125 25.19287109 C-23.05466797 25.59119141 -23.05466797 25.59119141 -24.83203125 25.99755859 C-39.60178364 29.45430915 -53.63287043 33.78192378 -66.8828125 41.26318359 C-69.33151364 42.64092661 -71.74182274 43.90139322 -74.265625 45.11865234 C-78.4038958 47.1674193 -82.15796384 49.61159266 -85.9375 52.25537109 C-86.6298877 52.73868896 -87.32227539 53.22200684 -88.03564453 53.7199707 C-90.13655765 55.19925364 -92.22669369 56.69237784 -94.3125 58.19287109 C-95.20678711 58.83289063 -95.20678711 58.83289063 -96.11914062 59.48583984 C-110.46395921 69.87968554 -123.95840716 82.78940531 -134.3125 97.19287109 C-134.87453125 97.93794922 -135.4365625 98.68302734 -136.015625 99.45068359 C-141.03916198 106.30713272 -145.11376802 113.6683989 -149.17626953 121.1171875 C-150.29102954 123.15364852 -151.42336142 125.17948666 -152.55859375 127.20458984 C-159.14001672 139.02516442 -159.14001672 139.02516442 -161.3125 152.19287109 C-161.9725 152.19287109 -162.6325 152.19287109 -163.3125 152.19287109 C-164.34574225 156.18494343 -165.33472113 160.1868657 -166.3125 164.19287109 C-166.47830566 164.86237793 -166.64411133 165.53188477 -166.81494141 166.22167969 C-173.68140125 194.21271569 -175.70750922 225.89600022 -169.3125 254.19287109 C-168.6525 255.18287109 -167.9925 256.17287109 -167.3125 257.19287109 C-166.65751361 259.44957094 -166.06148085 261.72360848 -165.5 264.00537109 C-162.48631454 275.79811558 -158.12155721 287.02446849 -153.3125 298.19287109 C-152.961875 299.04107422 -152.61125 299.88927734 -152.25 300.76318359 C-150.38621819 305.17510459 -148.38701737 308.48536485 -145.3125 312.19287109 C-144.42195234 313.68369297 -143.5490728 315.18511869 -142.6875 316.69287109 C-137.0344021 326.23687927 -129.84938607 334.68900287 -122.625 343.06787109 C-122.10284912 343.67397217 -121.58069824 344.28007324 -121.04272461 344.90454102 C-112.38665474 354.81952728 -102.95239781 363.88792645 -91.3125 370.19287109 C-90.30577528 371.18610084 -89.30619104 372.18660169 -88.3125 373.19287109 C-77.24258903 381.59073459 -64.83232889 388.22824076 -51.51953125 392.12255859 C-48.42775495 393.15440598 -46.06876913 394.48638903 -43.3125 396.19287109 C-41.25790322 396.95003721 -41.25790322 396.95003721 -39.25 397.38037109 C-38.59902344 397.53892578 -37.94804687 397.69748047 -37.27734375 397.86083984 C-34.98726973 398.30395359 -34.98726973 398.30395359 -31.3125 398.19287109 C-31.3125 398.85287109 -31.3125 399.51287109 -31.3125 400.19287109 C-30.22710937 400.38623047 -29.14171875 400.57958984 -28.0234375 400.77880859 C-26.57808332 401.04160026 -25.13277312 401.30463396 -23.6875 401.56787109 C-22.61822266 401.75736328 -22.61822266 401.75736328 -21.52734375 401.95068359 C-18.39965161 402.52457206 -15.52546025 403.11308599 -12.5390625 404.23193359 C-3.00662753 407.07089122 7.64593199 406.38723978 17.5 406.38037109 C18.16246735 406.38009918 18.82493469 406.37982727 19.50747681 406.37954712 C29.11972142 406.36142203 38.22262826 405.90034239 47.6875 404.19287109 C49.27270493 403.95614173 50.85871282 403.72475216 52.4453125 403.49755859 C60.73950931 402.29362705 68.7562608 400.98782808 76.6875 398.19287109 C77.42742187 397.95697266 78.16734375 397.72107422 78.9296875 397.47802734 C84.62841489 395.6540402 90.16217861 393.48407294 95.6875 391.19287109 C96.38230469 390.91958984 97.07710938 390.64630859 97.79296875 390.36474609 C109.97796676 385.33529101 122.31438651 377.47654709 132.81640625 369.59521484 C134.6875 368.19287109 134.6875 368.19287109 137.4375 366.63037109 C138.18 366.15599609 138.9225 365.68162109 139.6875 365.19287109 C139.6875 364.53287109 139.6875 363.87287109 139.6875 363.19287109 C140.22375 362.96599609 140.76 362.73912109 141.3125 362.50537109 C144.51210161 360.7371702 146.97787223 358.65616907 149.6875 356.19287109 C149.6875 355.53287109 149.6875 354.87287109 149.6875 354.19287109 C150.27660156 353.92990234 150.86570312 353.66693359 151.47265625 353.39599609 C156.33061308 350.75710597 159.98323253 346.12776342 163.4375 341.88037109 C165.6875 339.19287109 165.6875 339.19287109 168.6875 337.19287109 C169.67570426 335.51498261 170.65844445 333.83312078 171.58984375 332.12304688 C173.38871512 328.959818 175.54248391 326.06514311 177.6875 323.13037109 C183.65139223 315.14360454 183.65139223 315.14360454 188.5625 306.50537109 C190.60979812 302.28987142 192.85360766 298.19750293 195.125 294.09912109 C195.640625 293.14005859 196.15625 292.18099609 196.6875 291.19287109 C197.00267578 290.62648926 197.31785156 290.06010742 197.64257812 289.4765625 C200.69972876 283.74366876 202.47684624 277.81781486 204.1875 271.56787109 C204.63923584 269.93483032 204.63923584 269.93483032 205.10009766 268.26879883 C210.0173042 250.01905888 212.87510007 231.92255851 212.87280273 213.01782227 C212.87497748 211.02599976 212.89345832 209.03421684 212.91210938 207.04248047 C212.94336436 185.94536839 208.50535654 165.04307977 200.16015625 145.64208984 C198.40091812 141.52164616 197.08189805 137.3332315 195.75 133.06005859 C194.67994465 130.17248277 193.33252942 127.78747034 191.6875 125.19287109 C191.336875 124.45037109 190.98625 123.70787109 190.625 122.94287109 C189.80746415 121.01233825 189.80746415 121.01233825 187.6875 120.19287109 C186.8359375 118.34521484 186.8359375 118.34521484 186.0625 116.13037109 C185.80210937 115.39689453 185.54171875 114.66341797 185.2734375 113.90771484 C185.08007812 113.34181641 184.88671875 112.77591797 184.6875 112.19287109 C184.0275 112.19287109 183.3675 112.19287109 182.6875 112.19287109 C182.32978516 111.15646484 182.32978516 111.15646484 181.96484375 110.09912109 C180.44975746 106.65195228 178.45066617 103.72409756 176.25 100.69287109 C175.81333008 100.08773682 175.37666016 99.48260254 174.92675781 98.85913086 C171.73701818 94.498424 168.4060902 90.2722582 164.9375 86.13037109 C164.50252197 85.60701172 164.06754395 85.08365234 163.61938477 84.54443359 C161.40660293 81.95385974 159.12169326 79.65189863 156.484375 77.50927734 C153.6875 75.19287109 153.6875 75.19287109 151.6875 72.19287109 C151.089375 71.90412109 150.49125 71.61537109 149.875 71.31787109 C146.91135188 69.79370921 145.04446893 67.54984003 142.6875 65.19287109 C140.08907456 63.0987063 137.38497951 61.15678475 134.6875 59.19287109 C133.90761719 58.59603516 133.12773437 57.99919922 132.32421875 57.38427734 C126.73705902 53.17059239 120.95592972 49.43710086 114.9375 45.88037109 C114.22859619 45.45981445 113.51969238 45.03925781 112.78930664 44.60595703 C108.52094813 42.1223668 104.25734742 40.06260409 99.6875 38.19287109 C98.29055548 37.54944481 96.894564 36.90394078 95.5 36.25537109 C90.03144544 33.81870222 84.39122531 31.99444095 78.6875 30.19287109 C77.81738281 29.91314453 76.94726562 29.63341797 76.05078125 29.34521484 C68.43819109 26.96702734 60.72890339 24.76963934 52.6875 25.19287109 C52.6875 24.53287109 52.6875 23.87287109 52.6875 23.19287109 C28.11855027 20.46661313 2.92194752 19.32909972 -21.3125 25.19287109 Z " fill="#F7F7F7" transform="translate(284.3125,93.80712890625)"/>
<path d="M0 0 C13.21311863 11.00183224 18.97952794 27.39453883 20.625 44.1875 C20.82772073 48.93730817 20.85281786 53.68501904 20.86523438 58.43847656 C20.87485754 60.6546911 20.90591344 62.86994283 20.9375 65.0859375 C21.08462826 85.02022176 16.81411698 102.91433102 5.375 119.4375 C1.5682021 123.2442979 -2.62667033 125.69958074 -7.375 128.1875 C-8.01308594 128.53167969 -8.65117187 128.87585938 -9.30859375 129.23046875 C-17.76585627 133.10444061 -28.55282193 132.18723932 -37.140625 129.15625 C-50.07470435 123.54846734 -57.07363152 113.86284645 -62.375 101.1875 C-63.68692013 97.55487268 -64.62202443 93.97358845 -65.375 90.1875 C-65.68050781 88.74503906 -65.68050781 88.74503906 -65.9921875 87.2734375 C-70.54613778 61.63407359 -69.23853429 29.60401695 -54.18359375 7.5234375 C-41.41710879 -8.96545669 -16.9721398 -11.98978816 0 0 Z " fill="#040404" transform="translate(326.375,243.8125)"/>
<path d="M0 0 C13.9115244 11.71059666 18.40728737 28.54132035 20.1796875 46.015625 C20.459853 51.26722366 20.52222516 56.50785896 20.4921875 61.765625 C20.48970001 62.46461914 20.48721252 63.16361328 20.48464966 63.88378906 C20.3734178 84.14012156 18.19363888 104.02991209 4.34765625 119.96484375 C0.68025682 123.43400538 -3.30357436 125.80825136 -7.8203125 128.015625 C-8.77164063 128.52416016 -8.77164063 128.52416016 -9.7421875 129.04296875 C-18.18015651 132.95544583 -29.00140396 132.00765092 -37.58203125 128.98828125 C-50.87965052 123.20973466 -57.71906034 113.11591372 -63.078125 99.91796875 C-71.58583817 74.99352018 -71.03229807 39.47975482 -59.5703125 15.765625 C-53.92406393 4.77491524 -46.79842023 -2.00948737 -35.1328125 -6.359375 C-22.60617845 -8.75862951 -10.54585602 -7.42007598 0 0 Z " fill="#030303" transform="translate(431.8203125,243.984375)"/>
<path d="M0 0 C0.24234375 1.00417969 0.4846875 2.00835938 0.734375 3.04296875 C2.61446366 10.74517581 4.66329759 18.33291003 7.05859375 25.89453125 C8.31189513 30.02886568 9.32876371 34.20722906 10.33984375 38.40625 C11.00385471 41.16578689 11.00385471 41.16578689 12.1875 44.4375 C13.03236211 47.10206512 13.16335722 49.22292721 13 52 C7.09873313 54.42713395 1.55401265 55.78197856 -4.75 56.6875 C-5.58660156 56.81705078 -6.42320312 56.94660156 -7.28515625 57.08007812 C-10.93814145 57.63064766 -14.28793127 58 -18 58 C-18 58.66 -18 59.32 -18 60 C-25.33021557 60.44329597 -32.6605375 60.75468644 -40 61 C-41.23234375 61.0422168 -42.4646875 61.08443359 -43.734375 61.12792969 C-61.14029638 61.63909756 -78.09069056 60.88491921 -95.375 58.6875 C-96.64582428 58.5274649 -96.64582428 58.5274649 -97.94232178 58.36419678 C-107.46321102 57.14211941 -116.74817241 55.63797463 -126 53 C-126.08379208 48.92638931 -125.92422651 46.57050919 -124 43 C-123.65175327 41.23941931 -123.36605956 39.4659292 -123.125 37.6875 C-121.15065024 25.07614962 -117.16242686 13.02668418 -113 1 C-111.33388095 0.957279 -109.66617115 0.95936168 -108 1 C-107.67 1.33 -107.34 1.66 -107 2 C-98.74862039 3.80674152 -90.34852838 4.5416177 -81.9375 5.125 C-80.73883301 5.2084668 -79.54016602 5.29193359 -78.30517578 5.37792969 C-69.66146888 5.93107274 -61.03597525 6.21028456 -52.375 6.25 C-51.28050537 6.25918457 -50.18601074 6.26836914 -49.05834961 6.27783203 C-43.35023406 6.25578106 -38.10706911 5.78758884 -32.54101562 4.53466797 C-27.7629281 3.52928637 -22.90625998 3.02774541 -18.0625 2.4375 C-16.03221068 2.18897118 -14.00224362 1.93779125 -11.97265625 1.68359375 C-11.08843994 1.57587646 -10.20422363 1.46815918 -9.29321289 1.35717773 C-0.5796309 0 -0.5796309 0 0 0 Z " fill="#F8F8F8" transform="translate(361,533)"/>
<path d="M0 0 C1.3046875 1.2578125 1.3046875 1.2578125 2.875 3.125 C3.80119141 4.21748047 3.80119141 4.21748047 4.74609375 5.33203125 C5.86177734 6.65267578 5.86177734 6.65267578 7 8 C7.94762022 9.08863312 8.89694913 10.17578039 9.84765625 11.26171875 C26.93695119 30.84849092 26.93695119 30.84849092 28 37 C28.66 37 29.32 37 30 37 C31.42948743 38.97376925 32.72823685 40.92775378 34 43 C34.66257812 44.06734375 35.32515625 45.1346875 36.0078125 46.234375 C38.37087382 50.13718369 40.69306262 54.06380466 43 58 C43.43747559 58.74491699 43.87495117 59.48983398 44.32568359 60.25732422 C49.13876932 68.50907868 53.52768598 76.36757383 56.19921875 85.59765625 C56.96493857 88.26327026 56.96493857 88.26327026 59.1875 91.1875 C61.6501975 95.00892715 61.80144514 98.53251569 62 103 C62.66 103 63.32 103 64 103 C64.67493341 105.22667765 65.33963044 107.45645977 66 109.6875 C66.37125 110.92886719 66.7425 112.17023438 67.125 113.44921875 C67.87703457 116.5010019 68.19034899 118.88898362 68 122 C67.43192627 122.13051758 66.86385254 122.26103516 66.27856445 122.39550781 C53.15747646 125.36433407 53.15747646 125.36433407 40.25 129.125 C32.66427098 131.58361573 24.85801028 132.75777562 17 134 C16.49384702 132.73160474 15.99530901 131.46016898 15.5 130.1875 C15.2215625 129.47980469 14.943125 128.77210938 14.65625 128.04296875 C14 126 14 126 14 123 C13.34 123 12.68 123 12 123 C11.75878418 122.19163696 11.75878418 122.19163696 11.51269531 121.36694336 C10.7673514 118.88769134 10.00878461 116.41266997 9.25 113.9375 C8.99734375 113.08994141 8.7446875 112.24238281 8.484375 111.36914062 C7.24224277 107.34773752 5.95925848 103.69040078 3.796875 100.06640625 C2 97 2 97 2 94 C1.34 94 0.68 94 0 94 C-2.60584399 90.26118036 -4.21185373 86.1723413 -6 82 C-6.556875 81.071875 -7.11375 80.14375 -7.6875 79.1875 C-9 77 -9 77 -9 75 C-9.66 75 -10.32 75 -11 75 C-12.26171875 73.12890625 -12.26171875 73.12890625 -13.6875 70.5625 C-16.73901654 65.32504133 -20.15039984 60.67347292 -24 56 C-24.43570312 55.46874512 -24.87140625 54.93749023 -25.3203125 54.39013672 C-26.76906357 52.62917188 -28.22650444 50.87581591 -29.6875 49.125 C-30.15115967 48.56514404 -30.61481934 48.00528809 -31.0925293 47.4284668 C-33.51420767 44.55792596 -35.87303639 42.09440654 -39 40 C-38.41809822 36.43794939 -37.14490419 34.77006581 -34.61352539 32.24121094 C-33.89930923 31.52076599 -33.18509308 30.80032104 -32.44923401 30.05804443 C-31.28520302 28.90782806 -31.28520302 28.90782806 -30.09765625 27.734375 C-29.30475693 26.94097717 -28.5118576 26.14757935 -27.69493103 25.33013916 C-26.01806745 23.65561568 -24.33751072 21.98478358 -22.65356445 20.31738281 C-20.06740738 17.75486252 -17.4948679 15.17924071 -14.92382812 12.6015625 C-13.29506248 10.97837191 -11.66553107 9.35594928 -10.03515625 7.734375 C-9.26115982 6.95946716 -8.48716339 6.18455933 -7.68971252 5.38616943 C-6.97234421 4.67833313 -6.25497589 3.97049683 -5.51586914 3.24121094 C-4.88379044 2.61373962 -4.25171173 1.98626831 -3.60047913 1.33978271 C-2 0 -2 0 0 0 Z " fill="#FAFAFA" transform="translate(511,108)"/>
<path d="M0 0 C3.49808503 0.58518061 5.17692674 1.79126005 7.68286133 4.26293945 C8.38651321 4.95067947 9.0901651 5.63841949 9.81513977 6.34700012 C10.93725105 7.46880928 10.93725105 7.46880928 12.08203125 8.61328125 C12.85560471 9.37924118 13.62917816 10.14520111 14.42619324 10.93437195 C16.05809718 12.55547274 17.68604195 14.18056739 19.31030273 15.80932617 C21.80644473 18.30644237 24.32314391 20.78147528 26.84179688 23.25585938 C28.42317392 24.8320312 30.00329603 26.40946331 31.58203125 27.98828125 C32.34022659 28.73008133 33.09842194 29.47188141 33.8795929 30.23616028 C34.91142952 31.28195503 34.91142952 31.28195503 35.96411133 32.34887695 C36.57603836 32.95874954 37.18796539 33.56862213 37.81843567 34.19697571 C39 36 39 36 38.81474304 38.09538269 C37.84286147 40.36734128 36.42343715 41.72474817 34.64453125 43.40625 C27.56058882 50.27144836 21.64841925 57.94405779 16 66 C15.3915625 66.8353125 14.783125 67.670625 14.15625 68.53125 C9.89372925 74.4389542 6.33395505 80.52772541 3 87 C2.53376221 87.89380371 2.53376221 87.89380371 2.05810547 88.80566406 C-5.39535975 103.13000807 -11.40567099 116.95612322 -14 133 C-19.00972887 134.65321053 -22.9061467 133.17203644 -27.75 131.6875 C-29.28574854 131.23067988 -30.82220995 130.77624949 -32.359375 130.32421875 C-33.11541016 130.10169434 -33.87144531 129.87916992 -34.65039062 129.64990234 C-38.39973191 128.61283392 -42.1929183 127.79455582 -46 127 C-46 126.34 -46 125.68 -46 125 C-46.58265625 124.96261719 -47.1653125 124.92523438 -47.765625 124.88671875 C-54.7343058 124.32790944 -61.26455965 122.84009453 -68 121 C-67.07771695 115.09738846 -66.04042333 109.54130319 -63.76953125 104.00390625 C-62.93143463 101.82145159 -62.34882474 99.63436941 -61.75 97.375 C-60.28871387 92.34941278 -58.0273361 87.83188814 -55.63354492 83.20410156 C-53.08052409 78.25204515 -50.93646327 73.22003142 -49 68 C-48.34 68 -47.68 68 -47 68 C-46.79503906 67.37351562 -46.59007813 66.74703125 -46.37890625 66.1015625 C-46.10949219 65.28429687 -45.84007813 64.46703125 -45.5625 63.625 C-45.29566406 62.81289062 -45.02882813 62.00078125 -44.75390625 61.1640625 C-44 59 -44 59 -43 57 C-42.34 57 -41.68 57 -41 57 C-40.82984375 56.40832031 -40.6596875 55.81664062 -40.484375 55.20703125 C-40.24203125 54.41683594 -39.9996875 53.62664062 -39.75 52.8125 C-39.51796875 52.03519531 -39.2859375 51.25789063 -39.046875 50.45703125 C-37.78868911 47.50405018 -36.0505959 45.46298511 -34 43 C-32.77339551 41.17884049 -31.5659352 39.3446826 -30.375 37.5 C-23.74362051 27.4915291 -16.44163224 18.2565218 -8.2734375 9.45703125 C-5.42399273 6.37747667 -2.70657301 3.20515225 0 0 Z " fill="#FAFAFA" transform="translate(97,109)"/>
<path d="M0 0 C1.54265031 0.08841276 3.08417123 0.19659695 4.625 0.3125 C5.48351562 0.37050781 6.34203125 0.42851562 7.2265625 0.48828125 C10 1 10 1 12.84765625 2.42578125 C16.42007394 4.2097767 19.93790683 5.05903561 23.8125 5.875 C30.08934357 7.2713185 36.27173981 8.86075528 42.4375 10.6875 C43.16493408 10.90196777 43.89236816 11.11643555 44.6418457 11.33740234 C49.71544642 12.85772321 49.71544642 12.85772321 52 14 C50.68 19.94 49.36 25.88 48 32 C47.34 32 46.68 32 46 32 C45.84144531 32.82242188 45.68289063 33.64484375 45.51953125 34.4921875 C44.1365734 41.10899136 42.42409521 46.81745841 39.20703125 52.765625 C37.58667951 55.76511108 36.30066676 58.85101731 35 62 C34.34 62 33.68 62 33 62 C32.89042969 62.63808594 32.78085937 63.27617187 32.66796875 63.93359375 C32.50941406 64.75988281 32.35085938 65.58617187 32.1875 66.4375 C32.03667969 67.26121094 31.88585937 68.08492188 31.73046875 68.93359375 C31.48941406 69.61550781 31.24835938 70.29742187 31 71 C29.515 71.495 29.515 71.495 28 72 C27.2863409 74.31939207 26.6252708 76.65523449 26 79 C24.5 81.9375 24.5 81.9375 23 84 C22.34 84 21.68 84 21 84 C20.773125 84.6703125 20.54625 85.340625 20.3125 86.03125 C18.62403409 89.85039909 16.38802552 93.08671881 14 96.5 C13.51088135 97.20342529 13.0217627 97.90685059 12.51782227 98.6315918 C5.56191456 108.56235312 -1.76367339 118.00871907 -10.06640625 126.85546875 C-12.03433563 128.84633687 -12.03433563 128.84633687 -13 131 C-13.66 131 -14.32 131 -15 131 C-15.33 131.99 -15.66 132.98 -16 134 C-20.07561948 132.66961644 -22.11260233 131.11490116 -24.8125 127.8125 C-28.04375006 124.00707697 -31.43288132 120.77908225 -35.24609375 117.5703125 C-37.45135998 115.59588706 -39.16336111 113.31280453 -41 111 C-41.99 110.67 -42.98 110.34 -44 110 C-45.60638586 108.05091849 -46.98174585 105.99748809 -48.40234375 103.91015625 C-50.13277927 101.84124923 -51.59869433 101.14062019 -54 100 C-55.0625 97.6875 -55.0625 97.6875 -55 95 C-53.125 92.8125 -53.125 92.8125 -51.734375 91.58203125 C-49.46638219 89.51325403 -47.43669714 87.27393067 -45.375 85 C-44.61960937 84.175 -43.86421875 83.35 -43.0859375 82.5 C-40.92631023 80.05098363 -40.92631023 80.05098363 -39.3515625 77.1875 C-38.90554688 76.465625 -38.45953125 75.74375 -38 75 C-37.34 75 -36.68 75 -36 75 C-35.72542969 74.26007813 -35.45085937 73.52015625 -35.16796875 72.7578125 C-34.08213718 70.19394265 -32.89409067 68.15422381 -31.3125 65.875 C-28.22227401 61.37253314 -25.35596338 56.75337231 -22.515625 52.08984375 C-22.01546875 51.40019531 -21.5153125 50.71054687 -21 50 C-20.34 50 -19.68 50 -19 50 C-18.76216797 49.07380859 -18.76216797 49.07380859 -18.51953125 48.12890625 C-17.03145381 42.72743179 -15.18552069 38.0946896 -12.28125 33.30078125 C-8.79246678 27.03586261 -6.52872599 20.15056234 -4.07421875 13.43359375 C-2.10458519 8.10458519 -2.10458519 8.10458519 -1 7 C-0.63239269 4.67182036 -0.29758419 2.3381615 0 0 Z " fill="#FAFAFA" transform="translate(527,372)"/>
<path d="M0 0 C0 0.99 0 1.98 0 3 C0.66 3 1.32 3 2 3 C2.34611328 4.19882812 2.34611328 4.19882812 2.69921875 5.421875 C5.87412621 16.11365822 9.98367168 26.06236736 15 36 C15.6443638 37.29761427 16.28761023 38.59578405 16.9296875 39.89453125 C23.87573818 55.04504892 23.87573818 55.04504892 34 68 C35.0229484 69.44232891 36.01970288 70.90335002 37 72.375 C40.76528825 77.93089199 45.13792053 82.86375943 49.64453125 87.82177734 C50.19238281 88.4348877 50.74023438 89.04799805 51.3046875 89.6796875 C52.0469458 90.49542236 52.0469458 90.49542236 52.80419922 91.32763672 C54.14294616 93.1999145 54.58427986 94.75241732 55 97 C53.7315625 97.99 53.7315625 97.99 52.4375 99 C49.14025537 101.73733516 46.43069866 104.83473402 43.65625 108.08984375 C41.5542962 110.51403104 39.26826412 112.73173588 37 115 C36.07928884 116.12169236 35.16293151 117.24696682 34.25 118.375 C31.25511529 121.94552489 27.81509312 124.60013123 24.05078125 127.32421875 C21.95702508 129.03511665 20.52467742 130.77832719 19 133 C15.44503561 132.43584261 14.02611297 131.30819938 11.75 128.5625 C11.14542969 127.83933594 10.54085937 127.11617188 9.91796875 126.37109375 C9.28503906 125.58863281 8.65210938 124.80617188 8 124 C7.03513672 122.81083984 7.03513672 122.81083984 6.05078125 121.59765625 C4.70844274 119.92830404 3.37264488 118.25367428 2.04296875 116.57421875 C0.68200595 114.85935358 -0.69043477 113.15353477 -2.07421875 111.45703125 C-5.79119358 106.89046218 -9.24407639 102.28227298 -12.4375 97.3359375 C-14.19577704 94.70731332 -16.0922455 92.20949364 -18 89.6875 C-21.40217834 85.04581836 -24.01693457 80.32846434 -26.48046875 75.13671875 C-28.69731449 70.56055646 -31.19575261 66.15044177 -33.6796875 61.71484375 C-35 59 -35 59 -35 56 C-36.485 55.505 -36.485 55.505 -38 55 C-39.28125 52.12109375 -39.28125 52.12109375 -40.5 48.4375 C-40.93578852 47.14829904 -41.37198357 45.85923542 -41.80859375 44.5703125 C-42.20175781 43.39210938 -42.59492187 42.21390625 -43 41 C-43.51122205 39.60061797 -44.02982545 38.20385757 -44.5625 36.8125 C-44.789375 36.20792969 -45.01625 35.60335937 -45.25 34.98046875 C-45.82600877 33.45944558 -46.41105909 31.94184398 -47 30.42578125 C-49.30714427 24.3440811 -50.9417959 18.41884332 -52 12 C-51.21238281 11.82984375 -50.42476562 11.6596875 -49.61328125 11.484375 C-43.86447162 10.2053499 -38.23096398 8.81062191 -32.625 7 C-26.60791906 5.08447727 -20.61180214 3.83850948 -14.41015625 2.7109375 C-1.09705067 -0.06453239 -1.09705067 -0.06453239 0 0 Z " fill="#FAFAFA" transform="translate(81,373)"/>
<path d="M0 0 C1.40091888 0.00223572 1.40091888 0.00223572 2.83013916 0.0045166 C17.30362374 0.04588088 31.41973489 0.71430904 45.6875 3.3125 C46.68040039 3.48894043 47.67330078 3.66538086 48.69628906 3.84716797 C54.70970961 4.92662158 60.70275483 6.08438042 66.6875 7.3125 C66.6875 7.9725 66.6875 8.6325 66.6875 9.3125 C67.6775 9.3125 68.6675 9.3125 69.6875 9.3125 C68.28720025 18.60390071 66.3336333 27.63068507 63.71875 36.65625 C62.4145777 41.28013362 61.29255951 45.94031467 60.1875 50.61523438 C59.34595084 54.07018814 58.47573011 57.22301316 56.6875 60.3125 C55.69234375 60.11914062 54.6971875 59.92578125 53.671875 59.7265625 C22.22877918 53.7776619 -10.31272547 53.19343316 -41.96118164 58.03710938 C-44.43216472 58.32651535 -46.82691686 58.3588924 -49.3125 58.3125 C-49.3125 58.9725 -49.3125 59.6325 -49.3125 60.3125 C-51.2925 60.3125 -53.2725 60.3125 -55.3125 60.3125 C-58.34586847 49.93487696 -61.3587246 39.59877047 -63.66015625 29.03125 C-64.27592375 26.46493754 -65.0489103 24.0454492 -65.9375 21.5625 C-67.49668915 17.16248455 -67.94381438 12.95793886 -68.3125 8.3125 C-63.35536536 6.53015945 -58.39872546 5.36275794 -53.25 4.3125 C-52.49912109 4.1475 -51.74824219 3.9825 -50.97460938 3.8125 C-34.22897567 0.39120532 -17.03338165 -0.06799143 0 0 Z " fill="#FAFAFA" transform="translate(303.3125,20.6875)"/>
<path d="M0 0 C7.85324054 4.56915813 11.92020554 11.38748359 14.2421875 19.9765625 C17.3123433 32.46186275 17.67637314 44.7055817 17.6875 57.5 C17.68850708 58.3020285 17.68951416 59.10405701 17.69055176 59.9303894 C17.67475809 78.503979 17.25211028 98.44109774 4.5 113.25 C0.20888873 116.89094289 -3.8863874 117.41028288 -9.36328125 117.23828125 C-15.50036086 116.57334012 -19.18130484 112.91806304 -22.95703125 108.3671875 C-32.36569901 94.49455328 -31.7495136 75.03178086 -31.74780273 58.9855957 C-31.74998633 56.70179504 -31.76820322 54.41848123 -31.78710938 52.13476562 C-31.85017111 35.64311837 -30.9982261 17.56140251 -20.5625 4 C-14.56785082 -1.47337534 -7.56431958 -2.12331778 0 0 Z " fill="#FCFCFC" transform="translate(310.5625,248)"/>
<path d="M0 0 C6.54259354 3.80659988 11.34515208 9.66353957 13.4375 17 C16.88144149 30.54171168 17.64695459 43.70985767 17.625 57.625 C17.62409363 58.6851532 17.62409363 58.6851532 17.62316895 59.76672363 C17.57907451 78.76282188 17.28095402 98.12339835 4.4375 113.375 C0.12369004 116.8799706 -3.94289075 117.40850839 -9.36328125 117.23828125 C-15.50021344 116.57335609 -19.17765993 112.91801951 -22.95703125 108.37109375 C-32.52369754 94.24222164 -31.77365557 74.56530787 -31.75 58.3125 C-31.74959213 57.25659164 -31.74959213 57.25659164 -31.74917603 56.17935181 C-31.68219777 18.45023527 -31.68219777 18.45023527 -20.5625 4 C-14.56785082 -1.47337534 -7.56431958 -2.12331778 0 0 Z " fill="#FCFCFC" transform="translate(415.5625,248)"/>
<path d="M0 0 C1.7505217 0.03219887 1.7505217 0.03219887 3.53640747 0.06504822 C4.4239975 0.09264725 5.31158752 0.12024628 6.22607422 0.14868164 C6.22846257 0.75736682 6.23085093 1.366052 6.23331165 1.99318218 C6.2924625 16.80777976 6.36801309 31.62222561 6.46178913 46.43664074 C6.50674374 53.60081193 6.54615911 60.76493345 6.57250977 67.92919922 C6.59549264 74.1739993 6.62889373 80.41864214 6.67477578 86.6633175 C6.69870443 89.96948581 6.71588152 93.27546513 6.72368813 96.58171654 C6.73328983 100.27378966 6.76130343 103.965293 6.79370117 107.65722656 C6.79226608 108.75198807 6.79083099 109.84674957 6.78935242 110.97468567 C6.7995197 118.07671037 6.7995197 118.07671037 10.22607422 124.14868164 C13.78742048 126.86129585 18.16668079 126.59095118 22.47607422 126.77368164 C23.22115234 126.81235352 23.96623047 126.85102539 24.73388672 126.89086914 C26.56422662 126.98473273 28.39511565 127.06777882 30.22607422 127.14868164 C30.22607422 129.78868164 30.22607422 132.42868164 30.22607422 135.14868164 C6.79607422 135.14868164 -16.63392578 135.14868164 -40.77392578 135.14868164 C-40.77392578 132.50868164 -40.77392578 129.86868164 -40.77392578 127.14868164 C-39.47197266 127.11129883 -38.17001953 127.07391602 -36.82861328 127.03540039 C-35.10202321 126.9697149 -33.37546197 126.90326846 -31.64892578 126.83618164 C-30.79298828 126.81362305 -29.93705078 126.79106445 -29.05517578 126.76782227 C-23.9729231 126.55280388 -20.10231359 126.09495185 -15.77392578 123.14868164 C-13.98592939 120.27926919 -13.52523539 118.11174143 -13.53341675 114.75738525 C-13.53066742 113.88522873 -13.52791809 113.0130722 -13.52508545 112.11448669 C-13.532276 111.16574173 -13.53946655 110.21699677 -13.546875 109.23950195 C-13.54658295 108.23430008 -13.54629089 107.22909821 -13.54598999 106.19343567 C-13.54738325 102.87113816 -13.56294445 99.54906497 -13.57861328 96.22680664 C-13.58234342 93.92323937 -13.58519039 91.6196705 -13.58718872 89.31610107 C-13.59482508 83.25306824 -13.61447369 77.19013121 -13.63659668 71.12713623 C-13.65705499 64.9403208 -13.66619041 58.75348989 -13.67626953 52.56665039 C-13.69771949 40.42728538 -13.73185556 28.28799148 -13.77392578 16.14868164 C-14.67232178 17.27669189 -14.67232178 17.27669189 -15.58886719 18.42749023 C-16.38470215 19.41571777 -17.18053711 20.40394531 -18.00048828 21.42211914 C-18.78504395 22.40100098 -19.56959961 23.37988281 -20.37792969 24.38842773 C-25.29312995 30.05087467 -30.10719372 33.85767116 -37.71142578 34.46118164 C-40.72203839 34.41137371 -41.61875633 34.25212794 -44.21142578 32.52368164 C-46.05831783 29.71640572 -46.30905073 27.44342715 -46.77392578 24.14868164 C-45.96310547 23.86895508 -45.15228516 23.58922852 -44.31689453 23.30102539 C-34.77401095 19.84603494 -26.7985254 15.52438707 -18.98876953 9.03149414 C-18.31305908 8.48501221 -17.63734863 7.93853027 -16.94116211 7.37548828 C-15.61955068 6.29845002 -14.31912857 5.19464337 -13.04614258 4.06054688 C-8.69257627 0.52830203 -5.6279457 -0.13439804 0 0 Z " fill="#020202" transform="translate(204.77392578125,237.851318359375)"/>
<path d="M0 0 C1.00774979 0.09441376 1.00774979 0.09441376 2.03585815 0.19073486 C13.00075337 1.25075337 13.00075337 1.25075337 15.375 3.625 C10.68210962 3.80549578 6.4983469 3.52396818 1.88354492 2.63378906 C-4.61782509 1.51801298 -10.92723129 1.33542198 -17.51171875 1.359375 C-19.28540581 1.35650482 -19.28540581 1.35650482 -21.09492493 1.35357666 C-23.57476008 1.35222529 -26.05460257 1.3558478 -28.53442383 1.36425781 C-32.31282494 1.37500092 -36.09075378 1.36431158 -39.86914062 1.3515625 C-42.29166771 1.35288372 -44.7141945 1.35544534 -47.13671875 1.359375 C-48.25568039 1.35532654 -49.37464203 1.35127808 -50.5275116 1.34710693 C-56.17233971 1.38062472 -61.28427474 1.78731738 -66.75883484 3.17578125 C-69.01484427 3.71884237 -71.12449689 3.85463708 -73.44140625 3.8203125 C-74.61606445 3.81064453 -74.61606445 3.81064453 -75.81445312 3.80078125 C-76.59755859 3.78402344 -77.38066406 3.76726563 -78.1875 3.75 C-79.00541016 3.74097656 -79.82332031 3.73195313 -80.66601562 3.72265625 C-82.6524746 3.69942281 -84.63877957 3.66356739 -86.625 3.625 C-67.54500794 -9.09499471 -21.96573923 -2.09797743 0 0 Z " fill="#999999" transform="translate(339.625,6.375)"/>
<path d="M0 0 C0.66 0.33 1.32 0.66 2 1 C0.71520959 2.50589388 -0.57804082 4.00457375 -1.875 5.5 C-2.59429687 6.3353125 -3.31359375 7.170625 -4.0546875 8.03125 C-4.69664063 8.6809375 -5.33859375 9.330625 -6 10 C-6.66 10 -7.32 10 -8 10 C-8.33 10.99 -8.66 11.98 -9 13 C-14.27066382 18.73572239 -19.82204258 23.84870162 -27 27 C-24.64974019 21.23118045 -19.72868809 17.78295047 -15 14 C-14.278125 13.278125 -13.55625 12.55625 -12.8125 11.8125 C-8.70010665 7.70010665 -4.34070665 3.86870748 0 0 Z " fill="#676767" transform="translate(112,73)"/>
<path d="M0 0 C-17.18093718 7.68620874 -38.15976888 14.20168512 -57 15 C-54.15172508 12.15172508 -50.89515943 12.11349518 -47.0625 11.5 C-41.24418842 10.6094693 -41.24418842 10.6094693 -36 8 C-34.1988638 7.64484638 -32.38296467 7.36192634 -30.5625 7.125 C-23.14849591 5.98782788 -16.37831174 3.58859099 -9.3515625 1.0390625 C-8.55492187 0.75804687 -7.75828125 0.47703125 -6.9375 0.1875 C-6.24527344 -0.06644531 -5.55304688 -0.32039062 -4.83984375 -0.58203125 C-3 -1 -3 -1 0 0 Z " fill="#9E9E9E" transform="translate(413,590)"/>
<path d="M0 0 C0.66 0.33 1.32 0.66 2 1 C0.25113898 2.91771657 -1.49904501 4.83419683 -3.25 6.75 C-3.74113281 7.28882813 -4.23226562 7.82765625 -4.73828125 8.3828125 C-6.87726296 10.7214325 -9.00828433 13.0079462 -11.296875 15.203125 C-13.23208142 16.99107099 -13.23208142 16.99107099 -14 20 C-16.06640625 21.82421875 -16.06640625 21.82421875 -18.5625 23.6875 C-19.38878906 24.31011719 -20.21507812 24.93273437 -21.06640625 25.57421875 C-22.02353516 26.27998047 -22.02353516 26.27998047 -23 27 C-23 22.92339465 -20.91915595 21.35734279 -18.25 18.5625 C-17.76426514 18.04333008 -17.27853027 17.52416016 -16.77807617 16.98925781 C-11.31900855 11.19525138 -5.67280017 5.5836986 0 0 Z " fill="#393939" transform="translate(178,161)"/>
<path d="M0 0 C0.66 0 1.32 0 2 0 C2.66 2.31 3.32 4.62 4 7 C4.66 7 5.32 7 6 7 C6.26554687 7.71027344 6.53109375 8.42054688 6.8046875 9.15234375 C7.15789063 10.07144531 7.51109375 10.99054688 7.875 11.9375 C8.39707031 13.31228516 8.39707031 13.31228516 8.9296875 14.71484375 C9.7819086 17.14941056 9.7819086 17.14941056 12 18 C12.84065632 19.96299854 13.46517348 21.96070871 14.12109375 23.9921875 C15.09955606 26.22743029 16.26183487 27.31463989 18 29 C19.203125 30.97265625 19.203125 30.97265625 20.25 33.0625 C20.60578125 33.75472656 20.9615625 34.44695312 21.328125 35.16015625 C21.54984375 35.76730469 21.7715625 36.37445313 22 37 C21.67 37.66 21.34 38.32 21 39 C17.5554352 35.15798542 15.25661574 30.97374509 12.85546875 26.44921875 C11.41054955 23.76319001 9.93438992 21.10711174 8.42578125 18.45703125 C7.74926514 17.26243286 7.74926514 17.26243286 7.05908203 16.04370117 C6.15748543 14.45379061 5.25104387 12.86661598 4.33935547 11.2824707 C2.23364589 7.54851368 0.45852392 4.34300012 0 0 Z " fill="#898989" transform="translate(31,436)"/>
<path d="M0 0 C0 3.2361872 -0.16778239 5.86317977 -1 9 C-1.804375 9.639375 -2.60875 10.27875 -3.4375 10.9375 C-6.79519966 13.64003875 -6.83703219 15.89540772 -8 20 C-9.76768415 22.85934178 -11.67439583 25.56696303 -14 28 C-14.66 28 -15.32 28 -16 28 C-14.74056892 23.42025061 -12.80370696 19.85440873 -10.21875 15.9296875 C-9.00362111 14.00573342 -7.98409098 12.05018954 -7 10 C-6.34 10 -5.68 10 -5 10 C-4.9175 9.46375 -4.835 8.9275 -4.75 8.375 C-3.73623902 5.1647569 -1.92839451 2.73707608 0 0 Z " fill="#8D8D8D" transform="translate(52,140)"/>
<path d="M0 0 C1.51249502 3.92457858 0.47327235 7.28270471 -0.5625 11.1875 C-0.74087402 11.87859863 -0.91924805 12.56969727 -1.10302734 13.28173828 C-2.55507716 18.72234545 -4.27227653 24.05861315 -6.125 29.375 C-6.37838135 30.10614014 -6.6317627 30.83728027 -6.89282227 31.59057617 C-8.74704752 36.74704752 -8.74704752 36.74704752 -11 39 C-11.45194568 34.17924607 -9.7628199 30.37717144 -8 26 C-5.38724457 19.26074988 -3.27110809 12.57006785 -1.61328125 5.53125 C-1 3 -1 3 0 0 Z " fill="#A0A0A0" transform="translate(597,377)"/>
<path d="M0 0 C1.64239465 1.40287877 3.28400996 2.80667929 4.921875 4.21484375 C6.32443455 5.41967404 7.73078647 6.62010166 9.140625 7.81640625 C10.18476562 8.71166016 10.18476562 8.71166016 11.25 9.625 C11.89453125 10.17414063 12.5390625 10.72328125 13.203125 11.2890625 C15.0750586 13.07146884 16.5746853 14.84443148 18 17 C18 17.66 18 18.32 18 19 C18.66 19 19.32 19 20 19 C23 22.46153846 23 22.46153846 23 25 C21.35 25.33 19.7 25.66 18 26 C18.33 24.35 18.66 22.7 19 21 C18.34 21 17.68 21 17 21 C16.41798828 19.98486328 16.41798828 19.98486328 15.82421875 18.94921875 C13.36317621 14.97044548 10.17311691 12.03828775 6.8125 8.8125 C5.52284898 7.57367266 4.23744617 6.33040242 2.95703125 5.08203125 C2.38960205 4.53780518 1.82217285 3.9935791 1.23754883 3.43286133 C0 2 0 2 0 0 Z " fill="#909090" transform="translate(513,89)"/>
<path d="M0 0 C0 0.99 0 1.98 0 3 C-1 4 -2 5 -3 6 C-3 6.99 -3 7.98 -3 9 C-3.66 9 -4.32 9 -5 9 C-5.061875 9.556875 -5.12375 10.11375 -5.1875 10.6875 C-6.35165517 14.00086472 -8.39458444 15.70475296 -11 18 C-11.99 18.33 -12.98 18.66 -14 19 C-14.69937532 20.31647119 -15.36729133 21.65022151 -16 23 C-16.66 23.33 -17.32 23.66 -18 24 C-13.8 14.9 -13.8 14.9 -10 13 C-9.608125 12.319375 -9.21625 11.63875 -8.8125 10.9375 C-6.31714134 6.89329804 -3.18284895 3.51421404 0 0 Z " fill="#BEBEBE" transform="translate(145,164)"/>
<path d="M0 0 C6.61906418 0.57489525 12.47345796 2.23868049 18.75 4.375 C19.68199219 4.67921875 20.61398437 4.9834375 21.57421875 5.296875 C22.47269531 5.59851563 23.37117188 5.90015625 24.296875 6.2109375 C25.10479492 6.48212402 25.91271484 6.75331055 26.74511719 7.03271484 C29.15000916 8.06434997 30.97631647 9.35336798 33 11 C24.37609995 9.19176289 16.05154031 6.87102166 7.828125 3.6953125 C5.24612082 2.71326817 2.62673614 1.85368925 0 1 C0 0.67 0 0.34 0 0 Z " fill="#959595" transform="translate(383,16)"/>
<path d="M0 0 C0 4.31618166 -2.13270348 5.92789659 -5 9 C-5.66 9 -6.32 9 -7 9 C-7.268125 9.639375 -7.53625 10.27875 -7.8125 10.9375 C-9 13 -9 13 -12 14 C-13.10836423 15.88316159 -13.10836423 15.88316159 -14 18 C-14.66 18.99 -15.32 19.98 -16 21 C-16.66 21 -17.32 21 -18 21 C-17.43379699 17.22531329 -15.87731019 15.52448107 -13.18359375 12.890625 C-12.41982422 12.13652344 -11.65605469 11.38242188 -10.86914062 10.60546875 C-10.06669922 9.82816406 -9.26425781 9.05085937 -8.4375 8.25 C-7.63119141 7.45722656 -6.82488281 6.66445312 -5.99414062 5.84765625 C-4.00266222 3.89152954 -2.00452279 1.94274281 0 0 Z " fill="#C1C1C1" transform="translate(490,127)"/>
<path d="M0 0 C1 3 1 3 0 6 C-1.7421875 7.71875 -1.7421875 7.71875 -3.875 9.5 C-6.84092516 11.98541108 -6.84092516 11.98541108 -9.5703125 14.71875 C-11 16 -11 16 -14 16 C-14 15.34 -14 14.68 -14 14 C-12.4609375 12.51953125 -12.4609375 12.51953125 -10.375 10.8125 C-6.45744091 7.49442504 -3.24358767 3.9733949 0 0 Z " fill="#C8C8C8" transform="translate(448,434)"/>
<path d="M0 0 C8.93563368 0.9423435 17.49160169 1.93206792 26 5 C26 5.33 26 5.66 26 6 C21.07735363 6.19690585 17.62246089 5.56989238 13 4 C9.84304876 3.46700823 6.68335182 2.99942854 3.51171875 2.5625 C2.68285156 2.376875 1.85398437 2.19125 1 2 C0.67 1.34 0.34 0.68 0 0 Z " fill="#969696" transform="translate(357,10)"/>
<path d="M0 0 C1 2 1 2 0.25 4.4375 C-0.94975416 6.89699603 -1.83441915 8.35415855 -4 10 C-4.99 10 -5.98 10 -7 10 C-7.28875 10.639375 -7.5775 11.27875 -7.875 11.9375 C-9 14 -9 14 -11 15 C-9.3718356 11.24269753 -6.98598083 8.383177 -4.375 5.25 C-3.55773437 4.26515625 -2.74046875 3.2803125 -1.8984375 2.265625 C-1.27195312 1.51796875 -0.64546875 0.7703125 0 0 Z " fill="#6F6F6F" transform="translate(74,111)"/>
<path d="M0 0 C3.93053185 0.56549393 6.53407537 1.71382558 9.8125 3.9375 C10.60269531 4.46214844 11.39289063 4.98679687 12.20703125 5.52734375 C12.79871094 6.01332031 13.39039063 6.49929688 14 7 C14 7.66 14 8.32 14 9 C8.40440609 7.60110152 4.29704147 4.74082545 0 1 C0 0.67 0 0.34 0 0 Z " fill="#878787" transform="translate(136,558)"/>
<path d="M0 0 C-0.8125 2.4375 -0.8125 2.4375 -2 5 C-2.99 5.33 -3.98 5.66 -5 6 C-5.33 6.66 -5.66 7.32 -6 8 C-8.97 7.505 -8.97 7.505 -12 7 C-3.55172414 0 -3.55172414 0 0 0 Z " fill="#404040" transform="translate(424,485)"/>
<path d="M0 0 C4.78689898 4.54755403 8.74817193 9.74185205 11 16 C10.67 16.66 10.34 17.32 10 18 C6.12358085 13.67630171 0 6.04191557 0 0 Z " fill="#A0A0A0" transform="translate(42,457)"/>
<path d="M0 0 C3.33931066 2.62642411 3.8555057 5.44739317 4.75 9.5 C5.01296875 10.6446875 5.2759375 11.789375 5.546875 12.96875 C6 16 6 16 5 19 C4.15919981 16.58570231 3.32718598 14.16896007 2.5 11.75 C2.14228516 10.72712891 2.14228516 10.72712891 1.77734375 9.68359375 C0.60578713 6.23586997 0 3.68297096 0 0 Z " fill="#9A9A9A" transform="translate(13,387)"/>
<path d="M0 0 C1.45279835 3.83094597 0.5027187 6.34200346 -0.8125 10.125 C-1.16957031 11.17945313 -1.52664063 12.23390625 -1.89453125 13.3203125 C-3 16 -3 16 -5 18 C-5.4573799 13.12128104 -3.82410816 9.41345194 -2 5 C-1.4121875 3.515 -1.4121875 3.515 -0.8125 2 C-0.544375 1.34 -0.27625 0.68 0 0 Z " fill="#8F8F8F" transform="translate(591,398)"/>
<path d="M0 0 C4.91778295 5.38614323 6.2514812 12.96392328 7 20 C3.05827786 14.08741678 0 7.1496555 0 0 Z " fill="#A1A1A1" transform="translate(584,193)"/>
<path d="M0 0 C0.66 0.33 1.32 0.66 2 1 C-1.2107438 7.88016529 -1.2107438 7.88016529 -4 10 C-6.1875 10.6875 -6.1875 10.6875 -8 11 C-6.63629701 8.00779732 -5.05091917 5.70973471 -2.875 3.25 C-2.33617188 2.63640625 -1.79734375 2.0228125 -1.2421875 1.390625 C-0.62730469 0.70226562 -0.62730469 0.70226562 0 0 Z " fill="#7D7D7D" transform="translate(83,100)"/>
<path d="M0 0 C0.66 0.33 1.32 0.66 2 1 C-0.64 3.97 -3.28 6.94 -6 10 C-7.32 9.67 -8.64 9.34 -10 9 C-6.7 6.03 -3.4 3.06 0 0 Z " fill="#858585" transform="translate(112,73)"/>
<path d="M0 0 C1.32 0 2.64 0 4 0 C4.10832169 2.08218362 4.18573541 4.16599129 4.25 6.25 C4.29640625 7.41015625 4.3428125 8.5703125 4.390625 9.765625 C3.93035506 13.57666013 2.94851556 14.65511755 0 17 C0.59015185 11.49191603 1.56663769 6.35121931 3 1 C2.01 0.67 1.02 0.34 0 0 Z " fill="#626262" transform="translate(370,29)"/>
<path d="M0 0 C-0.69867188 0.19335938 -1.39734375 0.38671875 -2.1171875 0.5859375 C-3.48230469 0.97652344 -3.48230469 0.97652344 -4.875 1.375 C-5.77992188 1.63023438 -6.68484375 1.88546875 -7.6171875 2.1484375 C-10.14569726 2.8604315 -10.14569726 2.8604315 -12 5 C-12 4.34 -12 3.68 -12 3 C-13.65 3 -15.3 3 -17 3 C-14.52776237 0.52776237 -13.03193317 0.41990229 -9.625 -0.1875 C-8.66851562 -0.36667969 -7.71203125 -0.54585937 -6.7265625 -0.73046875 C-4.12689671 -0.98745577 -2.45299695 -0.81960325 0 0 Z " fill="#BABABA" transform="translate(252,27)"/>
<path d="M0 0 C1 2 1 2 0.22265625 4.6015625 C-0.16019531 5.59929687 -0.54304688 6.59703125 -0.9375 7.625 C-1.31777344 8.62789063 -1.69804687 9.63078125 -2.08984375 10.6640625 C-2.39019531 11.43492187 -2.69054687 12.20578125 -3 13 C-3.99 13 -4.98 13 -6 13 C-6 13.99 -6 14.98 -6 16 C-6.66 16 -7.32 16 -8 16 C-6.57250019 12.20950293 -4.83763458 8.72877544 -2.875 5.1875 C-2.33617187 4.21167969 -1.79734375 3.23585938 -1.2421875 2.23046875 C-0.83226562 1.49441406 -0.42234375 0.75835937 0 0 Z " fill="#A7A7A7" transform="translate(474,396)"/>
<path d="M0 0 C-1.423125 0.680625 -1.423125 0.680625 -2.875 1.375 C-6.00313679 2.80238254 -6.00313679 2.80238254 -8 5 C-9.98 4.34 -11.96 3.68 -14 3 C-11.87033995 0.87033995 -10.95931796 0.52375338 -8.125 -0.1875 C-7.44695312 -0.36667969 -6.76890625 -0.54585937 -6.0703125 -0.73046875 C-3.77181444 -1.02970718 -2.19449036 -0.69377386 0 0 Z " fill="#494949" transform="translate(367,513)"/>
<path d="M0 0 C0.66 0.99 1.32 1.98 2 3 C1.04882866 4.1725131 0.08882991 5.33787015 -0.875 6.5 C-1.40867187 7.1496875 -1.94234375 7.799375 -2.4921875 8.46875 C-2.98976562 8.9740625 -3.48734375 9.479375 -4 10 C-4.66 10 -5.32 10 -6 10 C-4.79157144 5.56909529 -3.48331435 3.01887244 0 0 Z " fill="#6F6F6F" transform="translate(42,158)"/>
<path d="M0 0 C0.33 0.66 0.66 1.32 1 2 C-1.01577062 6.50584021 -3.83128248 8.49876949 -8 11 C-6.63629701 8.00779732 -5.05091917 5.70973471 -2.875 3.25 C-2.33617187 2.63640625 -1.79734375 2.0228125 -1.2421875 1.390625 C-0.62730469 0.70226562 -0.62730469 0.70226562 0 0 Z " fill="#B4B4B4" transform="translate(179,198)"/>
<path d="M0 0 C0 3.66184524 -0.919642 5.02806 -3 8 C-5.1875 9.8125 -5.1875 9.8125 -7 11 C-7.66 10.67 -8.32 10.34 -9 10 C-6.03 6.7 -3.06 3.4 0 0 Z " fill="#3F3F3F" transform="translate(525,489)"/>
<path d="M0 0 C0.66 0.33 1.32 0.66 2 1 C-2.53974734 4.69905338 -7.48486876 6.20437588 -13 8 C-11.48339626 4.96679252 -9.05369111 4.30987391 -6.0625 2.8125 C-4.98097656 2.26207031 -3.89945313 1.71164063 -2.78515625 1.14453125 C-1.86605469 0.76683594 -0.94695312 0.38914063 0 0 Z " fill="#A3A3A3" transform="translate(166,38)"/>
<path d="M0 0 C0.33 0.66 0.66 1.32 1 2 C0.04956626 3.33897583 -0.91059147 4.67105427 -1.875 6 C-2.40867187 6.7425 -2.94234375 7.485 -3.4921875 8.25 C-3.98976563 8.8275 -4.48734375 9.405 -5 10 C-5.66 10 -6.32 10 -7 10 C-7 10.66 -7 11.32 -7 12 C-7.66 11.67 -8.32 11.34 -9 11 C-6.03 7.37 -3.06 3.74 0 0 Z " fill="#C1C1C1" transform="translate(87,120)"/>
<path d="M0 0 C0.33 0.99 0.66 1.98 1 3 C-1.64 5.31 -4.28 7.62 -7 10 C-7.66 9.67 -8.32 9.34 -9 9 C-6.03 6.03 -3.06 3.06 0 0 Z " fill="#BCBCBC" transform="translate(500,117)"/>
<path d="M0 0 C0.625 1.8125 0.625 1.8125 1 4 C0.01 5.485 0.01 5.485 -1 7 C-1.66 7 -2.32 7 -3 7 C-3.33 8.98 -3.66 10.96 -4 13 C-4.66 13 -5.32 13 -6 13 C-4.75696561 7.82069003 -3.14512215 4.29833361 0 0 Z " fill="#525252" transform="translate(102,191)"/>
<path d="M0 0 C0.33 1.65 0.66 3.3 1 5 C-0.48199902 4.55090939 -1.96055236 4.09043436 -3.4375 3.625 C-4.26121094 3.36976563 -5.08492188 3.11453125 -5.93359375 2.8515625 C-8 2 -8 2 -9 0 C-5.52176885 -1.15941038 -3.54104422 -0.70820884 0 0 Z " fill="#C8C8C8" transform="translate(395,133)"/>
<path d="M0 0 C3.21524305 1.40844718 5.32183868 3.10344786 7.75 5.625 C8.67039062 6.57246094 8.67039062 6.57246094 9.609375 7.5390625 C10.29773438 8.26222656 10.29773438 8.26222656 11 9 C7.34140712 9 6.05403361 7.72246476 3.36328125 5.37890625 C1.75098025 3.74812615 0.79568834 2.14835851 0 0 Z " fill="#ADADAD" transform="translate(96,526)"/>
<path d="M0 0 C0 0.66 0 1.32 0 2 C-0.99 2 -1.98 2 -3 2 C-3.20625 2.639375 -3.4125 3.27875 -3.625 3.9375 C-5 6 -5 6 -8.125 6.75 C-9.548125 6.87375 -9.548125 6.87375 -11 7 C-8.21677024 3.90752249 -4.31039412 0 0 0 Z " fill="#ACACAC" transform="translate(196,123)"/>
<path d="M0 0 C3.3 0 6.6 0 10 0 C7.87033995 2.12966005 6.95931796 2.47624662 4.125 3.1875 C3.44695312 3.36667969 2.76890625 3.54585938 2.0703125 3.73046875 C-0.22818556 4.02970718 -1.80550964 3.69377386 -4 3 C-3.01 3 -2.02 3 -1 3 C-0.67 2.01 -0.34 1.02 0 0 Z " fill="#545454" transform="translate(351,491)"/>
<path d="M0 0 C0.33 0.66 0.66 1.32 1 2 C0.21654285 3.17219543 -0.57702836 4.33763668 -1.375 5.5 C-1.81585938 6.1496875 -2.25671875 6.799375 -2.7109375 7.46875 C-3.13632812 7.9740625 -3.56171875 8.479375 -4 9 C-4.66 9 -5.32 9 -6 9 C-5.52797514 4.75177626 -3.03344482 2.80010291 0 0 Z " fill="#B5B5B5" transform="translate(478,139)"/>
<path d="M0 0 C2.96404505 2.80804268 5.44499019 5.18315774 7 9 C5.35 8.67 3.7 8.34 2 8 C1.855625 7.236875 1.71125 6.47375 1.5625 5.6875 C1.0367406 2.91827092 1.0367406 2.91827092 0 0 Z " fill="#888888" transform="translate(541,120)"/>
<path d="M0 0 C0.66 0 1.32 0 2 0 C2 0.66 2 1.32 2 2 C3.32 1.67 4.64 1.34 6 1 C6 1.99 6 2.98 6 4 C7.32 4.33 8.64 4.66 10 5 C7 6 7 6 3.875 4.75 C1 3 1 3 0 0 Z " fill="#C3C3C3" transform="translate(185,484)"/>
<path d="M0 0 C0.33 0.66 0.66 1.32 1 2 C-0.89732848 6.11087838 -3.0054207 7.94872955 -7 10 C-5.33248852 6.05860922 -2.77289351 3.2107188 0 0 Z " fill="#B1B1B1" transform="translate(482,456)"/>
<path d="M0 0 C1 2 1 2 0.29296875 4.12890625 C-0.07183594 4.93199219 -0.43664063 5.73507813 -0.8125 6.5625 C-1.16957031 7.36816406 -1.52664062 8.17382812 -1.89453125 9.00390625 C-3 11 -3 11 -5 12 C-4.54738642 10.56068883 -4.08767021 9.12361001 -3.625 7.6875 C-3.24214844 6.48673828 -3.24214844 6.48673828 -2.8515625 5.26171875 C-2 3 -2 3 0 0 Z " fill="#A2A2A2" transform="translate(35,169)"/>
<path d="M0 0 C1 3 1 3 1 5 C-0.98 5.99 -2.96 6.98 -5 8 C-3.8141763 4.62496331 -2.72426311 2.35277269 0 0 Z " fill="#C5C5C5" transform="translate(73,138)"/>
<path d="M0 0 C0.33 0.66 0.66 1.32 1 2 C0.22265625 4.1640625 0.22265625 4.1640625 -0.9375 6.625 C-1.31777344 7.44226563 -1.69804688 8.25953125 -2.08984375 9.1015625 C-2.39019531 9.72804687 -2.69054687 10.35453125 -3 11 C-4.231394 8.53721199 -4.07159196 6.7204945 -4 4 C-3.01 3.67 -2.02 3.34 -1 3 C-0.67 2.01 -0.34 1.02 0 0 Z " fill="#5A5A5A" transform="translate(107,223)"/>
<path d="M0 0 C0.66 0.33 1.32 0.66 2 1 C-0.23943282 4.35914922 -1.26842083 4.81681636 -5 6 C-5.99 6 -6.98 6 -8 6 C-5.38485683 3.87961365 -2.80362384 1.86908256 0 0 Z " fill="#989898" transform="translate(138,54)"/>
<path d="M0 0 C4.7517398 0.43197635 6.92000054 1.32769295 10 5 C2.42857143 3.14285714 2.42857143 3.14285714 0 0 Z " fill="#A6A6A6" transform="translate(168,577)"/>
<path d="M0 0 C0.6875 1.6875 0.6875 1.6875 1 4 C-0.3125 6.75 -0.3125 6.75 -2 9 C-2.66 9 -3.32 9 -4 9 C-2.94124926 5.59687262 -1.99097846 2.98646769 0 0 Z " fill="#BCBCBC" transform="translate(161,223)"/>
<path d="M0 0 C2.79872437 2.52788007 4.45773019 4.20411134 5 8 C2 7 2 7 0 4 C0 2.68 0 1.36 0 0 Z " fill="#7C7C7C" transform="translate(553,136)"/>
<path d="M0 0 C2.375 0.6875 2.375 0.6875 5 2 C6.3125 4.625 6.3125 4.625 7 7 C5.0625 6.1875 5.0625 6.1875 3 5 C2.67 4.01 2.34 3.02 2 2 C1.34 2 0.68 2 0 2 C0 1.34 0 0.68 0 0 Z " fill="#9E9E9E" transform="translate(85,515)"/>
<path d="M0 0 C-0.75 2.4375 -0.75 2.4375 -2 5 C-4.125 5.8125 -4.125 5.8125 -6 6 C-3.84615385 0 -3.84615385 0 0 0 Z " fill="#2F2F2F" transform="translate(424,485)"/>
<path d="M0 0 C1.65 1.65 3.3 3.3 5 5 C3.824375 5.2165625 3.824375 5.2165625 2.625 5.4375 C0.03578982 5.87798925 0.03578982 5.87798925 -2 7 C-1.34 4.69 -0.68 2.38 0 0 Z " fill="#D5D5D5" transform="translate(159,434)"/>
<path d="M0 0 C0.66 0.66 1.32 1.32 2 2 C1.01 4.64 0.02 7.28 -1 10 C-2.31223496 6.06329512 -1.24296256 3.87511856 0 0 Z " fill="#CCCCCC" transform="translate(564,422)"/>
<path d="M0 0 C0.33 0 0.66 0 1 0 C1.29296875 6.0546875 1.29296875 6.0546875 1 8 C0.01 8.66 -0.98 9.32 -2 10 C-1.34 6.7 -0.68 3.4 0 0 Z " fill="#939393" transform="translate(15,217)"/>
<path d="M0 0 C0.66 0.99 1.32 1.98 2 3 C1.0409375 3.6496875 1.0409375 3.6496875 0.0625 4.3125 C-2.26746003 5.91239177 -2.26746003 5.91239177 -3 9 C-3.66 9 -4.32 9 -5 9 C-3.7508258 5.54074837 -2.32472205 2.85306797 0 0 Z " fill="#AFAFAF" transform="translate(170,209)"/>
<path d="" fill="#EEEEEE" transform="translate(0,0)"/>
<path d="" fill="#ECECEC" transform="translate(0,0)"/>
<path d="" fill="#EDEDED" transform="translate(0,0)"/>
<path d="" fill="#EEEEEE" transform="translate(0,0)"/>
<path d="" fill="#EDEDED" transform="translate(0,0)"/>
</svg>
